<svg xmlns="http://www.w3.org/2000/svg" width="255.349" height="247.464" viewBox="0 0 255.349 247.464">
  <g id="_112" data-name="112" transform="translate(-3.325 -7.268)">
    <g id="Grupo_124135" data-name="Grupo 124135" transform="translate(3.325 7.268)">
      <g id="Grupo_124101" data-name="Grupo 124101" transform="translate(0 7.757)">
        <path id="Trazado_119009" data-name="Trazado 119009" d="M133.986,308.272c59.818,0,108.6-43.485,108.6-96.789s-48.782-96.789-108.6-96.789-108.6,43.485-108.6,96.789,48.782,96.789,108.6,96.789Z" transform="translate(-25.385 -114.694)" fill="#92e6ed" fill-rule="evenodd"/>
        <path id="Trazado_119010" data-name="Trazado 119010" d="M419.963,608.608c59.818,0,108.6-43.485,108.6-96.789s-48.782-96.789-108.6-96.789-108.6,43.485-108.6,96.789,48.782,96.789,108.6,96.789Z" transform="translate(-273.899 -375.686)" fill="#92e6ed" fill-rule="evenodd"/>
      </g>
      <g id="Grupo_124102" data-name="Grupo 124102" transform="translate(13.863 112.472)">
        <path id="Trazado_119011" data-name="Trazado 119011" d="M136.432,914.047l1.228,4,4,1.226-4,1.228-1.228,4-1.226-4-4-1.228,4-1.226Z" transform="translate(-131.21 -914.047)" fill="#fff"/>
      </g>
      <g id="Grupo_124103" data-name="Grupo 124103" transform="translate(126.183 24.638)">
        <path id="Trazado_119012" data-name="Trazado 119012" d="M992.489,243.558l.91,2.962,2.962.909-2.962.91-.91,2.962-.909-2.962-2.962-.91,2.962-.909Z" transform="translate(-988.617 -243.558)" fill="#fff"/>
      </g>
      <g id="Grupo_124104" data-name="Grupo 124104" transform="translate(212.989 148.405)">
        <path id="Trazado_119013" data-name="Trazado 119013" d="M1656.479,1188.346l1.228,4,4,1.226-4,1.228-1.228,4-1.226-4-4-1.228,4-1.226Z" transform="translate(-1651.257 -1188.346)" fill="#fff"/>
      </g>
      <g id="Grupo_124105" data-name="Grupo 124105" transform="translate(196.739 90.57)">
        <path id="Trazado_119014" data-name="Trazado 119014" d="M1530.957,746.855l.881,2.867,2.867.88-2.867.881-.881,2.867-.88-2.867-2.867-.881,2.867-.88Z" transform="translate(-1527.21 -746.855)" fill="#fff"/>
      </g>
      <g id="Grupo_124106" data-name="Grupo 124106" transform="translate(22.228 76.833)">
        <path id="Trazado_119015" data-name="Trazado 119015" d="M198.81,641.993l.881,2.867,2.867.88-2.867.881-.881,2.867-.88-2.867-2.867-.881,2.867-.88Z" transform="translate(-195.063 -641.993)" fill="#fff"/>
      </g>
      <g id="Grupo_124107" data-name="Grupo 124107" transform="translate(238.186 128.745)">
        <path id="Trazado_119016" data-name="Trazado 119016" d="M1847.345,1038.27l.881,2.867,2.867.88-2.867.881-.881,2.868-.88-2.868-2.867-.881,2.867-.88Z" transform="translate(-1843.598 -1038.27)" fill="#fff"/>
      </g>
      <g id="Grupo_124108" data-name="Grupo 124108" transform="translate(103.22 14.973)">
        <path id="Trazado_119017" data-name="Trazado 119017" d="M817.071,169.778l.881,2.867,2.867.88-2.867.881-.881,2.867-.88-2.867-2.867-.881,2.867-.88Z" transform="translate(-813.324 -169.778)" fill="#fff"/>
      </g>
      <g id="Grupo_124109" data-name="Grupo 124109" transform="translate(6.132 4.39)">
        <path id="Trazado_119018" data-name="Trazado 119018" d="M124.4,100.148a24.056,24.056,0,1,1,7.518,42.176,10.543,10.543,0,0,1-7.723-.989,15.157,15.157,0,0,1-18.005-1.081A20.8,20.8,0,1,1,90.04,103.583a18.025,18.025,0,0,1,34.362-3.435Z" transform="translate(-72.194 -88.99)" fill="#8dafdc" fill-rule="evenodd"/>
        <path id="Trazado_119019" data-name="Trazado 119019" d="M148.768,100.148a24.056,24.056,0,1,1,7.518,42.176,10.543,10.543,0,0,1-7.723-.989,15.158,15.158,0,0,1-18.006-1.081,20.8,20.8,0,1,1-16.151-36.671,18.025,18.025,0,0,1,34.362-3.435Z" transform="translate(-93.368 -88.99)" fill="#fff" fill-rule="evenodd"/>
      </g>
      <g id="Grupo_124110" data-name="Grupo 124110" transform="translate(139.68)">
        <path id="Trazado_119020" data-name="Trazado 119020" d="M1163.779,69.3a29.783,29.783,0,1,0-9.3,52.245,13,13,0,0,0,9.573-1.222,18.773,18.773,0,0,0,22.295-1.345,25.769,25.769,0,1,0,20.008-45.43,22.335,22.335,0,0,0-42.572-4.248Z" transform="translate(-1112.786 -55.48)" fill="#8dafdc" fill-rule="evenodd"/>
        <path id="Trazado_119021" data-name="Trazado 119021" d="M1139.454,69.3a29.783,29.783,0,1,0-9.3,52.245,13,13,0,0,0,9.573-1.222,18.773,18.773,0,0,0,22.295-1.345,25.769,25.769,0,1,0,20.008-45.43,22.335,22.335,0,0,0-42.572-4.248Z" transform="translate(-1091.648 -55.48)" fill="#fff" fill-rule="evenodd"/>
      </g>
      <g id="Grupo_124116" data-name="Grupo 124116" transform="translate(212.134 210.614)">
        <g id="Grupo_124114" data-name="Grupo 124114" transform="translate(3.228 2.619)">
          <g id="Grupo_124111" data-name="Grupo 124111" transform="translate(15.288 0.833)">
            <path id="Trazado_119022" data-name="Trazado 119022" d="M1786.429,1720.232l-.359-.228c5.32-8.383,9.851-21.018,7.982-30.348l.417-.083c.879,4.391.406,9.889-1.368,15.9A60.032,60.032,0,0,1,1786.429,1720.232Z" transform="translate(-1786.07 -1689.573)" fill="#09a98e"/>
          </g>
          <g id="Grupo_124112" data-name="Grupo 124112" transform="translate(0 3.675)">
            <path id="Trazado_119023" data-name="Trazado 119023" d="M1684.637,1739.028c-1.969-9.729-7.454-21.98-15.268-27.416l.243-.349c3.676,2.558,7.144,6.851,10.029,12.415a60,60,0,0,1,5.412,15.266Z" transform="translate(-1669.369 -1711.263)" fill="#09a98e"/>
          </g>
          <g id="Grupo_124113" data-name="Grupo 124113" transform="translate(11.135)">
            <path id="Trazado_119024" data-name="Trazado 119024" d="M1758.907,1714.63l-.419-.075c1.744-9.773,1.146-23.183-4.122-31.109l.354-.235c2.479,3.731,4.127,9,4.764,15.233A60.019,60.019,0,0,1,1758.907,1714.63Z" transform="translate(-1754.367 -1683.211)" fill="#09a98e"/>
          </g>
        </g>
        <g id="Grupo_124115" data-name="Grupo 124115" transform="translate(19.365 0.111)">
          <path id="Trazado_119025" data-name="Trazado 119025" d="M1835.913,1668.7c-.734-.662-1.44-.954-1.9-1.922s-.274-2.5.364-2.674c.542-.225,1.695.85,1.9,1.92a5.857,5.857,0,0,1-.364,2.676Z" transform="translate(-1828.362 -1664.07)" fill="#16b79e" fill-rule="evenodd"/>
          <path id="Trazado_119026" data-name="Trazado 119026" d="M1823.3,1718.266a5.415,5.415,0,0,1-2.4.487c-.959-.133-2.031-1.033-1.847-1.6.1-.522,1.483-.862,2.4-.487s1.173.928,1.847,1.6Z" transform="translate(-1815.567 -1709.634)" fill="#16b79e" fill-rule="evenodd"/>
          <path id="Trazado_119027" data-name="Trazado 119027" d="M1851.889,1721.829a5.43,5.43,0,0,0,2.245.971c.967.067,2.2-.592,2.139-1.188.01-.532-1.275-1.15-2.245-.97a5.264,5.264,0,0,0-2.139,1.187Z" transform="translate(-1844.116 -1713.203)" fill="#16b79e" fill-rule="evenodd"/>
          <path id="Trazado_119028" data-name="Trazado 119028" d="M1820.658,1750.83a5.45,5.45,0,0,1-2.4.487c-.959-.133-2.031-1.033-1.847-1.6.1-.524,1.485-.862,2.4-.487s1.173.928,1.847,1.6Z" transform="translate(-1813.27 -1737.932)" fill="#16b79e" fill-rule="evenodd"/>
          <path id="Trazado_119029" data-name="Trazado 119029" d="M1849.246,1754.385a5.437,5.437,0,0,0,2.245.971c.967.069,2.2-.59,2.139-1.187.012-.532-1.275-1.15-2.245-.971a5.325,5.325,0,0,0-2.139,1.187Z" transform="translate(-1841.819 -1741.495)" fill="#16b79e" fill-rule="evenodd"/>
          <path id="Trazado_119030" data-name="Trazado 119030" d="M1814.814,1781.614a5.427,5.427,0,0,1-2.423.344c-.95-.19-1.967-1.152-1.749-1.711.129-.517,1.533-.773,2.421-.343s1.116,1,1.75,1.709Z" transform="translate(-1808.247 -1764.542)" fill="#16b79e" fill-rule="evenodd"/>
          <path id="Trazado_119031" data-name="Trazado 119031" d="M1842.979,1787.249a5.439,5.439,0,0,0,2.183,1.1c.961.125,2.232-.46,2.207-1.059.043-.53-1.2-1.224-2.184-1.1a5.285,5.285,0,0,0-2.2,1.057Z" transform="translate(-1836.373 -1770.181)" fill="#16b79e" fill-rule="evenodd"/>
          <path id="Trazado_119032" data-name="Trazado 119032" d="M1805.614,1812.809a5.4,5.4,0,0,1-2.44.17c-.936-.257-1.881-1.288-1.623-1.83.165-.507,1.584-.663,2.44-.17s1.042,1.073,1.623,1.83Z" transform="translate(-1800.335 -1791.474)" fill="#16b79e" fill-rule="evenodd"/>
          <path id="Trazado_119033" data-name="Trazado 119033" d="M1833.145,1820.952a5.421,5.421,0,0,0,2.1,1.255c.948.195,2.259-.3,2.273-.9.082-.526-1.113-1.308-2.1-1.255a5.3,5.3,0,0,0-2.275.9Z" transform="translate(-1827.827 -1799.618)" fill="#16b79e" fill-rule="evenodd"/>
          <path id="Trazado_119034" data-name="Trazado 119034" d="M1796.419,1839.02a5.448,5.448,0,0,1-2.439-.174c-.89-.385-1.68-1.539-1.35-2.04.236-.478,1.661-.433,2.439.174s.882,1.208,1.35,2.04Z" transform="translate(-1792.552 -1813.896)" fill="#16b79e" fill-rule="evenodd"/>
          <path id="Trazado_119035" data-name="Trazado 119035" d="M1822.364,1852c.663.6.991,1.212,1.9,1.537s2.279.02,2.378-.572c.154-.509-.92-1.449-1.9-1.537a5.3,5.3,0,0,0-2.38.572Z" transform="translate(-1818.459 -1826.874)" fill="#16b79e" fill-rule="evenodd"/>
        </g>
        <path id="Trazado_119036" data-name="Trazado 119036" d="M1649.088,1700.727a5.991,5.991,0,0,1-2.7-.069c-1-.379-1.93-1.614-1.592-2.181.235-.538,1.811-.562,2.7.069s1.033,1.288,1.592,2.181Z" transform="translate(-1644.726 -1693.507)" fill="#16b79e" fill-rule="evenodd"/>
        <path id="Trazado_119037" data-name="Trazado 119037" d="M1674.363,1738.87c-.465.763-.608,1.442-1.392,2.01s-2.181.663-2.443.123c-.29-.445.473-1.65,1.392-2.01a5.281,5.281,0,0,1,2.443-.123Z" transform="translate(-1667.094 -1728.887)" fill="#16b79e" fill-rule="evenodd"/>
        <path id="Trazado_119038" data-name="Trazado 119038" d="M1700.4,1717.04a5.443,5.443,0,0,0,2.291-.856c.745-.619,1.179-1.95.72-2.337-.36-.392-1.715.053-2.291.854a5.3,5.3,0,0,0-.72,2.339Z" transform="translate(-1693.104 -1707.088)" fill="#16b79e" fill-rule="evenodd"/>
        <path id="Trazado_119039" data-name="Trazado 119039" d="M1695.022,1764.178c-.465.764-.608,1.442-1.391,2.012s-2.181.663-2.443.123c-.292-.444.472-1.65,1.391-2.01a5.3,5.3,0,0,1,2.443-.125Z" transform="translate(-1685.047 -1750.881)" fill="#16b79e" fill-rule="evenodd"/>
        <path id="Trazado_119040" data-name="Trazado 119040" d="M1721.049,1742.348a5.422,5.422,0,0,0,2.293-.854c.744-.619,1.177-1.952.719-2.337-.36-.392-1.715.052-2.291.854a5.306,5.306,0,0,0-.72,2.337Z" transform="translate(-1711.051 -1729.083)" fill="#16b79e" fill-rule="evenodd"/>
        <path id="Trazado_119041" data-name="Trazado 119041" d="M1711.871,1790.941c-.51.735-.692,1.4-1.509,1.925s-2.216.532-2.446-.021c-.265-.461.57-1.621,1.509-1.925a5.29,5.29,0,0,1,2.446.021Z" transform="translate(-1699.595 -1774.063)" fill="#16b79e" fill-rule="evenodd"/>
        <path id="Trazado_119042" data-name="Trazado 119042" d="M1738.624,1770.726a5.422,5.422,0,0,0,2.338-.716c.781-.575,1.291-1.879.856-2.291-.336-.412-1.715-.05-2.338.718a5.289,5.289,0,0,0-.856,2.29Z" transform="translate(-1726.323 -1753.879)" fill="#16b79e" fill-rule="evenodd"/>
        <path id="Trazado_119043" data-name="Trazado 119043" d="M1726.576,1820.438c-.561.7-.79,1.35-1.64,1.814s-2.248.373-2.439-.2c-.231-.479.683-1.574,1.642-1.813a5.292,5.292,0,0,1,2.437.2Z" transform="translate(-1712.277 -1799.594)" fill="#16b79e" fill-rule="evenodd"/>
        <path id="Trazado_119044" data-name="Trazado 119044" d="M1754.091,1802.326a5.451,5.451,0,0,0,2.384-.549c.818-.518,1.421-1.781,1.017-2.225-.306-.434-1.708-.17-2.384.549a5.307,5.307,0,0,0-1.017,2.225Z" transform="translate(-1739.764 -1781.509)" fill="#16b79e" fill-rule="evenodd"/>
        <path id="Trazado_119045" data-name="Trazado 119045" d="M1737.73,1846.985c-.653.611-.972,1.227-1.879,1.566s-2.278.053-2.386-.535c-.162-.507.9-1.464,1.879-1.566a5.285,5.285,0,0,1,2.387.535Z" transform="translate(-1721.826 -1822.432)" fill="#16b79e" fill-rule="evenodd"/>
        <path id="Trazado_119046" data-name="Trazado 119046" d="M1766.376,1833.347a5.428,5.428,0,0,0,2.437-.211c.884-.4,1.658-1.564,1.319-2.06-.242-.474-1.667-.408-2.437.211a5.282,5.282,0,0,0-1.319,2.06Z" transform="translate(-1750.44 -1808.817)" fill="#16b79e" fill-rule="evenodd"/>
        <path id="Trazado_119047" data-name="Trazado 119047" d="M1738.267,1667.027a5.985,5.985,0,0,1-2.484-1.056c-.79-.72-1.2-2.21-.678-2.613.418-.414,1.891.143,2.484,1.056a5.853,5.853,0,0,1,.678,2.613Z" transform="translate(-1723.062 -1663.219)" fill="#4fbd9d" fill-rule="evenodd"/>
        <path id="Trazado_119048" data-name="Trazado 119048" d="M1744.787,1714.864c-.714.539-1.1,1.117-2.035,1.359s-2.271-.186-2.317-.782c-.108-.522,1.045-1.362,2.033-1.36a5.3,5.3,0,0,1,2.318.784Z" transform="translate(-1727.891 -1707.417)" fill="#4fbd9d" fill-rule="evenodd"/>
        <path id="Trazado_119049" data-name="Trazado 119049" d="M1773.952,1704.81a5.4,5.4,0,0,0,2.445.047c.919-.3,1.812-1.38,1.529-1.908-.191-.5-1.616-.583-2.445-.048s-.987,1.125-1.529,1.909Z" transform="translate(-1757.024 -1697.386)" fill="#4fbd9d" fill-rule="evenodd"/>
        <path id="Trazado_119050" data-name="Trazado 119050" d="M1754.687,1745.994c-.714.54-1.1,1.119-2.033,1.36s-2.271-.186-2.318-.782c-.106-.522,1.047-1.362,2.035-1.36a5.288,5.288,0,0,1,2.317.782Z" transform="translate(-1736.495 -1734.47)" fill="#4fbd9d" fill-rule="evenodd"/>
        <path id="Trazado_119051" data-name="Trazado 119051" d="M1783.852,1735.94a5.394,5.394,0,0,0,2.445.047c.921-.3,1.813-1.38,1.529-1.91-.191-.5-1.615-.581-2.445-.047s-.987,1.125-1.529,1.91Z" transform="translate(-1765.627 -1724.438)" fill="#4fbd9d" fill-rule="evenodd"/>
        <path id="Trazado_119052" data-name="Trazado 119052" d="M1760.82,1776.948a5.416,5.416,0,0,1-2.112,1.236c-.951.185-2.256-.319-2.266-.919-.075-.528,1.125-1.3,2.11-1.236a5.279,5.279,0,0,1,2.268.919Z" transform="translate(-1741.805 -1761.248)" fill="#4fbd9d" fill-rule="evenodd"/>
        <path id="Trazado_119053" data-name="Trazado 119053" d="M1790.137,1768.959a5.426,5.426,0,0,0,2.438.192c.937-.248,1.892-1.271,1.64-1.816-.163-.507-1.579-.677-2.438-.192s-1.052,1.064-1.64,1.816Z" transform="translate(-1771.088 -1753.279)" fill="#4fbd9d" fill-rule="evenodd"/>
        <path id="Trazado_119054" data-name="Trazado 119054" d="M1764,1809.639a5.428,5.428,0,0,1-2.194,1.083c-.961.117-2.227-.48-2.2-1.078-.038-.531,1.214-1.214,2.193-1.083a5.309,5.309,0,0,1,2.2,1.078Z" transform="translate(-1744.56 -1789.507)" fill="#4fbd9d" fill-rule="evenodd"/>
        <path id="Trazado_119055" data-name="Trazado 119055" d="M1793.391,1804.158a5.416,5.416,0,0,0,2.418.364c.952-.18,1.977-1.133,1.764-1.693-.124-.517-1.525-.787-2.418-.366s-1.124.987-1.764,1.7Z" transform="translate(-1773.916 -1784.042)" fill="#4fbd9d" fill-rule="evenodd"/>
        <path id="Trazado_119056" data-name="Trazado 119056" d="M1765.229,1838.123a5.421,5.421,0,0,1-2.323.765c-.969-.019-2.14-.787-2.023-1.376.036-.53,1.372-1.031,2.323-.765s1.274.784,2.023,1.376Z" transform="translate(-1745.659 -1813.952)" fill="#4fbd9d" fill-rule="evenodd"/>
        <path id="Trazado_119057" data-name="Trazado 119057" d="M1794.4,1837.565a5.45,5.45,0,0,0,2.343.7c.968-.046,2.118-.846,1.985-1.43-.051-.53-1.4-.994-2.343-.7s-1.253.818-1.985,1.43Z" transform="translate(-1774.788 -1813.404)" fill="#4fbd9d" fill-rule="evenodd"/>
      </g>
      <g id="Grupo_124117" data-name="Grupo 124117" transform="translate(9.624 208.895)">
        <path id="Trazado_119058" data-name="Trazado 119058" d="M127.288,1797.832c-5.017-6.351-15.311-18.562-15.546-18.035.934.763,11.785,13.668,14.769,19.657Z" transform="translate(-110.053 -1762.792)" fill="#0ebaa0" fill-rule="evenodd"/>
        <path id="Trazado_119059" data-name="Trazado 119059" d="M98.852,1766.285c.566.2,1.284.062,1.783.565a1.947,1.947,0,0,1,.545,1.79,1.946,1.946,0,0,1-1.783-.565c-.5-.5-.357-1.171-.545-1.79Z" transform="translate(-98.852 -1751.065)" fill="#0ebaa0" fill-rule="evenodd"/>
        <path id="Trazado_119060" data-name="Trazado 119060" d="M107.726,1794.121c.363-.245.591-.726,1.1-.8a.769.769,0,1,1,.18,1.254c-.51.072-.84-.3-1.283-.456Z" transform="translate(-106.564 -1774.547)" fill="#0ebaa0" fill-rule="evenodd"/>
        <path id="Trazado_119061" data-name="Trazado 119061" d="M121.215,1776.11c.113.3.417.536.386.908a.557.557,0,1,1-.915-.075c.031-.374.345-.545.528-.833Z" transform="translate(-117.823 -1759.603)" fill="#0ebaa0" fill-rule="evenodd"/>
        <path id="Trazado_119062" data-name="Trazado 119062" d="M137.056,1784.666c-.3.477-.91.792-.984,1.455a1.823,1.823,0,0,0,.642,1.631,1.825,1.825,0,0,0,.982-1.452c.074-.663-.419-1.069-.64-1.634Z" transform="translate(-131.186 -1767.038)" fill="#0ebaa0" fill-rule="evenodd"/>
        <path id="Trazado_119063" data-name="Trazado 119063" d="M118.74,1816.013c.52-.351.849-1.04,1.582-1.147a1.1,1.1,0,1,1,.261,1.8c-.735.1-1.208-.428-1.843-.655Z" transform="translate(-116.135 -1793.263)" fill="#0ebaa0" fill-rule="evenodd"/>
        <path id="Trazado_119064" data-name="Trazado 119064" d="M156.312,1797.175c-.483.645-1.39,1.022-1.57,1.958a2.608,2.608,0,0,0,.72,2.406,2.613,2.613,0,0,0,1.572-1.96c.183-.935-.471-1.574-.722-2.4Z" transform="translate(-147.374 -1777.908)" fill="#0ebaa0" fill-rule="evenodd"/>
        <path id="Trazado_119065" data-name="Trazado 119065" d="M124.448,1841.781c.849-.572,1.387-1.7,2.586-1.871a1.8,1.8,0,1,1,.424,2.941c-1.2.172-1.973-.7-3.01-1.07Z" transform="translate(-121.095 -1815.012)" fill="#0ebaa0" fill-rule="evenodd"/>
        <path id="Trazado_119066" data-name="Trazado 119066" d="M182.592,1812.026c-.822.918-2.249,1.372-2.651,2.77a3.986,3.986,0,0,0,.777,3.753,3.986,3.986,0,0,0,2.651-2.77c.4-1.4-.507-2.456-.777-3.754Z" transform="translate(-169.172 -1790.814)" fill="#0ebaa0" fill-rule="evenodd"/>
        <path id="Trazado_119067" data-name="Trazado 119067" d="M133.486,1874.6c1.322-.695,2.276-2.239,4.04-2.3a2.624,2.624,0,1,1,.144,4.322c-1.764.057-2.739-1.324-4.183-2.023Z" transform="translate(-128.949 -1843.192)" fill="#0ebaa0" fill-rule="evenodd"/>
        <path id="Trazado_119068" data-name="Trazado 119068" d="M214.981,1706.961c-.992-10.911-3.639-32.372-4.292-31.949.494,1.554,3.259,24.216,2.217,33.214Z" transform="translate(-196.038 -1671.744)" fill="#0ebaa0" fill-rule="evenodd"/>
        <path id="Trazado_119069" data-name="Trazado 119069" d="M201.239,1650.1c.493.645,1.41,1.016,1.6,1.957a2.639,2.639,0,0,1-.7,2.432,2.636,2.636,0,0,1-1.6-1.959c-.192-.941.46-1.591.7-2.43Z" transform="translate(-187.184 -1650.102)" fill="#0ebaa0" fill-rule="evenodd"/>
        <path id="Trazado_119070" data-name="Trazado 119070" d="M191.642,1692.992c.592-.01,1.207-.386,1.842-.092a1.042,1.042,0,1,1-.723,1.558c-.635-.3-.733-.958-1.119-1.466Z" transform="translate(-179.487 -1687.196)" fill="#0ebaa0" fill-rule="evenodd"/>
        <path id="Trazado_119071" data-name="Trazado 119071" d="M218.122,1680.382c-.088.42.077.916-.233,1.315a.755.755,0,1,1-.981-.764c.31-.4.794-.361,1.214-.551Z" transform="translate(-201.173 -1676.415)" fill="#0ebaa0" fill-rule="evenodd"/>
        <path id="Trazado_119072" data-name="Trazado 119072" d="M224.9,1704.064c-.692.32-1.617.226-2.188.922a1.341,1.341,0,1,0,1.706,1.4c.573-.7.317-1.524.482-2.326Z" transform="translate(-205.972 -1696.995)" fill="#0ebaa0" fill-rule="evenodd"/>
        <path id="Trazado_119073" data-name="Trazado 119073" d="M186.2,1728.049c.848-.014,1.731-.555,2.642-.13a1.495,1.495,0,1,1-1.037,2.232c-.911-.423-1.053-1.376-1.605-2.1Z" transform="translate(-174.753 -1717.584)" fill="#0ebaa0" fill-rule="evenodd"/>
        <path id="Trazado_119074" data-name="Trazado 119074" d="M232.3,1735.563c-1.025.374-2.332.134-3.229,1.059a3.533,3.533,0,0,0-.961,3.261,3.54,3.54,0,0,0,3.231-1.059c.9-.925.629-2.133.959-3.261Z" transform="translate(-211.096 -1724.368)" fill="#0ebaa0" fill-rule="evenodd"/>
        <path id="Trazado_119075" data-name="Trazado 119075" d="M169.979,1765.836c1.387-.021,2.829-.9,4.317-.21a4.49,4.49,0,0,1,2.624,3.436,4.5,4.5,0,0,1-4.317.213c-1.489-.692-1.72-2.25-2.624-3.438Z" transform="translate(-160.661 -1750.262)" fill="#0ebaa0" fill-rule="evenodd"/>
        <path id="Trazado_119076" data-name="Trazado 119076" d="M242.038,1777.7c-1.61.433-3.563-.108-5.053,1.18a5.4,5.4,0,0,0-1.893,4.833,5.4,5.4,0,0,0,5.053-1.182c1.49-1.288,1.242-3.162,1.893-4.83Z" transform="translate(-217.197 -1760.982)" fill="#0ebaa0" fill-rule="evenodd"/>
        <path id="Trazado_119077" data-name="Trazado 119077" d="M154.05,1814.3c2.012.189,4.236-.856,6.279.381a6.534,6.534,0,0,1,3.247,5.385,6.537,6.537,0,0,1-6.279-.381c-2.042-1.237-2.128-3.525-3.247-5.385Z" transform="translate(-146.819 -1792.583)" fill="#0ebaa0" fill-rule="evenodd"/>
        <path id="Trazado_119078" data-name="Trazado 119078" d="M241.793,1744.675c2.743-9.3,7.57-27.813,6.894-27.678-.1,1.44-5.222,20.979-9.017,28.041Z" transform="translate(-221.223 -1708.233)" fill="#0ebaa0" fill-rule="evenodd"/>
        <path id="Trazado_119079" data-name="Trazado 119079" d="M303.546,1694.993c.2.694.829,1.3.68,2.135a1.265,1.265,0,1,1-2.051-.365c.147-.837.9-1.159,1.371-1.77Z" transform="translate(-275.505 -1689.112)" fill="#0ebaa0" fill-rule="evenodd"/>
        <path id="Trazado_119080" data-name="Trazado 119080" d="M286.53,1726.655c.492.186,1.12.077,1.544.526a.922.922,0,1,1-1.1,1.046c-.427-.451-.292-1.028-.444-1.571Z" transform="translate(-261.944 -1716.627)" fill="#0ebaa0" fill-rule="evenodd"/>
        <path id="Trazado_119081" data-name="Trazado 119081" d="M309.239,1726.749c-.211.317-.236.778-.622,1a.667.667,0,1,1-.558-.946c.386-.229.773-.038,1.18-.059Z" transform="translate(-280.112 -1716.66)" fill="#0ebaa0" fill-rule="evenodd"/>
        <path id="Trazado_119082" data-name="Trazado 119082" d="M304.309,1750.659c-.673.036-1.4-.341-2.1.044a1.186,1.186,0,1,0,.944,1.712c.7-.385.757-1.15,1.156-1.756Z" transform="translate(-274.566 -1737.373)" fill="#0ebaa0" fill-rule="evenodd"/>
        <path id="Trazado_119083" data-name="Trazado 119083" d="M270.415,1754.177c.7.267,1.606.111,2.217.757a1.323,1.323,0,1,1-1.583,1.5c-.609-.646-.415-1.477-.634-2.256Z" transform="translate(-247.94 -1740.543)" fill="#0ebaa0" fill-rule="evenodd"/>
        <path id="Trazado_119084" data-name="Trazado 119084" d="M297.664,1780.717c-.965-.027-1.961-.651-3-.183a1.7,1.7,0,1,0,1.149,2.552c1.041-.469,1.214-1.55,1.853-2.369Z" transform="translate(-267.402 -1763.297)" fill="#0ebaa0" fill-rule="evenodd"/>
        <path id="Trazado_119085" data-name="Trazado 119085" d="M244.365,1780.984c1.148.436,2.622.179,3.62,1.234a3.975,3.975,0,0,1,1.035,3.683,3.976,3.976,0,0,1-3.62-1.234c-1-1.055-.681-2.411-1.035-3.683Z" transform="translate(-225.303 -1763.839)" fill="#0ebaa0" fill-rule="evenodd"/>
        <path id="Trazado_119086" data-name="Trazado 119086" d="M288.069,1821.209c-1.465-.167-2.895-1.251-4.54-.677a2.594,2.594,0,1,0,1.406,4.035c1.645-.574,2.054-2.2,3.133-3.357Z" transform="translate(-256.612 -1798.061)" fill="#0ebaa0" fill-rule="evenodd"/>
        <path id="Trazado_119087" data-name="Trazado 119087" d="M215.977,1814.312c1.593.814,3.764.678,5.038,2.363a5.777,5.777,0,0,1,.913,5.488,5.783,5.783,0,0,1-5.038-2.361c-1.276-1.683-.6-3.594-.913-5.49Z" transform="translate(-200.634 -1792.801)" fill="#0ebaa0" fill-rule="evenodd"/>
      </g>
      <g id="Grupo_124123" data-name="Grupo 124123" transform="translate(55.701 212.051)">
        <g id="Grupo_124121" data-name="Grupo 124121" transform="translate(3.228 2.619)">
          <g id="Grupo_124118" data-name="Grupo 124118" transform="translate(15.288 0.833)">
            <path id="Trazado_119088" data-name="Trazado 119088" d="M592.283,1731.206l-.359-.228c5.32-8.383,9.851-21.018,7.982-30.348l.417-.083c.88,4.391.406,9.89-1.368,15.9A60.038,60.038,0,0,1,592.283,1731.206Z" transform="translate(-591.924 -1700.547)" fill="#09a98e"/>
          </g>
          <g id="Grupo_124119" data-name="Grupo 124119" transform="translate(0 3.675)">
            <path id="Trazado_119089" data-name="Trazado 119089" d="M490.491,1750c-1.969-9.729-7.454-21.98-15.268-27.416l.243-.349c3.676,2.558,7.144,6.851,10.029,12.415a60,60,0,0,1,5.412,15.266Z" transform="translate(-475.223 -1722.237)" fill="#09a98e"/>
          </g>
          <g id="Grupo_124120" data-name="Grupo 124120" transform="translate(11.135)">
            <path id="Trazado_119090" data-name="Trazado 119090" d="M564.762,1725.6l-.419-.074c1.744-9.773,1.146-23.183-4.122-31.109l.354-.236c2.479,3.731,4.127,9,4.764,15.233A60.012,60.012,0,0,1,564.762,1725.6Z" transform="translate(-560.222 -1694.185)" fill="#09a98e"/>
          </g>
        </g>
        <g id="Grupo_124122" data-name="Grupo 124122" transform="translate(19.365 0.112)">
          <path id="Trazado_119091" data-name="Trazado 119091" d="M641.767,1679.671c-.734-.662-1.44-.954-1.9-1.921s-.274-2.5.364-2.674c.543-.225,1.695.85,1.9,1.92a5.854,5.854,0,0,1-.364,2.676Z" transform="translate(-634.216 -1675.045)" fill="#16b79e" fill-rule="evenodd"/>
          <path id="Trazado_119092" data-name="Trazado 119092" d="M629.155,1729.24a5.417,5.417,0,0,1-2.4.487c-.959-.133-2.031-1.033-1.847-1.6.1-.522,1.483-.862,2.4-.487s1.173.928,1.847,1.6Z" transform="translate(-621.421 -1720.609)" fill="#16b79e" fill-rule="evenodd"/>
          <path id="Trazado_119093" data-name="Trazado 119093" d="M657.743,1732.8a5.426,5.426,0,0,0,2.245.971c.967.067,2.2-.592,2.139-1.188.01-.532-1.275-1.15-2.245-.97a5.272,5.272,0,0,0-2.139,1.187Z" transform="translate(-649.97 -1724.177)" fill="#16b79e" fill-rule="evenodd"/>
          <path id="Trazado_119094" data-name="Trazado 119094" d="M626.512,1761.8a5.45,5.45,0,0,1-2.4.487c-.959-.133-2.031-1.033-1.847-1.6.1-.524,1.485-.862,2.4-.487s1.173.928,1.847,1.6Z" transform="translate(-619.124 -1748.906)" fill="#16b79e" fill-rule="evenodd"/>
          <path id="Trazado_119095" data-name="Trazado 119095" d="M655.1,1765.359a5.439,5.439,0,0,0,2.245.971c.967.069,2.2-.59,2.139-1.187.012-.532-1.275-1.15-2.245-.971a5.327,5.327,0,0,0-2.139,1.187Z" transform="translate(-647.673 -1752.469)" fill="#16b79e" fill-rule="evenodd"/>
          <path id="Trazado_119096" data-name="Trazado 119096" d="M620.669,1792.588a5.43,5.43,0,0,1-2.423.345c-.95-.19-1.967-1.152-1.749-1.711.129-.517,1.533-.773,2.421-.343s1.116.995,1.75,1.709Z" transform="translate(-614.101 -1775.516)" fill="#16b79e" fill-rule="evenodd"/>
          <path id="Trazado_119097" data-name="Trazado 119097" d="M648.834,1798.223a5.438,5.438,0,0,0,2.183,1.1c.961.125,2.233-.46,2.207-1.059.043-.53-1.2-1.224-2.184-1.1a5.283,5.283,0,0,0-2.2,1.058Z" transform="translate(-642.228 -1781.155)" fill="#16b79e" fill-rule="evenodd"/>
          <path id="Trazado_119098" data-name="Trazado 119098" d="M611.468,1823.783a5.4,5.4,0,0,1-2.44.17c-.936-.256-1.881-1.288-1.623-1.83.165-.506,1.584-.663,2.44-.17s1.042,1.074,1.623,1.83Z" transform="translate(-606.189 -1802.448)" fill="#16b79e" fill-rule="evenodd"/>
          <path id="Trazado_119099" data-name="Trazado 119099" d="M639,1831.926a5.425,5.425,0,0,0,2.1,1.255c.948.195,2.259-.3,2.273-.9.082-.526-1.113-1.308-2.1-1.255a5.3,5.3,0,0,0-2.275.9Z" transform="translate(-633.681 -1810.592)" fill="#16b79e" fill-rule="evenodd"/>
          <path id="Trazado_119100" data-name="Trazado 119100" d="M602.273,1849.994a5.448,5.448,0,0,1-2.44-.174c-.89-.385-1.68-1.539-1.351-2.04.236-.478,1.661-.433,2.44.173s.883,1.209,1.351,2.04Z" transform="translate(-598.406 -1824.87)" fill="#16b79e" fill-rule="evenodd"/>
          <path id="Trazado_119101" data-name="Trazado 119101" d="M628.219,1862.975c.663.6.991,1.212,1.9,1.537s2.279.02,2.378-.572c.154-.509-.919-1.449-1.9-1.537a5.3,5.3,0,0,0-2.38.572Z" transform="translate(-624.314 -1837.848)" fill="#16b79e" fill-rule="evenodd"/>
        </g>
        <path id="Trazado_119102" data-name="Trazado 119102" d="M454.942,1711.7a5.99,5.99,0,0,1-2.7-.07c-1-.379-1.93-1.614-1.592-2.181.236-.538,1.811-.562,2.7.07s1.033,1.288,1.592,2.181Z" transform="translate(-450.581 -1704.481)" fill="#16b79e" fill-rule="evenodd"/>
        <path id="Trazado_119103" data-name="Trazado 119103" d="M480.218,1749.845c-.465.763-.608,1.442-1.392,2.011s-2.18.663-2.443.123c-.29-.444.473-1.65,1.392-2.01a5.282,5.282,0,0,1,2.443-.123Z" transform="translate(-472.948 -1739.862)" fill="#16b79e" fill-rule="evenodd"/>
        <path id="Trazado_119104" data-name="Trazado 119104" d="M506.252,1728.014a5.444,5.444,0,0,0,2.291-.856c.745-.619,1.179-1.95.72-2.337-.36-.392-1.715.052-2.291.854a5.3,5.3,0,0,0-.72,2.339Z" transform="translate(-498.959 -1718.063)" fill="#16b79e" fill-rule="evenodd"/>
        <path id="Trazado_119105" data-name="Trazado 119105" d="M500.877,1775.152c-.465.764-.608,1.442-1.391,2.012s-2.181.663-2.443.123c-.292-.445.472-1.65,1.391-2.01a5.305,5.305,0,0,1,2.443-.125Z" transform="translate(-490.902 -1761.855)" fill="#16b79e" fill-rule="evenodd"/>
        <path id="Trazado_119106" data-name="Trazado 119106" d="M526.9,1753.323a5.426,5.426,0,0,0,2.293-.854c.744-.619,1.177-1.952.719-2.337-.36-.392-1.716.052-2.291.854a5.305,5.305,0,0,0-.72,2.337Z" transform="translate(-516.906 -1740.057)" fill="#16b79e" fill-rule="evenodd"/>
        <path id="Trazado_119107" data-name="Trazado 119107" d="M517.725,1801.916c-.51.735-.692,1.4-1.509,1.925s-2.215.532-2.446-.021c-.265-.462.57-1.621,1.509-1.925a5.29,5.29,0,0,1,2.446.021Z" transform="translate(-505.449 -1785.037)" fill="#16b79e" fill-rule="evenodd"/>
        <path id="Trazado_119108" data-name="Trazado 119108" d="M544.478,1781.7a5.42,5.42,0,0,0,2.338-.717c.781-.575,1.291-1.879.856-2.291-.336-.412-1.716-.05-2.338.718a5.288,5.288,0,0,0-.856,2.29Z" transform="translate(-532.177 -1764.854)" fill="#16b79e" fill-rule="evenodd"/>
        <path id="Trazado_119109" data-name="Trazado 119109" d="M532.43,1831.413c-.561.7-.79,1.35-1.64,1.814s-2.248.373-2.439-.2c-.231-.479.683-1.574,1.642-1.812a5.289,5.289,0,0,1,2.437.195Z" transform="translate(-518.132 -1810.569)" fill="#16b79e" fill-rule="evenodd"/>
        <path id="Trazado_119110" data-name="Trazado 119110" d="M559.946,1813.3a5.451,5.451,0,0,0,2.384-.549c.818-.518,1.421-1.781,1.017-2.225-.306-.434-1.708-.17-2.384.549a5.305,5.305,0,0,0-1.017,2.225Z" transform="translate(-545.619 -1792.483)" fill="#16b79e" fill-rule="evenodd"/>
        <path id="Trazado_119111" data-name="Trazado 119111" d="M543.585,1857.959c-.653.611-.972,1.227-1.879,1.566s-2.278.053-2.386-.535c-.162-.507.9-1.464,1.879-1.566a5.281,5.281,0,0,1,2.386.536Z" transform="translate(-527.681 -1833.405)" fill="#16b79e" fill-rule="evenodd"/>
        <path id="Trazado_119112" data-name="Trazado 119112" d="M572.23,1844.321a5.428,5.428,0,0,0,2.437-.21c.884-.4,1.658-1.563,1.32-2.06-.242-.474-1.667-.408-2.437.211a5.282,5.282,0,0,0-1.319,2.06Z" transform="translate(-556.294 -1819.791)" fill="#16b79e" fill-rule="evenodd"/>
        <path id="Trazado_119113" data-name="Trazado 119113" d="M544.122,1678a5.984,5.984,0,0,1-2.485-1.056c-.79-.72-1.2-2.21-.678-2.613.418-.414,1.891.143,2.484,1.056a5.854,5.854,0,0,1,.678,2.613Z" transform="translate(-528.916 -1674.193)" fill="#4fbd9d" fill-rule="evenodd"/>
        <path id="Trazado_119114" data-name="Trazado 119114" d="M550.641,1725.838c-.714.539-1.1,1.117-2.035,1.359s-2.271-.186-2.317-.783c-.108-.522,1.045-1.362,2.033-1.36a5.308,5.308,0,0,1,2.318.784Z" transform="translate(-533.745 -1718.391)" fill="#4fbd9d" fill-rule="evenodd"/>
        <path id="Trazado_119115" data-name="Trazado 119115" d="M579.806,1715.785a5.4,5.4,0,0,0,2.445.047c.919-.3,1.812-1.38,1.529-1.908-.191-.5-1.616-.583-2.445-.049s-.987,1.125-1.529,1.91Z" transform="translate(-562.878 -1708.36)" fill="#4fbd9d" fill-rule="evenodd"/>
        <path id="Trazado_119116" data-name="Trazado 119116" d="M560.541,1756.968c-.714.541-1.1,1.119-2.033,1.36s-2.271-.186-2.318-.782c-.106-.522,1.047-1.362,2.035-1.36a5.289,5.289,0,0,1,2.317.782Z" transform="translate(-542.349 -1745.444)" fill="#4fbd9d" fill-rule="evenodd"/>
        <path id="Trazado_119117" data-name="Trazado 119117" d="M589.706,1746.914a5.4,5.4,0,0,0,2.445.047c.921-.3,1.813-1.381,1.529-1.91-.191-.5-1.615-.582-2.445-.047s-.987,1.125-1.529,1.91Z" transform="translate(-571.481 -1735.412)" fill="#4fbd9d" fill-rule="evenodd"/>
        <path id="Trazado_119118" data-name="Trazado 119118" d="M566.674,1787.921a5.414,5.414,0,0,1-2.112,1.236c-.951.185-2.256-.319-2.266-.919-.075-.528,1.125-1.3,2.11-1.236a5.282,5.282,0,0,1,2.268.919Z" transform="translate(-547.659 -1772.222)" fill="#4fbd9d" fill-rule="evenodd"/>
        <path id="Trazado_119119" data-name="Trazado 119119" d="M595.991,1779.934a5.429,5.429,0,0,0,2.439.191c.937-.248,1.891-1.271,1.64-1.816-.162-.507-1.579-.677-2.438-.192s-1.052,1.064-1.64,1.816Z" transform="translate(-576.942 -1764.253)" fill="#4fbd9d" fill-rule="evenodd"/>
        <path id="Trazado_119120" data-name="Trazado 119120" d="M569.855,1820.613a5.425,5.425,0,0,1-2.194,1.083c-.961.117-2.227-.48-2.195-1.078-.038-.531,1.214-1.214,2.193-1.083a5.307,5.307,0,0,1,2.2,1.078Z" transform="translate(-550.415 -1800.481)" fill="#4fbd9d" fill-rule="evenodd"/>
        <path id="Trazado_119121" data-name="Trazado 119121" d="M599.245,1815.133a5.412,5.412,0,0,0,2.418.364c.953-.18,1.977-1.133,1.764-1.694-.124-.516-1.526-.787-2.418-.366s-1.124.987-1.764,1.7Z" transform="translate(-579.77 -1795.016)" fill="#4fbd9d" fill-rule="evenodd"/>
        <path id="Trazado_119122" data-name="Trazado 119122" d="M571.083,1849.1a5.423,5.423,0,0,1-2.323.765c-.969-.019-2.14-.787-2.023-1.376.036-.53,1.372-1.031,2.323-.765s1.274.784,2.023,1.376Z" transform="translate(-551.513 -1824.926)" fill="#4fbd9d" fill-rule="evenodd"/>
        <path id="Trazado_119123" data-name="Trazado 119123" d="M600.249,1848.539a5.45,5.45,0,0,0,2.343.7c.968-.046,2.118-.845,1.985-1.43-.051-.53-1.4-.994-2.343-.7s-1.253.818-1.985,1.43Z" transform="translate(-580.642 -1824.378)" fill="#4fbd9d" fill-rule="evenodd"/>
      </g>
      <g id="Grupo_124127" data-name="Grupo 124127" transform="translate(40.121 41.683)">
        <g id="Grupo_124124" data-name="Grupo 124124">
          <path id="Trazado_119124" data-name="Trazado 119124" d="M415.728,373.672c-28,6.671-50.206,27.695-84.076,41.427,6.724,65.728,30.45,130.464,86.318,161.154h2.472c55.877-30.689,79.594-95.425,86.318-161.154-33.861-13.732-56.071-34.756-84.076-41.427Z" transform="translate(-331.652 -373.672)" fill="#ffa726" fill-rule="evenodd"/>
          <path id="Trazado_119125" data-name="Trazado 119125" d="M514.7,504.67c-23.265,5.546-41.71,23-69.839,34.41,5.59,54.592,25.294,108.36,71.7,133.84h2.046c46.415-25.48,66.109-79.248,71.7-133.84-28.129-11.411-46.574-28.864-69.839-34.41Z" transform="translate(-430.033 -487.509)" fill="#ffd3a7" fill-rule="evenodd"/>
          <path id="Trazado_119126" data-name="Trazado 119126" d="M518.353,504.67V672.92h-1.79c-46.406-25.48-66.109-79.248-71.7-133.84,28.129-11.411,46.574-28.864,69.839-34.41Z" transform="translate(-430.033 -487.509)" fill="#ffbe7b" fill-rule="evenodd"/>
        </g>
        <g id="Grupo_124126" data-name="Grupo 124126" transform="translate(43.502 38.344)">
          <path id="Trazado_119127" data-name="Trazado 119127" d="M937.394,1190.628h0a8.876,8.876,0,0,1,8.782,8.921l-.285,35.912a8.872,8.872,0,0,1-8.93,8.782h0a8.875,8.875,0,0,1-8.782-8.92l.285-35.912a8.878,8.878,0,0,1,8.93-8.782Z" transform="translate(-893.536 -1121.951)" fill="#2c7efe" fill-rule="evenodd"/>
          <path id="Trazado_119128" data-name="Trazado 119128" d="M708.131,666.378a44.052,44.052,0,0,1,21.128,82.512l-.074,9.915-43.571-.35.083-9.915a44.049,44.049,0,0,1,22.435-82.162Z" transform="translate(-663.729 -666.376)" fill="#f2a220" fill-rule="evenodd"/>
          <path id="Trazado_119129" data-name="Trazado 119129" d="M777.155,772.392l-31.18-.248.074-9.712c-12.06-7.531-20.115-21.616-19.986-37.689.175-22.214,15.926-40.386,36-42.614,20.253,2.347,35.93,20.861,35.746,43.231-.129,16.074-8.405,30.03-20.575,37.367Z" transform="translate(-717.896 -680.065)" fill="#fbb445" fill-rule="evenodd"/>
          <path id="Trazado_119130" data-name="Trazado 119130" d="M873.5,1354.086a3.214,3.214,0,0,1,.009.424l-.138,17.344a6.174,6.174,0,0,1-6.214,6.122l-31.236-.249a6.2,6.2,0,0,1-6.122-6.214l.138-17.353c.009-.138.009-.285.018-.423Z" transform="translate(-808.042 -1263.692)" fill="#0643a3" fill-rule="evenodd"/>
          <path id="Trazado_119131" data-name="Trazado 119131" d="M842.5,1338.871H797.209a3.846,3.846,0,0,1-3.847-3.846h0a3.847,3.847,0,0,1,3.847-3.847H842.5a3.847,3.847,0,0,1,3.847,3.847h0A3.846,3.846,0,0,1,842.5,1338.871Z" transform="translate(-776.38 -1244.089)" fill="#2c7efe"/>
          <path id="Trazado_119132" data-name="Trazado 119132" d="M842.5,1426.574H797.209a3.847,3.847,0,0,1-3.847-3.847h0a3.847,3.847,0,0,1,3.847-3.846H842.5a3.847,3.847,0,0,1,3.847,3.846h0A3.847,3.847,0,0,1,842.5,1426.574Z" transform="translate(-776.38 -1320.303)" fill="#2c7efe"/>
          <g id="Grupo_124125" data-name="Grupo 124125" transform="translate(25.007 21.132)">
            <path id="Trazado_119133" data-name="Trazado 119133" d="M887.3,841.988a19.486,19.486,0,0,0-5.362-4.053,12.863,12.863,0,0,0-5.7-1.323,11,11,0,0,0-8.473,3.575,13.013,13.013,0,0,0-3.293,9.176,12.719,12.719,0,0,0,3.265,9.078,11.127,11.127,0,0,0,8.5,3.476,15.837,15.837,0,0,0,6.178-1.295,24.07,24.07,0,0,0,6.15-3.884l-.619,10.837a20.717,20.717,0,0,1-5.728,2.7,22.457,22.457,0,0,1-6.46.929,21.3,21.3,0,0,1-6.91-1.126,20.4,20.4,0,0,1-6.094-3.321,20.685,20.685,0,0,1-6.038-7.558,22.568,22.568,0,0,1-2.1-9.725,23.181,23.181,0,0,1,1.548-8.5,20.673,20.673,0,0,1,11.4-11.667,21.363,21.363,0,0,1,8.247-1.618,22.284,22.284,0,0,1,6.558.957,21.943,21.943,0,0,1,5.967,2.9Z" transform="translate(-854.624 -827.689)" fill="#fff"/>
          </g>
        </g>
      </g>
      <g id="Grupo_124128" data-name="Grupo 124128" transform="translate(164.431 183.536)">
        <path id="Trazado_119134" data-name="Trazado 119134" d="M1333.225,1456.515h0c9.044,0,16.469,5.972,16.469,13.274V1484.7c0,7.3-7.425,13.275-16.469,13.275h0c-9.059,0-16.485-5.972-16.485-13.275v-14.911c0-7.3,7.425-13.274,16.485-13.274Zm0,5.972h0c5.156,0,9.377,3.4,9.377,7.558v17.482c0,4.156-4.22,7.558-9.377,7.558h0c-5.172,0-9.377-3.4-9.377-7.558v-17.482c0-4.156,4.2-7.558,9.377-7.558Z" transform="translate(-1312.004 -1456.515)" fill="#84b2fe" fill-rule="evenodd"/>
        <path id="Trazado_119135" data-name="Trazado 119135" d="M1286.095,1642H1317.5c3.028,0,5.511,2.114,5.511,4.691v28.274c0,2.578-2.483,4.692-5.511,4.692h-31.405c-3.041,0-5.511-2.114-5.511-4.692v-28.274c0-2.577,2.47-4.691,5.511-4.691Z" transform="translate(-1280.584 -1617.702)" fill="#4b76ba" fill-rule="evenodd"/>
        <path id="Trazado_119136" data-name="Trazado 119136" d="M1400.564,1696.886a6.331,6.331,0,0,1,2.4,12.187l2.046,7.066h-8.9l2.046-7.066a6.331,6.331,0,0,1,2.408-12.187Z" transform="translate(-1379.345 -1665.397)" fill="#15489d" fill-rule="evenodd"/>
      </g>
      <g id="Grupo_124133" data-name="Grupo 124133" transform="translate(18.159 137.413)">
        <path id="Trazado_119137" data-name="Trazado 119137" d="M247.712,1490.579l-10.126,1.715.419,47.773h6.982l3.094-28.7,2.366,28.7,6.541-.1.474-51.087-9.343-2.234Z" transform="translate(-227.946 -1436.573)" fill="#1b174f" fill-rule="evenodd"/>
        <path id="Trazado_119138" data-name="Trazado 119138" d="M469.435,1406.331l2.526-3.32a12.259,12.259,0,0,0,3.033.518c1.213-.844,3.27-2.57,3.734-1.732-.138.463-1.633,1.671-1.726,2.339.695.938,4.291.254,7.7-.331,1.076,0-.563,2.245-5.741,3.271-1.963.419-5.466-.982-9.53-.745Z" transform="translate(-429.423 -1362.649)" fill="#f1ae8e" fill-rule="evenodd"/>
        <path id="Trazado_119139" data-name="Trazado 119139" d="M253.584,1233.618a17.925,17.925,0,0,0,3.238-1.434c1.875.27,3.464.386,5.339.656,1.456-.066,3.59,1.092,4.787,2.134a12.56,12.56,0,0,1,1.6,2.592v32.617a43.75,43.75,0,0,1-14.968.347Z" transform="translate(-241.849 -1215.449)" fill="#fff" fill-rule="evenodd"/>
        <path id="Trazado_119140" data-name="Trazado 119140" d="M260.075,1233.137l-4.418-1.037-1.82.706c.629,1.561,1.263,3.116,1.892,4.677.811-2.521,2.449-3.271,4.346-4.346Z" transform="translate(-242.069 -1215.376)" fill="#e8e3e4" fill-rule="evenodd"/>
        <path id="Trazado_119141" data-name="Trazado 119141" d="M292.57,1248.288a156.518,156.518,0,0,1,2.5,30.295l1.66,1.677q1.241-1.464,2.493-2.929c-.369-10.269-1.842-20.268-5.361-29.148l-1.3.1Z" transform="translate(-275.728 -1229.352)" fill="#e9708a" fill-rule="evenodd"/>
        <path id="Trazado_119142" data-name="Trazado 119142" d="M176.63,1234.963c5.333,12.707,6.061,30.069,5.427,45.241a60.686,60.686,0,0,1-11.769-1.771l2.388-10.545c-2.857-3.706-8.014-8.582-8.576-11.113-.844-.982,3.938-13.639,6.894-18.559,1.208-1.495,3.469-2.305,5.637-3.254Zm-3.668,18.156-1.125,1.831a30.742,30.742,0,0,0,1.963,4.357c-.066-2.035-.563-4.125-.838-6.188Z" transform="translate(-164.001 -1217.864)" fill="#8dafdc" fill-rule="evenodd"/>
        <path id="Trazado_119143" data-name="Trazado 119143" d="M475.82,1406.566l1.164.364-.7,4.66s-1.506-.557-1.55-.149,1.064-4.693,1.087-4.875Z" transform="translate(-434.027 -1366.987)" fill="#fff" fill-rule="evenodd"/>
        <path id="Trazado_119144" data-name="Trazado 119144" d="M299.9,1234.332l-.971,1.075a2.836,2.836,0,0,1,2.642,1.533l1.02,1.1.794-3.078Z" transform="translate(-281.252 -1217.316)" fill="#e8e3e4" fill-rule="evenodd"/>
        <path id="Trazado_119145" data-name="Trazado 119145" d="M311.557,1235.047c4.059,14.24,6.072,29.881,6.668,44.64,1.368-.3,2.73-.678,4.153-1.1l-1.263-17.158,12.514,1.406.7-5.206-10.964-3.651c-2.019-5.675-3.657-13.645-6.05-17.02-.871-.921-4.032-1.77-5.758-1.908Z" transform="translate(-292.227 -1217.937)" fill="#8dafdc" fill-rule="evenodd"/>
        <path id="Trazado_119146" data-name="Trazado 119146" d="M290.678,1243.088l.559-.51.565-.51-.309-.691-.315-.692-.751.085-.756.079-.152.743-.158.742.658.38Z" transform="translate(-272.939 -1222.837)" fill="#d84e79" fill-rule="evenodd"/>
        <path id="Trazado_119147" data-name="Trazado 119147" d="M239.859,1472.176l2.576-2.206c.5.915.993,1.837,1.495,2.752a5.148,5.148,0,0,1,2.515,4.87l-4.71.452a11.248,11.248,0,0,1-.518-4.059Z" transform="translate(-229.922 -1422.085)" fill="#f1ae8e" fill-rule="evenodd"/>
        <rect id="Rectángulo_37389" data-name="Rectángulo 37389" width="6.491" height="7.379" transform="translate(9.081 60.233) rotate(-83.778)" fill="#8dafdc"/>
        <g id="Grupo_124129" data-name="Grupo 124129" transform="translate(9.598 53.529)">
          <path id="Trazado_119148" data-name="Trazado 119148" d="M244.837,1514.715l-6.772-.721.041-.381,6.387.68.013-.13-7.233-.725.038-.382,7.614.764Z" transform="translate(-237.272 -1513.056)" fill="#4b76ba"/>
        </g>
        <path id="Trazado_119149" data-name="Trazado 119149" d="M231.061,1464.213l3.9-3,.585.849-3.9,2.939Z" transform="translate(-222.276 -1414.475)" fill="#fff" fill-rule="evenodd"/>
        <line id="Línea_149" data-name="Línea 149" y1="6.249" x2="4.07" transform="translate(7.836 30.837)" fill="none"/>
        <g id="Grupo_124130" data-name="Grupo 124130" transform="translate(26.591 27.176)">
          <path id="Trazado_119150" data-name="Trazado 119150" d="M369.2,1328.277a118.3,118.3,0,0,0-2.221-16.348l.226-.043a118.451,118.451,0,0,1,2.224,16.38Z" transform="translate(-366.983 -1311.887)" fill="#4b76ba"/>
        </g>
        <g id="Grupo_124131" data-name="Grupo 124131" transform="translate(11.582 16.988)">
          <path id="Trazado_119151" data-name="Trazado 119151" d="M254.136,1235.711a47.878,47.878,0,0,0-.552,7.682l1.9.3c-.381.689-1.191,1.649-1.572,2.338l4.831,9.094.546,1.147a114.746,114.746,0,0,0-2.179-12.812,56.517,56.517,0,0,0-2.631-7.87c-.121.044-.232.066-.342.116Z" transform="translate(-253.431 -1235.401)" fill="#77a1d5" fill-rule="evenodd"/>
          <path id="Trazado_119152" data-name="Trazado 119152" d="M258.516,1255.865l-.932-1.958-4.867-9.162.04-.073a12.962,12.962,0,0,1,.8-1.185c.238-.329.482-.667.664-.963l-1.8-.289v-.131a49.805,49.805,0,0,1,.554-7.71l.015-.08.073-.033a1.7,1.7,0,0,1,.218-.077c.043-.013.088-.026.134-.043l.137-.05.057.135a56.506,56.506,0,0,1,2.638,7.891,115.314,115.314,0,0,1,2.182,12.834Zm-5.45-11.116,4.792,9.02.156.328a116.735,116.735,0,0,0-2.074-11.886,56.253,56.253,0,0,0-2.569-7.715l-.011,0c-.037.011-.073.022-.108.034a49.439,49.439,0,0,0-.534,7.441l1.983.317-.106.191a12.971,12.971,0,0,1-.8,1.185C253.532,1244.041,253.254,1244.426,253.067,1244.749Z" transform="translate(-252.413 -1234.112)" fill="#4b76ba"/>
        </g>
        <g id="Grupo_124132" data-name="Grupo 124132" transform="translate(19.135 17.05)">
          <path id="Trazado_119153" data-name="Trazado 119153" d="M311.933,1235.858l3.386,5.068-.518,1.495.822.491.094,10.926a157.071,157.071,0,0,0-4.076-17.991c.1.005.188,0,.292.011Z" transform="translate(-311.435 -1235.682)" fill="#77a1d5" fill-rule="evenodd"/>
          <path id="Trazado_119154" data-name="Trazado 119154" d="M314.2,1252.771a157.21,157.21,0,0,0-4.072-17.974l-.059-.206.214.011c.04,0,.076,0,.111,0,.058,0,.119,0,.189.009l.072.008,3.469,5.192-.5,1.448.789.471.095,11.012Zm-3.72-17.857a159.459,159.459,0,0,1,3.7,15.922l-.077-8.927-.855-.511.534-1.541-3.3-4.943Z" transform="translate(-310.067 -1234.591)" fill="#4b76ba"/>
        </g>
        <path id="Trazado_119155" data-name="Trazado 119155" d="M333.006,1891.3l6.591-.106c2.945,2.922,9.2.711,8.284,5.228l-10.253-.2-1.434-.9-.033,1.014-3.524.089a19.328,19.328,0,0,1,.37-5.122Z" transform="translate(-310.522 -1788.126)" fill="#15489d" fill-rule="evenodd"/>
        <path id="Trazado_119156" data-name="Trazado 119156" d="M239.073,1894.072l6.6-.1c2.945,2.719,9.2.662,8.278,4.864l-10.247-.188-1.44-.838-.027.943-3.524.083a16.9,16.9,0,0,1,.364-4.76Z" transform="translate(-228.899 -1790.539)" fill="#4b76ba" fill-rule="evenodd"/>
        <path id="Trazado_119157" data-name="Trazado 119157" d="M267.363,1174.341l-5.653-.3.5,7.716a8.294,8.294,0,0,0,3.844,1.307,3.029,3.029,0,0,0,1.848-1.081Z" transform="translate(-248.91 -1164.925)" fill="#ec825c" fill-rule="evenodd"/>
        <path id="Trazado_119158" data-name="Trazado 119158" d="M255.968,1137.163l9.762.9c.309,3.232.259,9.574-.033,9.734-2.382,1.467-6.2.678-8.361-1.511-1.136-2.918-2.179-7.357-1.368-9.122Z" transform="translate(-243.67 -1132.876)" fill="#f1ae8e" fill-rule="evenodd"/>
        <path id="Trazado_119159" data-name="Trazado 119159" d="M243.633,1110.1c-1.368,1.627-.359,3.921-.055,6.188-1.974-1.952-2.443-5.41-3.044-8.344.121-1.4,1.809-1.274,2.658-.954a1.789,1.789,0,0,1,1.434-2.482c6.034-.629,9.425,2.906,7.964,5.455-4.467-1.208-9.012-1.313-8.957.138Z" transform="translate(-230.507 -1104.436)" fill="#1b174f" fill-rule="evenodd"/>
        <path id="Trazado_119160" data-name="Trazado 119160" d="M265.339,1143.15a13.928,13.928,0,0,0,.243-3.822c-.011-1.726-2.454,1.484-5.6,1.064-1.329-.822-3.227-5.625-3.408-8.576l-1.307.805c1.936,3.568.778,8.637,3.116,10.1,2.134,1.434,6.26,2.035,6.955.425Z" transform="translate(-243.312 -1128.229)" fill="#1b174f" fill-rule="evenodd"/>
        <path id="Trazado_119161" data-name="Trazado 119161" d="M252.542,1152.866l-.094-1.826c-.259-.96-1.346-1.621-1.622-.474-.226,1.015,1.34,2.813,1.715,2.3Z" transform="translate(-239.433 -1143.995)" fill="#f1ae8e" fill-rule="evenodd"/>
        <path id="Trazado_119162" data-name="Trazado 119162" d="M302.315,1202.588a1.982,1.982,0,0,1-1.621,1.136,1.811,1.811,0,0,1-1.682-.712,8.022,8.022,0,0,0,1.6-.066,6.2,6.2,0,0,0,1.7-.358Z" transform="translate(-281.325 -1189.73)" fill="#fff" fill-rule="evenodd"/>
      </g>
      <path id="Trazado_119163" data-name="Trazado 119163" d="M191.974,1833.515a9.012,9.012,0,0,1,.39-1.384,20.846,20.846,0,0,1,.335,3.04,14.456,14.456,0,0,0-.725-1.657Zm-117.055,0c.111-.473.242-.928.39-1.384a23.805,23.805,0,0,1,.353,3.04,11.94,11.94,0,0,0-.744-1.657Zm60.265,0c.111-.473.242-.928.39-1.384a23.8,23.8,0,0,1,.353,3.04,11.94,11.94,0,0,0-.744-1.657Zm28.924,0a9.024,9.024,0,0,0-.39-1.384,20.838,20.838,0,0,0-.335,3.04,9.983,9.983,0,0,1,.725-1.657Zm-1.747-4.187a14.728,14.728,0,0,0-1.469-1.93,22.34,22.34,0,0,0-.874,3.4,12.819,12.819,0,0,1,.874,1.748,25,25,0,0,1,1.469-3.222Zm-1.413-2.076a15.373,15.373,0,0,1,1.729,1.511,20.619,20.619,0,0,1,1.9-2.731c-.3-.346-.595-.692-.929-1.02a12.941,12.941,0,0,1,1.1.8,21.657,21.657,0,0,1,3.773-3.532c.335-.564.688-1.129,1.078-1.693-.186.437-.353.856-.5,1.274a.773.773,0,0,0,.13-.091c-.056.055-.093.109-.149.164a19.807,19.807,0,0,0-1.245,7.064,17.786,17.786,0,0,1,1.431,2.276,22,22,0,0,1,1.729-5.134c-.316-.364-.651-.746-1.022-1.129.409.273.8.564,1.171.856a19.161,19.161,0,0,1,1.654-2.731c-.39-.455-.781-.91-1.227-1.365.5.346.985.71,1.45,1.074a21.441,21.441,0,0,1,1.729-2.039,21.773,21.773,0,0,0-1.3,2.385c.669.583,1.3,1.183,1.878,1.784a26.872,26.872,0,0,1,2.082-2.622,29.038,29.038,0,0,0-2.826-3.6,26.091,26.091,0,0,1,3.457,2.949,26.3,26.3,0,0,1,3.476-2.949,31.17,31.17,0,0,0-2.844,3.6,24.552,24.552,0,0,1,2.1,2.622c.576-.6,1.208-1.2,1.877-1.784a25.436,25.436,0,0,0-1.3-2.385,24.629,24.629,0,0,1,1.729,2.039c.465-.364.948-.728,1.45-1.074q-.669.683-1.227,1.365a19.151,19.151,0,0,1,1.655,2.731c.372-.291.762-.583,1.171-.856-.372.382-.706.765-1.022,1.129a22.007,22.007,0,0,1,1.729,5.134,17.789,17.789,0,0,1,1.431-2.276,19.807,19.807,0,0,0-1.245-7.064,1.186,1.186,0,0,1-.149-.164.78.78,0,0,0,.13.091c-.167-.419-.335-.838-.5-1.274.39.564.744,1.129,1.078,1.693a20.886,20.886,0,0,1,3.755,3.532c.353-.273.725-.546,1.115-.8a11.867,11.867,0,0,0-.929,1.02,18.859,18.859,0,0,1,1.877,2.731,14.107,14.107,0,0,1,1.747-1.511,24.716,24.716,0,0,0-5.261-8.5,25.448,25.448,0,0,1,8.049,9.376c.409-.474.837-.929,1.3-1.384a21.209,21.209,0,0,0-2.584-5.935,21.41,21.41,0,0,1,3.606,5.061c.372-.291.744-.583,1.153-.856-.353.382-.706.765-1.022,1.129a21.167,21.167,0,0,1,1.729,5.134,20.115,20.115,0,0,1,1.431-2.276v-.127a19.376,19.376,0,0,0-1.654-2.039,17.208,17.208,0,0,1,1.654,1.311,20.65,20.65,0,0,0-1.766-7.555,21.007,21.007,0,0,1,3.179,6.754c.39-.4.8-.783,1.227-1.165-.316-.382-.669-.783-1.041-1.165a14.053,14.053,0,0,1,1.3.965,13.746,13.746,0,0,1,1.283-.965c-.372.382-.725.783-1.041,1.165a14.822,14.822,0,0,1,1.227,1.165,21.4,21.4,0,0,1,3.179-6.754,21.035,21.035,0,0,0-1.766,7.555,17.532,17.532,0,0,1,1.673-1.311,17.548,17.548,0,0,0-1.673,2.039V1829a17.789,17.789,0,0,1,1.431,2.276,21.17,21.17,0,0,1,1.729-5.134c-.316-.364-.651-.746-1.022-1.129.409.273.8.564,1.153.856a20.988,20.988,0,0,1,3.625-5.061,20.77,20.77,0,0,0-2.6,5.935,18,18,0,0,1,1.3,1.384A25.335,25.335,0,0,1,223,1818.75a24.437,24.437,0,0,0-5.261,8.5,15.363,15.363,0,0,1,1.729,1.511,20.47,20.47,0,0,1,1.877-2.731c-.279-.346-.595-.692-.911-1.02.372.255.744.528,1.1.8a20.407,20.407,0,0,1,3.774-3.532c.316-.564.688-1.129,1.078-1.693-.186.437-.353.856-.5,1.274a.793.793,0,0,1,.13-.091l-.167.164a19.763,19.763,0,0,0-1.227,7.064,20.1,20.1,0,0,1,1.431,2.276,21.1,21.1,0,0,1,1.71-5.134c-.316-.364-.651-.746-1-1.129.39.273.781.564,1.153.856a20.889,20.889,0,0,1,3.606-5.061,20.679,20.679,0,0,0-2.584,5.935c.465.455.892.91,1.3,1.384a25.186,25.186,0,0,1,3.049-4.715q-.669-.819-1.45-1.639a21.2,21.2,0,0,1,1.729,1.311,24.7,24.7,0,0,1,2.677-2.713c-.427-.546-.892-1.074-1.394-1.62.613.437,1.171.874,1.729,1.329.539-.455,1.115-.892,1.71-1.329-.5.546-.948,1.074-1.376,1.62a24.5,24.5,0,0,1,2.658,2.713,21.241,21.241,0,0,1,1.729-1.311q-.781.819-1.45,1.639a25.3,25.3,0,0,1,3.067,4.715,14.968,14.968,0,0,1,1.3-1.384,21.3,21.3,0,0,0-2.6-5.935,20.4,20.4,0,0,1,3.606,5.061c.372-.291.762-.583,1.171-.856-.372.382-.706.765-1.022,1.129a22,22,0,0,1,1.729,5.134,17.789,17.789,0,0,1,1.431-2.276,19.8,19.8,0,0,0-1.246-7.064,1.191,1.191,0,0,1-.149-.164.779.779,0,0,0,.13.091c-.167-.419-.335-.838-.5-1.274.39.564.744,1.129,1.078,1.693a20.877,20.877,0,0,1,3.755,3.532c.353-.273.725-.546,1.115-.8-.335.328-.632.674-.929,1.02a20.619,20.619,0,0,1,1.9,2.731,12.677,12.677,0,0,1,1.729-1.511,24.719,24.719,0,0,0-5.261-8.5,25.448,25.448,0,0,1,8.049,9.376c.409-.474.837-.929,1.3-1.384a21.209,21.209,0,0,0-2.584-5.935,21.409,21.409,0,0,1,3.606,5.061c.372-.291.744-.583,1.153-.856-.353.382-.706.765-1.022,1.129a21.171,21.171,0,0,1,1.729,5.134A20.1,20.1,0,0,1,263.8,1829v-.127a19.4,19.4,0,0,0-1.654-2.039,17.2,17.2,0,0,1,1.654,1.311,20.651,20.651,0,0,0-1.766-7.555,21.006,21.006,0,0,1,3.179,6.754c.39-.4.8-.783,1.227-1.165-.316-.382-.669-.783-1.041-1.165a14.036,14.036,0,0,1,1.3.965c.409-.346.837-.655,1.283-.965-.372.382-.725.783-1.041,1.165a14.815,14.815,0,0,1,1.227,1.165,21.4,21.4,0,0,1,3.179-6.754,21.034,21.034,0,0,0-1.766,7.555,17.51,17.51,0,0,1,1.673-1.311,17.548,17.548,0,0,0-1.673,2.039V1829a17.774,17.774,0,0,1,1.431,2.276,22.009,22.009,0,0,1,1.729-5.134c-.316-.364-.651-.746-1.022-1.129.409.273.8.564,1.153.856a20.985,20.985,0,0,1,3.625-5.061,20.765,20.765,0,0,0-2.6,5.935,18,18,0,0,1,1.3,1.384,25.335,25.335,0,0,1,8.068-9.376,24.437,24.437,0,0,0-5.261,8.5,15.363,15.363,0,0,1,1.729,1.511,20.468,20.468,0,0,1,1.878-2.731c-.279-.346-.595-.692-.911-1.02.372.255.744.528,1.1.8a20.406,20.406,0,0,1,3.774-3.532c.316-.564.688-1.129,1.078-1.693-.186.437-.353.856-.5,1.274a.787.787,0,0,1,.13-.091l-.167.164a19.761,19.761,0,0,0-1.227,7.064,20.106,20.106,0,0,1,1.431,2.276,21.1,21.1,0,0,1,1.71-5.134c-.316-.364-.651-.746-1-1.129.39.273.781.564,1.153.856a20.892,20.892,0,0,1,3.606-5.061,20.683,20.683,0,0,0-2.584,5.935c.465.455.892.91,1.3,1.384a25.277,25.277,0,0,1,8.049-9.376,23.352,23.352,0,0,0-6.19,12.052,15.372,15.372,0,0,1,.874,1.748,21.886,21.886,0,0,1,8.328-10.778,19.634,19.634,0,0,0-5.855,13.4,11.5,11.5,0,0,1,4.387-5.716,10.248,10.248,0,0,0-2.937,5.771H58.933A10.247,10.247,0,0,0,56,1829.455a11.462,11.462,0,0,1,4.368,5.716,19.692,19.692,0,0,0-5.837-13.4,21.994,21.994,0,0,1,8.328,10.778,12.807,12.807,0,0,1,.874-1.748,23.352,23.352,0,0,0-6.19-12.052,25.276,25.276,0,0,1,8.049,9.376c.409-.474.836-.929,1.3-1.384a21.213,21.213,0,0,0-2.584-5.935,21.413,21.413,0,0,1,3.606,5.061c.372-.291.744-.583,1.153-.856-.353.382-.706.765-1.022,1.129a21.171,21.171,0,0,1,1.729,5.134A20.121,20.121,0,0,1,71.2,1829a19.763,19.763,0,0,0-1.227-7.064l-.167-.164a.794.794,0,0,1,.13.091c-.149-.419-.316-.838-.5-1.274.39.564.762,1.129,1.078,1.693a21.659,21.659,0,0,1,3.774,3.532c.353-.273.725-.546,1.1-.8-.316.328-.632.674-.911,1.02a20.468,20.468,0,0,1,1.877,2.731,15.363,15.363,0,0,1,1.729-1.511,24.438,24.438,0,0,0-5.261-8.5,25.335,25.335,0,0,1,8.068,9.376,14.987,14.987,0,0,1,1.3-1.384,20.766,20.766,0,0,0-2.6-5.935,20.4,20.4,0,0,1,3.606,5.061c.372-.291.762-.583,1.171-.856-.372.382-.706.765-1.022,1.129a22,22,0,0,1,1.729,5.134A17.788,17.788,0,0,1,86.5,1829v-.127a17.549,17.549,0,0,0-1.673-2.039,15.19,15.19,0,0,1,1.654,1.311,20.98,20.98,0,0,0-1.747-7.555,21.4,21.4,0,0,1,3.179,6.754,14.818,14.818,0,0,1,1.227-1.165c-.316-.382-.669-.783-1.041-1.165.446.31.874.619,1.283.965a14.034,14.034,0,0,1,1.3-.965c-.372.382-.725.783-1.041,1.165.428.382.837.765,1.227,1.165a21,21,0,0,1,3.179-6.754,20.652,20.652,0,0,0-1.766,7.555,17.2,17.2,0,0,1,1.654-1.311,17.286,17.286,0,0,0-1.654,2.039V1829a20.1,20.1,0,0,1,1.431,2.276,21.1,21.1,0,0,1,1.71-5.134c-.3-.364-.651-.746-1-1.129.409.273.781.564,1.153.856a21.414,21.414,0,0,1,3.606-5.061,20.679,20.679,0,0,0-2.584,5.935c.465.455.892.91,1.3,1.384a25.276,25.276,0,0,1,8.049-9.376,24.438,24.438,0,0,0-5.261,8.5,15.362,15.362,0,0,1,1.729,1.511,20.606,20.606,0,0,1,1.9-2.731c-.3-.346-.595-.692-.929-1.02a12.962,12.962,0,0,1,1.1.8,21.658,21.658,0,0,1,3.773-3.532c.335-.564.688-1.129,1.078-1.693-.186.437-.353.856-.5,1.274a.78.78,0,0,0,.13-.091c-.056.055-.093.109-.149.164a19.807,19.807,0,0,0-1.245,7.064,17.788,17.788,0,0,1,1.431,2.276,22,22,0,0,1,1.729-5.134c-.316-.364-.651-.746-1.022-1.129.409.273.8.564,1.171.856a20.4,20.4,0,0,1,3.606-5.061,20.77,20.77,0,0,0-2.6,5.935,18,18,0,0,1,1.3,1.384,26.151,26.151,0,0,1,3.049-4.715c-.428-.546-.911-1.093-1.431-1.639a21.223,21.223,0,0,1,1.729,1.311,22.955,22.955,0,0,1,2.658-2.713c-.428-.546-.892-1.074-1.376-1.62.595.437,1.171.874,1.71,1.329.539-.455,1.115-.892,1.729-1.329-.5.546-.967,1.074-1.394,1.62a24.689,24.689,0,0,1,2.677,2.713,21.2,21.2,0,0,1,1.729-1.311q-.781.819-1.45,1.639a26.152,26.152,0,0,1,3.048,4.715c.409-.474.837-.929,1.3-1.384a20.68,20.68,0,0,0-2.584-5.935,21.41,21.41,0,0,1,3.606,5.061c.372-.291.744-.583,1.153-.856-.353.382-.706.765-1.022,1.129a21.166,21.166,0,0,1,1.729,5.134,20.117,20.117,0,0,1,1.431-2.276,19.761,19.761,0,0,0-1.227-7.064l-.167-.164a.793.793,0,0,1,.13.091c-.149-.419-.316-.838-.5-1.274.39.564.762,1.129,1.078,1.693a21.66,21.66,0,0,1,3.774,3.532c.353-.273.725-.546,1.1-.8-.316.328-.632.674-.911,1.02a20.47,20.47,0,0,1,1.877,2.731,15.363,15.363,0,0,1,1.729-1.511,24.437,24.437,0,0,0-5.261-8.5,25.337,25.337,0,0,1,8.068,9.376,17.983,17.983,0,0,1,1.3-1.384,20.77,20.77,0,0,0-2.6-5.935,20.4,20.4,0,0,1,3.606,5.061c.372-.291.762-.583,1.171-.856-.372.382-.706.765-1.022,1.129a22,22,0,0,1,1.729,5.134,17.773,17.773,0,0,1,1.431-2.276v-.127a17.546,17.546,0,0,0-1.673-2.039,15.2,15.2,0,0,1,1.654,1.311,20.98,20.98,0,0,0-1.747-7.555,21.4,21.4,0,0,1,3.179,6.754,14.817,14.817,0,0,1,1.227-1.165c-.316-.382-.669-.783-1.041-1.165.446.31.874.619,1.283.965a14.054,14.054,0,0,1,1.3-.965c-.372.382-.725.783-1.041,1.165.428.382.836.765,1.227,1.165a21,21,0,0,1,3.179-6.754,20.647,20.647,0,0,0-1.766,7.555,17.2,17.2,0,0,1,1.654-1.311,17.269,17.269,0,0,0-1.654,2.039V1829a20.119,20.119,0,0,1,1.431,2.276,21.165,21.165,0,0,1,1.729-5.134c-.316-.364-.669-.746-1.022-1.129.409.273.781.564,1.153.856a21.41,21.41,0,0,1,3.606-5.061,20.684,20.684,0,0,0-2.584,5.935c.465.455.892.91,1.3,1.384a25.275,25.275,0,0,1,8.049-9.376,24.433,24.433,0,0,0-5.261,8.5Zm12.269-3.586a20.27,20.27,0,0,0-1.078,3.077,18.03,18.03,0,0,1,1.3,1.384c.39-.765.818-1.511,1.283-2.258a24.393,24.393,0,0,0-1.506-2.2Zm4.815-.291a23.1,23.1,0,0,0-1.487,3.058,22.964,22.964,0,0,1,1.487,2.2,23.235,23.235,0,0,1,1.506-2.2,21.126,21.126,0,0,0-1.506-3.058Zm-2.119,4.861a25.56,25.56,0,0,0-.595,2.567,15.369,15.369,0,0,1,.874,1.748c.186-.528.409-1.056.632-1.566a17.625,17.625,0,0,0-.911-2.749Zm6.952-4.57a21.072,21.072,0,0,0-1.506,2.2c.465.746.892,1.493,1.283,2.258a14.967,14.967,0,0,1,1.3-1.384,20.282,20.282,0,0,0-1.078-3.077Zm-2.714,4.57a19.706,19.706,0,0,0-.892,2.749c.223.51.446,1.038.632,1.566a15.369,15.369,0,0,1,.874-1.748,21.409,21.409,0,0,0-.613-2.567Zm-61.232,5.7a9.07,9.07,0,0,0-.316-.928c-.093.71-.167,1.438-.2,2.166a11.736,11.736,0,0,1,.52-1.238Zm-1.989-3.732a8.417,8.417,0,0,0-.669-.746c.26.182.52.364.762.564a23.9,23.9,0,0,1,1.654-2.786,18.552,18.552,0,0,0-1.562-2.64,21.78,21.78,0,0,0-2.063,6.208,15.369,15.369,0,0,1,.874,1.748,21.206,21.206,0,0,1,1-2.348Zm1.877,1.62a9.131,9.131,0,0,1,.706,1.02c.223-.346.465-.692.725-1.02a19.676,19.676,0,0,0-.725-2.621,19.589,19.589,0,0,0-.706,2.621Zm1.32,2.112c.186.419.353.819.5,1.238-.037-.728-.093-1.456-.186-2.166a6.09,6.09,0,0,0-.316.928Zm-2.658-10.013a20.632,20.632,0,0,1,2.045,2.2,22.754,22.754,0,0,1,2.045-2.2,24.249,24.249,0,0,0-2.045-3.131,26.383,26.383,0,0,0-2.045,3.131Zm2.881,3.313a24.119,24.119,0,0,1,1.673,2.786,8.114,8.114,0,0,1,.762-.564,8.4,8.4,0,0,0-.669.746q.558,1.174,1,2.348a12.819,12.819,0,0,1,.874-1.748,22.371,22.371,0,0,0-2.063-6.208,17.1,17.1,0,0,0-1.58,2.64Zm28.4,3.113a12.1,12.1,0,0,1,.892,1.347,15.682,15.682,0,0,1,.911-1.347,19.38,19.38,0,0,1,.335-2.039,13.806,13.806,0,0,0-1.246-1.821,18.673,18.673,0,0,0-1.245,1.821c.149.673.26,1.365.353,2.039Zm15.355.091a13.422,13.422,0,0,1,.985,1.529c.2-.273.428-.528.651-.783a22.48,22.48,0,0,1,.446-2.876c-.242-.4-.5-.819-.8-1.22a18.511,18.511,0,0,0-1.283,3.35Zm1.394,2.33c.056.109.112.218.167.309,0-.218,0-.455.019-.692a3.62,3.62,0,0,0-.186.382Zm.149-6.172a9.75,9.75,0,0,1,.762.746,20.971,20.971,0,0,1,1.71-4.333,20.692,20.692,0,0,0-2.472,3.586Zm-8.96.874a17.483,17.483,0,0,0-.316,5.079,27.487,27.487,0,0,1,1.3-3.423c-.3-.546-.613-1.11-.985-1.657Zm15.28,0a18.881,18.881,0,0,0-.316,5.079,27.483,27.483,0,0,1,1.3-3.423,15.549,15.549,0,0,0-.985-1.657Zm-35.022,1.857a16.338,16.338,0,0,1,1.45-1.93,22.341,22.341,0,0,1,.874,3.4,15.37,15.37,0,0,0-.874,1.748,22.583,22.583,0,0,0-1.45-3.222Zm-1.766,1.11a13.249,13.249,0,0,0-.967,1.529,8.827,8.827,0,0,0-.669-.783,22.386,22.386,0,0,0-.427-2.876c.242-.4.5-.819.781-1.22a17.237,17.237,0,0,1,1.283,3.35Zm-1.394,2.33c-.056.109-.111.218-.149.309,0-.218-.019-.455-.019-.692l.167.382Zm-.149-6.172c-.26.237-.52.492-.762.746a20.879,20.879,0,0,0-1.692-4.333,20.552,20.552,0,0,1,2.454,3.586Zm8.978.874a18.882,18.882,0,0,1,.316,5.079,27.485,27.485,0,0,0-1.3-3.423,15.547,15.547,0,0,1,.985-1.657Zm-15.3,0a17.487,17.487,0,0,1,.316,5.079,27.486,27.486,0,0,0-1.3-3.423c.3-.546.613-1.11.985-1.657Zm-23.478,6.044a9.013,9.013,0,0,0-.39-1.384,20.849,20.849,0,0,0-.335,3.04,9.981,9.981,0,0,1,.725-1.657Zm-1.747-4.187a14.715,14.715,0,0,0-1.469-1.93,22.339,22.339,0,0,0-.874,3.4,12.806,12.806,0,0,1,.874,1.748,25.016,25.016,0,0,1,1.469-3.222Zm-13.607,1.019a12.117,12.117,0,0,1,.892,1.347,15.621,15.621,0,0,1,.911-1.347,19.381,19.381,0,0,1,.335-2.039,13.806,13.806,0,0,0-1.245-1.821,18.651,18.651,0,0,0-1.246,1.821c.149.673.26,1.365.353,2.039Zm15.355.091a13.446,13.446,0,0,1,.985,1.529c.2-.273.428-.528.651-.783a22.477,22.477,0,0,1,.446-2.876c-.242-.4-.5-.819-.8-1.22a18.511,18.511,0,0,0-1.283,3.35Zm1.394,2.33c.056.109.111.218.167.309,0-.218,0-.455.019-.692a3.57,3.57,0,0,0-.186.382Zm.149-6.172a9.772,9.772,0,0,1,.762.746,20.971,20.971,0,0,1,1.71-4.333,20.687,20.687,0,0,0-2.472,3.586Zm-8.96.874a17.477,17.477,0,0,0-.316,5.079,27.484,27.484,0,0,1,1.3-3.423c-.3-.546-.613-1.11-.985-1.657Zm15.28,0a18.876,18.876,0,0,0-.316,5.079,27.482,27.482,0,0,1,1.3-3.423,15.545,15.545,0,0,0-.985-1.657Zm-35.022,1.857a16.352,16.352,0,0,1,1.45-1.93,22.34,22.34,0,0,1,.874,3.4,15.394,15.394,0,0,0-.874,1.748,22.57,22.57,0,0,0-1.45-3.222Zm-1.766,1.11a16.6,16.6,0,0,0-.985,1.529,6.342,6.342,0,0,0-.651-.783,22.367,22.367,0,0,0-.427-2.876c.242-.4.5-.819.781-1.22a17.236,17.236,0,0,1,1.283,3.35Zm-1.394,2.33c-.056.109-.111.218-.149.309,0-.218-.019-.455-.019-.692l.167.382Zm-.149-6.172c-.26.237-.52.492-.762.746a20.879,20.879,0,0,0-1.692-4.333,20.545,20.545,0,0,1,2.454,3.586Zm8.978.874a18.876,18.876,0,0,1,.316,5.079,27.483,27.483,0,0,0-1.3-3.423,15.548,15.548,0,0,1,.985-1.657Zm-15.3,0a17.482,17.482,0,0,1,.316,5.079,27.483,27.483,0,0,0-1.3-3.423,15.545,15.545,0,0,1,.985-1.657Zm185.183,6.044a9.01,9.01,0,0,1,.39-1.384,20.846,20.846,0,0,1,.335,3.04,14.483,14.483,0,0,0-.725-1.657Zm28.906,0a9.014,9.014,0,0,0-.391-1.384,23.779,23.779,0,0,0-.335,3.04,14.457,14.457,0,0,1,.725-1.657Zm-1.747-4.187a16.336,16.336,0,0,0-1.45-1.93,22.347,22.347,0,0,0-.874,3.4,19.222,19.222,0,0,1,.874,1.748,22.589,22.589,0,0,1,1.45-3.222Zm-43.442,4.606a6.075,6.075,0,0,0-.316-.928c-.093.71-.167,1.438-.2,2.166.149-.419.335-.819.52-1.238Zm-1.989-3.732a8.371,8.371,0,0,0-.669-.746,8.118,8.118,0,0,1,.762.564,24.112,24.112,0,0,1,1.673-2.786,17.109,17.109,0,0,0-1.58-2.64,22.375,22.375,0,0,0-2.063,6.208,15.372,15.372,0,0,1,.874,1.748q.446-1.174,1-2.348Zm1.878,1.62c.26.328.5.674.725,1.02a9.128,9.128,0,0,1,.706-1.02,19.589,19.589,0,0,0-.706-2.621,19.653,19.653,0,0,0-.725,2.621Zm1.32,2.112a11.737,11.737,0,0,1,.52,1.238c-.037-.728-.112-1.456-.2-2.166a9.1,9.1,0,0,0-.316.928Zm-2.658-10.013a20.862,20.862,0,0,1,2.063,2.2,20.631,20.631,0,0,1,2.045-2.2,26.383,26.383,0,0,0-2.045-3.131,26.589,26.589,0,0,0-2.063,3.131Zm2.881,3.313a21.714,21.714,0,0,1,1.673,2.786c.242-.2.5-.382.762-.564a8.414,8.414,0,0,0-.669.746q.558,1.174,1,2.348a15.371,15.371,0,0,1,.874-1.748,21.78,21.78,0,0,0-2.063-6.208,20.659,20.659,0,0,0-1.58,2.64Zm28.4,3.113a15.656,15.656,0,0,1,.911,1.347,12.117,12.117,0,0,1,.892-1.347,19.47,19.47,0,0,1,.353-2.039,18.656,18.656,0,0,0-1.246-1.821,13.807,13.807,0,0,0-1.245,1.821,19.424,19.424,0,0,1,.335,2.039Zm15.354.091a11.316,11.316,0,0,1,.985,1.529,8.841,8.841,0,0,1,.669-.783,22.4,22.4,0,0,1,.428-2.876c-.242-.4-.5-.819-.781-1.22a18.606,18.606,0,0,0-1.3,3.35Zm1.413,2.33c.056.109.093.218.149.309,0-.218,0-.455.019-.692l-.167.382Zm.149-6.172c.26.237.52.492.762.746a20.88,20.88,0,0,1,1.692-4.333,20.544,20.544,0,0,0-2.454,3.586Zm-8.978.874a18.876,18.876,0,0,0-.316,5.079,27.463,27.463,0,0,1,1.3-3.423,15.549,15.549,0,0,0-.985-1.657Zm15.3,0a18.172,18.172,0,0,0-.335,5.079,30.913,30.913,0,0,1,1.32-3.423c-.3-.546-.613-1.11-.985-1.657Zm-35.04,1.857a14.732,14.732,0,0,1,1.469-1.93,22.263,22.263,0,0,1,.855,3.4,15.247,15.247,0,0,0-.855,1.748,24.977,24.977,0,0,0-1.469-3.222Zm-1.747,1.11a13.446,13.446,0,0,0-.985,1.529,8.851,8.851,0,0,0-.669-.783,19.545,19.545,0,0,0-.428-2.876c.242-.4.5-.819.8-1.22a18.51,18.51,0,0,1,1.283,3.35Zm-1.394,2.33c-.056.109-.112.218-.167.309,0-.218,0-.455-.019-.692a3.576,3.576,0,0,1,.186.382Zm-.149-6.172a9.771,9.771,0,0,0-.762.746,20.971,20.971,0,0,0-1.71-4.333,21.772,21.772,0,0,1,2.472,3.586Zm8.96.874a17.482,17.482,0,0,1,.316,5.079,27.477,27.477,0,0,0-1.3-3.423,15.527,15.527,0,0,1,.985-1.657Zm-15.28,0a18.877,18.877,0,0,1,.316,5.079,30.738,30.738,0,0,0-1.3-3.423,12.951,12.951,0,0,1,.985-1.657Zm-23.5,6.044a9.012,9.012,0,0,0-.391-1.384,23.8,23.8,0,0,0-.335,3.04,14.462,14.462,0,0,1,.725-1.657Zm-1.747-4.187a16.336,16.336,0,0,0-1.45-1.93,22.341,22.341,0,0,0-.874,3.4,19.266,19.266,0,0,1,.874,1.748,22.571,22.571,0,0,1,1.45-3.222Zm-13.607,1.019a15.686,15.686,0,0,1,.911,1.347,12.094,12.094,0,0,1,.892-1.347,19.5,19.5,0,0,1,.353-2.039,18.678,18.678,0,0,0-1.245-1.821,13.793,13.793,0,0,0-1.246,1.821,19.416,19.416,0,0,1,.335,2.039Zm15.355.091a11.3,11.3,0,0,1,.985,1.529,8.825,8.825,0,0,1,.669-.783,22.386,22.386,0,0,1,.427-2.876c-.242-.4-.5-.819-.781-1.22a18.6,18.6,0,0,0-1.3,3.35Zm1.413,2.33c.056.109.093.218.149.309,0-.218,0-.455.019-.692l-.167.382Zm.149-6.172c.26.237.52.492.762.746a19.887,19.887,0,0,1,1.692-4.333,20.553,20.553,0,0,0-2.454,3.586Zm-8.978.874a18.881,18.881,0,0,0-.316,5.079,27.487,27.487,0,0,1,1.3-3.423,15.549,15.549,0,0,0-.985-1.657Zm15.3,0a18.176,18.176,0,0,0-.335,5.079,30.91,30.91,0,0,1,1.32-3.423c-.3-.546-.613-1.11-.985-1.657Zm-35.04,1.857a14.727,14.727,0,0,1,1.469-1.93,22.267,22.267,0,0,1,.855,3.4,15.264,15.264,0,0,0-.855,1.748,25,25,0,0,0-1.469-3.222Zm-1.747,1.11a13.446,13.446,0,0,0-.985,1.529,8.823,8.823,0,0,0-.669-.783,19.545,19.545,0,0,0-.428-2.876c.242-.4.5-.819.8-1.22a18.51,18.51,0,0,1,1.283,3.35Zm-1.394,2.33c-.056.109-.112.218-.167.309,0-.218,0-.455-.019-.692a3.6,3.6,0,0,1,.186.382Zm-.149-6.172a9.771,9.771,0,0,0-.762.746,20.976,20.976,0,0,0-1.71-4.333,21.78,21.78,0,0,1,2.472,3.586Zm8.96.874a18.149,18.149,0,0,1,.316,5.079,27.477,27.477,0,0,0-1.3-3.423,15.522,15.522,0,0,1,.985-1.657Zm-15.28,0a18.876,18.876,0,0,1,.316,5.079,30.735,30.735,0,0,0-1.3-3.423,12.96,12.96,0,0,1,.985-1.657Z" transform="translate(-50.709 -1587.762)" fill="#0ebaa0" fill-rule="evenodd"/>
      <g id="Grupo_124134" data-name="Grupo 124134" transform="translate(66.34 112.431)">
        <path id="Trazado_119164" data-name="Trazado 119164" d="M535.25,1310.107l-3.38-10.183v-4.27h3.391l.016,0,3.386,0v4.27l-3.393,10.184Z" transform="translate(-531.861 -1245.62)" fill="#fcca99" fill-rule="evenodd"/>
        <path id="Trazado_119165" data-name="Trazado 119165" d="M538.645,964.6l.036-47.461a3.415,3.415,0,0,0-3.4-3.4h0a3.408,3.408,0,0,0-3.4,3.4l-.036,47.461a3.416,3.416,0,0,0,3.4,3.4h0a3.421,3.421,0,0,0,3.4-3.4Z" transform="translate(-531.836 -913.734)" fill="#f59698" fill-rule="evenodd"/>
        <path id="Trazado_119166" data-name="Trazado 119166" d="M538.605,1004.294l.037-48.791-6.8,0-.042,48.786Z" transform="translate(-531.798 -950.029)" fill="#ffcc13" fill-rule="evenodd"/>
        <path id="Trazado_119167" data-name="Trazado 119167" d="M538.862,958.457l.007-2.954-6.8,0-.007,2.954Z" transform="translate(-532.025 -950.029)" fill="#cdcae5" fill-rule="evenodd"/>
        <path id="Trazado_119168" data-name="Trazado 119168" d="M551.641,1387.842h1.284l.016,0h.3l-.79,2.381-.02,0Z" transform="translate(-549.042 -1325.731)" fill="#253d8e" fill-rule="evenodd"/>
        <path id="Trazado_119169" data-name="Trazado 119169" d="M533.5,1304.835l.01-9.178-1.635,0v4.27Z" transform="translate(-531.861 -1245.625)" fill="#f69668" fill-rule="evenodd"/>
        <path id="Trazado_119170" data-name="Trazado 119170" d="M533.476,970.773l.039-53.269a3.411,3.411,0,0,0-1.636,2.906l-.036,47.461a3.408,3.408,0,0,0,1.634,2.9Z" transform="translate(-531.836 -917.01)" fill="#f06666" fill-rule="evenodd"/>
        <path id="Trazado_119171" data-name="Trazado 119171" d="M533.437,1004.274l.037-48.791-1.635,0-.042,48.786Z" transform="translate(-531.798 -950.014)" fill="#f89e1c" fill-rule="evenodd"/>
        <path id="Trazado_119172" data-name="Trazado 119172" d="M533.7,958.443l0-2.96-1.635,0-.007,2.954Z" transform="translate(-532.025 -950.014)" fill="#9494c8" fill-rule="evenodd"/>
      </g>
    </g>
  </g>
</svg>
