<svg xmlns="http://www.w3.org/2000/svg" width="329.214" height="247.464" viewBox="0 0 329.214 247.464">
  <g id="_115" data-name="115" transform="translate(4.758 -75.532)">
    <path id="Trazado_119173" data-name="Trazado 119173" d="M145.276,75.82c33.758-2.388,64.649,10.256,85.341,31.889,32.862,14.83,56.152,45.467,58.212,82.318,3.058,54.759-41.909,102.5-100.441,106.627a111.061,111.061,0,0,1-45.4-6.142c-.742.072-1.484.129-2.239.187C82.214,294.827,32.294,253.79,29.223,199.046c-1.74-31.27,12.182-60.254,35.332-80.132,18.159-24.078,47.207-40.735,80.721-43.094Z" transform="translate(0 0)" fill="#b7eef3"/>
    <g id="Grupo_124146" data-name="Grupo 124146" transform="translate(47.268 267.374)">
      <path id="Trazado_119188" data-name="Trazado 119188" d="M206.135,1720.7c-7.329-9.278-22.37-27.119-22.713-26.35,1.364,1.114,17.219,19.968,21.578,28.719Z" transform="translate(-180.955 -1669.503)" fill="#0ebaa0" fill-rule="evenodd"/>
      <path id="Trazado_119189" data-name="Trazado 119189" d="M164.988,1675.024c.827.293,1.876.09,2.605.826a2.844,2.844,0,0,1,.8,2.614,2.842,2.842,0,0,1-2.605-.826c-.727-.736-.521-1.711-.8-2.614Z" transform="translate(-164.988 -1652.787)" fill="#0ebaa0" fill-rule="evenodd"/>
      <path id="Trazado_119190" data-name="Trazado 119190" d="M177.679,1714.855c.53-.358.864-1.061,1.613-1.166a1.124,1.124,0,1,1,.262,1.833c-.745.105-1.228-.436-1.875-.666Z" transform="translate(-175.98 -1686.256)" fill="#0ebaa0" fill-rule="evenodd"/>
      <path id="Trazado_119191" data-name="Trazado 119191" d="M196.983,1689.074c.166.435.609.783.564,1.327a.813.813,0,1,1-1.336-.109c.045-.547.5-.8.772-1.218Z" transform="translate(-192.028 -1664.957)" fill="#0ebaa0" fill-rule="evenodd"/>
      <path id="Trazado_119192" data-name="Trazado 119192" d="M219.651,1701.308c-.439.7-1.33,1.157-1.438,2.125a2.663,2.663,0,0,0,.938,2.384,2.668,2.668,0,0,0,1.435-2.122c.108-.968-.612-1.562-.935-2.387Z" transform="translate(-211.075 -1675.554)" fill="#0ebaa0" fill-rule="evenodd"/>
      <path id="Trazado_119193" data-name="Trazado 119193" d="M193.428,1746.172c.76-.513,1.24-1.519,2.311-1.675a1.614,1.614,0,1,1,.381,2.632c-1.074.153-1.765-.625-2.692-.957Z" transform="translate(-189.622 -1712.933)" fill="#0ebaa0" fill-rule="evenodd"/>
      <path id="Trazado_119194" data-name="Trazado 119194" d="M247.206,1719.2c-.706.943-2.03,1.494-2.294,2.86a3.812,3.812,0,0,0,1.052,3.516,3.817,3.817,0,0,0,2.3-2.863c.267-1.366-.688-2.3-1.055-3.512Z" transform="translate(-234.148 -1691.047)" fill="#0ebaa0" fill-rule="evenodd"/>
      <path id="Trazado_119195" data-name="Trazado 119195" d="M201.591,1783.043c1.24-.835,2.026-2.484,3.778-2.734a2.635,2.635,0,1,1,.619,4.3c-1.755.251-2.882-1.019-4.4-1.563Z" transform="translate(-196.692 -1743.933)" fill="#0ebaa0" fill-rule="evenodd"/>
      <path id="Trazado_119196" data-name="Trazado 119196" d="M284.823,1740.433c-1.2,1.341-3.286,2-3.873,4.047a5.824,5.824,0,0,0,1.135,5.484,5.824,5.824,0,0,0,3.873-4.047c.587-2.042-.741-3.589-1.135-5.484Z" transform="translate(-265.217 -1709.442)" fill="#0ebaa0" fill-rule="evenodd"/>
      <path id="Trazado_119197" data-name="Trazado 119197" d="M214.514,1829.987c1.932-1.015,3.325-3.271,5.9-3.358a3.834,3.834,0,1,1,.21,6.314c-2.577.084-4-1.934-6.112-2.956Z" transform="translate(-207.885 -1784.098)" fill="#0ebaa0" fill-rule="evenodd"/>
      <path id="Trazado_119198" data-name="Trazado 119198" d="M331.186,1591.182c-1.449-15.941-5.316-47.3-6.271-46.678.722,2.271,4.761,35.379,3.239,48.526Z" transform="translate(-303.51 -1539.728)" fill="#0ebaa0" fill-rule="evenodd"/>
      <path id="Trazado_119199" data-name="Trazado 119199" d="M311.424,1508.882c.721.942,2.06,1.484,2.344,2.859a3.855,3.855,0,0,1-1.03,3.554,3.852,3.852,0,0,1-2.344-2.863c-.281-1.375.672-2.325,1.03-3.551Z" transform="translate(-290.889 -1508.882)" fill="#0ebaa0" fill-rule="evenodd"/>
      <path id="Trazado_119200" data-name="Trazado 119200" d="M297.678,1570.222c.865-.016,1.763-.564,2.691-.134a1.522,1.522,0,1,1-1.056,2.276c-.928-.433-1.071-1.4-1.635-2.141Z" transform="translate(-279.919 -1561.754)" fill="#0ebaa0" fill-rule="evenodd"/>
      <path id="Trazado_119201" data-name="Trazado 119201" d="M335.591,1552.182c-.128.614.112,1.338-.341,1.922a1.1,1.1,0,1,1-1.433-1.116c.453-.584,1.16-.527,1.773-.806Z" transform="translate(-310.829 -1546.387)" fill="#0ebaa0" fill-rule="evenodd"/>
      <path id="Trazado_119202" data-name="Trazado 119202" d="M345.326,1586.047c-1.011.468-2.362.33-3.2,1.347a1.959,1.959,0,1,0,2.492,2.052c.837-1.02.464-2.226.7-3.4Z" transform="translate(-317.668 -1575.719)" fill="#0ebaa0" fill-rule="evenodd"/>
      <path id="Trazado_119203" data-name="Trazado 119203" d="M289.889,1620.355c1.24-.021,2.529-.811,3.86-.19a2.184,2.184,0,1,1-1.515,3.26c-1.331-.618-1.538-2.011-2.345-3.071Z" transform="translate(-273.172 -1605.065)" fill="#0ebaa0" fill-rule="evenodd"/>
      <path id="Trazado_119204" data-name="Trazado 119204" d="M355.944,1631.092c-1.5.546-3.407.2-4.717,1.546a5.162,5.162,0,0,0-1.4,4.765,5.173,5.173,0,0,0,4.72-1.547c1.314-1.351.919-3.116,1.4-4.764Z" transform="translate(-324.972 -1614.735)" fill="#0ebaa0" fill-rule="evenodd"/>
      <path id="Trazado_119205" data-name="Trazado 119205" d="M266.7,1674.4c2.027-.031,4.133-1.318,6.308-.307a6.56,6.56,0,0,1,3.834,5.02,6.572,6.572,0,0,1-6.308.311c-2.175-1.011-2.513-3.288-3.834-5.024Z" transform="translate(-253.087 -1651.642)" fill="#0ebaa0" fill-rule="evenodd"/>
      <path id="Trazado_119206" data-name="Trazado 119206" d="M369.962,1691.343c-2.352.632-5.206-.157-7.383,1.724a7.892,7.892,0,0,0-2.766,7.06,7.883,7.883,0,0,0,7.382-1.728c2.177-1.881,1.815-4.619,2.766-7.057Z" transform="translate(-333.669 -1666.922)" fill="#0ebaa0" fill-rule="evenodd"/>
      <path id="Trazado_119207" data-name="Trazado 119207" d="M243.921,1743.686c2.94.276,6.189-1.251,9.173.556a9.547,9.547,0,0,1,4.743,7.868,9.552,9.552,0,0,1-9.173-.556c-2.984-1.807-3.109-5.15-4.743-7.868Z" transform="translate(-233.357 -1711.964)" fill="#0ebaa0" fill-rule="evenodd"/>
      <path id="Trazado_119208" data-name="Trazado 119208" d="M369.459,1644.98c4.007-13.586,11.059-40.635,10.073-40.438-.146,2.1-7.629,30.65-13.174,40.968Z" transform="translate(-339.406 -1591.738)" fill="#0ebaa0" fill-rule="evenodd"/>
      <path id="Trazado_119209" data-name="Trazado 119209" d="M457.743,1573.076c.286,1.013,1.211,1.9.993,3.119a1.848,1.848,0,1,1-3-.533c.215-1.222,1.31-1.693,2-2.586Z" transform="translate(-416.776 -1564.484)" fill="#0ebaa0" fill-rule="evenodd"/>
      <path id="Trazado_119210" data-name="Trazado 119210" d="M433.367,1618.353c.718.271,1.636.112,2.256.768a1.347,1.347,0,1,1-1.608,1.528c-.624-.659-.426-1.5-.648-2.3Z" transform="translate(-397.447 -1603.701)" fill="#0ebaa0" fill-rule="evenodd"/>
      <path id="Trazado_119211" data-name="Trazado 119211" d="M465.9,1618.488c-.308.464-.344,1.137-.908,1.468a.974.974,0,1,1-.815-1.382c.564-.334,1.13-.056,1.724-.086Z" transform="translate(-423.343 -1603.749)" fill="#0ebaa0" fill-rule="evenodd"/>
      <path id="Trazado_119212" data-name="Trazado 119212" d="M458.893,1652.683c-.983.052-2.05-.5-3.067.065a1.733,1.733,0,1,0,1.379,2.5c1.021-.563,1.106-1.68,1.688-2.565Z" transform="translate(-415.437 -1633.271)" fill="#0ebaa0" fill-rule="evenodd"/>
      <path id="Trazado_119213" data-name="Trazado 119213" d="M410.322,1657.709c1.029.391,2.346.162,3.24,1.106a1.933,1.933,0,1,1-2.313,2.19c-.89-.944-.607-2.158-.927-3.3Z" transform="translate(-377.486 -1637.79)" fill="#0ebaa0" fill-rule="evenodd"/>
      <path id="Trazado_119214" data-name="Trazado 119214" d="M449.439,1695.672c-1.41-.039-2.865-.952-4.386-.267a2.482,2.482,0,1,0,1.679,3.728c1.521-.685,1.774-2.265,2.707-3.461Z" transform="translate(-405.225 -1670.221)" fill="#0ebaa0" fill-rule="evenodd"/>
      <path id="Trazado_119215" data-name="Trazado 119215" d="M373.071,1696.043c1.678.637,3.832.262,5.289,1.8a5.808,5.808,0,0,1,1.512,5.381,5.81,5.81,0,0,1-5.289-1.8c-1.458-1.541-.994-3.523-1.513-5.381Z" transform="translate(-345.221 -1670.993)" fill="#0ebaa0" fill-rule="evenodd"/>
      <path id="Trazado_119216" data-name="Trazado 119216" d="M435.806,1753.591c-2.14-.245-4.229-1.828-6.632-.99a3.79,3.79,0,1,0,2.055,5.895c2.4-.838,3-3.21,4.578-4.9Z" transform="translate(-389.847 -1719.771)" fill="#0ebaa0" fill-rule="evenodd"/>
      <path id="Trazado_119217" data-name="Trazado 119217" d="M332.476,1743.7c2.327,1.19,5.5.991,7.36,3.453a8.441,8.441,0,0,1,1.334,8.018,8.449,8.449,0,0,1-7.36-3.449c-1.864-2.458-.878-5.25-1.334-8.021Z" transform="translate(-310.059 -1712.274)" fill="#0ebaa0" fill-rule="evenodd"/>
    </g>
    <g id="Grupo_124171" data-name="Grupo 124171" transform="translate(-178.604 -541.327)">
      <ellipse id="Elipse_4321" data-name="Elipse 4321" cx="160.114" cy="4.879" rx="160.114" ry="4.879" transform="translate(182.832 852.714)" fill="#a7d4e8" opacity="0.36" style="mix-blend-mode: multiply;isolation: isolate"/>
      <g id="Grupo_124171-2" data-name="Grupo 124171" transform="translate(196.719 674.635)">
        <rect id="Rectángulo_37417" data-name="Rectángulo 37417" width="136.535" height="182.54" rx="10.991" transform="translate(136.535 182.54) rotate(180)" fill="#d9e4ff"/>
        <rect id="Rectángulo_37418" data-name="Rectángulo 37418" width="85.725" height="11.683" transform="translate(111.13 26.429) rotate(180)" fill="#d9e4ff" style="mix-blend-mode: multiply;isolation: isolate"/>
        <rect id="Rectángulo_37419" data-name="Rectángulo 37419" width="70.999" height="7.914" transform="translate(126.653 55.714) rotate(180)" fill="#d9e4ff" style="mix-blend-mode: multiply;isolation: isolate"/>
        <rect id="Rectángulo_37420" data-name="Rectángulo 37420" width="70.999" height="7.914" transform="translate(126.653 79.358) rotate(180)" fill="#d9e4ff" style="mix-blend-mode: multiply;isolation: isolate"/>
        <rect id="Rectángulo_37421" data-name="Rectángulo 37421" width="70.999" height="7.914" transform="translate(126.653 103.001) rotate(180)" fill="#d9e4ff" style="mix-blend-mode: multiply;isolation: isolate"/>
        <rect id="Rectángulo_37422" data-name="Rectángulo 37422" width="118.816" height="7.914" transform="translate(126.653 126.644) rotate(180)" fill="#d9e4ff" style="mix-blend-mode: multiply;isolation: isolate"/>
        <rect id="Rectángulo_37423" data-name="Rectángulo 37423" width="118.816" height="7.914" transform="translate(126.653 150.287) rotate(180)" fill="#d9e4ff" style="mix-blend-mode: multiply;isolation: isolate"/>
        <g id="Grupo_124170" data-name="Grupo 124170" transform="translate(5.61 45.235)">
          <path id="Trazado_119281" data-name="Trazado 119281" d="M360.779,1066.972l9.421-7.368,9.421,7.368v-34.832H360.779Z" transform="translate(-350.405 -1008.794)" fill="#cc3737"/>
          <path id="Trazado_119282" data-name="Trazado 119282" d="M329.29,919.977l-2.8-2.284a.586.586,0,0,0-.879.164L323.816,921a.586.586,0,0,1-.69.267l-3.44-1.117a.586.586,0,0,0-.761.471l-.534,3.578a.586.586,0,0,1-.547.5l-3.611.2a.586.586,0,0,0-.539.714l.794,3.529a.586.586,0,0,1-.33.663l-3.295,1.492a.586.586,0,0,0-.245.86l2.015,3a.586.586,0,0,1-.068.737l-2.533,2.582a.586.586,0,0,0,.083.891l2.964,2.073a.586.586,0,0,1,.2.712l-1.429,3.323a.586.586,0,0,0,.4.8l3.513.862a.586.586,0,0,1,.446.591l-.132,3.615a.586.586,0,0,0,.661.6l3.587-.465a.586.586,0,0,1,.629.39l1.182,3.418a.586.586,0,0,0,.834.323l3.177-1.73a.586.586,0,0,1,.728.136l2.337,2.76a.586.586,0,0,0,.894,0l2.337-2.76a.586.586,0,0,1,.728-.136l3.177,1.73a.586.586,0,0,0,.834-.323l1.182-3.418a.586.586,0,0,1,.629-.39l3.587.465a.586.586,0,0,0,.661-.6l-.132-3.615a.586.586,0,0,1,.446-.591l3.513-.862a.586.586,0,0,0,.4-.8l-1.429-3.323a.586.586,0,0,1,.2-.712l2.964-2.073a.586.586,0,0,0,.082-.891l-2.533-2.582a.586.586,0,0,1-.068-.737l2.015-3a.586.586,0,0,0-.245-.86l-3.295-1.492a.586.586,0,0,1-.33-.663l.794-3.529a.586.586,0,0,0-.539-.714l-3.611-.2a.586.586,0,0,1-.547-.5l-.534-3.578a.586.586,0,0,0-.761-.471l-3.44,1.117a.586.586,0,0,1-.69-.267l-1.79-3.143a.586.586,0,0,0-.879-.164l-2.8,2.284A.586.586,0,0,1,329.29,919.977Z" transform="translate(-309.865 -917.562)" fill="#cf4c4c"/>
          <circle id="Elipse_4322" data-name="Elipse 4322" cx="13.582" cy="13.582" r="13.582" transform="translate(3.457 9.623) rotate(-13.283)" fill="#d9e4ff"/>
          <circle id="Elipse_4323" data-name="Elipse 4323" cx="12.544" cy="12.544" r="12.544" transform="translate(7.252 7.177)" fill="none" stroke="#cf4c4c" stroke-miterlimit="10" stroke-width="3"/>
        </g>
      </g>
      <g id="Grupo_124176" data-name="Grupo 124176" transform="translate(174.811 728.929)">
        <path id="Trazado_119283" data-name="Trazado 119283" d="M361.4,1082.251h0a1.088,1.088,0,0,0-1.088,1.088v1.025a1.088,1.088,0,0,1-1.088,1.088h0a1.088,1.088,0,0,1-1.088-1.088v-1.025a1.088,1.088,0,0,0-1.088-1.088H247.072a1.088,1.088,0,0,0-1.088,1.088v1.025a1.088,1.088,0,0,1-1.088,1.088h0a1.088,1.088,0,0,1-1.088-1.088v-1.025a1.088,1.088,0,0,0-1.088-1.088h0a1.249,1.249,0,0,0-1.249,1.238l-.013,1.461a2.313,2.313,0,0,0,2.132,2.327l58.41,4.586h.09l58.41-4.586a2.313,2.313,0,0,0,2.132-2.327l-.014-1.495A1.215,1.215,0,0,0,361.4,1082.251Z" transform="translate(-227.878 -1057.754)" fill="#173a65"/>
        <path id="Trazado_119284" data-name="Trazado 119284" d="M500.738,1078.311H484.569a28.642,28.642,0,0,1,.108-28.445l2.2-3.814V1006.7h0a9.638,9.638,0,0,1-2.561-9.047l4.554-19.128h0a26.433,26.433,0,0,1,.868-13.191l1.092-3.313h3.645l1.092,3.313a26.433,26.433,0,0,1,.868,13.191h0l4.553,19.126a9.638,9.638,0,0,1-2.563,9.049h0v39.349l2.2,3.814A28.642,28.642,0,0,1,500.738,1078.311Z" transform="translate(-418.487 -962.023)" fill="#122551"/>
        <g id="Grupo_124172" data-name="Grupo 124172" transform="translate(51.853 116.287)">
          <path id="Trazado_119285" data-name="Trazado 119285" d="M476.458,1544.708H439.621a2.251,2.251,0,0,1-2.235-2.516l.886-7.458a2.25,2.25,0,0,1,2.235-1.985h35.066a2.251,2.251,0,0,1,2.235,1.985l.886,7.458A2.251,2.251,0,0,1,476.458,1544.708Z" transform="translate(-435.726 -1532.749)" fill="#122551"/>
          <rect id="Rectángulo_37424" data-name="Rectángulo 37424" width="43.161" height="4.971" rx="2.486" transform="translate(0.733 6.987)" fill="#254675"/>
          <path id="Trazado_119286" data-name="Trazado 119286" d="M473.134,1585.242h-43.04a.793.793,0,0,1-.793-.793h0a.793.793,0,0,1,.793-.793h43.04a.793.793,0,0,1,.793.793h0A.793.793,0,0,1,473.134,1585.242Z" transform="translate(-429.301 -1573.283)" fill="#0c395b"/>
        </g>
        <path id="Trazado_119287" data-name="Trazado 119287" d="M524.031,1040.768h-8.419a.65.65,0,0,1-.65-.65h0a.65.65,0,0,1,.65-.65h8.419a.65.65,0,0,1,.65.65h0A.65.65,0,0,1,524.031,1040.768Z" transform="translate(-445.655 -1023.689)" fill="#173a65"/>
        <path id="Trazado_119288" data-name="Trazado 119288" d="M517.568,1181.473H505.751a1.039,1.039,0,0,1-1.039-1.039h0a1.039,1.039,0,0,1,1.039-1.039h11.817a1.039,1.039,0,0,1,1.039,1.039h0A1.039,1.039,0,0,1,517.568,1181.473Z" transform="translate(-437.493 -1135.104)" fill="#173a65"/>
        <path id="Trazado_119289" data-name="Trazado 119289" d="M517.568,1367.84H505.751a1.039,1.039,0,0,1-1.039-1.039h0a1.039,1.039,0,0,1,1.039-1.039h11.817a1.039,1.039,0,0,1,1.039,1.039h0A1.039,1.039,0,0,1,517.568,1367.84Z" transform="translate(-437.493 -1283.499)" fill="#173a65"/>
        <g id="Grupo_124175" data-name="Grupo 124175" transform="translate(0 26.222)">
          <g id="Grupo_124173" data-name="Grupo 124173" transform="translate(114.536)">
            <path id="Trazado_119290" data-name="Trazado 119290" d="M755.963,1118.106v-27.39l-16.391,27.39h31.639l-15.248-27.39Z" transform="translate(-739.036 -1090.716)" fill="none" stroke="#022b3f" stroke-linejoin="round" stroke-width="3"/>
            <path id="Trazado_119291" data-name="Trazado 119291" d="M767.591,1227.182H739a.453.453,0,0,1-.424-.293l-1.608-4.264a.454.454,0,0,1,.424-.613h31.8a.453.453,0,0,1,.424.613l-1.608,4.264A.453.453,0,0,1,767.591,1227.182Z" transform="translate(-736.942 -1195.26)" fill="#122551"/>
            <path id="Trazado_119292" data-name="Trazado 119292" d="M769.373,1223.287H737.221l-.25-.662a.454.454,0,0,1,.424-.613h31.8a.453.453,0,0,1,.424.613Z" transform="translate(-736.942 -1195.26)" fill="#173a65"/>
          </g>
          <g id="Grupo_124174" data-name="Grupo 124174">
            <path id="Trazado_119293" data-name="Trazado 119293" d="M193.831,1118.106v-27.39l-16.391,27.39h31.639l-15.248-27.39Z" transform="translate(-176.904 -1090.716)" fill="none" stroke="#022b3f" stroke-linejoin="round" stroke-width="3"/>
            <path id="Trazado_119294" data-name="Trazado 119294" d="M205.46,1227.182H176.872a.453.453,0,0,1-.424-.293l-1.608-4.264a.453.453,0,0,1,.424-.613h31.8a.453.453,0,0,1,.424.613l-1.608,4.264A.453.453,0,0,1,205.46,1227.182Z" transform="translate(-174.811 -1195.26)" fill="#122551"/>
            <path id="Trazado_119295" data-name="Trazado 119295" d="M207.242,1223.287H175.09l-.25-.662a.453.453,0,0,1,.424-.613h31.8a.453.453,0,0,1,.424.613Z" transform="translate(-174.811 -1195.26)" fill="#173a65"/>
          </g>
        </g>
      </g>
      <g id="Grupo_124177" data-name="Grupo 124177" transform="translate(415.834 701.431)">
        <rect id="Rectángulo_37425" data-name="Rectángulo 37425" width="155.744" height="31.915" rx="3" transform="translate(31.915 0) rotate(90)" fill="#0c395b"/>
        <rect id="Rectángulo_37426" data-name="Rectángulo 37426" width="17.686" height="31.915" transform="translate(31.915 17.142) rotate(90)" fill="#022b3f"/>
        <rect id="Rectángulo_37427" data-name="Rectángulo 37427" width="17.686" height="31.915" transform="translate(31.915 120.916) rotate(90)" fill="#022b3f"/>
      </g>
      <g id="Grupo_124179" data-name="Grupo 124179" transform="translate(447.729 701.431)">
        <rect id="Rectángulo_37428" data-name="Rectángulo 37428" width="155.744" height="31.915" rx="5" transform="translate(31.915 0) rotate(90)" fill="#254675"/>
        <rect id="Rectángulo_37429" data-name="Rectángulo 37429" width="104.118" height="23.086" transform="translate(27.5 25.813) rotate(90)" fill="#0c395b"/>
        <g id="Grupo_124178" data-name="Grupo 124178" transform="translate(0 8.17)">
          <rect id="Rectángulo_37430" data-name="Rectángulo 37430" width="10.036" height="31.915" transform="translate(0 10.036) rotate(-90)" fill="#022b3f"/>
          <rect id="Rectángulo_37431" data-name="Rectángulo 37431" width="10.036" height="31.915" transform="translate(0 139.405) rotate(-90)" fill="#022b3f"/>
        </g>
      </g>
      <g id="Grupo_124183" data-name="Grupo 124183" transform="translate(279.623 669.282)">
        <path id="Trazado_119296" data-name="Trazado 119296" d="M1095.829,1018.737l-3.808,16.8L1082,1037.614l.566,4.123s9.517.643,12.139-.048,5.308-15.038,5.308-15.038Z" transform="translate(-1001.969 -947.534)" fill="#173a65"/>
        <path id="Trazado_119297" data-name="Trazado 119297" d="M802.792,1018.737l3.808,16.8,10.022,2.081-.566,4.123s-9.517.643-12.139-.048-5.308-15.038-5.308-15.038Z" transform="translate(-776.321 -947.534)" fill="#173a65"/>
        <g id="Grupo_124180" data-name="Grupo 124180" transform="translate(27.501 0)">
          <rect id="Rectángulo_37432" data-name="Rectángulo 37432" width="45.047" height="35.939" transform="translate(10.483 51.263)" fill="#ffcb4a"/>
          <path id="Trazado_119298" data-name="Trazado 119298" d="M920.69,1038.992v16.571a3.5,3.5,0,0,1-.874,2.314l-9.337,10.591a3.5,3.5,0,0,1-2.624,1.185H888.479a3.5,3.5,0,0,1-2.624-1.185l-9.337-10.591a3.5,3.5,0,0,1-.874-2.314v-16.571a3.5,3.5,0,0,1,3.5-3.5h38.05A3.5,3.5,0,0,1,920.69,1038.992Z" transform="translate(-865.16 -960.876)" fill="#0c395b"/>
          <rect id="Rectángulo_37433" data-name="Rectángulo 37433" width="49.26" height="6.887" rx="3.443" transform="translate(8.377 73.517)" fill="#022b3f"/>
          <rect id="Rectángulo_37434" data-name="Rectángulo 37434" width="49.26" height="6.887" rx="3.443" transform="translate(8.377 84.102)" fill="#022b3f"/>
          <circle id="Elipse_4324" data-name="Elipse 4324" cx="33.006" cy="33.006" r="33.006" fill="#ffcb4a"/>
        </g>
        <path id="Trazado_119299" data-name="Trazado 119299" d="M691.251,1566.154s-1.768,3.4-1.86,3.782a13.775,13.775,0,0,0-.171,1.37h7.158v-.866l-.688-4.1Z" transform="translate(-689.22 -1383.413)" fill="#171c28"/>
        <path id="Trazado_119300" data-name="Trazado 119300" d="M788.372,1568.047l-.086,4.681h2.174l.158-.569,2.219.569h9.509s-.085-1.4-.371-1.674-8.207-3.114-8.207-3.114Z" transform="translate(-768.101 -1384.834)" fill="#171c28"/>
        <path id="Trazado_119301" data-name="Trazado 119301" d="M698.647,1199.418l-4.24,75.45,6.151.211,8.089-40.231,4.579,40.419,6.744-.624,1.169-75.484Z" transform="translate(-693.35 -1091.195)" fill="#0c395b"/>
        <path id="Trazado_119302" data-name="Trazado 119302" d="M764.291,1323.385l3.125-13.032-2.561,17.926Z" transform="translate(-748.995 -1179.732)" fill="#022b3f"/>
        <path id="Trazado_119303" data-name="Trazado 119303" d="M703.377,988.259s-8.708,3.307-9.244,4.891c-1.537,4.547,3.841,26.278,4.067,30.6s-2.672,20.061-2.672,20.061l18.01-.176,3.72-12.256,3.443-.04-.188,12.518h.818l.3-12.8-.728-31.429s-1.235-7.287-1.912-7.853-6.292-3.122-6.292-3.122Z" transform="translate(-692.913 -923.266)" fill="#254675"/>
        <path id="Trazado_119304" data-name="Trazado 119304" d="M740.578,986.982l1.062,2.9,1.978,3.836,3.459.764-1.3,1.915,8.075,14.266.6-15.931-1-.875.71-1.144-2.124-3.335-.831.054-7.983-.926-1.588-1.851Z" transform="translate(-730.114 -921.99)" fill="#3b6596"/>
        <path id="Trazado_119305" data-name="Trazado 119305" d="M758.857,906.8c.166,1.686-.857,2.9-.84,4.4.128.805.6,4.194.37,4.3a3.661,3.661,0,0,1-.934.091s-.868,2.954-1.213,3.083a16.863,16.863,0,0,1-2.542.016l.627,4.505-.13.853-1.179-.089-4.06-2.073-3.158-1.353.2-2.052.4-12.131,8.38-2.739S758.691,905.11,758.857,906.8Z" transform="translate(-734.27 -855.862)" fill="#f7a890"/>
        <path id="Trazado_119306" data-name="Trazado 119306" d="M745.8,986.656l3.158,1.353,4.06,2.073,1.179.089.13-.853-.27-1.943,2.063,1.537.826,4.806,1.064,16.948-5.252-16.76-5.37-5.4Z" transform="translate(-734.27 -921.99)" fill="#d9e4ff"/>
        <g id="Grupo_124181" data-name="Grupo 124181" transform="translate(18.746 68.091)">
          <path id="Trazado_119307" data-name="Trazado 119307" d="M782.673,1003.583l1.45.933-.118,1.988,1.667,8.926.542,8.62-2.888-9.21-.965-8.33-1.14-3.044Z" transform="translate(-781.223 -1003.467)" fill="#cf4c4c"/>
          <path id="Trazado_119308" data-name="Trazado 119308" d="M788.459,1017.782l-1.2-.151-.447.158.479-.045Z" transform="translate(-785.676 -1014.745)" fill="#cf4c4c" opacity="0.63" style="mix-blend-mode: multiply;isolation: isolate"/>
          <path id="Trazado_119309" data-name="Trazado 119309" d="M781.223,1003.467l1.415.67,1.486.378-1.45-.933Z" transform="translate(-781.223 -1003.467)" fill="#cf4c4c" opacity="0.63" style="mix-blend-mode: multiply;isolation: isolate"/>
        </g>
        <path id="Trazado_119310" data-name="Trazado 119310" d="M774.017,1001.431,773,1000.91l-.823,2.313.956-1.783,1.109.582Z" transform="translate(-755.272 -933.339)" fill="#c8d9fc"/>
        <path id="Trazado_119311" data-name="Trazado 119311" d="M767.312,971.714l-4.416-1.507,4.512,2.2Z" transform="translate(-747.884 -908.892)" fill="#e58070"/>
        <path id="Trazado_119312" data-name="Trazado 119312" d="M788.34,999.012l1.652-1.285.273,1.591-.494-.675Z" transform="translate(-768.144 -930.805)" fill="#c8d9fc"/>
        <path id="Trazado_119313" data-name="Trazado 119313" d="M745.916,900.762a4.654,4.654,0,0,1-1.854,1.606c-.705.157-.987,4.143-1.414,1.585a1.179,1.179,0,0,0-1.618-.821,1.326,1.326,0,0,0-.66,1.592,3.4,3.4,0,0,0,1.9,2.015c.107.023-.786,1.5-1.349,2.832a4.077,4.077,0,0,1-2.352,1.774c-.219-2.645-.961-4.09-1.587-6.426-2.168-8.1,1.96-8.592,2.893-8.149a4.118,4.118,0,0,1,4.116-1.992c2.34.566,4.258-.353,5.832-.525,2.4-.262,5.215,3.919,1.276,6.091C748.3,901.882,746.3,900.172,745.916,900.762Z" transform="translate(-726.752 -848.405)" fill="#0c1e3e"/>
        <path id="Trazado_119314" data-name="Trazado 119314" d="M810.668,1176.038l1.481,4.818-3.443.04Z" transform="translate(-784.36 -1072.785)" fill="#d9e4ff"/>
        <path id="Trazado_119315" data-name="Trazado 119315" d="M903.268,1024.97l2.365-1.016s1.965-.235,2.684-.327a8.018,8.018,0,0,0,2.179-.549c.424-.233,1.636-.587,1.932-.8.509-.362,1.508-2.45.85-3.122-.112-.114-2.682.655-2.706.572-.043-.144,2.427-.749,2.277-1.3-.145-.534-3.688.239-3.957.324,0-.17,1.021-.556.807-.993-.32-.652-2.789.343-3.266.829-.607.62-.922,1.261-1.532,1.494s-2.484.667-2.484.667Z" transform="translate(-858.977 -946.587)" fill="#f7a890"/>
        <path id="Trazado_119316" data-name="Trazado 119316" d="M728.293,1019.436l17.994,2.943,18.56-1.078.219,5.04s-16.99,3.384-18.779,3.69c-2.672.457-20.056-1.456-20.056-1.456Z" transform="translate(-718.69 -948.091)" fill="#254675"/>
        <path id="Trazado_119317" data-name="Trazado 119317" d="M1249.793,1566.154s1.768,3.4,1.86,3.782a13.754,13.754,0,0,1,.171,1.37h-7.158v-.866l.689-4.1Z" transform="translate(-1131.492 -1383.413)" fill="#171c28"/>
        <path id="Trazado_119318" data-name="Trazado 119318" d="M1125.7,1568.047l.085,4.681h-2.173l-.158-.569-2.219.569h-9.509s.084-1.4.37-1.674,8.207-3.114,8.207-3.114Z" transform="translate(-1025.641 -1384.834)" fill="#171c28"/>
        <path id="Trazado_119319" data-name="Trazado 119319" d="M1165.9,1199.418l4.24,75.45-6.151.211-8.089-40.231-4.579,40.419-6.744-.624-1.169-75.484Z" transform="translate(-1050.87 -1091.195)" fill="#0c395b"/>
        <path id="Trazado_119320" data-name="Trazado 119320" d="M1192.513,1323.385l-3.125-13.032,2.561,17.926Z" transform="translate(-1087.477 -1179.732)" fill="#022b3f"/>
        <path id="Trazado_119321" data-name="Trazado 119321" d="M1157.109,988.259s8.708,3.307,9.243,4.891c1.538,4.547-3.841,26.278-4.067,30.6s2.672,20.061,2.672,20.061l-18.01-.176-3.72-12.256-3.443-.04.188,12.518h-.818l-.3-12.8.728-31.429s1.235-7.287,1.912-7.853,6.293-3.122,6.293-3.122Z" transform="translate(-1047.242 -923.266)" fill="#254675"/>
        <path id="Trazado_119322" data-name="Trazado 119322" d="M1174.211,986.982l-1.062,2.9-1.978,3.836-3.459.764,1.3,1.915-8.074,14.266-.6-15.931,1-.875-.71-1.144,2.124-3.335.831.054,7.983-.926,1.588-1.851Z" transform="translate(-1064.343 -921.99)" fill="#3b6596"/>
        <path id="Trazado_119323" data-name="Trazado 119323" d="M1159.054,906.8c-.166,1.686.857,2.9.839,4.4-.128.805-.6,4.194-.37,4.3a3.662,3.662,0,0,0,.934.091s.868,2.954,1.213,3.083a16.862,16.862,0,0,0,2.542.016l-.627,4.505.13.853,1.179-.089,4.06-2.073,3.158-1.353-.2-2.052-.4-12.131-8.38-2.739S1159.22,905.11,1159.054,906.8Z" transform="translate(-1063.309 -855.862)" fill="#f7a890"/>
        <path id="Trazado_119324" data-name="Trazado 119324" d="M1175.506,986.656l-3.158,1.353-4.06,2.073-1.179.089-.13-.853.27-1.943-2.063,1.537-.826,4.806-1.064,16.948,5.252-16.76,5.37-5.4Z" transform="translate(-1066.702 -921.99)" fill="#d9e4ff"/>
        <g id="Grupo_124182" data-name="Grupo 124182" transform="translate(96.594 68.091)">
          <path id="Trazado_119325" data-name="Trazado 119325" d="M1166.833,1003.583l-1.45.933.118,1.988-1.667,8.926-.542,8.62,2.888-9.21.965-8.33,1.14-3.044Z" transform="translate(-1163.291 -1003.467)" fill="#cf4c4c"/>
          <path id="Trazado_119326" data-name="Trazado 119326" d="M1174.136,1017.782l1.2-.151.447.158-.479-.045Z" transform="translate(-1171.927 -1014.745)" fill="#cf4c4c" opacity="0.63" style="mix-blend-mode: multiply;isolation: isolate"/>
          <path id="Trazado_119327" data-name="Trazado 119327" d="M1176.459,1003.467l-1.415.67-1.486.378,1.45-.933Z" transform="translate(-1171.467 -1003.467)" fill="#cf4c4c" opacity="0.63" style="mix-blend-mode: multiply;isolation: isolate"/>
        </g>
        <path id="Trazado_119328" data-name="Trazado 119328" d="M1186.928,1001.431l1.021-.521.823,2.313-.956-1.783-1.109.582Z" transform="translate(-1085.342 -933.339)" fill="#c8d9fc"/>
        <path id="Trazado_119329" data-name="Trazado 119329" d="M1184.07,971.714l4.416-1.507-4.512,2.2Z" transform="translate(-1083.166 -908.892)" fill="#e58070"/>
        <path id="Trazado_119330" data-name="Trazado 119330" d="M1173.153,999.012l-1.652-1.285-.273,1.591.494-.675Z" transform="translate(-1073.017 -930.805)" fill="#c8d9fc"/>
        <path id="Trazado_119331" data-name="Trazado 119331" d="M1161.816,904.849c.705.157.945,4.642,1.373,2.083a1.179,1.179,0,0,1,1.618-.821,1.327,1.327,0,0,1,.66,1.592,3.4,3.4,0,0,1-1.9,2.015c-.107.023.786,1.5,1.349,2.832a4.077,4.077,0,0,0,2.352,1.775c.219-2.645.961-4.09,1.587-6.426,2.168-8.1-1.96-8.592-2.893-8.149-.841-1.342-8.376-2.246-10.53-1.494-2.278.8-3.05,5.284-.669,6.038C1157.8,905.257,1161.252,904.723,1161.816,904.849Z" transform="translate(-1058.752 -851.385)" fill="#0c1e3e"/>
        <path id="Trazado_119332" data-name="Trazado 119332" d="M1144.894,1176.038l-1.481,4.818,3.443.04Z" transform="translate(-1050.87 -1072.785)" fill="#d9e4ff"/>
        <path id="Trazado_119333" data-name="Trazado 119333" d="M1022.456,1024.97l-2.365-1.016s-1.965-.235-2.684-.327a8.02,8.02,0,0,1-2.179-.549c-.424-.233-1.636-.587-1.932-.8-.509-.362-1.508-2.45-.85-3.122.112-.114,2.682.655,2.706.572.043-.144-2.427-.749-2.277-1.3.145-.534,3.688.239,3.956.324,0-.17-1.02-.556-.807-.993.32-.652,2.789.343,3.266.829.607.62.922,1.261,1.532,1.494s2.484.667,2.484.667Z" transform="translate(-946.414 -946.587)" fill="#f7a890"/>
        <path id="Trazado_119334" data-name="Trazado 119334" d="M1088.96,1019.436l-17.994,2.943-18.56-1.078-.219,5.04s16.99,3.384,18.779,3.69c2.672.457,20.056-1.456,20.056-1.456Z" transform="translate(-978.231 -948.091)" fill="#254675"/>
      </g>
      <g id="Grupo_124184" data-name="Grupo 124184" transform="translate(382.307 760.107)">
        <path id="Trazado_119335" data-name="Trazado 119335" d="M1276.134,1130.682a1.787,1.787,0,0,1,1.561,1.771v23.119c0,34.634-31.032,56.535-42.257,56.535s-42.257-21.9-42.257-56.535v-23.119a1.787,1.787,0,0,1,1.561-1.771c15.148-1.936,28.637-6.541,39.578-15.252a1.791,1.791,0,0,1,2.236,0C1247.5,1124.142,1260.987,1128.746,1276.134,1130.682Z" transform="translate(-1193.181 -1115.038)" fill="#122551"/>
        <path id="Trazado_119336" data-name="Trazado 119336" d="M1254.136,1227.156c-3.623,0-13.071-4.374-21.843-13.762a59.843,59.843,0,0,1-11.02-16.491,52.519,52.519,0,0,1-4.61-21.5V1154.9c15.1-2.255,27.4-7,37.472-14.463,10.071,7.458,22.376,12.208,37.472,14.463v20.506a52.511,52.511,0,0,1-4.61,21.5,59.837,59.837,0,0,1-11.021,16.491C1267.206,1222.782,1257.759,1227.156,1254.136,1227.156Z" transform="translate(-1211.879 -1135.262)" fill="#d9e4ff"/>
        <path id="Trazado_119337" data-name="Trazado 119337" d="M1375.187,1271.132a8.73,8.73,0,1,0-14.859,6.216l-1.585,12.216a.606.606,0,0,0,.6.684h14.224a.606.606,0,0,0,.6-.684l-1.584-12.216A8.7,8.7,0,0,0,1375.187,1271.132Z" transform="translate(-1324.2 -1232.376)" fill="#254675"/>
      </g>
    </g>
    <path id="Trazado_119236" data-name="Trazado 119236" d="M202.341,1816.649a8.839,8.839,0,0,1,.4-1.377,20.352,20.352,0,0,1,.34,3.026,14.281,14.281,0,0,0-.736-1.649Zm-118.883,0c.113-.471.245-.924.4-1.377a23.216,23.216,0,0,1,.359,3.026,11.762,11.762,0,0,0-.755-1.649Zm61.207,0c.113-.471.245-.924.4-1.377a23.259,23.259,0,0,1,.359,3.026,11.777,11.777,0,0,0-.755-1.649Zm29.376,0a8.839,8.839,0,0,0-.4-1.377,20.335,20.335,0,0,0-.34,3.026,9.829,9.829,0,0,1,.736-1.649Zm-1.775-4.167a14.689,14.689,0,0,0-1.492-1.921,21.879,21.879,0,0,0-.887,3.388,12.656,12.656,0,0,1,.887,1.74,24.638,24.638,0,0,1,1.492-3.207Zm-1.435-2.066a15.52,15.52,0,0,1,1.756,1.5,20.52,20.52,0,0,1,1.926-2.718c-.3-.344-.6-.688-.944-1.015a13.109,13.109,0,0,1,1.114.8,21.833,21.833,0,0,1,3.832-3.515c.34-.562.7-1.123,1.1-1.685-.189.435-.359.852-.51,1.268a.784.784,0,0,0,.132-.091c-.057.054-.094.109-.151.163a19.358,19.358,0,0,0-1.265,7.03,17.668,17.668,0,0,1,1.454,2.265,21.59,21.59,0,0,1,1.756-5.11c-.321-.362-.661-.743-1.038-1.123.415.272.812.562,1.189.852a18.986,18.986,0,0,1,1.68-2.718c-.4-.453-.793-.906-1.246-1.359.51.344,1,.707,1.473,1.069A21.5,21.5,0,0,1,184.84,1804a21.5,21.5,0,0,0-1.322,2.374c.68.58,1.322,1.178,1.907,1.776a26.834,26.834,0,0,1,2.114-2.609,28.973,28.973,0,0,0-2.87-3.587,26.381,26.381,0,0,1,3.511,2.935,26.6,26.6,0,0,1,3.53-2.935,31.1,31.1,0,0,0-2.888,3.587,24.525,24.525,0,0,1,2.133,2.609c.585-.6,1.227-1.2,1.907-1.776a25.119,25.119,0,0,0-1.322-2.374,24.638,24.638,0,0,1,1.756,2.029c.472-.362.963-.725,1.473-1.069q-.68.679-1.246,1.359a18.984,18.984,0,0,1,1.68,2.718c.378-.29.774-.58,1.189-.852-.378.38-.717.761-1.038,1.123a21.589,21.589,0,0,1,1.756,5.11,17.668,17.668,0,0,1,1.454-2.265,19.358,19.358,0,0,0-1.265-7.03,1.188,1.188,0,0,1-.151-.163.784.784,0,0,0,.132.091c-.17-.417-.34-.833-.51-1.268.4.562.755,1.124,1.1,1.685a21.047,21.047,0,0,1,3.814,3.515c.359-.272.736-.543,1.133-.8a11.915,11.915,0,0,0-.944,1.015,18.755,18.755,0,0,1,1.907,2.718,14.248,14.248,0,0,1,1.775-1.5,24.52,24.52,0,0,0-5.343-8.461,25.472,25.472,0,0,1,8.175,9.331c.415-.471.85-.924,1.322-1.377A20.892,20.892,0,0,0,207.08,1804a21.319,21.319,0,0,1,3.662,5.037c.378-.29.755-.58,1.171-.852-.359.38-.717.761-1.038,1.123a20.781,20.781,0,0,1,1.756,5.11,19.969,19.969,0,0,1,1.454-2.265v-.127A19.432,19.432,0,0,0,212.4,1810a17.484,17.484,0,0,1,1.68,1.3,20.208,20.208,0,0,0-1.794-7.519,20.718,20.718,0,0,1,3.228,6.722c.4-.4.812-.779,1.246-1.16-.321-.381-.68-.779-1.057-1.16a14.222,14.222,0,0,1,1.322.96,13.959,13.959,0,0,1,1.3-.96c-.378.38-.736.779-1.057,1.16a14.907,14.907,0,0,1,1.246,1.16,21.111,21.111,0,0,1,3.228-6.722,20.581,20.581,0,0,0-1.794,7.519,17.791,17.791,0,0,1,1.7-1.3,17.566,17.566,0,0,0-1.7,2.029v.127a17.664,17.664,0,0,1,1.454,2.265,20.776,20.776,0,0,1,1.756-5.11c-.321-.362-.661-.743-1.038-1.123.415.272.812.562,1.17.852a20.9,20.9,0,0,1,3.681-5.037,20.458,20.458,0,0,0-2.643,5.907,18.066,18.066,0,0,1,1.322,1.377,25.362,25.362,0,0,1,8.194-9.331,24.241,24.241,0,0,0-5.343,8.461,15.519,15.519,0,0,1,1.756,1.5,20.367,20.367,0,0,1,1.907-2.718c-.283-.344-.6-.688-.925-1.015.378.254.755.525,1.114.8a20.571,20.571,0,0,1,3.832-3.515c.321-.562.7-1.123,1.095-1.685-.189.435-.359.852-.51,1.268a.815.815,0,0,1,.132-.091l-.17.163a19.312,19.312,0,0,0-1.246,7.03,19.959,19.959,0,0,1,1.454,2.265,20.71,20.71,0,0,1,1.737-5.11c-.321-.362-.661-.743-1.019-1.123.4.272.793.562,1.17.852A20.8,20.8,0,0,1,242.5,1804a20.372,20.372,0,0,0-2.624,5.907c.472.453.906.906,1.322,1.377a25.023,25.023,0,0,1,3.1-4.693q-.68-.815-1.473-1.631a21.473,21.473,0,0,1,1.756,1.3,24.809,24.809,0,0,1,2.719-2.7c-.434-.544-.906-1.069-1.416-1.613.623.435,1.189.87,1.756,1.323.547-.453,1.133-.888,1.737-1.323-.51.543-.963,1.069-1.4,1.613a24.626,24.626,0,0,1,2.7,2.7,21.481,21.481,0,0,1,1.756-1.3q-.793.816-1.473,1.631a25.135,25.135,0,0,1,3.115,4.693,15.025,15.025,0,0,1,1.322-1.377,20.982,20.982,0,0,0-2.643-5.907,20.309,20.309,0,0,1,3.663,5.037c.378-.29.774-.58,1.189-.852-.378.38-.717.761-1.038,1.123a21.592,21.592,0,0,1,1.756,5.11,17.65,17.65,0,0,1,1.454-2.265,19.359,19.359,0,0,0-1.265-7.03,1.19,1.19,0,0,1-.151-.163.785.785,0,0,0,.132.091c-.17-.417-.34-.833-.51-1.268.4.562.755,1.124,1.095,1.685a21.048,21.048,0,0,1,3.814,3.515c.359-.272.736-.543,1.133-.8-.34.326-.642.67-.944,1.015A20.519,20.519,0,0,1,265,1811.92a12.8,12.8,0,0,1,1.756-1.5,24.52,24.52,0,0,0-5.343-8.461,25.471,25.471,0,0,1,8.175,9.331c.415-.471.849-.924,1.322-1.377a20.891,20.891,0,0,0-2.624-5.907,21.323,21.323,0,0,1,3.663,5.037c.378-.29.755-.58,1.17-.852-.359.38-.717.761-1.038,1.123a20.777,20.777,0,0,1,1.756,5.11,19.99,19.99,0,0,1,1.454-2.265v-.127a19.412,19.412,0,0,0-1.68-2.029,17.467,17.467,0,0,1,1.68,1.3,20.208,20.208,0,0,0-1.793-7.519,20.72,20.72,0,0,1,3.228,6.722c.4-.4.812-.779,1.246-1.16-.321-.381-.68-.779-1.057-1.16a14.256,14.256,0,0,1,1.322.96c.415-.344.85-.652,1.3-.96-.378.38-.736.779-1.057,1.16a14.883,14.883,0,0,1,1.246,1.16,21.112,21.112,0,0,1,3.228-6.722,20.584,20.584,0,0,0-1.793,7.519,17.756,17.756,0,0,1,1.7-1.3,17.551,17.551,0,0,0-1.7,2.029v.127a17.67,17.67,0,0,1,1.454,2.265,21.6,21.6,0,0,1,1.756-5.11c-.321-.362-.661-.743-1.038-1.123.415.272.812.562,1.171.852a20.9,20.9,0,0,1,3.681-5.037,20.455,20.455,0,0,0-2.643,5.907,18.1,18.1,0,0,1,1.322,1.377,25.361,25.361,0,0,1,8.194-9.331,24.241,24.241,0,0,0-5.343,8.461,15.526,15.526,0,0,1,1.756,1.5,20.353,20.353,0,0,1,1.907-2.718c-.283-.344-.6-.688-.925-1.015.378.254.755.525,1.114.8a20.573,20.573,0,0,1,3.832-3.515c.321-.562.7-1.123,1.1-1.685-.189.435-.359.852-.51,1.268a.809.809,0,0,1,.132-.091l-.17.163a19.31,19.31,0,0,0-1.246,7.03,19.965,19.965,0,0,1,1.454,2.265,20.707,20.707,0,0,1,1.737-5.11c-.321-.362-.661-.743-1.019-1.123.4.272.793.562,1.171.852A20.8,20.8,0,0,1,303.7,1804a20.37,20.37,0,0,0-2.624,5.907c.472.453.906.906,1.322,1.377a25.3,25.3,0,0,1,8.175-9.331,23.071,23.071,0,0,0-6.287,11.994,15.182,15.182,0,0,1,.887,1.74,21.838,21.838,0,0,1,8.458-10.726,19.351,19.351,0,0,0-5.947,13.335,11.48,11.48,0,0,1,4.456-5.689,10.124,10.124,0,0,0-2.983,5.744H67.222a10.124,10.124,0,0,0-2.983-5.744,11.436,11.436,0,0,1,4.437,5.689,19.406,19.406,0,0,0-5.928-13.335,21.946,21.946,0,0,1,8.458,10.726,12.656,12.656,0,0,1,.887-1.74,23.071,23.071,0,0,0-6.287-11.994,25.3,25.3,0,0,1,8.175,9.331c.415-.471.849-.924,1.321-1.377A20.888,20.888,0,0,0,72.679,1804a21.323,21.323,0,0,1,3.663,5.037c.378-.29.755-.58,1.17-.852-.359.38-.717.761-1.038,1.123a20.776,20.776,0,0,1,1.756,5.11,19.984,19.984,0,0,1,1.454-2.265,19.311,19.311,0,0,0-1.246-7.03l-.17-.163a.81.81,0,0,1,.132.091c-.151-.417-.321-.833-.51-1.268.4.562.774,1.124,1.1,1.685a21.833,21.833,0,0,1,3.832,3.515c.359-.272.736-.543,1.114-.8-.321.326-.642.67-.925,1.015a20.354,20.354,0,0,1,1.907,2.718,15.534,15.534,0,0,1,1.756-1.5,24.241,24.241,0,0,0-5.343-8.461,25.36,25.36,0,0,1,8.193,9.331,15.062,15.062,0,0,1,1.322-1.377A20.455,20.455,0,0,0,88.2,1804a20.306,20.306,0,0,1,3.663,5.037c.378-.29.774-.58,1.189-.852-.378.38-.717.761-1.038,1.123a21.6,21.6,0,0,1,1.756,5.11,17.653,17.653,0,0,1,1.454-2.265v-.127a17.567,17.567,0,0,0-1.7-2.029,15.393,15.393,0,0,1,1.68,1.3,20.527,20.527,0,0,0-1.775-7.519,21.111,21.111,0,0,1,3.228,6.722,14.885,14.885,0,0,1,1.246-1.16c-.321-.381-.68-.779-1.057-1.16.453.308.887.616,1.3.96a14.257,14.257,0,0,1,1.322-.96c-.378.38-.736.779-1.057,1.16.434.38.85.761,1.246,1.16a20.718,20.718,0,0,1,3.228-6.722,20.206,20.206,0,0,0-1.794,7.519,17.467,17.467,0,0,1,1.68-1.3,17.308,17.308,0,0,0-1.68,2.029v.127a19.984,19.984,0,0,1,1.454,2.265,20.709,20.709,0,0,1,1.737-5.11c-.3-.362-.661-.743-1.019-1.123.415.272.793.562,1.17.852A21.324,21.324,0,0,1,108.1,1804a20.371,20.371,0,0,0-2.624,5.907c.472.453.906.906,1.322,1.377a25.3,25.3,0,0,1,8.175-9.331,24.241,24.241,0,0,0-5.343,8.461,15.52,15.52,0,0,1,1.756,1.5,20.522,20.522,0,0,1,1.926-2.718c-.3-.344-.6-.688-.944-1.015a13.13,13.13,0,0,1,1.114.8,21.834,21.834,0,0,1,3.833-3.515c.34-.562.7-1.123,1.095-1.685-.189.435-.359.852-.51,1.268a.784.784,0,0,0,.132-.091c-.057.054-.094.109-.151.163a19.358,19.358,0,0,0-1.265,7.03,17.651,17.651,0,0,1,1.454,2.265,21.591,21.591,0,0,1,1.756-5.11c-.321-.362-.661-.743-1.038-1.123.415.272.812.562,1.189.852a20.309,20.309,0,0,1,3.663-5.037,20.458,20.458,0,0,0-2.643,5.907,18.094,18.094,0,0,1,1.322,1.377,26,26,0,0,1,3.1-4.693c-.434-.543-.925-1.087-1.454-1.631a21.475,21.475,0,0,1,1.756,1.3,23.053,23.053,0,0,1,2.7-2.7c-.434-.544-.906-1.069-1.4-1.613.6.435,1.189.87,1.737,1.323.548-.453,1.133-.888,1.756-1.323-.51.543-.982,1.069-1.416,1.613a24.818,24.818,0,0,1,2.719,2.7,21.473,21.473,0,0,1,1.756-1.3q-.793.816-1.473,1.631a25.988,25.988,0,0,1,3.1,4.693c.415-.471.85-.924,1.322-1.377a20.371,20.371,0,0,0-2.624-5.907,21.319,21.319,0,0,1,3.663,5.037c.378-.29.755-.58,1.17-.852-.359.38-.717.761-1.038,1.123a20.776,20.776,0,0,1,1.756,5.11,19.966,19.966,0,0,1,1.454-2.265,19.311,19.311,0,0,0-1.246-7.03l-.17-.163a.814.814,0,0,1,.132.091c-.151-.417-.321-.833-.51-1.268.4.562.774,1.124,1.095,1.685a21.839,21.839,0,0,1,3.833,3.515c.359-.272.736-.543,1.114-.8-.321.326-.642.67-.925,1.015a20.367,20.367,0,0,1,1.907,2.718,15.519,15.519,0,0,1,1.756-1.5,24.241,24.241,0,0,0-5.343-8.461,25.361,25.361,0,0,1,8.194,9.331,18.063,18.063,0,0,1,1.322-1.377A20.458,20.458,0,0,0,149.4,1804a20.313,20.313,0,0,1,3.663,5.037c.378-.29.774-.58,1.189-.852-.378.38-.717.761-1.038,1.123a21.589,21.589,0,0,1,1.756,5.11,17.668,17.668,0,0,1,1.454-2.265v-.127a17.562,17.562,0,0,0-1.7-2.029,15.4,15.4,0,0,1,1.68,1.3,20.53,20.53,0,0,0-1.775-7.519,21.111,21.111,0,0,1,3.228,6.722,14.9,14.9,0,0,1,1.246-1.16c-.321-.381-.68-.779-1.057-1.16.453.308.887.616,1.3.96a14.224,14.224,0,0,1,1.322-.96c-.378.38-.736.779-1.057,1.16.434.38.85.761,1.246,1.16a20.718,20.718,0,0,1,3.228-6.722,20.209,20.209,0,0,0-1.794,7.519,17.488,17.488,0,0,1,1.68-1.3,17.324,17.324,0,0,0-1.68,2.029v.127a19.963,19.963,0,0,1,1.454,2.265,20.781,20.781,0,0,1,1.756-5.11c-.321-.362-.68-.743-1.038-1.123.415.272.793.562,1.171.852A21.315,21.315,0,0,1,169.3,1804a20.367,20.367,0,0,0-2.624,5.907c.472.453.906.906,1.322,1.377a25.3,25.3,0,0,1,8.175-9.331,24.241,24.241,0,0,0-5.343,8.461Zm12.46-3.569a19.887,19.887,0,0,0-1.1,3.062,18.066,18.066,0,0,1,1.322,1.377c.4-.761.831-1.5,1.3-2.247a24.294,24.294,0,0,0-1.529-2.192Zm4.89-.29a22.8,22.8,0,0,0-1.51,3.044,22.874,22.874,0,0,1,1.51,2.192,23.123,23.123,0,0,1,1.529-2.192,20.877,20.877,0,0,0-1.529-3.044Zm-2.152,4.838a25.028,25.028,0,0,0-.6,2.555,15.194,15.194,0,0,1,.887,1.74c.189-.526.415-1.051.642-1.558a17.3,17.3,0,0,0-.925-2.736Zm7.061-4.548a20.966,20.966,0,0,0-1.529,2.192c.472.743.906,1.486,1.3,2.247a15.027,15.027,0,0,1,1.322-1.377,19.885,19.885,0,0,0-1.1-3.062Zm-2.756,4.548a19.333,19.333,0,0,0-.906,2.736c.227.507.453,1.033.642,1.558a15.189,15.189,0,0,1,.887-1.74,20.973,20.973,0,0,0-.623-2.555Zm-62.188,5.671a9,9,0,0,0-.321-.924c-.094.707-.17,1.431-.208,2.156a11.546,11.546,0,0,1,.529-1.232Zm-2.02-3.714a8.426,8.426,0,0,0-.68-.743c.264.181.529.363.774.562a23.682,23.682,0,0,1,1.68-2.772,18.379,18.379,0,0,0-1.586-2.627,21.375,21.375,0,0,0-2.1,6.178,15.187,15.187,0,0,1,.887,1.74,20.858,20.858,0,0,1,1.019-2.337Zm1.907,1.613a9.075,9.075,0,0,1,.717,1.015c.227-.344.472-.688.736-1.015a19.291,19.291,0,0,0-.736-2.609,19.2,19.2,0,0,0-.717,2.609Zm1.34,2.1c.189.417.359.815.51,1.232-.038-.725-.094-1.449-.189-2.156a5.993,5.993,0,0,0-.321.924Zm-2.7-9.965a20.666,20.666,0,0,1,2.077,2.192,22.8,22.8,0,0,1,2.077-2.192,24.082,24.082,0,0,0-2.077-3.116,26.211,26.211,0,0,0-2.077,3.116Zm2.926,3.3a23.859,23.859,0,0,1,1.7,2.772,8.352,8.352,0,0,1,.774-.562,8.467,8.467,0,0,0-.68.743q.567,1.169,1.02,2.337a12.641,12.641,0,0,1,.887-1.74,21.957,21.957,0,0,0-2.1-6.178,16.949,16.949,0,0,0-1.6,2.627Zm28.848,3.1a12.023,12.023,0,0,1,.906,1.341,15.535,15.535,0,0,1,.925-1.341,18.993,18.993,0,0,1,.34-2.029,13.749,13.749,0,0,0-1.265-1.812,18.58,18.58,0,0,0-1.265,1.812c.151.67.264,1.359.359,2.029Zm15.594.091a13.351,13.351,0,0,1,1,1.522c.208-.272.434-.525.661-.779a21.953,21.953,0,0,1,.453-2.863c-.245-.4-.51-.815-.812-1.214a18.182,18.182,0,0,0-1.3,3.334Zm1.416,2.319c.057.109.113.218.17.308,0-.218,0-.453.019-.689a3.558,3.558,0,0,0-.189.381Zm.151-6.142a9.783,9.783,0,0,1,.774.743,20.62,20.62,0,0,1,1.737-4.312,20.576,20.576,0,0,0-2.511,3.569Zm-9.1.87a17.058,17.058,0,0,0-.321,5.055,27,27,0,0,1,1.322-3.406,19.186,19.186,0,0,0-1-1.649Zm15.519,0a18.42,18.42,0,0,0-.321,5.055,26.981,26.981,0,0,1,1.322-3.406,15.36,15.36,0,0,0-1-1.649Zm-35.569,1.848a16.269,16.269,0,0,1,1.473-1.921,21.874,21.874,0,0,1,.887,3.388,15.191,15.191,0,0,0-.887,1.74,22.252,22.252,0,0,0-1.473-3.207Zm-1.794,1.105a13.184,13.184,0,0,0-.982,1.522,8.788,8.788,0,0,0-.68-.779,21.842,21.842,0,0,0-.434-2.863c.245-.4.51-.815.793-1.214a16.931,16.931,0,0,1,1.3,3.334Zm-1.416,2.319c-.057.109-.113.218-.151.308,0-.218-.019-.453-.019-.689l.17.381Zm-.151-6.142c-.264.235-.529.489-.774.743a20.519,20.519,0,0,0-1.718-4.312,20.425,20.425,0,0,1,2.492,3.569Zm9.119.87a18.421,18.421,0,0,1,.321,5.055,26.981,26.981,0,0,0-1.322-3.406,15.362,15.362,0,0,1,1-1.649Zm-15.538,0a17.053,17.053,0,0,1,.321,5.055,26.981,26.981,0,0,0-1.322-3.406,19.178,19.178,0,0,1,1-1.649Zm-23.844,6.015a8.842,8.842,0,0,0-.4-1.377,20.35,20.35,0,0,0-.34,3.026,9.84,9.84,0,0,1,.736-1.649Zm-1.775-4.167a14.676,14.676,0,0,0-1.491-1.921,21.862,21.862,0,0,0-.887,3.388,12.656,12.656,0,0,1,.887,1.74,24.634,24.634,0,0,1,1.491-3.207ZM97.24,1813.5a12,12,0,0,1,.906,1.341,15.562,15.562,0,0,1,.925-1.341,18.958,18.958,0,0,1,.34-2.029,13.738,13.738,0,0,0-1.265-1.812,18.6,18.6,0,0,0-1.265,1.812c.151.67.264,1.359.359,2.029Zm15.594.091a13.352,13.352,0,0,1,1,1.522c.208-.272.434-.525.661-.779a21.95,21.95,0,0,1,.453-2.863c-.245-.4-.51-.815-.812-1.214a18.182,18.182,0,0,0-1.3,3.334Zm1.416,2.319c.057.109.113.218.17.308,0-.218,0-.453.019-.689a3.558,3.558,0,0,0-.189.381Zm.151-6.142a9.757,9.757,0,0,1,.774.743,20.612,20.612,0,0,1,1.737-4.312,20.579,20.579,0,0,0-2.511,3.569Zm-9.1.87a17.058,17.058,0,0,0-.321,5.055,26.982,26.982,0,0,1,1.322-3.406,19.188,19.188,0,0,0-1-1.649Zm15.519,0a18.416,18.416,0,0,0-.321,5.055,26.983,26.983,0,0,1,1.322-3.406,15.359,15.359,0,0,0-1-1.649Zm-35.569,1.848a16.285,16.285,0,0,1,1.473-1.921,21.877,21.877,0,0,1,.887,3.388,15.19,15.19,0,0,0-.887,1.74,22.257,22.257,0,0,0-1.473-3.207Zm-1.793,1.105a16.481,16.481,0,0,0-1,1.522,6.319,6.319,0,0,0-.661-.779,21.866,21.866,0,0,0-.434-2.863c.245-.4.51-.815.793-1.214a16.924,16.924,0,0,1,1.3,3.334Zm-1.416,2.319c-.057.109-.113.218-.151.308,0-.218-.019-.453-.019-.689l.17.381Zm-.151-6.142c-.264.235-.529.489-.774.743a20.527,20.527,0,0,0-1.718-4.312,20.425,20.425,0,0,1,2.492,3.569Zm9.119.87a18.421,18.421,0,0,1,.321,5.055,27,27,0,0,0-1.322-3.406,15.359,15.359,0,0,1,1-1.649Zm-15.538,0a17.058,17.058,0,0,1,.321,5.055,26.982,26.982,0,0,0-1.322-3.406,15.358,15.358,0,0,1,1-1.649Zm188.075,6.015a8.843,8.843,0,0,1,.4-1.377,20.352,20.352,0,0,1,.34,3.026,14.281,14.281,0,0,0-.736-1.649Zm29.357,0a8.853,8.853,0,0,0-.4-1.377,23.184,23.184,0,0,0-.34,3.026,14.253,14.253,0,0,1,.736-1.649Zm-1.775-4.167a16.283,16.283,0,0,0-1.473-1.921,21.877,21.877,0,0,0-.887,3.388,18.95,18.95,0,0,1,.887,1.74,22.257,22.257,0,0,1,1.473-3.207Zm-44.121,4.584a5.993,5.993,0,0,0-.321-.924c-.094.707-.17,1.431-.208,2.156.151-.417.34-.815.529-1.232Zm-2.02-3.714a8.445,8.445,0,0,0-.68-.743,8.338,8.338,0,0,1,.774.562,23.861,23.861,0,0,1,1.7-2.772,16.949,16.949,0,0,0-1.6-2.627,21.956,21.956,0,0,0-2.1,6.178,15.168,15.168,0,0,1,.887,1.74q.453-1.169,1.02-2.337Zm1.907,1.613c.264.326.51.67.736,1.015a9.081,9.081,0,0,1,.717-1.015,19.2,19.2,0,0,0-.717-2.609,19.275,19.275,0,0,0-.736,2.609Zm1.34,2.1a11.52,11.52,0,0,1,.529,1.232c-.038-.725-.113-1.449-.208-2.156a9.007,9.007,0,0,0-.321.924Zm-2.7-9.965a20.9,20.9,0,0,1,2.1,2.192,20.666,20.666,0,0,1,2.077-2.192,26.211,26.211,0,0,0-2.077-3.116,26.43,26.43,0,0,0-2.1,3.116Zm2.926,3.3a21.525,21.525,0,0,1,1.7,2.772c.245-.2.51-.38.774-.562a8.467,8.467,0,0,0-.68.743q.567,1.169,1.02,2.337a15.168,15.168,0,0,1,.887-1.74,21.375,21.375,0,0,0-2.1-6.178,20.488,20.488,0,0,0-1.6,2.627Zm28.848,3.1a15.564,15.564,0,0,1,.925,1.341,12,12,0,0,1,.906-1.341,19.081,19.081,0,0,1,.359-2.029,18.594,18.594,0,0,0-1.265-1.812,13.738,13.738,0,0,0-1.265,1.812,18.954,18.954,0,0,1,.34,2.029Zm15.594.091a11.222,11.222,0,0,1,1,1.522,8.813,8.813,0,0,1,.68-.779,21.87,21.87,0,0,1,.434-2.863c-.245-.4-.51-.815-.793-1.214a18.28,18.28,0,0,0-1.322,3.334Zm1.435,2.319c.057.109.094.218.151.308,0-.218,0-.453.019-.689l-.17.381Zm.151-6.142c.264.235.529.489.774.743a20.527,20.527,0,0,1,1.718-4.312,20.427,20.427,0,0,0-2.492,3.569Zm-9.119.87a18.422,18.422,0,0,0-.321,5.055,27,27,0,0,1,1.322-3.406,15.358,15.358,0,0,0-1-1.649Zm15.538,0a17.735,17.735,0,0,0-.34,5.055,30.347,30.347,0,0,1,1.34-3.406,19.189,19.189,0,0,0-1-1.649Zm-35.587,1.848a14.677,14.677,0,0,1,1.491-1.921,21.766,21.766,0,0,1,.868,3.388,15.057,15.057,0,0,0-.868,1.74,24.635,24.635,0,0,0-1.491-3.207Zm-1.775,1.105a13.349,13.349,0,0,0-1,1.522,8.783,8.783,0,0,0-.68-.779,19.07,19.07,0,0,0-.434-2.863c.245-.4.51-.815.812-1.214a18.191,18.191,0,0,1,1.3,3.334Zm-1.416,2.319c-.057.109-.113.218-.17.308,0-.218,0-.453-.019-.689a3.58,3.58,0,0,1,.189.381Zm-.151-6.142a9.758,9.758,0,0,0-.774.743,20.613,20.613,0,0,0-1.737-4.312,21.66,21.66,0,0,1,2.511,3.569Zm9.1.87a17.059,17.059,0,0,1,.321,5.055,26.985,26.985,0,0,0-1.322-3.406,15.353,15.353,0,0,1,1-1.649Zm-15.519,0a18.416,18.416,0,0,1,.321,5.055,30.2,30.2,0,0,0-1.322-3.406,12.806,12.806,0,0,1,1-1.649Zm-23.863,6.015a8.838,8.838,0,0,0-.4-1.377,23.232,23.232,0,0,0-.34,3.026,14.278,14.278,0,0,1,.736-1.649Zm-1.775-4.167a16.265,16.265,0,0,0-1.473-1.921,21.877,21.877,0,0,0-.887,3.388,19,19,0,0,1,.887,1.74,22.254,22.254,0,0,1,1.473-3.207ZM216.1,1813.5a15.528,15.528,0,0,1,.925,1.341,12.027,12.027,0,0,1,.906-1.341,19.042,19.042,0,0,1,.359-2.029,18.577,18.577,0,0,0-1.265-1.812,13.747,13.747,0,0,0-1.265,1.812,18.993,18.993,0,0,1,.34,2.029Zm15.594.091a11.224,11.224,0,0,1,1,1.522,8.788,8.788,0,0,1,.68-.779,21.865,21.865,0,0,1,.434-2.863c-.245-.4-.51-.815-.793-1.214a18.28,18.28,0,0,0-1.322,3.334Zm1.435,2.319c.057.109.094.218.151.308,0-.218,0-.453.019-.689l-.17.381Zm.151-6.142c.264.235.529.489.774.743a19.548,19.548,0,0,1,1.718-4.312,20.427,20.427,0,0,0-2.492,3.569Zm-9.119.87a18.42,18.42,0,0,0-.321,5.055,26.983,26.983,0,0,1,1.322-3.406,15.36,15.36,0,0,0-1-1.649Zm15.538,0a17.73,17.73,0,0,0-.34,5.055,30.344,30.344,0,0,1,1.34-3.406,19.164,19.164,0,0,0-1-1.649Zm-35.587,1.848a14.688,14.688,0,0,1,1.492-1.921,21.8,21.8,0,0,1,.868,3.388,15.055,15.055,0,0,0-.868,1.74,24.634,24.634,0,0,0-1.492-3.207Zm-1.775,1.105a13.351,13.351,0,0,0-1,1.522,8.785,8.785,0,0,0-.68-.779,19.07,19.07,0,0,0-.434-2.863c.245-.4.51-.815.812-1.214a18.184,18.184,0,0,1,1.3,3.334Zm-1.416,2.319c-.057.109-.113.218-.17.308,0-.218,0-.453-.019-.689a3.564,3.564,0,0,1,.189.381Zm-.151-6.142a9.78,9.78,0,0,0-.774.743,20.619,20.619,0,0,0-1.737-4.312,21.655,21.655,0,0,1,2.511,3.569Zm9.1.87a17.712,17.712,0,0,1,.321,5.055,27,27,0,0,0-1.322-3.406,15.36,15.36,0,0,1,1-1.649Zm-15.519,0a18.422,18.422,0,0,1,.321,5.055,30.193,30.193,0,0,0-1.322-3.406,12.806,12.806,0,0,1,1-1.649Z" transform="translate(-29.164 -1495.356)" fill="#42c5a0" fill-rule="evenodd"/>
    <g id="Grupo_124150" data-name="Grupo 124150" transform="translate(39.022 190.281)">
      <path id="Trazado_119246" data-name="Trazado 119246" d="M107.207,932.88l.9,2.93,2.93.9-2.93.9-.9,2.93-.9-2.93-2.93-.9,2.93-.9Z" transform="translate(-103.379 -932.88)" fill="#fff"/>
    </g>
    <g id="Grupo_124151" data-name="Grupo 124151" transform="translate(261.388 115.452)">
      <path id="Trazado_119247" data-name="Trazado 119247" d="M1671.491,904.27l.9,2.93,2.93.9-2.93.9-.9,2.93-.9-2.93-2.93-.9,2.93-.9Z" transform="translate(-1667.663 -904.27)" fill="#fff"/>
    </g>
    <g id="Grupo_124152" data-name="Grupo 124152" transform="translate(296.98 127.956)">
      <path id="Trazado_119248" data-name="Trazado 119248" d="M1855.235,1088.014l.9,2.93,2.929.9-2.929.9-.9,2.93-.9-2.93-2.93-.9,2.93-.9Z" transform="translate(-1851.407 -1088.014)" fill="#fff"/>
    </g>
    <g id="Grupo_124153" data-name="Grupo 124153" transform="translate(54.254 230.541)">
      <path id="Trazado_119249" data-name="Trazado 119249" d="M222.626,1233.686l1.278,4.16,4.16,1.276-4.16,1.278-1.278,4.16-1.276-4.16-4.16-1.278,4.16-1.276Z" transform="translate(-217.19 -1233.686)" fill="#fff"/>
    </g>
    <g id="Grupo_124154" data-name="Grupo 124154" transform="translate(54.254 150.326)">
      <path id="Trazado_119250" data-name="Trazado 119250" d="M222.626,634.352l1.278,4.16,4.16,1.276-4.16,1.278-1.278,4.16-1.276-4.16-4.16-1.278,4.16-1.276Z" transform="translate(-217.19 -634.352)" fill="#fff"/>
    </g>
    <g id="Grupo_124155" data-name="Grupo 124155" transform="translate(56.526 179.093)">
      <path id="Trazado_119251" data-name="Trazado 119251" d="M237.328,849.291l.744,2.422,2.421.743-2.421.744-.744,2.422-.743-2.422-2.422-.744,2.422-.743Z" transform="translate(-234.164 -849.291)" fill="#fff"/>
    </g>
    <g id="Grupo_124156" data-name="Grupo 124156" transform="translate(280.638 99.948)">
      <path id="Trazado_119252" data-name="Trazado 119252" d="M1804.1,751.076l1.278,4.16,4.16,1.276-4.16,1.278-1.278,4.16-1.276-4.16-4.16-1.278,4.16-1.276Z" transform="translate(-1798.659 -751.076)" fill="#fff"/>
    </g>
  </g>
</svg>
