<svg xmlns="http://www.w3.org/2000/svg" width="329.682" height="251.614" viewBox="0 0 329.682 251.614">
  <g id="_116" data-name="116" transform="translate(25.044 -75.532)">
    <path id="Trazado_119173" data-name="Trazado 119173" d="M145.276,75.82c33.758-2.388,64.649,10.256,85.341,31.889,32.862,14.83,56.152,45.467,58.212,82.318,3.058,54.759-41.909,102.5-100.441,106.627a111.061,111.061,0,0,1-45.4-6.142c-.742.072-1.484.129-2.239.187C82.214,294.827,32.294,253.79,29.223,199.046c-1.74-31.27,12.182-60.254,35.332-80.132,18.159-24.078,47.207-40.735,80.721-43.094Z" transform="translate(0 0)" fill="#b7eef3"/>
    <g id="Grupo_124199" data-name="Grupo 124199" transform="translate(-94.185 -579.159)">
      <ellipse id="Elipse_4325" data-name="Elipse 4325" cx="158.278" cy="5.475" rx="158.278" ry="5.475" transform="translate(69.141 895.356)" fill="#a7d4e8" opacity="0.36" style="mix-blend-mode: multiply;isolation: isolate"/>
      <g id="Grupo_124186" data-name="Grupo 124186" transform="translate(269.68 775.809)">
        <path id="Rectángulo_37435" data-name="Rectángulo 37435" d="M31.652,0h0A31.652,31.652,0,0,1,63.3,31.652V71.023a0,0,0,0,1,0,0H0a0,0,0,0,1,0,0V31.652A31.652,31.652,0,0,1,31.652,0Z" transform="translate(11.693 0)" fill="none" stroke="#173a65" stroke-miterlimit="10" stroke-width="10"/>
        <rect id="Rectángulo_37436" data-name="Rectángulo 37436" width="86.69" height="77.161" rx="10.771" transform="translate(0 47.392)" fill="#122551"/>
        <path id="Trazado_119338" data-name="Trazado 119338" d="M1444.679,1364.142a9.8,9.8,0,1,0-16.671,6.975l-1.778,13.706a.68.68,0,0,0,.674.767h15.959a.68.68,0,0,0,.674-.767l-1.778-13.706A9.765,9.765,0,0,0,1444.679,1364.142Z" transform="translate(-1391.539 -1283.996)" fill="#d9e4ff"/>
      </g>
      <g id="Grupo_124188" data-name="Grupo 124188" transform="translate(96.466 695.553)">
        <rect id="Rectángulo_37437" data-name="Rectángulo 37437" width="153.191" height="204.808" rx="10.991" transform="translate(0 0)" fill="#d9e4ff"/>
        <rect id="Rectángulo_37438" data-name="Rectángulo 37438" width="96.183" height="13.108" transform="translate(28.504 16.545)" fill="#d9e4ff" style="mix-blend-mode: multiply;isolation: isolate"/>
        <rect id="Rectángulo_37439" data-name="Rectángulo 37439" width="79.66" height="8.879" transform="translate(11.087 53.631)" fill="#d9e4ff" style="mix-blend-mode: multiply;isolation: isolate"/>
        <rect id="Rectángulo_37440" data-name="Rectángulo 37440" width="79.66" height="8.879" transform="translate(11.087 80.159)" fill="#d9e4ff" style="mix-blend-mode: multiply;isolation: isolate"/>
        <rect id="Rectángulo_37441" data-name="Rectángulo 37441" width="79.66" height="8.879" transform="translate(11.087 106.686)" fill="#d9e4ff" style="mix-blend-mode: multiply;isolation: isolate"/>
        <rect id="Rectángulo_37442" data-name="Rectángulo 37442" width="133.31" height="8.879" transform="translate(11.087 133.214)" fill="#d9e4ff" style="mix-blend-mode: multiply;isolation: isolate"/>
        <rect id="Rectángulo_37443" data-name="Rectángulo 37443" width="133.31" height="8.879" transform="translate(11.087 159.741)" fill="#d9e4ff" style="mix-blend-mode: multiply;isolation: isolate"/>
        <g id="Grupo_124187" data-name="Grupo 124187" transform="translate(96.809 50.753)">
          <path id="Trazado_119339" data-name="Trazado 119339" d="M1025.365,1090.825l-11.919-9.322-11.919,9.322v-44.068h23.839Z" transform="translate(-988.402 -1017.222)" fill="#cc3737"/>
          <path id="Trazado_119340" data-name="Trazado 119340" d="M969.629,920.618l3.548-2.889a.741.741,0,0,1,1.112.208l2.265,3.976a.742.742,0,0,0,.873.338l4.352-1.413a.741.741,0,0,1,.962.6l.675,4.526a.741.741,0,0,0,.692.631l4.569.255a.741.741,0,0,1,.682.9l-1,4.464a.741.741,0,0,0,.417.838l4.168,1.888a.741.741,0,0,1,.31,1.089l-2.55,3.8a.741.741,0,0,0,.086.932l3.2,3.267a.741.741,0,0,1-.1,1.127l-3.75,2.622a.741.741,0,0,0-.256.9l1.808,4.2a.741.741,0,0,1-.5,1.013l-4.444,1.09a.742.742,0,0,0-.564.747l.168,4.573a.742.742,0,0,1-.836.762l-4.538-.589a.742.742,0,0,0-.8.493l-1.5,4.325a.741.741,0,0,1-1.055.409l-4.019-2.188a.741.741,0,0,0-.921.172l-2.957,3.492a.741.741,0,0,1-1.132,0l-2.957-3.492a.742.742,0,0,0-.921-.172L960.7,965.7a.741.741,0,0,1-1.055-.409l-1.5-4.325a.741.741,0,0,0-.8-.493l-4.538.589a.741.741,0,0,1-.836-.762l.168-4.573a.742.742,0,0,0-.564-.747l-4.444-1.09a.741.741,0,0,1-.5-1.013l1.808-4.2a.741.741,0,0,0-.256-.9l-3.75-2.622a.741.741,0,0,1-.1-1.127l3.2-3.267a.741.741,0,0,0,.086-.932l-2.55-3.8a.742.742,0,0,1,.31-1.089l4.168-1.888a.742.742,0,0,0,.417-.838l-1.005-4.464a.741.741,0,0,1,.682-.9l4.569-.255a.742.742,0,0,0,.692-.631l.675-4.526a.741.741,0,0,1,.962-.6l4.353,1.413a.741.741,0,0,0,.873-.338l2.265-3.976a.741.741,0,0,1,1.112-.208l3.548,2.889A.741.741,0,0,0,969.629,920.618Z" transform="translate(-944.117 -917.562)" fill="#cf4c4c"/>
          <circle id="Elipse_4326" data-name="Elipse 4326" cx="17.183" cy="17.183" r="17.183" transform="translate(7.861 7.767)" fill="#d9e4ff"/>
          <circle id="Elipse_4327" data-name="Elipse 4327" cx="15.87" cy="15.87" r="15.87" transform="translate(2.601 24.95) rotate(-45)" fill="none" stroke="#cf4c4c" stroke-miterlimit="10" stroke-width="3"/>
        </g>
      </g>
      <g id="Grupo_124189" data-name="Grupo 124189" transform="translate(226.387 778.316)">
        <rect id="Rectángulo_37444" data-name="Rectángulo 37444" width="50.542" height="40.323" transform="translate(11.762 57.517)" fill="#ffcb4a"/>
        <path id="Trazado_119341" data-name="Trazado 119341" d="M1190.948,1427.714v18.593a3.925,3.925,0,0,1-.981,2.6l-10.476,11.883a3.926,3.926,0,0,1-2.944,1.33h-21.739a3.925,3.925,0,0,1-2.944-1.33l-10.477-11.883a3.925,3.925,0,0,1-.981-2.6v-18.593a3.925,3.925,0,0,1,3.926-3.925h42.691A3.925,3.925,0,0,1,1190.948,1427.714Z" transform="translate(-1128.644 -1340.07)" fill="#0c395b"/>
        <rect id="Rectángulo_37445" data-name="Rectángulo 37445" width="55.269" height="7.727" rx="3.667" transform="translate(9.398 82.486)" fill="#254675"/>
        <rect id="Rectángulo_37446" data-name="Rectángulo 37446" width="55.269" height="7.727" rx="3.667" transform="translate(9.398 94.362)" fill="#254675"/>
        <circle id="Elipse_4328" data-name="Elipse 4328" cx="37.033" cy="37.033" r="37.033" fill="#ffcb4a"/>
      </g>
      <g id="Grupo_124194" data-name="Grupo 124194" transform="translate(176.316 886.944)">
        <path id="Trazado_119366" data-name="Trazado 119366" d="M921.86,1546.167H880.53a2.525,2.525,0,0,1-2.507-2.823l.994-8.368a2.525,2.525,0,0,1,2.507-2.227h39.343a2.525,2.525,0,0,1,2.507,2.227l.993,8.368A2.525,2.525,0,0,1,921.86,1546.167Z" transform="translate(-876.16 -1532.749)" fill="#022b3f"/>
        <path id="Rectángulo_37459" data-name="Rectángulo 37459" d="M2.789,0H45.638a2.789,2.789,0,0,1,2.789,2.789v0a2.789,2.789,0,0,1-2.789,2.789H2.789A2.789,2.789,0,0,1,0,2.789v0A2.789,2.789,0,0,1,2.789,0Z" transform="translate(0.822 7.84)" fill="#254675"/>
        <path id="Trazado_119367" data-name="Trazado 119367" d="M919.115,1585.436H870.824a.89.89,0,0,1-.89-.89h0a.89.89,0,0,1,.89-.89h48.291a.89.89,0,0,1,.89.89h0A.89.89,0,0,1,919.115,1585.436Z" transform="translate(-869.934 -1572.018)" fill="#022b3f"/>
      </g>
      <g id="Grupo_124198" data-name="Grupo 124198" transform="translate(322.443 746.426)">
        <path id="Trazado_119368" data-name="Trazado 119368" d="M1630.4,971.341a57.526,57.526,0,0,0,0,6.431c-.332.453-16.181.641-16.437.379s.13-6.078-.158-8.895C1613.532,966.591,1630.4,971.341,1630.4,971.341Z" transform="translate(-1589.873 -956.931)" fill="#0c1e3e"/>
        <path id="Trazado_119369" data-name="Trazado 119369" d="M1582.188,1202.431l-.669,9.62-3.433,38.108s.462,5.861.366,8.872c-.324,10.235-1.593,26.277-1.593,26.277l-4.263.185c-.815-6.985-.917-13.574-2.546-27.419a53.959,53.959,0,0,1-.081-7.551l-4.011-9.575-3.983,9.422a26.981,26.981,0,0,1-.154,7.934c-2.021,9.3-7.121,20.967-6.9,26.844h-4.533l8.434-82.985Z" transform="translate(-1540.962 -1137.219)" fill="#f7a890"/>
        <path id="Trazado_119370" data-name="Trazado 119370" d="M1594.541,1202.425s2.06,6.641,2.043,11.438c-.015,4.429-2.824,21.323-3.018,33.1l-26.89-.341,1.733-35.182,3.3-9.277Z" transform="translate(-1553.521 -1137.219)" fill="#063856"/>
        <g id="Grupo_124195" data-name="Grupo 124195" transform="translate(0 146.244)">
          <path id="Trazado_119371" data-name="Trazado 119371" d="M1530.392,1559.479l-5.906,2.4a1.3,1.3,0,0,0,1.53,1.575,18.648,18.648,0,0,0,5.022-1.568l3.887-1.65v-.755l-.441-1.684-3.678.19Z" transform="translate(-1520.96 -1557.795)" fill="#f7a890"/>
          <path id="Trazado_119372" data-name="Trazado 119372" d="M1512.661,1570.107a7.9,7.9,0,0,0-2.917,1.82,4.819,4.819,0,0,0-.6,1.457.266.266,0,0,0,.259.333h2.124a14.551,14.551,0,0,0,5.308-.981,23.956,23.956,0,0,1,4.5-1.125l.933,2.107h.947l-.117-5.253a11.1,11.1,0,0,0-1.648.168c-.639.141-4.8,2.229-6.344,2.229A4.04,4.04,0,0,1,1512.661,1570.107Z" transform="translate(-1509.134 -1566.025)" fill="#171c28"/>
        </g>
        <g id="Grupo_124196" data-name="Grupo 124196" transform="translate(31.578 146.326)">
          <path id="Trazado_119373" data-name="Trazado 119373" d="M1647.323,1566.048l.047,2.194-.1,3.466h.794l.17-.582.315.582,3.98,0a2.839,2.839,0,0,0,.407-1.244,4.874,4.874,0,0,0-.2-1.879c-.133-.524-1.15-2.725-1.15-2.725Z" transform="translate(-1647.266 -1564.1)" fill="#171c28"/>
          <path id="Trazado_119374" data-name="Trazado 119374" d="M1651.565,1560.1c.011.131.752,2.134.752,2.428a1.775,1.775,0,0,1-.731,1.394,2.811,2.811,0,0,1-1.821,0c-.665-.185-1.732-2.552-1.895-3.5-.052-.3-.547-.315-.547-.315l-.057-1.693,4.084-.254.236,1.762S1651.551,1559.92,1651.565,1560.1Z" transform="translate(-1647.266 -1558.154)" fill="#f7a890"/>
        </g>
        <path id="Trazado_119375" data-name="Trazado 119375" d="M1524.428,1122.63a7.178,7.178,0,0,1-1.258-.352c-.46-.2-1.134-.586-1.58-.759a6.432,6.432,0,0,0-1.807-.034l.209.591-1.06-.01-.443-.825-1.035-1.8s-.423,0-.5.165a9.452,9.452,0,0,0,.359,2.29,14.754,14.754,0,0,0,.969,1.685s2.308,3.158,2.981,3.324a11.045,11.045,0,0,0,2.174.1l.988.07Z" transform="translate(-1515.159 -1073.408)" fill="#f7a890"/>
        <path id="Trazado_119376" data-name="Trazado 119376" d="M1562.558,1135.1l-12.878-1.7.013,5.765,13.768,3.123Z" transform="translate(-1540.411 -1084.172)" fill="#173a65"/>
        <g id="Grupo_124197" data-name="Grupo 124197" transform="translate(1.421 44.283)">
          <path id="Trazado_119377" data-name="Trazado 119377" d="M1520.843,1121.065h0l-5.28-9.255h0a.262.262,0,0,0-.191.349l5.073,8.891C1520.488,1121.154,1520.66,1121.281,1520.843,1121.065Z" transform="translate(-1515.349 -1111.805)" fill="#142b5a"/>
          <path id="Trazado_119378" data-name="Trazado 119378" d="M1521.563,1121.048l.229-.377a.6.6,0,0,0,.034-.546l-4.615-8.087a.594.594,0,0,0-.487-.249l-.441,0Z" transform="translate(-1516.07 -1111.789)" fill="#d9e4ff"/>
        </g>
        <path id="Trazado_119379" data-name="Trazado 119379" d="M1590.8,1005.758s7.4,4.117,8.11,5.129,1.771,8.3,1.771,8.3l-7.372,29.8s3.139,7.059,3.464,9.831.365,9.323.365,9.323l-20.594-.493-2.833-14.052-2.7-.044-2.6,6.382-.377,7.665h-1.356l1.824-14s3.252-8.187,3.411-12.021c.058-1.394-.328-18.454-.106-20.41.339-2.985,2.908-10.184,3.871-10.954s6.482-3.582,6.482-3.582Z" transform="translate(-1553.521 -985.715)" fill="#254675"/>
        <path id="Trazado_119380" data-name="Trazado 119380" d="M1622.711,983.173l8.112-.415.223,5.321s-11.638,9.579-11.982,9.276c-1.241-.783,3.342-8.469,3.342-8.469Z" transform="translate(-1593.769 -967.973)" fill="#f7a890"/>
        <path id="Trazado_119381" data-name="Trazado 119381" d="M1643.331,985.658l-8.16.374a14.442,14.442,0,0,1-.124,2.332,4.372,4.372,0,0,0,3.077,1.244,5.539,5.539,0,0,0,3.674-1.427A8.221,8.221,0,0,0,1643.331,985.658Z" transform="translate(-1606.261 -970.21)" fill="#f7a890" opacity="0.63" style="mix-blend-mode: multiply;isolation: isolate"/>
        <path id="Trazado_119382" data-name="Trazado 119382" d="M1631.667,935.159l.671,6.184-.673,1.824s-.743,2.045-1.065,2.635c-1.645,3.006-4.427,4.326-5.875,4.326-1.034,0-3.787-.948-5.383-4.326-.345-.731-1.067-2.635-1.067-2.635l-.6-2.2.6-5.8Z" transform="translate(-1592.862 -931.255)" fill="#f7a890"/>
        <path id="Trazado_119383" data-name="Trazado 119383" d="M1626.582,926.971s-3.1.868-10.116-3.279a7.88,7.88,0,0,1-1.328,4.179s-2.01,3.127-2.63,2.536a39.283,39.283,0,0,1-.253-8.284c.1-.908,1.571-4.137,3.729-3.056,0,0,11.229-3.453,12.245,2.571.433,2.567,1.252,6.94.875,10.854a4.919,4.919,0,0,1-2.789.136S1627.638,931.044,1626.582,926.971Z" transform="translate(-1588.576 -918.083)" fill="#0c1e3e"/>
        <path id="Trazado_119384" data-name="Trazado 119384" d="M1618.081,956.947s-.71-2.5-1.946-1.779.257,4.617,1.2,4.727S1618.081,956.947,1618.081,956.947Z" transform="translate(-1591.312 -946.589)" fill="#f7a890"/>
        <path id="Trazado_119385" data-name="Trazado 119385" d="M1673.073,956.333s.578-1.981,1.814-1.258-.257,4.617-1.2,4.727S1673.073,956.333,1673.073,956.333Z" transform="translate(-1635.55 -946.496)" fill="#f7a890"/>
        <path id="Trazado_119386" data-name="Trazado 119386" d="M1614.3,1005.758l-9.148,5.96-2.413,3.024.257-4.97-.791.2-1.683,1.979.485,1-.894.655s-2.738,6.443-2.952,8.031,1.371,8.119,1.371,8.119,3.855-6.623,4.517-7.542,6.36-6.57,6.36-6.57l-1.469-2.038h4.262l2.219-4.3,1.08-3.044Z" transform="translate(-1577.018 -985.715)" fill="#3b6596"/>
        <path id="Trazado_119387" data-name="Trazado 119387" d="M1618.3,1005.758l-3.424,1.44-4.687,1.538-1.037.917-2.414,5.089,2.071-6.623.851-1.49-3.455,3.345.791-.2s-4.423,10.911-4.629,12.361a29.162,29.162,0,0,0,.5,5.507l2.077-5.486,5.006-9.26,6.69-5.135Z" transform="translate(-1581.026 -985.715)" fill="#d9e4ff"/>
        <path id="Trazado_119388" data-name="Trazado 119388" d="M1632.18,1019.7l1.037-.917.928,2.609-1.073-2-.588.279Z" transform="translate(-1604.05 -995.764)" fill="#c8d9fc"/>
        <path id="Trazado_119389" data-name="Trazado 119389" d="M1586.981,1194.871l-1.351,4.561,2.7.045Z" transform="translate(-1568.142 -1131.594)" fill="#d9e4ff"/>
        <path id="Trazado_119390" data-name="Trazado 119390" d="M1680.867,1064.48s3.495,15.623,3.154,18.244-11.161,17.349-11.161,17.349l-2.232-2.246Z" transform="translate(-1633.708 -1031.012)" fill="#254675"/>
        <path id="Trazado_119391" data-name="Trazado 119391" d="M1676.241,1082.159l4.073,13.726-3.724,10.7,2.14-10.435Z" transform="translate(-1638.039 -1044.65)" fill="#173a65"/>
        <path id="Trazado_119392" data-name="Trazado 119392" d="M1671.875,1198.933c-.191.305-.979,1.633-1.434,1.719s-4.013-2.663-3.5-3.227,1.536-2.123,1.536-2.123a12.8,12.8,0,0,1-1.449,1.452c-.2.05-.762-.413-.531-.8s1.41-3.1,1.794-3.081a6.059,6.059,0,0,1,2.181.338,31.088,31.088,0,0,1,1.787,3.976A4.26,4.26,0,0,1,1671.875,1198.933Z" transform="translate(-1630.478 -1130.05)" fill="#f7a890"/>
        <path id="Trazado_119393" data-name="Trazado 119393" d="M1619.29,1022.018l.791-.2.787.117-.883-.562Z" transform="translate(-1594.107 -997.759)" fill="#c8d9fc"/>
      </g>
    </g>
    <g id="Grupo_124146" data-name="Grupo 124146" transform="translate(47.268 267.374)">
      <path id="Trazado_119188" data-name="Trazado 119188" d="M206.135,1720.7c-7.329-9.278-22.37-27.119-22.713-26.35,1.364,1.114,17.219,19.968,21.578,28.719Z" transform="translate(-180.955 -1669.503)" fill="#0ebaa0" fill-rule="evenodd"/>
      <path id="Trazado_119189" data-name="Trazado 119189" d="M164.988,1675.024c.827.293,1.876.09,2.605.826a2.844,2.844,0,0,1,.8,2.614,2.842,2.842,0,0,1-2.605-.826c-.727-.736-.521-1.711-.8-2.614Z" transform="translate(-164.988 -1652.787)" fill="#0ebaa0" fill-rule="evenodd"/>
      <path id="Trazado_119190" data-name="Trazado 119190" d="M177.679,1714.855c.53-.358.864-1.061,1.613-1.166a1.124,1.124,0,1,1,.262,1.833c-.745.105-1.228-.436-1.875-.666Z" transform="translate(-175.98 -1686.256)" fill="#0ebaa0" fill-rule="evenodd"/>
      <path id="Trazado_119191" data-name="Trazado 119191" d="M196.983,1689.074c.166.435.609.783.564,1.327a.813.813,0,1,1-1.336-.109c.045-.547.5-.8.772-1.218Z" transform="translate(-192.028 -1664.957)" fill="#0ebaa0" fill-rule="evenodd"/>
      <path id="Trazado_119192" data-name="Trazado 119192" d="M219.651,1701.308c-.439.7-1.33,1.157-1.438,2.125a2.663,2.663,0,0,0,.938,2.384,2.668,2.668,0,0,0,1.435-2.122c.108-.968-.612-1.562-.935-2.387Z" transform="translate(-211.075 -1675.554)" fill="#0ebaa0" fill-rule="evenodd"/>
      <path id="Trazado_119193" data-name="Trazado 119193" d="M193.428,1746.172c.76-.513,1.24-1.519,2.311-1.675a1.614,1.614,0,1,1,.381,2.632c-1.074.153-1.765-.625-2.692-.957Z" transform="translate(-189.622 -1712.933)" fill="#0ebaa0" fill-rule="evenodd"/>
      <path id="Trazado_119194" data-name="Trazado 119194" d="M247.206,1719.2c-.706.943-2.03,1.494-2.294,2.86a3.812,3.812,0,0,0,1.052,3.516,3.817,3.817,0,0,0,2.3-2.863c.267-1.366-.688-2.3-1.055-3.512Z" transform="translate(-234.148 -1691.047)" fill="#0ebaa0" fill-rule="evenodd"/>
      <path id="Trazado_119195" data-name="Trazado 119195" d="M201.591,1783.043c1.24-.835,2.026-2.484,3.778-2.734a2.635,2.635,0,1,1,.619,4.3c-1.755.251-2.882-1.019-4.4-1.563Z" transform="translate(-196.692 -1743.933)" fill="#0ebaa0" fill-rule="evenodd"/>
      <path id="Trazado_119196" data-name="Trazado 119196" d="M284.823,1740.433c-1.2,1.341-3.286,2-3.873,4.047a5.824,5.824,0,0,0,1.135,5.484,5.824,5.824,0,0,0,3.873-4.047c.587-2.042-.741-3.589-1.135-5.484Z" transform="translate(-265.217 -1709.442)" fill="#0ebaa0" fill-rule="evenodd"/>
      <path id="Trazado_119197" data-name="Trazado 119197" d="M214.514,1829.987c1.932-1.015,3.325-3.271,5.9-3.358a3.834,3.834,0,1,1,.21,6.314c-2.577.084-4-1.934-6.112-2.956Z" transform="translate(-207.885 -1784.098)" fill="#0ebaa0" fill-rule="evenodd"/>
      <path id="Trazado_119198" data-name="Trazado 119198" d="M331.186,1591.182c-1.449-15.941-5.316-47.3-6.271-46.678.722,2.271,4.761,35.379,3.239,48.526Z" transform="translate(-303.51 -1539.728)" fill="#0ebaa0" fill-rule="evenodd"/>
      <path id="Trazado_119199" data-name="Trazado 119199" d="M311.424,1508.882c.721.942,2.06,1.484,2.344,2.859a3.855,3.855,0,0,1-1.03,3.554,3.852,3.852,0,0,1-2.344-2.863c-.281-1.375.672-2.325,1.03-3.551Z" transform="translate(-290.889 -1508.882)" fill="#0ebaa0" fill-rule="evenodd"/>
      <path id="Trazado_119200" data-name="Trazado 119200" d="M297.678,1570.222c.865-.016,1.763-.564,2.691-.134a1.522,1.522,0,1,1-1.056,2.276c-.928-.433-1.071-1.4-1.635-2.141Z" transform="translate(-279.919 -1561.754)" fill="#0ebaa0" fill-rule="evenodd"/>
      <path id="Trazado_119201" data-name="Trazado 119201" d="M335.591,1552.182c-.128.614.112,1.338-.341,1.922a1.1,1.1,0,1,1-1.433-1.116c.453-.584,1.16-.527,1.773-.806Z" transform="translate(-310.829 -1546.387)" fill="#0ebaa0" fill-rule="evenodd"/>
      <path id="Trazado_119202" data-name="Trazado 119202" d="M345.326,1586.047c-1.011.468-2.362.33-3.2,1.347a1.959,1.959,0,1,0,2.492,2.052c.837-1.02.464-2.226.7-3.4Z" transform="translate(-317.668 -1575.719)" fill="#0ebaa0" fill-rule="evenodd"/>
      <path id="Trazado_119203" data-name="Trazado 119203" d="M289.889,1620.355c1.24-.021,2.529-.811,3.86-.19a2.184,2.184,0,1,1-1.515,3.26c-1.331-.618-1.538-2.011-2.345-3.071Z" transform="translate(-273.172 -1605.065)" fill="#0ebaa0" fill-rule="evenodd"/>
      <path id="Trazado_119204" data-name="Trazado 119204" d="M355.944,1631.092c-1.5.546-3.407.2-4.717,1.546a5.162,5.162,0,0,0-1.4,4.765,5.173,5.173,0,0,0,4.72-1.547c1.314-1.351.919-3.116,1.4-4.764Z" transform="translate(-324.972 -1614.735)" fill="#0ebaa0" fill-rule="evenodd"/>
      <path id="Trazado_119205" data-name="Trazado 119205" d="M266.7,1674.4c2.027-.031,4.133-1.318,6.308-.307a6.56,6.56,0,0,1,3.834,5.02,6.572,6.572,0,0,1-6.308.311c-2.175-1.011-2.513-3.288-3.834-5.024Z" transform="translate(-253.087 -1651.642)" fill="#0ebaa0" fill-rule="evenodd"/>
      <path id="Trazado_119206" data-name="Trazado 119206" d="M369.962,1691.343c-2.352.632-5.206-.157-7.383,1.724a7.892,7.892,0,0,0-2.766,7.06,7.883,7.883,0,0,0,7.382-1.728c2.177-1.881,1.815-4.619,2.766-7.057Z" transform="translate(-333.669 -1666.922)" fill="#0ebaa0" fill-rule="evenodd"/>
      <path id="Trazado_119207" data-name="Trazado 119207" d="M243.921,1743.686c2.94.276,6.189-1.251,9.173.556a9.547,9.547,0,0,1,4.743,7.868,9.552,9.552,0,0,1-9.173-.556c-2.984-1.807-3.109-5.15-4.743-7.868Z" transform="translate(-233.357 -1711.964)" fill="#0ebaa0" fill-rule="evenodd"/>
      <path id="Trazado_119208" data-name="Trazado 119208" d="M369.459,1644.98c4.007-13.586,11.059-40.635,10.073-40.438-.146,2.1-7.629,30.65-13.174,40.968Z" transform="translate(-339.406 -1591.738)" fill="#0ebaa0" fill-rule="evenodd"/>
      <path id="Trazado_119209" data-name="Trazado 119209" d="M457.743,1573.076c.286,1.013,1.211,1.9.993,3.119a1.848,1.848,0,1,1-3-.533c.215-1.222,1.31-1.693,2-2.586Z" transform="translate(-416.776 -1564.484)" fill="#0ebaa0" fill-rule="evenodd"/>
      <path id="Trazado_119210" data-name="Trazado 119210" d="M433.367,1618.353c.718.271,1.636.112,2.256.768a1.347,1.347,0,1,1-1.608,1.528c-.624-.659-.426-1.5-.648-2.3Z" transform="translate(-397.447 -1603.701)" fill="#0ebaa0" fill-rule="evenodd"/>
      <path id="Trazado_119211" data-name="Trazado 119211" d="M465.9,1618.488c-.308.464-.344,1.137-.908,1.468a.974.974,0,1,1-.815-1.382c.564-.334,1.13-.056,1.724-.086Z" transform="translate(-423.343 -1603.749)" fill="#0ebaa0" fill-rule="evenodd"/>
      <path id="Trazado_119212" data-name="Trazado 119212" d="M458.893,1652.683c-.983.052-2.05-.5-3.067.065a1.733,1.733,0,1,0,1.379,2.5c1.021-.563,1.106-1.68,1.688-2.565Z" transform="translate(-415.437 -1633.271)" fill="#0ebaa0" fill-rule="evenodd"/>
      <path id="Trazado_119213" data-name="Trazado 119213" d="M410.322,1657.709c1.029.391,2.346.162,3.24,1.106a1.933,1.933,0,1,1-2.313,2.19c-.89-.944-.607-2.158-.927-3.3Z" transform="translate(-377.486 -1637.79)" fill="#0ebaa0" fill-rule="evenodd"/>
      <path id="Trazado_119214" data-name="Trazado 119214" d="M449.439,1695.672c-1.41-.039-2.865-.952-4.386-.267a2.482,2.482,0,1,0,1.679,3.728c1.521-.685,1.774-2.265,2.707-3.461Z" transform="translate(-405.225 -1670.221)" fill="#0ebaa0" fill-rule="evenodd"/>
      <path id="Trazado_119215" data-name="Trazado 119215" d="M373.071,1696.043c1.678.637,3.832.262,5.289,1.8a5.808,5.808,0,0,1,1.512,5.381,5.81,5.81,0,0,1-5.289-1.8c-1.458-1.541-.994-3.523-1.513-5.381Z" transform="translate(-345.221 -1670.993)" fill="#0ebaa0" fill-rule="evenodd"/>
      <path id="Trazado_119216" data-name="Trazado 119216" d="M435.806,1753.591c-2.14-.245-4.229-1.828-6.632-.99a3.79,3.79,0,1,0,2.055,5.895c2.4-.838,3-3.21,4.578-4.9Z" transform="translate(-389.847 -1719.771)" fill="#0ebaa0" fill-rule="evenodd"/>
      <path id="Trazado_119217" data-name="Trazado 119217" d="M332.476,1743.7c2.327,1.19,5.5.991,7.36,3.453a8.441,8.441,0,0,1,1.334,8.018,8.449,8.449,0,0,1-7.36-3.449c-1.864-2.458-.878-5.25-1.334-8.021Z" transform="translate(-310.059 -1712.274)" fill="#0ebaa0" fill-rule="evenodd"/>
    </g>
    <path id="Trazado_119236" data-name="Trazado 119236" d="M202.341,1816.649a8.839,8.839,0,0,1,.4-1.377,20.352,20.352,0,0,1,.34,3.026,14.281,14.281,0,0,0-.736-1.649Zm-118.883,0c.113-.471.245-.924.4-1.377a23.216,23.216,0,0,1,.359,3.026,11.762,11.762,0,0,0-.755-1.649Zm61.207,0c.113-.471.245-.924.4-1.377a23.259,23.259,0,0,1,.359,3.026,11.777,11.777,0,0,0-.755-1.649Zm29.376,0a8.839,8.839,0,0,0-.4-1.377,20.335,20.335,0,0,0-.34,3.026,9.829,9.829,0,0,1,.736-1.649Zm-1.775-4.167a14.689,14.689,0,0,0-1.492-1.921,21.879,21.879,0,0,0-.887,3.388,12.656,12.656,0,0,1,.887,1.74,24.638,24.638,0,0,1,1.492-3.207Zm-1.435-2.066a15.52,15.52,0,0,1,1.756,1.5,20.52,20.52,0,0,1,1.926-2.718c-.3-.344-.6-.688-.944-1.015a13.109,13.109,0,0,1,1.114.8,21.833,21.833,0,0,1,3.832-3.515c.34-.562.7-1.123,1.1-1.685-.189.435-.359.852-.51,1.268a.784.784,0,0,0,.132-.091c-.057.054-.094.109-.151.163a19.358,19.358,0,0,0-1.265,7.03,17.668,17.668,0,0,1,1.454,2.265,21.59,21.59,0,0,1,1.756-5.11c-.321-.362-.661-.743-1.038-1.123.415.272.812.562,1.189.852a18.986,18.986,0,0,1,1.68-2.718c-.4-.453-.793-.906-1.246-1.359.51.344,1,.707,1.473,1.069A21.5,21.5,0,0,1,184.84,1804a21.5,21.5,0,0,0-1.322,2.374c.68.58,1.322,1.178,1.907,1.776a26.834,26.834,0,0,1,2.114-2.609,28.973,28.973,0,0,0-2.87-3.587,26.381,26.381,0,0,1,3.511,2.935,26.6,26.6,0,0,1,3.53-2.935,31.1,31.1,0,0,0-2.888,3.587,24.525,24.525,0,0,1,2.133,2.609c.585-.6,1.227-1.2,1.907-1.776a25.119,25.119,0,0,0-1.322-2.374,24.638,24.638,0,0,1,1.756,2.029c.472-.362.963-.725,1.473-1.069q-.68.679-1.246,1.359a18.984,18.984,0,0,1,1.68,2.718c.378-.29.774-.58,1.189-.852-.378.38-.717.761-1.038,1.123a21.589,21.589,0,0,1,1.756,5.11,17.668,17.668,0,0,1,1.454-2.265,19.358,19.358,0,0,0-1.265-7.03,1.188,1.188,0,0,1-.151-.163.784.784,0,0,0,.132.091c-.17-.417-.34-.833-.51-1.268.4.562.755,1.124,1.1,1.685a21.047,21.047,0,0,1,3.814,3.515c.359-.272.736-.543,1.133-.8a11.915,11.915,0,0,0-.944,1.015,18.755,18.755,0,0,1,1.907,2.718,14.248,14.248,0,0,1,1.775-1.5,24.52,24.52,0,0,0-5.343-8.461,25.472,25.472,0,0,1,8.175,9.331c.415-.471.85-.924,1.322-1.377A20.892,20.892,0,0,0,207.08,1804a21.319,21.319,0,0,1,3.662,5.037c.378-.29.755-.58,1.171-.852-.359.38-.717.761-1.038,1.123a20.781,20.781,0,0,1,1.756,5.11,19.969,19.969,0,0,1,1.454-2.265v-.127A19.432,19.432,0,0,0,212.4,1810a17.484,17.484,0,0,1,1.68,1.3,20.208,20.208,0,0,0-1.794-7.519,20.718,20.718,0,0,1,3.228,6.722c.4-.4.812-.779,1.246-1.16-.321-.381-.68-.779-1.057-1.16a14.222,14.222,0,0,1,1.322.96,13.959,13.959,0,0,1,1.3-.96c-.378.38-.736.779-1.057,1.16a14.907,14.907,0,0,1,1.246,1.16,21.111,21.111,0,0,1,3.228-6.722,20.581,20.581,0,0,0-1.794,7.519,17.791,17.791,0,0,1,1.7-1.3,17.566,17.566,0,0,0-1.7,2.029v.127a17.664,17.664,0,0,1,1.454,2.265,20.776,20.776,0,0,1,1.756-5.11c-.321-.362-.661-.743-1.038-1.123.415.272.812.562,1.17.852a20.9,20.9,0,0,1,3.681-5.037,20.458,20.458,0,0,0-2.643,5.907,18.066,18.066,0,0,1,1.322,1.377,25.362,25.362,0,0,1,8.194-9.331,24.241,24.241,0,0,0-5.343,8.461,15.519,15.519,0,0,1,1.756,1.5,20.367,20.367,0,0,1,1.907-2.718c-.283-.344-.6-.688-.925-1.015.378.254.755.525,1.114.8a20.571,20.571,0,0,1,3.832-3.515c.321-.562.7-1.123,1.095-1.685-.189.435-.359.852-.51,1.268a.815.815,0,0,1,.132-.091l-.17.163a19.312,19.312,0,0,0-1.246,7.03,19.959,19.959,0,0,1,1.454,2.265,20.71,20.71,0,0,1,1.737-5.11c-.321-.362-.661-.743-1.019-1.123.4.272.793.562,1.17.852A20.8,20.8,0,0,1,242.5,1804a20.372,20.372,0,0,0-2.624,5.907c.472.453.906.906,1.322,1.377a25.023,25.023,0,0,1,3.1-4.693q-.68-.815-1.473-1.631a21.473,21.473,0,0,1,1.756,1.3,24.809,24.809,0,0,1,2.719-2.7c-.434-.544-.906-1.069-1.416-1.613.623.435,1.189.87,1.756,1.323.547-.453,1.133-.888,1.737-1.323-.51.543-.963,1.069-1.4,1.613a24.626,24.626,0,0,1,2.7,2.7,21.481,21.481,0,0,1,1.756-1.3q-.793.816-1.473,1.631a25.135,25.135,0,0,1,3.115,4.693,15.025,15.025,0,0,1,1.322-1.377,20.982,20.982,0,0,0-2.643-5.907,20.309,20.309,0,0,1,3.663,5.037c.378-.29.774-.58,1.189-.852-.378.38-.717.761-1.038,1.123a21.592,21.592,0,0,1,1.756,5.11,17.65,17.65,0,0,1,1.454-2.265,19.359,19.359,0,0,0-1.265-7.03,1.19,1.19,0,0,1-.151-.163.785.785,0,0,0,.132.091c-.17-.417-.34-.833-.51-1.268.4.562.755,1.124,1.095,1.685a21.048,21.048,0,0,1,3.814,3.515c.359-.272.736-.543,1.133-.8-.34.326-.642.67-.944,1.015A20.519,20.519,0,0,1,265,1811.92a12.8,12.8,0,0,1,1.756-1.5,24.52,24.52,0,0,0-5.343-8.461,25.471,25.471,0,0,1,8.175,9.331c.415-.471.849-.924,1.322-1.377a20.891,20.891,0,0,0-2.624-5.907,21.323,21.323,0,0,1,3.663,5.037c.378-.29.755-.58,1.17-.852-.359.38-.717.761-1.038,1.123a20.777,20.777,0,0,1,1.756,5.11,19.99,19.99,0,0,1,1.454-2.265v-.127a19.412,19.412,0,0,0-1.68-2.029,17.467,17.467,0,0,1,1.68,1.3,20.208,20.208,0,0,0-1.793-7.519,20.72,20.72,0,0,1,3.228,6.722c.4-.4.812-.779,1.246-1.16-.321-.381-.68-.779-1.057-1.16a14.256,14.256,0,0,1,1.322.96c.415-.344.85-.652,1.3-.96-.378.38-.736.779-1.057,1.16a14.883,14.883,0,0,1,1.246,1.16,21.112,21.112,0,0,1,3.228-6.722,20.584,20.584,0,0,0-1.793,7.519,17.756,17.756,0,0,1,1.7-1.3,17.551,17.551,0,0,0-1.7,2.029v.127a17.67,17.67,0,0,1,1.454,2.265,21.6,21.6,0,0,1,1.756-5.11c-.321-.362-.661-.743-1.038-1.123.415.272.812.562,1.171.852a20.9,20.9,0,0,1,3.681-5.037,20.455,20.455,0,0,0-2.643,5.907,18.1,18.1,0,0,1,1.322,1.377,25.361,25.361,0,0,1,8.194-9.331,24.241,24.241,0,0,0-5.343,8.461,15.526,15.526,0,0,1,1.756,1.5,20.353,20.353,0,0,1,1.907-2.718c-.283-.344-.6-.688-.925-1.015.378.254.755.525,1.114.8a20.573,20.573,0,0,1,3.832-3.515c.321-.562.7-1.123,1.1-1.685-.189.435-.359.852-.51,1.268a.809.809,0,0,1,.132-.091l-.17.163a19.31,19.31,0,0,0-1.246,7.03,19.965,19.965,0,0,1,1.454,2.265,20.707,20.707,0,0,1,1.737-5.11c-.321-.362-.661-.743-1.019-1.123.4.272.793.562,1.171.852A20.8,20.8,0,0,1,303.7,1804a20.37,20.37,0,0,0-2.624,5.907c.472.453.906.906,1.322,1.377a25.3,25.3,0,0,1,8.175-9.331,23.071,23.071,0,0,0-6.287,11.994,15.182,15.182,0,0,1,.887,1.74,21.838,21.838,0,0,1,8.458-10.726,19.351,19.351,0,0,0-5.947,13.335,11.48,11.48,0,0,1,4.456-5.689,10.124,10.124,0,0,0-2.983,5.744H67.222a10.124,10.124,0,0,0-2.983-5.744,11.436,11.436,0,0,1,4.437,5.689,19.406,19.406,0,0,0-5.928-13.335,21.946,21.946,0,0,1,8.458,10.726,12.656,12.656,0,0,1,.887-1.74,23.071,23.071,0,0,0-6.287-11.994,25.3,25.3,0,0,1,8.175,9.331c.415-.471.849-.924,1.321-1.377A20.888,20.888,0,0,0,72.679,1804a21.323,21.323,0,0,1,3.663,5.037c.378-.29.755-.58,1.17-.852-.359.38-.717.761-1.038,1.123a20.776,20.776,0,0,1,1.756,5.11,19.984,19.984,0,0,1,1.454-2.265,19.311,19.311,0,0,0-1.246-7.03l-.17-.163a.81.81,0,0,1,.132.091c-.151-.417-.321-.833-.51-1.268.4.562.774,1.124,1.1,1.685a21.833,21.833,0,0,1,3.832,3.515c.359-.272.736-.543,1.114-.8-.321.326-.642.67-.925,1.015a20.354,20.354,0,0,1,1.907,2.718,15.534,15.534,0,0,1,1.756-1.5,24.241,24.241,0,0,0-5.343-8.461,25.36,25.36,0,0,1,8.193,9.331,15.062,15.062,0,0,1,1.322-1.377A20.455,20.455,0,0,0,88.2,1804a20.306,20.306,0,0,1,3.663,5.037c.378-.29.774-.58,1.189-.852-.378.38-.717.761-1.038,1.123a21.6,21.6,0,0,1,1.756,5.11,17.653,17.653,0,0,1,1.454-2.265v-.127a17.567,17.567,0,0,0-1.7-2.029,15.393,15.393,0,0,1,1.68,1.3,20.527,20.527,0,0,0-1.775-7.519,21.111,21.111,0,0,1,3.228,6.722,14.885,14.885,0,0,1,1.246-1.16c-.321-.381-.68-.779-1.057-1.16.453.308.887.616,1.3.96a14.257,14.257,0,0,1,1.322-.96c-.378.38-.736.779-1.057,1.16.434.38.85.761,1.246,1.16a20.718,20.718,0,0,1,3.228-6.722,20.206,20.206,0,0,0-1.794,7.519,17.467,17.467,0,0,1,1.68-1.3,17.308,17.308,0,0,0-1.68,2.029v.127a19.984,19.984,0,0,1,1.454,2.265,20.709,20.709,0,0,1,1.737-5.11c-.3-.362-.661-.743-1.019-1.123.415.272.793.562,1.17.852A21.324,21.324,0,0,1,108.1,1804a20.371,20.371,0,0,0-2.624,5.907c.472.453.906.906,1.322,1.377a25.3,25.3,0,0,1,8.175-9.331,24.241,24.241,0,0,0-5.343,8.461,15.52,15.52,0,0,1,1.756,1.5,20.522,20.522,0,0,1,1.926-2.718c-.3-.344-.6-.688-.944-1.015a13.13,13.13,0,0,1,1.114.8,21.834,21.834,0,0,1,3.833-3.515c.34-.562.7-1.123,1.095-1.685-.189.435-.359.852-.51,1.268a.784.784,0,0,0,.132-.091c-.057.054-.094.109-.151.163a19.358,19.358,0,0,0-1.265,7.03,17.651,17.651,0,0,1,1.454,2.265,21.591,21.591,0,0,1,1.756-5.11c-.321-.362-.661-.743-1.038-1.123.415.272.812.562,1.189.852a20.309,20.309,0,0,1,3.663-5.037,20.458,20.458,0,0,0-2.643,5.907,18.094,18.094,0,0,1,1.322,1.377,26,26,0,0,1,3.1-4.693c-.434-.543-.925-1.087-1.454-1.631a21.475,21.475,0,0,1,1.756,1.3,23.053,23.053,0,0,1,2.7-2.7c-.434-.544-.906-1.069-1.4-1.613.6.435,1.189.87,1.737,1.323.548-.453,1.133-.888,1.756-1.323-.51.543-.982,1.069-1.416,1.613a24.818,24.818,0,0,1,2.719,2.7,21.473,21.473,0,0,1,1.756-1.3q-.793.816-1.473,1.631a25.988,25.988,0,0,1,3.1,4.693c.415-.471.85-.924,1.322-1.377a20.371,20.371,0,0,0-2.624-5.907,21.319,21.319,0,0,1,3.663,5.037c.378-.29.755-.58,1.17-.852-.359.38-.717.761-1.038,1.123a20.776,20.776,0,0,1,1.756,5.11,19.966,19.966,0,0,1,1.454-2.265,19.311,19.311,0,0,0-1.246-7.03l-.17-.163a.814.814,0,0,1,.132.091c-.151-.417-.321-.833-.51-1.268.4.562.774,1.124,1.095,1.685a21.839,21.839,0,0,1,3.833,3.515c.359-.272.736-.543,1.114-.8-.321.326-.642.67-.925,1.015a20.367,20.367,0,0,1,1.907,2.718,15.519,15.519,0,0,1,1.756-1.5,24.241,24.241,0,0,0-5.343-8.461,25.361,25.361,0,0,1,8.194,9.331,18.063,18.063,0,0,1,1.322-1.377A20.458,20.458,0,0,0,149.4,1804a20.313,20.313,0,0,1,3.663,5.037c.378-.29.774-.58,1.189-.852-.378.38-.717.761-1.038,1.123a21.589,21.589,0,0,1,1.756,5.11,17.668,17.668,0,0,1,1.454-2.265v-.127a17.562,17.562,0,0,0-1.7-2.029,15.4,15.4,0,0,1,1.68,1.3,20.53,20.53,0,0,0-1.775-7.519,21.111,21.111,0,0,1,3.228,6.722,14.9,14.9,0,0,1,1.246-1.16c-.321-.381-.68-.779-1.057-1.16.453.308.887.616,1.3.96a14.224,14.224,0,0,1,1.322-.96c-.378.38-.736.779-1.057,1.16.434.38.85.761,1.246,1.16a20.718,20.718,0,0,1,3.228-6.722,20.209,20.209,0,0,0-1.794,7.519,17.488,17.488,0,0,1,1.68-1.3,17.324,17.324,0,0,0-1.68,2.029v.127a19.963,19.963,0,0,1,1.454,2.265,20.781,20.781,0,0,1,1.756-5.11c-.321-.362-.68-.743-1.038-1.123.415.272.793.562,1.171.852A21.315,21.315,0,0,1,169.3,1804a20.367,20.367,0,0,0-2.624,5.907c.472.453.906.906,1.322,1.377a25.3,25.3,0,0,1,8.175-9.331,24.241,24.241,0,0,0-5.343,8.461Zm12.46-3.569a19.887,19.887,0,0,0-1.1,3.062,18.066,18.066,0,0,1,1.322,1.377c.4-.761.831-1.5,1.3-2.247a24.294,24.294,0,0,0-1.529-2.192Zm4.89-.29a22.8,22.8,0,0,0-1.51,3.044,22.874,22.874,0,0,1,1.51,2.192,23.123,23.123,0,0,1,1.529-2.192,20.877,20.877,0,0,0-1.529-3.044Zm-2.152,4.838a25.028,25.028,0,0,0-.6,2.555,15.194,15.194,0,0,1,.887,1.74c.189-.526.415-1.051.642-1.558a17.3,17.3,0,0,0-.925-2.736Zm7.061-4.548a20.966,20.966,0,0,0-1.529,2.192c.472.743.906,1.486,1.3,2.247a15.027,15.027,0,0,1,1.322-1.377,19.885,19.885,0,0,0-1.1-3.062Zm-2.756,4.548a19.333,19.333,0,0,0-.906,2.736c.227.507.453,1.033.642,1.558a15.189,15.189,0,0,1,.887-1.74,20.973,20.973,0,0,0-.623-2.555Zm-62.188,5.671a9,9,0,0,0-.321-.924c-.094.707-.17,1.431-.208,2.156a11.546,11.546,0,0,1,.529-1.232Zm-2.02-3.714a8.426,8.426,0,0,0-.68-.743c.264.181.529.363.774.562a23.682,23.682,0,0,1,1.68-2.772,18.379,18.379,0,0,0-1.586-2.627,21.375,21.375,0,0,0-2.1,6.178,15.187,15.187,0,0,1,.887,1.74,20.858,20.858,0,0,1,1.019-2.337Zm1.907,1.613a9.075,9.075,0,0,1,.717,1.015c.227-.344.472-.688.736-1.015a19.291,19.291,0,0,0-.736-2.609,19.2,19.2,0,0,0-.717,2.609Zm1.34,2.1c.189.417.359.815.51,1.232-.038-.725-.094-1.449-.189-2.156a5.993,5.993,0,0,0-.321.924Zm-2.7-9.965a20.666,20.666,0,0,1,2.077,2.192,22.8,22.8,0,0,1,2.077-2.192,24.082,24.082,0,0,0-2.077-3.116,26.211,26.211,0,0,0-2.077,3.116Zm2.926,3.3a23.859,23.859,0,0,1,1.7,2.772,8.352,8.352,0,0,1,.774-.562,8.467,8.467,0,0,0-.68.743q.567,1.169,1.02,2.337a12.641,12.641,0,0,1,.887-1.74,21.957,21.957,0,0,0-2.1-6.178,16.949,16.949,0,0,0-1.6,2.627Zm28.848,3.1a12.023,12.023,0,0,1,.906,1.341,15.535,15.535,0,0,1,.925-1.341,18.993,18.993,0,0,1,.34-2.029,13.749,13.749,0,0,0-1.265-1.812,18.58,18.58,0,0,0-1.265,1.812c.151.67.264,1.359.359,2.029Zm15.594.091a13.351,13.351,0,0,1,1,1.522c.208-.272.434-.525.661-.779a21.953,21.953,0,0,1,.453-2.863c-.245-.4-.51-.815-.812-1.214a18.182,18.182,0,0,0-1.3,3.334Zm1.416,2.319c.057.109.113.218.17.308,0-.218,0-.453.019-.689a3.558,3.558,0,0,0-.189.381Zm.151-6.142a9.783,9.783,0,0,1,.774.743,20.62,20.62,0,0,1,1.737-4.312,20.576,20.576,0,0,0-2.511,3.569Zm-9.1.87a17.058,17.058,0,0,0-.321,5.055,27,27,0,0,1,1.322-3.406,19.186,19.186,0,0,0-1-1.649Zm15.519,0a18.42,18.42,0,0,0-.321,5.055,26.981,26.981,0,0,1,1.322-3.406,15.36,15.36,0,0,0-1-1.649Zm-35.569,1.848a16.269,16.269,0,0,1,1.473-1.921,21.874,21.874,0,0,1,.887,3.388,15.191,15.191,0,0,0-.887,1.74,22.252,22.252,0,0,0-1.473-3.207Zm-1.794,1.105a13.184,13.184,0,0,0-.982,1.522,8.788,8.788,0,0,0-.68-.779,21.842,21.842,0,0,0-.434-2.863c.245-.4.51-.815.793-1.214a16.931,16.931,0,0,1,1.3,3.334Zm-1.416,2.319c-.057.109-.113.218-.151.308,0-.218-.019-.453-.019-.689l.17.381Zm-.151-6.142c-.264.235-.529.489-.774.743a20.519,20.519,0,0,0-1.718-4.312,20.425,20.425,0,0,1,2.492,3.569Zm9.119.87a18.421,18.421,0,0,1,.321,5.055,26.981,26.981,0,0,0-1.322-3.406,15.362,15.362,0,0,1,1-1.649Zm-15.538,0a17.053,17.053,0,0,1,.321,5.055,26.981,26.981,0,0,0-1.322-3.406,19.178,19.178,0,0,1,1-1.649Zm-23.844,6.015a8.842,8.842,0,0,0-.4-1.377,20.35,20.35,0,0,0-.34,3.026,9.84,9.84,0,0,1,.736-1.649Zm-1.775-4.167a14.676,14.676,0,0,0-1.491-1.921,21.862,21.862,0,0,0-.887,3.388,12.656,12.656,0,0,1,.887,1.74,24.634,24.634,0,0,1,1.491-3.207ZM97.24,1813.5a12,12,0,0,1,.906,1.341,15.562,15.562,0,0,1,.925-1.341,18.958,18.958,0,0,1,.34-2.029,13.738,13.738,0,0,0-1.265-1.812,18.6,18.6,0,0,0-1.265,1.812c.151.67.264,1.359.359,2.029Zm15.594.091a13.352,13.352,0,0,1,1,1.522c.208-.272.434-.525.661-.779a21.95,21.95,0,0,1,.453-2.863c-.245-.4-.51-.815-.812-1.214a18.182,18.182,0,0,0-1.3,3.334Zm1.416,2.319c.057.109.113.218.17.308,0-.218,0-.453.019-.689a3.558,3.558,0,0,0-.189.381Zm.151-6.142a9.757,9.757,0,0,1,.774.743,20.612,20.612,0,0,1,1.737-4.312,20.579,20.579,0,0,0-2.511,3.569Zm-9.1.87a17.058,17.058,0,0,0-.321,5.055,26.982,26.982,0,0,1,1.322-3.406,19.188,19.188,0,0,0-1-1.649Zm15.519,0a18.416,18.416,0,0,0-.321,5.055,26.983,26.983,0,0,1,1.322-3.406,15.359,15.359,0,0,0-1-1.649Zm-35.569,1.848a16.285,16.285,0,0,1,1.473-1.921,21.877,21.877,0,0,1,.887,3.388,15.19,15.19,0,0,0-.887,1.74,22.257,22.257,0,0,0-1.473-3.207Zm-1.793,1.105a16.481,16.481,0,0,0-1,1.522,6.319,6.319,0,0,0-.661-.779,21.866,21.866,0,0,0-.434-2.863c.245-.4.51-.815.793-1.214a16.924,16.924,0,0,1,1.3,3.334Zm-1.416,2.319c-.057.109-.113.218-.151.308,0-.218-.019-.453-.019-.689l.17.381Zm-.151-6.142c-.264.235-.529.489-.774.743a20.527,20.527,0,0,0-1.718-4.312,20.425,20.425,0,0,1,2.492,3.569Zm9.119.87a18.421,18.421,0,0,1,.321,5.055,27,27,0,0,0-1.322-3.406,15.359,15.359,0,0,1,1-1.649Zm-15.538,0a17.058,17.058,0,0,1,.321,5.055,26.982,26.982,0,0,0-1.322-3.406,15.358,15.358,0,0,1,1-1.649Zm188.075,6.015a8.843,8.843,0,0,1,.4-1.377,20.352,20.352,0,0,1,.34,3.026,14.281,14.281,0,0,0-.736-1.649Zm29.357,0a8.853,8.853,0,0,0-.4-1.377,23.184,23.184,0,0,0-.34,3.026,14.253,14.253,0,0,1,.736-1.649Zm-1.775-4.167a16.283,16.283,0,0,0-1.473-1.921,21.877,21.877,0,0,0-.887,3.388,18.95,18.95,0,0,1,.887,1.74,22.257,22.257,0,0,1,1.473-3.207Zm-44.121,4.584a5.993,5.993,0,0,0-.321-.924c-.094.707-.17,1.431-.208,2.156.151-.417.34-.815.529-1.232Zm-2.02-3.714a8.445,8.445,0,0,0-.68-.743,8.338,8.338,0,0,1,.774.562,23.861,23.861,0,0,1,1.7-2.772,16.949,16.949,0,0,0-1.6-2.627,21.956,21.956,0,0,0-2.1,6.178,15.168,15.168,0,0,1,.887,1.74q.453-1.169,1.02-2.337Zm1.907,1.613c.264.326.51.67.736,1.015a9.081,9.081,0,0,1,.717-1.015,19.2,19.2,0,0,0-.717-2.609,19.275,19.275,0,0,0-.736,2.609Zm1.34,2.1a11.52,11.52,0,0,1,.529,1.232c-.038-.725-.113-1.449-.208-2.156a9.007,9.007,0,0,0-.321.924Zm-2.7-9.965a20.9,20.9,0,0,1,2.1,2.192,20.666,20.666,0,0,1,2.077-2.192,26.211,26.211,0,0,0-2.077-3.116,26.43,26.43,0,0,0-2.1,3.116Zm2.926,3.3a21.525,21.525,0,0,1,1.7,2.772c.245-.2.51-.38.774-.562a8.467,8.467,0,0,0-.68.743q.567,1.169,1.02,2.337a15.168,15.168,0,0,1,.887-1.74,21.375,21.375,0,0,0-2.1-6.178,20.488,20.488,0,0,0-1.6,2.627Zm28.848,3.1a15.564,15.564,0,0,1,.925,1.341,12,12,0,0,1,.906-1.341,19.081,19.081,0,0,1,.359-2.029,18.594,18.594,0,0,0-1.265-1.812,13.738,13.738,0,0,0-1.265,1.812,18.954,18.954,0,0,1,.34,2.029Zm15.594.091a11.222,11.222,0,0,1,1,1.522,8.813,8.813,0,0,1,.68-.779,21.87,21.87,0,0,1,.434-2.863c-.245-.4-.51-.815-.793-1.214a18.28,18.28,0,0,0-1.322,3.334Zm1.435,2.319c.057.109.094.218.151.308,0-.218,0-.453.019-.689l-.17.381Zm.151-6.142c.264.235.529.489.774.743a20.527,20.527,0,0,1,1.718-4.312,20.427,20.427,0,0,0-2.492,3.569Zm-9.119.87a18.422,18.422,0,0,0-.321,5.055,27,27,0,0,1,1.322-3.406,15.358,15.358,0,0,0-1-1.649Zm15.538,0a17.735,17.735,0,0,0-.34,5.055,30.347,30.347,0,0,1,1.34-3.406,19.189,19.189,0,0,0-1-1.649Zm-35.587,1.848a14.677,14.677,0,0,1,1.491-1.921,21.766,21.766,0,0,1,.868,3.388,15.057,15.057,0,0,0-.868,1.74,24.635,24.635,0,0,0-1.491-3.207Zm-1.775,1.105a13.349,13.349,0,0,0-1,1.522,8.783,8.783,0,0,0-.68-.779,19.07,19.07,0,0,0-.434-2.863c.245-.4.51-.815.812-1.214a18.191,18.191,0,0,1,1.3,3.334Zm-1.416,2.319c-.057.109-.113.218-.17.308,0-.218,0-.453-.019-.689a3.58,3.58,0,0,1,.189.381Zm-.151-6.142a9.758,9.758,0,0,0-.774.743,20.613,20.613,0,0,0-1.737-4.312,21.66,21.66,0,0,1,2.511,3.569Zm9.1.87a17.059,17.059,0,0,1,.321,5.055,26.985,26.985,0,0,0-1.322-3.406,15.353,15.353,0,0,1,1-1.649Zm-15.519,0a18.416,18.416,0,0,1,.321,5.055,30.2,30.2,0,0,0-1.322-3.406,12.806,12.806,0,0,1,1-1.649Zm-23.863,6.015a8.838,8.838,0,0,0-.4-1.377,23.232,23.232,0,0,0-.34,3.026,14.278,14.278,0,0,1,.736-1.649Zm-1.775-4.167a16.265,16.265,0,0,0-1.473-1.921,21.877,21.877,0,0,0-.887,3.388,19,19,0,0,1,.887,1.74,22.254,22.254,0,0,1,1.473-3.207ZM216.1,1813.5a15.528,15.528,0,0,1,.925,1.341,12.027,12.027,0,0,1,.906-1.341,19.042,19.042,0,0,1,.359-2.029,18.577,18.577,0,0,0-1.265-1.812,13.747,13.747,0,0,0-1.265,1.812,18.993,18.993,0,0,1,.34,2.029Zm15.594.091a11.224,11.224,0,0,1,1,1.522,8.788,8.788,0,0,1,.68-.779,21.865,21.865,0,0,1,.434-2.863c-.245-.4-.51-.815-.793-1.214a18.28,18.28,0,0,0-1.322,3.334Zm1.435,2.319c.057.109.094.218.151.308,0-.218,0-.453.019-.689l-.17.381Zm.151-6.142c.264.235.529.489.774.743a19.548,19.548,0,0,1,1.718-4.312,20.427,20.427,0,0,0-2.492,3.569Zm-9.119.87a18.42,18.42,0,0,0-.321,5.055,26.983,26.983,0,0,1,1.322-3.406,15.36,15.36,0,0,0-1-1.649Zm15.538,0a17.73,17.73,0,0,0-.34,5.055,30.344,30.344,0,0,1,1.34-3.406,19.164,19.164,0,0,0-1-1.649Zm-35.587,1.848a14.688,14.688,0,0,1,1.492-1.921,21.8,21.8,0,0,1,.868,3.388,15.055,15.055,0,0,0-.868,1.74,24.634,24.634,0,0,0-1.492-3.207Zm-1.775,1.105a13.351,13.351,0,0,0-1,1.522,8.785,8.785,0,0,0-.68-.779,19.07,19.07,0,0,0-.434-2.863c.245-.4.51-.815.812-1.214a18.184,18.184,0,0,1,1.3,3.334Zm-1.416,2.319c-.057.109-.113.218-.17.308,0-.218,0-.453-.019-.689a3.564,3.564,0,0,1,.189.381Zm-.151-6.142a9.78,9.78,0,0,0-.774.743,20.619,20.619,0,0,0-1.737-4.312,21.655,21.655,0,0,1,2.511,3.569Zm9.1.87a17.712,17.712,0,0,1,.321,5.055,27,27,0,0,0-1.322-3.406,15.36,15.36,0,0,1,1-1.649Zm-15.519,0a18.422,18.422,0,0,1,.321,5.055,30.193,30.193,0,0,0-1.322-3.406,12.806,12.806,0,0,1,1-1.649Z" transform="translate(-29.164 -1495.356)" fill="#42c5a0" fill-rule="evenodd"/>
    <g id="Grupo_124150" data-name="Grupo 124150" transform="translate(39.022 190.281)">
      <path id="Trazado_119246" data-name="Trazado 119246" d="M107.207,932.88l.9,2.93,2.93.9-2.93.9-.9,2.93-.9-2.93-2.93-.9,2.93-.9Z" transform="translate(-103.379 -932.88)" fill="#fff"/>
    </g>
    <g id="Grupo_124151" data-name="Grupo 124151" transform="translate(261.388 115.452)">
      <path id="Trazado_119247" data-name="Trazado 119247" d="M1671.491,904.27l.9,2.93,2.93.9-2.93.9-.9,2.93-.9-2.93-2.93-.9,2.93-.9Z" transform="translate(-1667.663 -904.27)" fill="#fff"/>
    </g>
    <g id="Grupo_124152" data-name="Grupo 124152" transform="translate(296.98 127.956)">
      <path id="Trazado_119248" data-name="Trazado 119248" d="M1855.235,1088.014l.9,2.93,2.929.9-2.929.9-.9,2.93-.9-2.93-2.93-.9,2.93-.9Z" transform="translate(-1851.407 -1088.014)" fill="#fff"/>
    </g>
    <g id="Grupo_124153" data-name="Grupo 124153" transform="translate(54.254 230.541)">
      <path id="Trazado_119249" data-name="Trazado 119249" d="M222.626,1233.686l1.278,4.16,4.16,1.276-4.16,1.278-1.278,4.16-1.276-4.16-4.16-1.278,4.16-1.276Z" transform="translate(-217.19 -1233.686)" fill="#fff"/>
    </g>
    <g id="Grupo_124154" data-name="Grupo 124154" transform="translate(54.254 150.326)">
      <path id="Trazado_119250" data-name="Trazado 119250" d="M222.626,634.352l1.278,4.16,4.16,1.276-4.16,1.278-1.278,4.16-1.276-4.16-4.16-1.278,4.16-1.276Z" transform="translate(-217.19 -634.352)" fill="#fff"/>
    </g>
    <g id="Grupo_124155" data-name="Grupo 124155" transform="translate(56.526 179.093)">
      <path id="Trazado_119251" data-name="Trazado 119251" d="M237.328,849.291l.744,2.422,2.421.743-2.421.744-.744,2.422-.743-2.422-2.422-.744,2.422-.743Z" transform="translate(-234.164 -849.291)" fill="#fff"/>
    </g>
    <g id="Grupo_124156" data-name="Grupo 124156" transform="translate(280.638 99.948)">
      <path id="Trazado_119252" data-name="Trazado 119252" d="M1804.1,751.076l1.278,4.16,4.16,1.276-4.16,1.278-1.278,4.16-1.276-4.16-4.16-1.278,4.16-1.276Z" transform="translate(-1798.659 -751.076)" fill="#fff"/>
    </g>
  </g>
</svg>
