<svg xmlns="http://www.w3.org/2000/svg" width="1328" height="324" viewBox="0 0 1328 324">
  <g id="Grupo_124213" data-name="Grupo 124213" transform="translate(-136 -5396)">
    <rect id="Rectángulo_35186" data-name="Rectángulo 35186" width="1328" height="324" transform="translate(136 5396)" fill="#b7eef3"/>
    <g id="Grupo_82526" data-name="Grupo 82526" transform="translate(219.512 5769.513) rotate(-90)">
      <g id="Grupo_82522" data-name="Grupo 82522" transform="translate(74.579 159.53)">
        <ellipse id="Elipse_4258" data-name="Elipse 4258" cx="20.132" cy="13.766" rx="20.132" ry="13.766" transform="translate(29.252 935.902) rotate(-89.884)" fill="#364b61"/>
        <g id="Grupo_82518" data-name="Grupo 82518" transform="translate(0.013 845.832)">
          <path id="Trazado_116388" data-name="Trazado 116388" d="M74.579,842.047l0,10.419,26.372,62.215c.92.069.74.47,1.752.516a62.117,62.117,0,0,1,7.453.984l-13.332-74.14Z" transform="translate(-74.579 -842.023)" fill="#f0e1c7"/>
          <path id="Trazado_116389" data-name="Trazado 116389" d="M92.955,842.043l13.332,74.14c1.251.2,2.507.387,3.821.484a84.723,84.723,0,0,0,10.35.231l15.4-74.868Z" transform="translate(-70.707 -842.025)" fill="#ebd6ae"/>
          <path id="Trazado_116390" data-name="Trazado 116390" d="M131.07,842.032l-15.4,74.868a21.6,21.6,0,0,0,3.712-.475,44.571,44.571,0,0,1,5.826-.867L152,860.593l-.045-18.567Z" transform="translate(-65.92 -842.026)" fill="#b5a789"/>
        </g>
        <g id="Grupo_82521" data-name="Grupo 82521">
          <g id="Grupo_82519" data-name="Grupo 82519" transform="translate(0.011 820.389)">
            <path id="Trazado_116391" data-name="Trazado 116391" d="M107.721,867.281c12.091,4.05,14.393-4.891,21.436-6.974a8.941,8.941,0,0,1,3.957-.37l0-38.926H93.972l0,35.295C102.85,855.569,101.091,865.059,107.721,867.281Z" transform="translate(-70.49 -821.011)" fill="#febf00"/>
            <path id="Trazado_116392" data-name="Trazado 116392" d="M79.746,860c1.529,1.237,2.816,4.934,5.448,5.413,8.094,1.476,8.988-7.21,11.918-8.889a2.545,2.545,0,0,1,.95-.214l0-35.295H74.577l0,35.888A24.633,24.633,0,0,1,79.746,860Z" transform="translate(-74.577 -821.011)" fill="#ffe173"/>
            <path id="Trazado_116393" data-name="Trazado 116393" d="M141.993,867.54a18.171,18.171,0,0,0,7.791-2.518l0-44.01H126.3l0,38.926C131.818,860.807,132.985,868.1,141.993,867.54Z" transform="translate(-63.679 -821.011)" fill="#db9600"/>
            <path id="Trazado_116394" data-name="Trazado 116394" d="M93.244,854.679a2.545,2.545,0,0,1,.95-.214,10.257,10.257,0,0,1,1.242-.018l0-24.7h-2.5l0,25.16A2.779,2.779,0,0,1,93.244,854.679Z" transform="translate(-70.709 -819.17)" fill="#fff" opacity="0.5"/>
          </g>
          <g id="Grupo_82520" data-name="Grupo 82520">
            <path id="Trazado_116395" data-name="Trazado 116395" d="M93.963,144.143l.012,830.714h39.137l-.011-831.21Z" transform="translate(-70.481 -143.35)" fill="#febf00"/>
            <path id="Trazado_116396" data-name="Trazado 116396" d="M74.568,144.354l.012,830.417H98.062L98.05,144.057Z" transform="translate(-74.568 -143.263)" fill="#ffe173"/>
            <path id="Trazado_116397" data-name="Trazado 116397" d="M126.289,143.7l.011,831.21h23.482L149.771,143.4Z" transform="translate(-63.67 -143.401)" fill="#db9600"/>
            <path id="Trazado_116398" data-name="Trazado 116398" d="M92.924,144.058,92.937,974.8h2.5L95.423,144.03Z" transform="translate(-70.7 -143.269)" fill="#fff" opacity="0.5"/>
          </g>
        </g>
      </g>
      <g id="Grupo_82525" data-name="Grupo 82525" transform="translate(74.513 66.856)">
        <path id="Trazado_116399" data-name="Trazado 116399" d="M74.52,111.339C74.5,89.806,86.277,69.857,100.7,67.009l38.873-.153c11.57,2.884,21.054,22.859,21.077,44.392s-19.339,39.17-43.024,39.2S74.543,132.871,74.52,111.339Z" transform="translate(-74.512 -66.856)" fill="#fa70a1"/>
        <rect id="Rectángulo_35176" data-name="Rectángulo 35176" width="86.129" height="60.583" transform="matrix(1, -0.001, 0.001, 1, 0.003, 41.311)" fill="#dadada" style="mix-blend-mode: multiply;isolation: isolate"/>
        <rect id="Rectángulo_35177" data-name="Rectángulo 35177" width="86.129" height="55.099" transform="translate(0 36.893) rotate(-0.061)" fill="#b5bbbd"/>
        <g id="Grupo_82523" data-name="Grupo 82523" transform="translate(0.234 41.726)">
          <rect id="Rectángulo_35178" data-name="Rectángulo 35178" width="86.13" height="4.603" transform="translate(0.043 40.246)" fill="#b0b0b0"/>
          <rect id="Rectángulo_35179" data-name="Rectángulo 35179" width="86.13" height="4.603" transform="translate(0.033 31.371)" fill="#b0b0b0"/>
          <rect id="Rectángulo_35180" data-name="Rectángulo 35180" width="86.13" height="4.603" transform="translate(0.011 10.404)" fill="#b0b0b0"/>
          <rect id="Rectángulo_35181" data-name="Rectángulo 35181" width="86.13" height="4.604" transform="translate(0.002 1.529)" fill="#b0b0b0"/>
          <rect id="Rectángulo_35182" data-name="Rectángulo 35182" width="86.13" height="4.604" transform="translate(0.041 38.716)" fill="#dbdfe3"/>
          <rect id="Rectángulo_35183" data-name="Rectángulo 35183" width="86.13" height="4.603" transform="translate(0.032 29.842)" fill="#dbdfe3"/>
          <rect id="Rectángulo_35184" data-name="Rectángulo 35184" width="86.13" height="4.603" transform="translate(0.01 8.874)" fill="#dbdfe3"/>
          <rect id="Rectángulo_35185" data-name="Rectángulo 35185" width="86.13" height="4.603" fill="#dbdfe3"/>
        </g>
        <g id="Grupo_82524" data-name="Grupo 82524" transform="translate(9.844 7.103)">
          <path id="Trazado_116400" data-name="Trazado 116400" d="M113.783,72.723l-14.026.054C92.111,74.649,86,83.243,82.644,93.284l31.215-.114Z" transform="translate(-82.644 -72.723)" fill="#ffc2d7"/>
        </g>
      </g>
    </g>
  </g>
</svg>
