<svg xmlns="http://www.w3.org/2000/svg" xmlns:xlink="http://www.w3.org/1999/xlink" width="1328" height="489.377" viewBox="0 0 1328 489.377">
  <defs>
    <clipPath id="clip-path">
      <path id="Trazado_115763" data-name="Trazado 115763" d="M79,1208v441.56H1407V1208Z" transform="translate(-79 -1208)" fill="none"/>
    </clipPath>
  </defs>
  <g id="Grupo_124212" data-name="Grupo 124212" transform="translate(-136 -1070.817)">
    <rect id="Rectángulo_35143" data-name="Rectángulo 35143" width="1328" height="489" transform="translate(136 1070.817)" fill="#ffd495"/>
    <g id="Grupo_82178" data-name="Grupo 82178" transform="translate(57 -89.365)">
      <g id="Grupo_82177" data-name="Grupo 82177" transform="translate(79 1208)" clip-path="url(#clip-path)">
        <g id="Grupo_82176" data-name="Grupo 82176" transform="translate(-137.719 25.037)">
          <g id="Grupo_82167" data-name="Grupo 82167" transform="translate(430.898 279.173)">
            <path id="Trazado_115721" data-name="Trazado 115721" d="M299.767,1440.979l.289,8.954a605.9,605.9,0,0,1,100.094,5.053q-2.422-4.852-4.874-9.685A615.98,615.98,0,0,0,299.767,1440.979Z" transform="translate(-299.767 -1435.899)" fill="#babcbe"/>
            <path id="Trazado_115722" data-name="Trazado 115722" d="M932.076,1442.955c-40.225,4.7-75.36,12.92-107.411,25.126-7.838,2.985-15.665,6.284-23.235,9.478-12.793,5.4-26.021,10.973-39.41,15.049-24.458,7.447-52.189,11.652-84.782,12.85-78.681,2.885-137.319-17.071-176.139-30.282-3.92-1.333-7.649-2.6-11.191-3.778a613.946,613.946,0,0,0-118.221-26.69q2.458,4.826,4.874,9.685A605.215,605.215,0,0,1,487.086,1479.9c3.52,1.169,7.23,2.43,11.129,3.757,36.827,12.532,91.227,31.043,163.639,31.043q7.719,0,15.714-.291c33.375-1.226,61.854-5.554,87.064-13.231,13.831-4.211,27.277-9.882,40.28-15.365,7.5-3.163,15.251-6.433,22.941-9.361,30.33-11.55,63.558-19.447,101.435-24.127l7.281-9.856C935.071,1442.633,933.57,1442.78,932.076,1442.955Z" transform="translate(-276.177 -1435.305)" fill="#f0f1f1"/>
            <path id="Trazado_115723" data-name="Trazado 115723" d="M917.329,1437.074l-40.29,1.87c-25.656,1.194-52.132,2.447-78.19,5.293l-7.281,9.856c1.276-.156,2.542-.321,3.829-.471,27.19-3.177,55.084-4.476,82.116-5.733l40.234-1.868Z" transform="translate(-138.457 -1437.074)" fill="#babcbe"/>
          </g>
          <g id="Grupo_82168" data-name="Grupo 82168" transform="translate(1361.701 101.768)">
            <path id="Trazado_115724" data-name="Trazado 115724" d="M1143.584,1537.993c-9.022-1.68-18.249.47-27.354,1.615-12.719,1.6-26.568.942-36.966-6.555-7.782-5.609-13.089-14.674-21.941-18.373-5.41-2.26-11.455-2.2-17.289-2.783-11.709-1.177-23.512-5.425-31.812-13.671,3.894,14.139,9.139,28.325,18.964,39.369,13.765,15.471,34.621,22.793,54.812,28.357,13.548,3.734,27.5,6.987,41.548,6.17,18.219-1.058,35.175-9.089,49.039-20.872-1.573-.714-3.116-1.489-4.616-2.29C1160.067,1544.744,1152.386,1539.632,1143.584,1537.993Z" transform="translate(-998.197 -1239.611)" fill="#d08e83"/>
            <path id="Trazado_115725" data-name="Trazado 115725" d="M1019.608,1432.46c6.088-8.207,12.345-17.065,21.767-21.022,5.681-2.386,12.066-2.759,17.688-5.285,10.139-4.555,16.624-15.544,27.228-18.878,9.793-3.077,20.536,1.207,30.617-.733,5.288-1.017,10.089-3.693,15.156-5.516s10.9-2.742,15.7-.287c6.395,3.275,8.617,11.074,11.694,17.567,3.914,8.256,10,15.255,16.009,22.138l12.8,14.656a129.287,129.287,0,0,0,13.036,13.545c6.536,5.592,14.061,9.768,21.92,13.333a184.866,184.866,0,0,0-4.2-31.806c-5.442-24.114-16.26-46.777-28.762-68.237-7.726-13.265-16.266-26.321-27.754-36.661-26.434-23.791-71.068-30.483-100.138-8.024-15.652,12.093-26.249,29.345-34.663,47.025a285.132,285.132,0,0,0-25.459,88.336A155.116,155.116,0,0,0,1019.608,1432.46Z" transform="translate(-1000.159 -1303.486)" fill="#d08e83"/>
            <path id="Trazado_115726" data-name="Trazado 115726" d="M1201.809,1429.932a129.3,129.3,0,0,1-13.036-13.546l-12.8-14.656c-6.009-6.883-12.1-13.882-16.009-22.138-3.077-6.493-5.3-14.292-11.694-17.567-4.794-2.455-10.629-1.538-15.7.287s-9.868,4.5-15.156,5.516c-10.081,1.94-20.824-2.344-30.617.733-10.6,3.333-17.089,14.323-27.228,18.878-5.621,2.526-12.006,2.9-17.688,5.285-9.422,3.958-15.68,12.815-21.767,21.022a155.122,155.122,0,0,1-17.368,20.151,285.072,285.072,0,0,0,7.786,108.929c.05.186.1.373.157.56,8.3,8.246,20.1,12.494,31.812,13.671,5.834.586,11.879.523,17.289,2.783,8.852,3.7,14.159,12.764,21.941,18.373,10.4,7.5,24.246,8.155,36.966,6.555,9.1-1.145,18.332-3.295,27.354-1.615,8.8,1.639,16.483,6.752,24.383,10.967,1.5.8,3.044,1.575,4.616,2.29a106,106,0,0,0,19.276-21.587c15.352-22.873,22.244-50.18,26.205-77.259,2.625-17.953,4.06-36.214,3.188-54.3C1215.87,1439.7,1208.346,1435.525,1201.809,1429.932Z" transform="translate(-1000.673 -1284.774)" fill="#ecb4aa"/>
          </g>
          <g id="Grupo_82169" data-name="Grupo 82169" transform="translate(48.164 70.437)">
            <path id="Trazado_115727" data-name="Trazado 115727" d="M164.133,1514.981c-8.441-1.475-16.855,2.474-24.107,7.037s-14.28,9.964-22.625,11.913c-5.446,1.272-11.123.985-16.682,1.6a51.758,51.758,0,0,0-31.746,15.912c-.117.126-.23.259-.347.386.3.131.579.283.882.409,9.923,4.106,21.569,4.8,32.709,4.014,30.685-2.172,59.467-15.906,77.409-35.747-.153-.044-.309-.073-.462-.12C174.06,1518.837,169.388,1515.9,164.133,1514.981Z" transform="translate(7.153 -1202.887)" fill="#d08e83"/>
            <path id="Trazado_115728" data-name="Trazado 115728" d="M80.123,1416.139c18.041-10.835,33.294-27.912,53.994-31.712,5.384-.987,10.907-1.007,16.3-1.962,16.425-2.91,30.474-14.556,38.883-28.962,1.21-2.072,2.3-4.2,3.305-6.369-1.113-1.328-2.223-2.657-3.373-3.966a230.645,230.645,0,0,0-77.993-57.761c-17.241-7.786-25.944-7.7-41.106,2.663a98.219,98.219,0,0,0-29.814,32.294c-9.623,16.734-14.273,34.978-18.143,53.123-5.264,24.676-9.21,49.648-10.353,74.64a121.227,121.227,0,0,1,11.426-6.924C41.572,1431.491,62.343,1426.819,80.123,1416.139Z" transform="translate(-11.48 -1279.892)" fill="#d08e83"/>
            <path id="Trazado_115729" data-name="Trazado 115729" d="M240.3,1422.979c-8.945-32.738-24.281-64.6-47.618-92.452-1,2.169-2.1,4.3-3.305,6.369-8.409,14.406-22.458,26.053-38.883,28.962-5.389.955-10.912.975-16.3,1.961-20.7,3.8-35.953,20.876-53.994,31.711-17.781,10.68-38.552,15.352-56.878,25.063a121.2,121.2,0,0,0-11.426,6.924,283.141,283.141,0,0,0,1.716,48.436c5.175,41.009,21.131,81.769,51.594,115.095,6.113,6.688,13.054,13.2,22.13,17.18.117-.127.23-.26.347-.386a51.758,51.758,0,0,1,31.746-15.912c5.559-.618,11.236-.331,16.682-1.6,8.345-1.949,15.372-7.349,22.625-11.913s15.666-8.513,24.107-7.037c5.255.919,9.927,3.856,15.03,5.409.153.047.309.076.462.12a77.485,77.485,0,0,0,12.827-19.01c11.814-25.223,7.855-52.6,5.293-79.792a23.244,23.244,0,0,1,13.441-23.179,22.412,22.412,0,0,0,10.769-10.207C244.489,1440.562,242.627,1431.484,240.3,1422.979Z" transform="translate(-11.564 -1263.284)" fill="#ecb4aa"/>
          </g>
          <g id="Grupo_82170" data-name="Grupo 82170" transform="translate(3.825 289.559)">
            <path id="Trazado_115730" data-name="Trazado 115730" d="M394.69,1522.013c-8.014-10.826-21.644-15.8-34.758-18.88s-26.853-4.949-38.467-11.771c-1.349-.793-2.643-1.661-3.912-2.562,2.694,15.046,5.092,30.713.467,45.233-3.566,11.2-11.008,20.682-18.3,29.9-14.34,18.111-42.2,43.157-63.084,53.039-50.108,23.714-149.481,5.007-166.478,7.143-32.934,4.139-37.625-6.989-70.736-9.324-5.892-.416-12.734-.514-16.569,3.977-2.042,2.393-2.749,5.618-3.357,8.7-2.154,10.92,1.005,31.876-.4,42.917-1.072,8.4-1.861,17.291,1.6,25.019,3.916,8.751,30.958,32.5,40.229,34.934,29.826,7.844,66.824,11.115,97.639,9.854,36.9-1.511,130.233-7.489,162.711-25.081,38.48-20.846,85.454-67.219,107.621-104.954a302.794,302.794,0,0,0,22.231-46.6,58.025,58.025,0,0,1-4.852-11.28C402.974,1541.923,401.153,1530.742,394.69,1522.013Z" transform="translate(21.824 -1430.494)" fill="#ecb4aa"/>
            <path id="Trazado_115731" data-name="Trazado 115731" d="M346.677,1451.866c-7.827-7-19.474-8.694-29.39-5.232-32.116,11.212-59.318,31.176-83.8,54.8.106.587.211,1.178.317,1.768,1.27.9,2.563,1.769,3.912,2.562,11.613,6.822,25.354,8.7,38.467,11.771s26.743,8.054,34.758,18.88c6.463,8.729,8.284,19.909,11.575,30.261a58.028,58.028,0,0,0,4.852,11.28A307.517,307.517,0,0,0,346.677,1451.866Z" transform="translate(105.568 -1444.895)" fill="#d08e83"/>
          </g>
          <g id="Grupo_82171" data-name="Grupo 82171" transform="translate(298.068 215.777)">
            <path id="Trazado_115732" data-name="Trazado 115732" d="M389.967,1401.163a6.97,6.97,0,0,0-1.631-3.328,7.06,7.06,0,0,0-4.009-1.432q-4.976-.682-9.96-1.263.361,1.719.722,3.438c1.028,4.9,2.062,9.894,1.5,14.864s-3,10-7.386,12.4c-6.847,3.748-15.224,0-22.091-3.71-8.536,9.2-25,9.239-33.57.07-8.939,7.1-22.794,7.083-31.719-.029a3.574,3.574,0,0,0-2.591-1.143,3.626,3.626,0,0,0-1.733,1.1c-7.134,6.55-19.4,6.386-26.361-.349-4.2-4.066-6.3-9.765-8.546-15.164a181.359,181.359,0,0,0-8.238-17.2l-1.008.007q-16.723.165-33.434.438c-.061.386-.11.78-.17,1.167a328.006,328.006,0,0,1,4.737,127.386,51.036,51.036,0,0,1-2.381,10.057c-.572,1.507-1.28,3-1.965,4.49q31.735-3.139,63.432-6.641,4.333-12.484,9.276-24.742c1.83-4.513,3.765-9.065,6.829-12.85a4.043,4.043,0,0,1,2.768-1.823c1.995-.056,2.971,2.38,3.328,4.342a113.464,113.464,0,0,1,1.143,32.5q49.314-5.572,98.535-11.91a10.014,10.014,0,0,0,5.016-1.59c1.782-1.4,2.392-3.785,2.857-6A218.294,218.294,0,0,0,389.967,1401.163Z" transform="translate(-199.744 -1389.306)" fill="#4aa1d6"/>
            <path id="Trazado_115733" data-name="Trazado 115733" d="M242.59,1421.819c6.957,6.736,19.227,6.9,26.361.349a3.624,3.624,0,0,1,1.733-1.1,3.574,3.574,0,0,1,2.591,1.143c8.926,7.113,22.781,7.125,31.719.029,8.575,9.169,25.034,9.134,33.57-.07,6.867,3.713,15.244,7.458,22.091,3.71,4.389-2.4,6.827-7.433,7.386-12.4s-.474-9.968-1.5-14.864q-.363-1.719-.722-3.438-4.169-.5-8.341-.947c-43.655-4.705-87.68-5.187-131.67-4.768a181.364,181.364,0,0,1,8.238,17.2C236.286,1412.054,238.39,1417.752,242.59,1421.819Z" transform="translate(-191.195 -1389.336)" fill="#285a82"/>
            <path id="Trazado_115734" data-name="Trazado 115734" d="M270,1467.179c-.357-1.963-1.333-4.4-3.328-4.342a4.043,4.043,0,0,0-2.768,1.823c-3.064,3.785-5,8.337-6.829,12.85q-4.968,12.243-9.276,24.742c7.782-.85,15.565-1.693,23.344-2.574A113.464,113.464,0,0,0,270,1467.179Z" transform="translate(-183.981 -1365.228)" fill="#285a82"/>
          </g>
          <path id="Trazado_115735" data-name="Trazado 115735" d="M205.727,1518.026a328.006,328.006,0,0,0-4.737-127.386c-7.058,45.853-6.5,96.107.357,141.937l.033,0c.684-1.493,1.393-2.983,1.965-4.49A51.036,51.036,0,0,0,205.727,1518.026Z" transform="translate(97.077 -1173.131)" fill="#285a82"/>
          <path id="Trazado_115736" data-name="Trazado 115736" d="M315.062,1412.6c1.518,2.489,3.125,5.072,5.608,6.6a15.934,15.934,0,0,0,7.408,1.894c4.356.281,9.053-.073,12.5-2.745,3.421-2.647,4.983-7.22,4.724-11.538a24.651,24.651,0,0,0-4.542-11.991c-5.637-8.425-14.972-14.867-25.108-14.943a15.312,15.312,0,0,0-9.648,2.84C296.279,1390.4,310.713,1405.464,315.062,1412.6Z" transform="translate(132.095 -1176.661)" fill="#ecb4aa"/>
          <path id="Trazado_115737" data-name="Trazado 115737" d="M289.6,1412.6c1.517,2.489,3.125,5.072,5.608,6.6a15.934,15.934,0,0,0,7.408,1.894c4.355.281,9.052-.073,12.5-2.745,3.421-2.647,4.984-7.22,4.724-11.538a24.649,24.649,0,0,0-4.54-11.991c-5.637-8.425-14.972-14.867-25.108-14.943a15.313,15.313,0,0,0-9.649,2.84C270.815,1390.4,285.249,1405.464,289.6,1412.6Z" transform="translate(123.742 -1176.661)" fill="#ecb4aa"/>
          <path id="Trazado_115738" data-name="Trazado 115738" d="M264.135,1412.6c1.518,2.489,3.125,5.072,5.608,6.6a15.934,15.934,0,0,0,7.408,1.894c4.356.281,9.053-.073,12.5-2.745,3.42-2.647,4.983-7.22,4.722-11.538a24.636,24.636,0,0,0-4.54-11.991c-5.637-8.425-14.972-14.867-25.109-14.943a15.309,15.309,0,0,0-9.648,2.84C245.351,1390.4,259.786,1405.464,264.135,1412.6Z" transform="translate(115.39 -1176.661)" fill="#ecb4aa"/>
          <path id="Trazado_115739" data-name="Trazado 115739" d="M238.673,1412.6c1.517,2.489,3.125,5.072,5.607,6.6a15.938,15.938,0,0,0,7.408,1.894c4.356.281,9.053-.073,12.5-2.745,3.421-2.647,4.984-7.22,4.724-11.538a24.637,24.637,0,0,0-4.542-11.991c-5.637-8.425-14.972-14.867-25.109-14.943a15.312,15.312,0,0,0-9.648,2.84C219.888,1390.4,234.322,1405.464,238.673,1412.6Z" transform="translate(107.038 -1176.661)" fill="#ecb4aa"/>
          <path id="Trazado_115740" data-name="Trazado 115740" d="M240.971,1464.343c6.883-7.193,17-13.123,26.448-10,9.284,3.065,14.062,14.8,10.787,24.012-1.019,2.866-2.655,5.486-3.609,8.373-.841,2.545-1.134,5.239-1.878,7.814-2.1,7.288-7.821,13.226-14.631,16.567s-14.619,4.266-22.183,3.693C208.183,1512.7,231.095,1474.661,240.971,1464.343Z" transform="translate(105.845 -1152.517)" fill="#ecb4aa"/>
          <g id="Grupo_82172" data-name="Grupo 82172" transform="translate(1148.634 289.559)">
            <path id="Trazado_115741" data-name="Trazado 115741" d="M871.585,1522.013c8.014-10.826,21.644-15.8,34.758-18.88s26.853-4.949,38.468-11.771c1.348-.793,2.641-1.661,3.911-2.562-2.694,15.046-5.092,30.713-.467,45.233,3.566,11.2,11.008,20.682,18.3,29.9,14.34,18.111,42.2,43.157,63.085,53.039,50.107,23.714,149.48,5.007,166.477,7.143,32.934,4.139,37.626-6.989,70.736-9.324,5.892-.416,12.734-.514,16.57,3.977,2.044,2.393,2.749,5.618,3.359,8.7,2.153,10.92-1.007,31.876.4,42.917,1.073,8.4,1.861,17.291-1.6,25.019-3.915,8.751-30.958,32.5-40.229,34.934-29.826,7.844-66.824,11.115-97.637,9.854-36.905-1.511-130.234-7.489-162.712-25.081-38.48-20.846-85.454-67.219-107.621-104.954a302.777,302.777,0,0,1-22.231-46.6,58.031,58.031,0,0,0,4.852-11.28C863.3,1541.923,865.122,1530.742,871.585,1522.013Z" transform="translate(-835.334 -1430.494)" fill="#ecb4aa"/>
            <path id="Trazado_115742" data-name="Trazado 115742" d="M840.75,1451.866c7.827-7,19.474-8.694,29.39-5.232,32.118,11.212,59.318,31.176,83.8,54.8-.106.587-.211,1.178-.317,1.768-1.27.9-2.563,1.769-3.911,2.562-11.615,6.822-25.355,8.7-38.468,11.771s-26.743,8.054-34.758,18.88c-6.463,8.729-8.284,19.909-11.575,30.261a58.03,58.03,0,0,1-4.853,11.28A307.519,307.519,0,0,1,840.75,1451.866Z" transform="translate(-840.23 -1444.895)" fill="#d08e83"/>
          </g>
          <g id="Grupo_82173" data-name="Grupo 82173" transform="translate(1108.966 215.777)">
            <path id="Trazado_115743" data-name="Trazado 115743" d="M818.328,1401.163a6.968,6.968,0,0,1,1.631-3.328,7.059,7.059,0,0,1,4.009-1.432q4.976-.682,9.96-1.263-.36,1.719-.722,3.438c-1.028,4.9-2.062,9.894-1.5,14.864s3,10,7.386,12.4c6.847,3.748,15.224,0,22.091-3.71,8.536,9.2,25,9.239,33.57.07,8.939,7.1,22.794,7.083,31.719-.029a3.574,3.574,0,0,1,2.591-1.143,3.626,3.626,0,0,1,1.733,1.1c7.134,6.55,19.4,6.386,26.361-.349,4.2-4.066,6.3-9.765,8.546-15.164a181.367,181.367,0,0,1,8.238-17.2l1.008.007q16.723.165,33.434.438c.061.386.11.78.17,1.167a328,328,0,0,0-4.737,127.386,51.021,51.021,0,0,0,2.381,10.057c.572,1.507,1.281,3,1.965,4.49q-31.734-3.139-63.432-6.641-4.333-12.484-9.276-24.742c-1.83-4.513-3.765-9.065-6.829-12.85a4.042,4.042,0,0,0-2.767-1.823c-1.995-.056-2.971,2.38-3.328,4.342a113.465,113.465,0,0,0-1.143,32.5q-49.314-5.572-98.535-11.91a10.015,10.015,0,0,1-5.016-1.59c-1.782-1.4-2.392-3.785-2.857-6A218.312,218.312,0,0,1,818.328,1401.163Z" transform="translate(-810.361 -1389.306)" fill="#4aa1d6"/>
            <path id="Trazado_115744" data-name="Trazado 115744" d="M951.923,1421.819c-6.957,6.736-19.227,6.9-26.361.349a3.625,3.625,0,0,0-1.733-1.1,3.573,3.573,0,0,0-2.591,1.143c-8.926,7.113-22.781,7.125-31.719.029-8.575,9.169-25.034,9.134-33.57-.07-6.867,3.713-15.244,7.458-22.091,3.71-4.389-2.4-6.826-7.433-7.386-12.4s.474-9.968,1.5-14.864q.363-1.719.722-3.438,4.169-.5,8.341-.947c43.655-4.705,87.68-5.187,131.67-4.768a181.364,181.364,0,0,0-8.238,17.2C958.227,1412.054,956.124,1417.752,951.923,1421.819Z" transform="translate(-805.128 -1389.336)" fill="#285a82"/>
            <path id="Trazado_115745" data-name="Trazado 115745" d="M895.271,1467.179c.357-1.963,1.333-4.4,3.328-4.342a4.042,4.042,0,0,1,2.767,1.823c3.064,3.785,5,8.337,6.829,12.85q4.968,12.243,9.276,24.742c-7.782-.85-15.566-1.693-23.344-2.574A113.456,113.456,0,0,1,895.271,1467.179Z" transform="translate(-783.104 -1365.228)" fill="#285a82"/>
          </g>
          <path id="Trazado_115746" data-name="Trazado 115746" d="M957.048,1518.026a328.007,328.007,0,0,1,4.737-127.386c7.058,45.853,6.5,96.107-.357,141.937l-.033,0c-.684-1.493-1.393-2.983-1.965-4.49A51.029,51.029,0,0,1,957.048,1518.026Z" transform="translate(345.371 -1173.131)" fill="#285a82"/>
          <path id="Trazado_115747" data-name="Trazado 115747" d="M854.811,1412.6c-1.518,2.489-3.125,5.072-5.608,6.6a15.934,15.934,0,0,1-7.408,1.894c-4.356.281-9.053-.073-12.5-2.745-3.421-2.647-4.983-7.22-4.724-11.538a24.651,24.651,0,0,1,4.542-11.991c5.637-8.425,14.972-14.867,25.109-14.943a15.309,15.309,0,0,1,9.648,2.84C873.6,1390.4,859.16,1405.464,854.811,1412.6Z" transform="translate(303.256 -1176.661)" fill="#ecb4aa"/>
          <path id="Trazado_115748" data-name="Trazado 115748" d="M880.273,1412.6c-1.517,2.489-3.125,5.072-5.607,6.6a15.944,15.944,0,0,1-7.409,1.894c-4.355.281-9.052-.073-12.5-2.745-3.421-2.647-4.984-7.22-4.724-11.538a24.648,24.648,0,0,1,4.54-11.991c5.639-8.425,14.973-14.867,25.109-14.943a15.313,15.313,0,0,1,9.649,2.84C899.058,1390.4,884.624,1405.464,880.273,1412.6Z" transform="translate(311.608 -1176.661)" fill="#ecb4aa"/>
          <path id="Trazado_115749" data-name="Trazado 115749" d="M905.737,1412.6c-1.518,2.489-3.125,5.072-5.608,6.6a15.934,15.934,0,0,1-7.408,1.894c-4.356.281-9.053-.073-12.5-2.745-3.42-2.647-4.983-7.22-4.722-11.538a24.636,24.636,0,0,1,4.54-11.991c5.637-8.425,14.972-14.867,25.109-14.943a15.306,15.306,0,0,1,9.648,2.84C924.522,1390.4,910.088,1405.464,905.737,1412.6Z" transform="translate(319.961 -1176.661)" fill="#ecb4aa"/>
          <path id="Trazado_115750" data-name="Trazado 115750" d="M931.2,1412.6c-1.517,2.489-3.125,5.072-5.607,6.6a15.935,15.935,0,0,1-7.408,1.894c-4.356.281-9.053-.073-12.5-2.745-3.421-2.647-4.984-7.22-4.724-11.538a24.65,24.65,0,0,1,4.542-11.991c5.637-8.425,14.972-14.867,25.109-14.943a15.312,15.312,0,0,1,9.648,2.84C949.985,1390.4,935.551,1405.464,931.2,1412.6Z" transform="translate(328.313 -1176.661)" fill="#ecb4aa"/>
          <path id="Trazado_115751" data-name="Trazado 115751" d="M932.343,1464.343c-6.883-7.193-17-13.123-26.448-10-9.284,3.065-14.062,14.8-10.787,24.012,1.018,2.866,2.655,5.486,3.609,8.373.841,2.545,1.134,5.239,1.878,7.814,2.1,7.288,7.821,13.226,14.63,16.567s14.619,4.266,22.183,3.693C965.132,1512.7,942.22,1474.661,932.343,1464.343Z" transform="translate(326.065 -1152.517)" fill="#ecb4aa"/>
          <path id="Trazado_115752" data-name="Trazado 115752" d="M146.245,1458.948l-19.959-7.886c-4.02-1.588-8.167-3.2-12.491-3.155-10.264.109-18.281,9.7-20.786,19.656-3.56,14.154,1.412,29.8,11.523,40.325s24.823,16.065,39.416,16.305c10.84.179,22.18-2.679,30.039-10.146,6.459-6.138,10.014-14.894,11.1-23.737a67.506,67.506,0,0,0-.43-17.674c-1.064-7.5-.7-7.884-7.207-7.909C165.978,1464.68,157.108,1463.24,146.245,1458.948Z" transform="translate(62.938 -1154.348)" fill="#942e41"/>
          <path id="Trazado_115753" data-name="Trazado 115753" d="M1014.882,1401.408c-2.11-4.728-5.475-9.457-10.5-10.694s-10.373,1.5-13.621,5.535-4.8,9.135-6.106,14.143c-2.778,10.623-4.8,21.79-2.562,32.539s9.6,21.031,20.2,23.9a12.4,12.4,0,0,0,8.241-.2c5.778-2.588,6.688-10.288,6.612-16.62C1016.963,1434.486,1021.328,1415.854,1014.882,1401.408Z" transform="translate(354.618 -1173.205)" fill="#ecb4aa"/>
          <path id="Trazado_115754" data-name="Trazado 115754" d="M1164.644,1362.737c2.11-4.728,5.474-9.457,10.5-10.7s10.372,1.506,13.62,5.536,4.8,9.135,6.108,14.142c2.778,10.623,4.8,21.791,2.56,32.54s-9.6,21.031-20.2,23.9a12.4,12.4,0,0,1-8.242-.2c-5.779-2.59-6.689-10.288-6.613-16.62C1162.561,1395.814,1158.2,1377.183,1164.644,1362.737Z" transform="translate(413.649 -1185.89)" fill="#ecb4aa"/>
          <path id="Trazado_115755" data-name="Trazado 115755" d="M1065.967,1418c-1.692-5.408-6.6-10.158-12.582-7.154-4.668,2.345-6.841,8.267-7.833,13.09-1.329,6.458-.887,13.94,5.49,17.583,6.467,3.694,13.273-.068,15.981-6.361C1069.3,1429.863,1069.233,1422.955,1065.967,1418Z" transform="translate(375.549 -1166.809)" fill="#272425"/>
          <path id="Trazado_115756" data-name="Trazado 115756" d="M1122.372,1420.025c-.753-3.679-2.633-7.461-5.912-9.5a8.9,8.9,0,0,0-8.441-.545c-2.644.1-4.736,1.764-6.1,4.681a21.089,21.089,0,0,0-1.778,11.159c-.236,7.308,2.475,14.6,10.506,14.789a8.551,8.551,0,0,0,1.318-.074,8.648,8.648,0,0,0,4.871-1.378C1122.709,1435.49,1123.64,1426.224,1122.372,1420.025Z" transform="translate(393.606 -1167.052)" fill="#272425"/>
          <path id="Trazado_115757" data-name="Trazado 115757" d="M151.186,1394.76c-.394-4.407-2.44-8.577-7-9.872-4.316-1.226-8.455,1.567-10.39,5.287-3.542,6.809-2.6,17.759,5.955,20.164,6.428,1.807,11.029-3.689,11.321-9.558a21.956,21.956,0,0,0-.027-2.357A14.822,14.822,0,0,0,151.186,1394.76Z" transform="translate(76.057 -1175.114)" fill="#272425"/>
          <g id="Grupo_82174" data-name="Grupo 82174" transform="translate(0)">
            <path id="Trazado_115758" data-name="Trazado 115758" d="M28.317,1384.577c12.9-12.172,30.236-22.432,47.572-18.67,9.584,2.081,18.415,8.333,28.2,7.645a33.014,33.014,0,0,0,11.386-3.382,38.154,38.154,0,0,0,11.41-7.485c3.717-3.782,6.1-8.637,8.957-13.1a68,68,0,0,1,22.255-21.573c3.069-1.835,6.38-3.455,9.941-3.783,4.4-.4,8.7,1.189,13.04,2,15.255,2.86,31.135-4.266,41.965-15.381a70.772,70.772,0,0,0,7.25-8.8,55.218,55.218,0,0,0,1.222-15.741c-1.061-12.923-7.988-24.186-15.933-33.508-11.312-13.271-25.915-24.192-42.508-25.779s-35.029,8.317-40.881,25.844c-.9,2.7-1.737,5.844-4.068,7.131-2.89,1.6-6.121-.631-8.742-2.568-30.952-22.871-76.266-12.459-103.827,16.9-22.7,24.183-45.09,74.464-39.346,110.01,2.243,13.885,19.268,17.589,33.025,19.714C15.657,1397.654,21.734,1390.787,28.317,1384.577Z" transform="translate(24.704 -1226.853)" fill="#d470b6"/>
            <path id="Trazado_115759" data-name="Trazado 115759" d="M214.659,1292.277c-10.83,11.115-26.71,18.241-41.965,15.381-4.341-.814-8.641-2.406-13.04-2-3.562.328-6.872,1.948-9.941,3.783a68,68,0,0,0-22.255,21.573c-2.862,4.463-5.24,9.318-8.957,13.1a38.149,38.149,0,0,1-11.41,7.485,33.012,33.012,0,0,1-11.386,3.382c-9.783.688-18.615-5.564-28.2-7.645-17.336-3.762-34.669,6.5-47.572,18.67-6.583,6.21-12.66,13.077-19.085,19.475,3.611.558,7,1.008,9.833,1.5a197.937,197.937,0,0,0,61.427,1.07c29.579-4.13,58.228-14.852,86.319-26.49,13.981-5.792,28.329-12.137,39-23.823,10.052-11.006,15.92-25.767,20.668-40.435a133.044,133.044,0,0,0,3.81-13.83A70.771,70.771,0,0,1,214.659,1292.277Z" transform="translate(33.086 -1208.281)" fill="#a63895"/>
          </g>
          <path id="Trazado_115760" data-name="Trazado 115760" d="M997.017,1415.585a9.739,9.739,0,0,0-1.685-3.465,3.745,3.745,0,0,0-3.425-1.4c-2.482.5-3.065,3.732-3.1,6.263q-.042,3.054-.085,6.107c-.049,3.587-.086,7.259,1.08,10.652,1.466,4.267,8.305,11.062,10.359,4.441C1001.94,1432.438,998.768,1421.085,997.017,1415.585Z" transform="translate(357.102 -1166.563)" fill="#d08e83"/>
          <g id="Grupo_82175" data-name="Grupo 82175" transform="translate(1349.811 63.808)">
            <path id="Trazado_115761" data-name="Trazado 115761" d="M1208.908,1336.8c-7.446-8.583-13.142-19.56-23.532-24.159-16.03-7.1-33.776,4.422-47.3,15.579s-30.451,23.344-46.993,17.532c-6.434-2.26-11.682-7.029-17.887-9.861-15.923-7.268-37.105,1.327-43.461,17.635-3.162,8.11-2.919,17.085-4.24,25.689s-4.939,17.771-12.747,21.619c-6.173,3.041-13.443,1.793-19.438-1.812a131.127,131.127,0,0,0,6.86,26.884c3.307,8.729,10.54,30.544,20.036,20.562,7.479-7.863,7.875-22.767,11.206-32.6a62.233,62.233,0,0,1,41.885-39.38c12.912-3.5,26.618-2.693,39.74-5.307a77.7,77.7,0,0,0,37.8-19.466,237.6,237.6,0,0,0,56.1,93.523,11.817,11.817,0,0,0,19.083-3.244,126.587,126.587,0,0,0,11.653-66.6c-.63-6.25-1.712-12.446-2.508-18.676A64.291,64.291,0,0,1,1208.908,1336.8Z" transform="translate(-991.198 -1263.241)" fill="#a63895"/>
            <path id="Trazado_115762" data-name="Trazado 115762" d="M1234.682,1346.688a52.838,52.838,0,0,0-40.254-53.495c-26.211-6.343-52.449-16.712-79.341-18.12-18.3-.96-36.535,2.268-54.577,5.484-15.8,2.815-32.379,5.979-44.744,16.215-18.369,15.207-22.374,41.478-23.567,65.3-.8,16.053-.8,32.565,1.632,48.61,5.995,3.6,13.265,4.853,19.438,1.812,7.808-3.847,11.426-13.016,12.747-21.619s1.078-17.579,4.24-25.689c6.356-16.308,27.539-24.9,43.461-17.635,6.2,2.831,11.453,7.6,17.887,9.86,16.542,5.811,33.47-6.376,46.993-17.532s31.271-22.676,47.3-15.579c10.39,4.6,16.086,15.576,23.532,24.159a64.291,64.291,0,0,0,26.252,17.92c-.2-1.592-.4-3.184-.554-4.782A116.332,116.332,0,0,1,1234.682,1346.688Z" transform="translate(-991.72 -1274.901)" fill="#d470b6"/>
          </g>
        </g>
      </g>
    </g>
  </g>
</svg>
