<svg xmlns="http://www.w3.org/2000/svg" width="229" height="205" viewBox="0 0 229 205">
  <g id="_31" data-name="31" transform="translate(-1191 -9811)">
    <rect id="Rectángulo_35308" data-name="Rectángulo 35308" width="229" height="205" rx="20" transform="translate(1191 9811)" fill="#fee578"/>
    <g id="Grupo_120444" data-name="Grupo 120444" transform="translate(1185.475 9637.896)">
      <path id="Trazado_118028" data-name="Trazado 118028" d="M54.285,213.114c-2.69,1.72-5.5,3.227-6.06,6.717.812,1.561,1.6,3.092,2.141,4.124,1.758.885,3.045,1.534,4.317,2.176,1.585-.785,3.131-1.546,4.329-2.137.8-1.585,1.465-2.895,2.164-4.282-.63-1.248-1.291-2.566-2.338-4.646Z" transform="translate(0 0.026)" fill="#12263f"/>
      <path id="Trazado_118029" data-name="Trazado 118029" d="M60.852,226.235c2.96-1.766,5.6-3.455,6.161-6.883-.835-1.554-1.65-3.069-2.176-4.05l-4.344-2.184c-1.6.808-3.134,1.585-4.321,2.184-.788,1.6-1.438,2.918-2.11,4.275.653,1.3,1.31,2.613,2.207,4.406C57.459,224.569,59.218,225.435,60.852,226.235Z" transform="translate(16.722 0.037)" fill="#12263f"/>
      <path id="Trazado_118030" data-name="Trazado 118030" d="M59.908,220.01c1.716,2.69,3.227,5.5,6.717,6.06,1.558-.808,3.088-1.6,4.124-2.137.862-1.716,1.519-3.026,2.172-4.321-.781-1.585-1.546-3.131-2.137-4.329-1.581-.8-2.895-1.461-4.282-2.164-1.264.634-2.57,1.295-4.642,2.338C61.253,216.872,60.573,218.449,59.908,220.01Z" transform="translate(33.47 0.04)" fill="#12263f"/>
      <path id="Trazado_118031" data-name="Trazado 118031" d="M67.951,215.228c-.823,1.592-1.5,2.9-2.18,4.224.846,3.687,3.444,5.585,6.868,6.636,2.647-1.666,5.434-3.188,6.048-6.655-.8-1.55-1.588-3.084-2.137-4.147-1.685-.854-3-1.515-4.294-2.168C70.668,213.895,69.122,214.652,67.951,215.228Z" transform="translate(50.266 0.037)" fill="#12263f"/>
      <path id="Trazado_118032" data-name="Trazado 118032" d="M82.387,215.134,77.7,213.109c-2.845,1.689-5.5,3.347-6.076,6.783.827,1.558,1.635,3.076,2.16,4.07l4.352,2.184c1.588-.8,3.127-1.573,4.352-2.187.765-1.573,1.411-2.891,2.064-4.228C83.82,218.176,83.086,216.622,82.387,215.134Z" transform="translate(67.031 0.011)" fill="#12263f"/>
      <path id="Trazado_118033" data-name="Trazado 118033" d="M88.643,215.153l-4.572-2.048c-3.138,1.623-5.581,3.494-6.184,6.937,1.643,2.655,3.188,5.415,6.9,6.118a9.257,9.257,0,0,1,1.635-1.268,13.949,13.949,0,0,1,2.157-.769c.862-1.6,1.445-2.686,2.292-4.255C90.254,218.566,89.416,216.792,88.643,215.153Z" transform="translate(84.976 0)" fill="#12263f"/>
      <path id="Trazado_118034" data-name="Trazado 118034" d="M67.84,228.872c.854-.854,1.426-1.426,1.994-2,.193-2.613.889-5.372-2.029-7.134-2.941-.676-5.7-.68-7.448,2.242V226.8l2.068,2.068Z" transform="translate(34.759 17.95)" fill="#12263f"/>
      <path id="Trazado_118035" data-name="Trazado 118035" d="M73.689,228.858c3.022-2.226,2.315-4.839,1.952-7.219-2.044-2.721-4.626-2.427-7.165-1.952-2.984,1.8-2.288,4.561-2.095,7.173.761.761,1.519,1.523,1.994,2Z" transform="translate(51.415 17.964)" fill="#12263f"/>
      <path id="Trazado_118036" data-name="Trazado 118036" d="M78.5,227.528c-.189,2.616-.889,5.376,2.029,7.138,2.941.676,5.7.68,7.448-2.242v-4.816c-.835-.839-1.592-1.6-2.354-2.365q-2.423.006-4.843,0Z" transform="translate(86.124 34.776)" fill="#12263f"/>
      <path id="Trazado_118037" data-name="Trazado 118037" d="M79.538,234.707c3.022-2.226,2.315-4.835,1.952-7.22-2.041-2.721-4.626-2.427-7.165-1.952-2.984,1.8-2.288,4.561-2.095,7.173.761.761,1.519,1.523,1.994,2Z" transform="translate(68.171 34.72)" fill="#12263f"/>
      <path id="Trazado_118038" data-name="Trazado 118038" d="M68.47,225.319c-3.022,2.226-2.319,4.835-1.956,7.219,2.044,2.721,4.626,2.423,7.165,1.952,2.984-1.8,2.288-4.561,2.095-7.177l-1.994-1.994Z" transform="translate(51.424 34.991)" fill="#12263f"/>
      <path id="Trazado_118039" data-name="Trazado 118039" d="M69.595,227.142c-3.3-2.617-6.257-2.756-9.2.622.112,2.4-.92,5.214,2.5,7.127h4.877C70.847,232.742,70.329,229.975,69.595,227.142Z" transform="translate(34.678 34.656)" fill="#12263f"/>
      <path id="Trazado_118040" data-name="Trazado 118040" d="M63.923,227.225,62,225.3H57.167c-3.548,2.029-2.6,4.769-2.489,6.52,1.766,4.1,4.7,2.767,7.2,2.86l2.041-2.041Z" transform="translate(17.922 34.937)" fill="#12263f"/>
      <path id="Trazado_118041" data-name="Trazado 118041" d="M58.4,232.66c.189-2.613.889-5.372-2.439-7.382-2.361.128-5.465-.989-7.4,3.49.514,1.65,1.252,4.023,1.925,6.176h5.631Q57.259,233.8,58.4,232.66Z" transform="translate(0.98 34.769)" fill="#12263f"/>
      <path id="Trazado_118042" data-name="Trazado 118042" d="M85.8,228.872l2-2c.189-2.613.885-5.372-2.033-7.134-2.937-.676-5.7-.68-7.444,2.242V226.8c.642.642,1.21,1.214,2.064,2.068Z" transform="translate(86.228 17.95)" fill="#12263f"/>
      <path id="Trazado_118043" data-name="Trazado 118043" d="M72.112,226.989l1.925,1.925h5.272l2.064-2.064v-5.024c-1.89-3.134-4.649-2.435-7.262-2.245l-2,2Z" transform="translate(68.432 17.977)" fill="#12263f"/>
      <path id="Trazado_118044" data-name="Trazado 118044" d="M63.915,221.376l-1.925-1.925H57.163c-3.552,2.029-2.6,4.769-2.45,7.189,1.832,3.034,4.591,2.334,7.2,2.145.761-.761,1.523-1.519,2-2Z" transform="translate(17.93 18.18)" fill="#12263f"/>
      <path id="Trazado_118045" data-name="Trazado 118045" d="M56.241,228.855l1.925-1.925v-5.2c-2.114-2.817-4.7-2.524-7.239-2.048-2.984,1.8-2.284,4.561-2.095,7.173l2,2Z" transform="translate(1.144 17.967)" fill="#12263f"/>
      <path id="Trazado_118046" data-name="Trazado 118046" d="M78.128,236.675c2.226,1.952,3.911,3.432,4.325,3.8l6.6-3.683c-2.168-2.207-3.733-3.807-5.724-5.836C81.56,232.9,79.929,234.7,78.128,236.675Z" transform="translate(85.667 51.126)" fill="#12263f"/>
      <path id="Trazado_118047" data-name="Trazado 118047" d="M76.857,230.948c-1.9,1.99-3.451,3.61-4.908,5.129,1.971,2.056,3.521,3.672,4.634,4.827,1.8-1.643,3.451-3.158,5.7-5.214C80.44,234.075,78.747,232.6,76.857,230.948Z" transform="translate(67.965 51.117)" fill="#12263f"/>
      <path id="Trazado_118048" data-name="Trazado 118048" d="M76.9,235.775c-2.153-1.975-3.807-3.49-5.144-4.711-2.164,1.816-3.884,3.262-5.693,4.781,1.979,1.967,3.567,3.544,5.569,5.531C73.4,239.5,75.062,237.731,76.9,235.775Z" transform="translate(51.108 51.449)" fill="#12263f"/>
      <path id="Trazado_118049" data-name="Trazado 118049" d="M60.38,235.86c1.631,2.358,2.926,4.228,3.672,5.31,2.319-2.033,4-3.509,5.735-5.024-1.384-1.418-2.949-3.018-5.1-5.214C62.788,233.1,61.308,234.8,60.38,235.86Z" transform="translate(34.822 51.071)" fill="#12263f"/>
      <path id="Trazado_118050" data-name="Trazado 118050" d="M54.314,236.675l4.321,3.8c2.624-1.465,4.653-2.593,6.6-3.683l-5.724-5.836C57.742,232.9,56.111,234.7,54.314,236.675Z" transform="translate(17.444 51.126)" fill="#12263f"/>
      <path id="Trazado_118051" data-name="Trazado 118051" d="M48.661,235.39c1.956,2.075,3.49,3.7,5.418,5.747,1.407-1.523,3.053-3.3,4.193-4.533-1.646-2.269-2.868-3.946-4.054-5.585C51.633,233.056,49.859,234.447,48.661,235.39Z" transform="translate(1.249 51.32)" fill="#12263f"/>
      <path id="Trazado_118052" data-name="Trazado 118052" d="M78.795,244.191q3.42-.185,5.905-.321v-6.056H78.795Z" transform="translate(87.578 70.787)" fill="#12263f"/>
      <path id="Trazado_118053" data-name="Trazado 118053" d="M72.444,237.847c.108,2.261.2,4.244.286,5.933h6.079v-5.933Z" transform="translate(69.383 70.881)" fill="#12263f"/>
      <path id="Trazado_118054" data-name="Trazado 118054" d="M71.55,237.982c-1.492-.568-3.444.077-4.87.159v6.041H73.1C72.288,241.626,74.124,238.963,71.55,237.982Z" transform="translate(52.87 70.604)" fill="#12263f"/>
      <path id="Trazado_118055" data-name="Trazado 118055" d="M62.245,244.014c1.492.568,3.444-.077,4.87-.159v-6.041H60.695C61.507,240.37,59.671,243.032,62.245,244.014Z" transform="translate(35.724 70.79)" fill="#12263f"/>
      <path id="Trazado_118056" data-name="Trazado 118056" d="M60.885,237.765q-3.415.185-5.905.321v6.056h5.905Z" transform="translate(19.352 70.646)" fill="#12263f"/>
      <path id="Trazado_118057" data-name="Trazado 118057" d="M49.046,237.85q.185,3.409.317,5.909h6.06V237.85Z" transform="translate(2.352 70.89)" fill="#12263f"/>
      <path id="Trazado_118058" data-name="Trazado 118058" d="M83.183,252.195c1.329-1.5,2.315-2.6,3.3-3.714-.51.24-1.02.479-1.527.719-.444-1.627-.885-3.258-1.654-6.106-2.261,2.412-3.27,3.49-4.893,5.217C80.679,250.154,81.83,251.093,83.183,252.195Z" transform="translate(86.475 85.91)" fill="#12263f"/>
      <path id="Trazado_118059" data-name="Trazado 118059" d="M75.844,243.412c-1.391,1.828-2.408,3.161-3.517,4.622,1.592,1.241,2.771,2.16,4.07,3.169,1.3-1.21,2.245-2.083,3.884-3.61C78.453,245.87,77.374,244.857,75.844,243.412Z" transform="translate(69.048 86.824)" fill="#12263f"/>
      <path id="Trazado_118060" data-name="Trazado 118060" d="M71.067,252.195c1.33-1.5,2.315-2.6,3.3-3.714l-1.53.719c-.441-1.627-.881-3.258-1.65-6.106l-4.893,5.217C68.563,250.154,69.714,251.093,71.067,252.195Z" transform="translate(51.764 85.91)" fill="#12263f"/>
      <path id="Trazado_118061" data-name="Trazado 118061" d="M65.491,251.145c1.275-1.527,2.23-2.671,3.37-4.039-1.469-1.345-2.559-2.342-4.012-3.668-1.546,1.279-2.69,2.218-4.46,3.679Z" transform="translate(34.848 86.902)" fill="#12263f"/>
      <path id="Trazado_118062" data-name="Trazado 118062" d="M59.642,251.145c1.287-1.542,2.234-2.678,3.37-4.039-1.469-1.345-2.562-2.342-4.012-3.668l-4.46,3.679C56.855,248.943,58.173,249.982,59.642,251.145Z" transform="translate(18.091 86.902)" fill="#12263f"/>
      <path id="Trazado_118063" data-name="Trazado 118063" d="M53.423,251.144c1.206-1.631,2.1-2.841,3.107-4.2-1.527-1.272-2.663-2.222-4.2-3.505-1.109,1.38-1.917,2.388-3.451,4.3C50.6,249.027,51.947,250.035,53.423,251.144Z" transform="translate(1.882 86.899)" fill="#12263f"/>
    </g>
  </g>
</svg>
