<svg xmlns="http://www.w3.org/2000/svg" width="65.666" height="74.865" viewBox="0 0 65.666 74.865">
  <g id="_41" data-name="41" transform="translate(-31.458)">
    <g id="Grupo_55594" data-name="Grupo 55594" transform="translate(32.555 1.096)">
      <g id="Grupo_55590" data-name="Grupo 55590">
        <g id="Grupo_55578" data-name="Grupo 55578" transform="translate(0 8.03)">
          <path id="Trazado_105410" data-name="Trazado 105410" d="M100.91,99.552H40.478a1.52,1.52,0,0,1-1.52-1.52v-34.1a1.52,1.52,0,0,1,1.52-1.52H100.91a1.52,1.52,0,0,1,1.52,1.52v34.1A1.52,1.52,0,0,1,100.91,99.552Z" transform="translate(-38.958 -62.416)" fill="#f2eff2"/>
          <path id="Trazado_105411" data-name="Trazado 105411" d="M434.358,63.936v34.1a1.519,1.519,0,0,1-1.52,1.52h-5.1a1.52,1.52,0,0,0,1.52-1.52v-34.1a1.521,1.521,0,0,0-1.52-1.52h5.1A1.52,1.52,0,0,1,434.358,63.936Z" transform="translate(-370.886 -62.416)" fill="#e1dde1"/>
        </g>
        <g id="Grupo_55589" data-name="Grupo 55589" transform="translate(1.551)">
          <g id="Grupo_55580" data-name="Grupo 55580">
            <g id="Grupo_55579" data-name="Grupo 55579">
              <path id="Trazado_105412" data-name="Trazado 105412" d="M55.88,11.95h-5.52a.794.794,0,0,1-.794-.794V9.088A1.588,1.588,0,0,1,51.155,7.5h3.932a1.588,1.588,0,0,1,1.588,1.588v2.069A.794.794,0,0,1,55.88,11.95Z" transform="translate(-49.567 -7.5)" fill="#fee265"/>
              <path id="Trazado_105413" data-name="Trazado 105413" d="M70.9,9.086v2.068a.794.794,0,0,1-.793.795H67.024a.8.8,0,0,0,.795-.795V9.086A1.588,1.588,0,0,0,66.23,7.5h3.083A1.588,1.588,0,0,1,70.9,9.086Z" transform="translate(-63.793 -7.498)" fill="#fdd330"/>
            </g>
          </g>
          <g id="Grupo_55582" data-name="Grupo 55582" transform="translate(13.316)">
            <g id="Grupo_55581" data-name="Grupo 55581">
              <path id="Trazado_105414" data-name="Trazado 105414" d="M146.945,11.95h-5.52a.794.794,0,0,1-.794-.794V9.088A1.588,1.588,0,0,1,142.219,7.5h3.932a1.588,1.588,0,0,1,1.588,1.588v2.069A.794.794,0,0,1,146.945,11.95Z" transform="translate(-140.631 -7.5)" fill="#fee265"/>
              <path id="Trazado_105415" data-name="Trazado 105415" d="M161.966,9.086v2.068a.794.794,0,0,1-.793.795H158.09a.8.8,0,0,0,.795-.795V9.086A1.588,1.588,0,0,0,157.3,7.5h3.083A1.588,1.588,0,0,1,161.966,9.086Z" transform="translate(-154.859 -7.498)" fill="#fdd330"/>
            </g>
          </g>
          <g id="Grupo_55584" data-name="Grupo 55584" transform="translate(26.631)">
            <g id="Grupo_55583" data-name="Grupo 55583">
              <path id="Trazado_105416" data-name="Trazado 105416" d="M238.009,11.95h-5.52a.794.794,0,0,1-.794-.794V9.088A1.588,1.588,0,0,1,233.283,7.5h3.932A1.588,1.588,0,0,1,238.8,9.088v2.069A.794.794,0,0,1,238.009,11.95Z" transform="translate(-231.695 -7.5)" fill="#fee265"/>
              <path id="Trazado_105417" data-name="Trazado 105417" d="M253.03,9.086v2.068a.794.794,0,0,1-.793.795h-3.083a.8.8,0,0,0,.795-.795V9.086A1.588,1.588,0,0,0,248.36,7.5h3.083A1.588,1.588,0,0,1,253.03,9.086Z" transform="translate(-245.923 -7.498)" fill="#fdd330"/>
            </g>
          </g>
          <g id="Grupo_55586" data-name="Grupo 55586" transform="translate(39.947)">
            <g id="Grupo_55585" data-name="Grupo 55585">
              <path id="Trazado_105418" data-name="Trazado 105418" d="M329.074,11.95h-5.52a.794.794,0,0,1-.794-.794V9.088A1.588,1.588,0,0,1,324.348,7.5h3.932a1.588,1.588,0,0,1,1.588,1.588v2.069A.794.794,0,0,1,329.074,11.95Z" transform="translate(-322.76 -7.5)" fill="#fee265"/>
              <path id="Trazado_105419" data-name="Trazado 105419" d="M344.1,9.086v2.068a.794.794,0,0,1-.793.795h-3.083a.8.8,0,0,0,.795-.795V9.086A1.588,1.588,0,0,0,339.425,7.5h3.083A1.588,1.588,0,0,1,344.1,9.086Z" transform="translate(-336.988 -7.498)" fill="#fdd330"/>
            </g>
          </g>
          <g id="Grupo_55588" data-name="Grupo 55588" transform="translate(53.262)">
            <g id="Grupo_55587" data-name="Grupo 55587">
              <path id="Trazado_105420" data-name="Trazado 105420" d="M420.138,11.95h-5.52a.794.794,0,0,1-.794-.794V9.088A1.588,1.588,0,0,1,415.412,7.5h3.932a1.588,1.588,0,0,1,1.588,1.588v2.069A.794.794,0,0,1,420.138,11.95Z" transform="translate(-413.824 -7.5)" fill="#fee265"/>
              <path id="Trazado_105421" data-name="Trazado 105421" d="M435.159,9.086v2.068a.794.794,0,0,1-.793.795h-3.083a.8.8,0,0,0,.795-.795V9.086A1.588,1.588,0,0,0,430.489,7.5h3.083A1.588,1.588,0,0,1,435.159,9.086Z" transform="translate(-428.052 -7.498)" fill="#fdd330"/>
            </g>
          </g>
        </g>
        <path id="Trazado_105422" data-name="Trazado 105422" d="M121.162,300.825h-53.9a.76.76,0,0,1-.76-.76v-2.556a.76.76,0,0,1,.76-.76h53.9a.76.76,0,0,1,.76.76v2.556a.76.76,0,0,1-.76.76Z" transform="translate(-62.477 -254.454)" fill="#7a6e79"/>
        <path id="Trazado_105423" data-name="Trazado 105423" d="M417.9,297.509v2.557a.759.759,0,0,1-.76.76h-3.966a.76.76,0,0,0,.76-.76v-2.557a.76.76,0,0,0-.76-.76h3.966A.759.759,0,0,1,417.9,297.509Z" transform="translate(-358.453 -254.454)" fill="#685e67"/>
      </g>
      <g id="Grupo_55591" data-name="Grupo 55591" transform="translate(22.177 16.573)">
        <path id="Trazado_105424" data-name="Trazado 105424" d="M213.587,149.854v16.7a2.58,2.58,0,0,1-2.579,2.579H198.64a2.58,2.58,0,0,1-2.581-2.579v-16.7a2.58,2.58,0,0,1,2.581-2.579h12.367a2.58,2.58,0,0,1,2.579,2.579Z" transform="translate(-195.264 -143.41)" fill="#fb4a59"/>
        <path id="Trazado_105425" data-name="Trazado 105425" d="M275.153,149.864v16.7a2.579,2.579,0,0,1-2.579,2.579h-4.4a2.579,2.579,0,0,0,2.579-2.579v-16.7a2.579,2.579,0,0,0-2.579-2.579h4.4A2.579,2.579,0,0,1,275.153,149.864Z" transform="translate(-256.83 -143.418)" fill="#f82f40"/>
        <path id="Trazado_105426" data-name="Trazado 105426" d="M244.451,193.244v11.6a2.58,2.58,0,0,1-2.579,2.579h-5.358a8.126,8.126,0,1,1,7.937-14.179Z" transform="translate(-226.128 -181.702)" fill="#f2eff2"/>
        <path id="Trazado_105427" data-name="Trazado 105427" d="M275.153,193.244v11.6a2.579,2.579,0,0,1-2.579,2.579h-4.4a2.579,2.579,0,0,0,2.579-2.579V192.131c.1,0,.192-.006.288-.006A8.087,8.087,0,0,1,275.153,193.244Z" transform="translate(-256.83 -181.702)" fill="#e1dde1"/>
        <path id="Trazado_105428" data-name="Trazado 105428" d="M207.808,124.712H192.554a1.932,1.932,0,0,1,0-3.865h15.254a1.932,1.932,0,0,1,0,3.865Z" transform="translate(-190.622 -120.846)" fill="#f2eff2"/>
        <path id="Trazado_105429" data-name="Trazado 105429" d="M288.641,122.775a1.935,1.935,0,0,1-1.933,1.933h-3.673a1.933,1.933,0,0,0,0-3.866h3.673A1.935,1.935,0,0,1,288.641,122.775Z" transform="translate(-269.522 -120.842)" fill="#e1dde1"/>
      </g>
      <g id="Grupo_55592" data-name="Grupo 55592" transform="translate(9.13 26.669)">
        <path id="Trazado_105430" data-name="Trazado 105430" d="M117.013,195.607H102.128a.731.731,0,0,1-.731-.731v-4.257a.731.731,0,0,1,.731-.731h14.885a.731.731,0,0,1,.731.731v4.257A.731.731,0,0,1,117.013,195.607Z" transform="translate(-101.397 -189.887)" fill="#fee265"/>
        <path id="Trazado_105431" data-name="Trazado 105431" d="M183.619,190.615v4.258a.731.731,0,0,1-.731.731h-4.334a.731.731,0,0,0,.731-.731v-4.258a.731.731,0,0,0-.731-.731h4.334A.731.731,0,0,1,183.619,190.615Z" transform="translate(-167.272 -189.884)" fill="#fdd330"/>
      </g>
      <g id="Grupo_55593" data-name="Grupo 55593" transform="translate(30.08 24.271)">
        <path id="Trazado_105432" data-name="Trazado 105432" d="M255.091,173.488v8.805L253,186.47a1.569,1.569,0,0,1-2.807,0l-5.356-10.711a1.569,1.569,0,0,1,1.4-2.271Z" transform="translate(-244.671 -173.488)" fill="#fee265"/>
      </g>
      <path id="Trazado_105433" data-name="Trazado 105433" d="M290.213,173.488v8.805l-2.088,4.176a1.572,1.572,0,0,1-2.316.578V173.488Z" transform="translate(-249.714 -149.217)" fill="#fdd330"/>
    </g>
    <g id="Grupo_55595" data-name="Grupo 55595" transform="translate(31.458 0)">
      <path id="Trazado_105434" data-name="Trazado 105434" d="M96.027,32.8a1.1,1.1,0,0,0,1.1-1.1V10.647A2.62,2.62,0,0,0,94.507,8.03H92.019V6.644h1.663a1.893,1.893,0,0,0,1.891-1.891V2.684A2.687,2.687,0,0,0,92.888,0H88.956a2.687,2.687,0,0,0-2.684,2.684V4.753a1.893,1.893,0,0,0,1.891,1.891h1.663V8.03H78.7V6.644h1.663a1.893,1.893,0,0,0,1.891-1.891V2.684A2.688,2.688,0,0,0,79.572,0H75.64a2.687,2.687,0,0,0-2.684,2.684V4.753a1.893,1.893,0,0,0,1.891,1.891H76.51V8.03H65.388V6.644h1.663a1.893,1.893,0,0,0,1.891-1.891V2.684A2.688,2.688,0,0,0,66.257,0H62.325A2.687,2.687,0,0,0,59.64,2.684V4.753a1.893,1.893,0,0,0,1.891,1.891h1.663V8.03H52.072V6.644h1.663a1.893,1.893,0,0,0,1.891-1.891V2.684A2.688,2.688,0,0,0,52.941,0H49.009a2.687,2.687,0,0,0-2.684,2.684V4.753a1.893,1.893,0,0,0,1.891,1.891h1.663V8.03H38.756V6.644h1.663A1.893,1.893,0,0,0,42.31,4.753V2.684A2.687,2.687,0,0,0,39.625,0H35.694a2.687,2.687,0,0,0-2.684,2.684V4.753A1.893,1.893,0,0,0,34.9,6.644h1.663V8.03H34.075a2.62,2.62,0,0,0-2.617,2.617v34.1a2.62,2.62,0,0,0,2.617,2.617h1.532a1.858,1.858,0,0,0,1.736,1.2H38.7v.714a1.1,1.1,0,1,0,2.193,0v-.714h4.27v.714a1.1,1.1,0,1,0,2.193,0v-.714h4.27v.714a1.1,1.1,0,1,0,2.193,0v-.714h2.907v25.2a1.1,1.1,0,1,0,2.193,0V71.695l5.371-3.931,5.371,3.931v2.074a1.1,1.1,0,1,0,2.193,0v-25.2h2.907v.714a1.1,1.1,0,1,0,2.193,0v-.714h4.27v.714a1.1,1.1,0,1,0,2.193,0v-.714h4.27v.714a1.1,1.1,0,0,0,2.193,0v-.714h1.357a1.858,1.858,0,0,0,1.736-1.2h1.532a2.62,2.62,0,0,0,2.617-2.617V36.881a1.1,1.1,0,1,0-2.193,0v7.862a.424.424,0,0,1-.423.423H93.1V44.151a1.859,1.859,0,0,0-1.857-1.857h-10a1.1,1.1,0,0,0,0,2.193H90.9v1.883H37.679V44.488H76.061a1.1,1.1,0,0,0,0-2.193H73.837a3.652,3.652,0,0,0,.314-1.483v-16.7a3.652,3.652,0,0,0-.58-1.978,3.027,3.027,0,0,0-1.654-5.563H56.664a3.027,3.027,0,0,0-1.654,5.563,3.653,3.653,0,0,0-.58,1.978v2.554H50.076a1.1,1.1,0,0,0,0,2.193h6.858v3.526H42.781V28.862H44.9a1.1,1.1,0,0,0,0-2.193H42.416A1.83,1.83,0,0,0,40.588,28.5v4.257a1.83,1.83,0,0,0,1.828,1.828H54.43v6.23a3.655,3.655,0,0,0,.314,1.483h-17.4a1.859,1.859,0,0,0-1.857,1.857v1.015H34.075a.424.424,0,0,1-.423-.423v-34.1a.424.424,0,0,1,.423-.423H94.507a.424.424,0,0,1,.423.423V31.705A1.1,1.1,0,0,0,96.027,32.8ZM88.465,2.684a.491.491,0,0,1,.491-.491h3.932a.491.491,0,0,1,.491.491V4.45H88.465Zm-13.316,0a.492.492,0,0,1,.491-.491h3.932a.491.491,0,0,1,.491.491V4.45H75.149Zm-13.316,0a.492.492,0,0,1,.491-.491h3.932a.491.491,0,0,1,.491.491V4.45H61.834Zm-13.316,0a.492.492,0,0,1,.491-.491h3.932a.491.491,0,0,1,.491.491V4.45H48.518Zm-13.316,0a.492.492,0,0,1,.491-.491h3.932a.491.491,0,0,1,.491.491V4.45H35.2ZM69.662,59.508l-3.514-2.572,3.514-2.572Zm-5.371,5.537L59.68,61.67l4.611-3.375L68.9,61.67ZM58.92,54.363l3.514,2.572L58.92,59.508Zm5.371,1.213L59.68,52.2l4.611-3.375L68.9,52.2ZM58.92,50.04V48.564h2.016Zm0,13.792L62.434,66.4,58.92,68.977ZM66.147,66.4l3.514-2.572v5.145ZM69.662,50.04l-2.016-1.476h2.016ZM65.4,42.294a7.038,7.038,0,0,1-1.818-10.639l3.593,7.184a2.651,2.651,0,0,0,2.383,1.474h0a2.653,2.653,0,0,0,2.385-1.474l.011-.021v1.993a1.485,1.485,0,0,1-1.483,1.483H65.4Zm-1.62-15.146a.472.472,0,0,1,.423-.684h7.751v7.45l-1.972,3.944a.455.455,0,0,1-.424.262h0a.454.454,0,0,1-.422-.261Zm-7.12-8.381H71.917a.836.836,0,1,1,0,1.671H56.664a.836.836,0,1,1,0-1.671Zm-.04,22.044v-6.23H57.3a1.83,1.83,0,0,0,1.828-1.828V28.5A1.83,1.83,0,0,0,57.3,26.669h-.677V24.115a1.485,1.485,0,0,1,1.483-1.483H70.475a1.485,1.485,0,0,1,1.483,1.483v.156H64.206a2.665,2.665,0,0,0-2.385,3.858l.72,1.439A9.23,9.23,0,0,0,62,42.294H58.107A1.484,1.484,0,0,1,56.624,40.811Z" transform="translate(-31.458 0)"/>
      <path id="Trazado_105435" data-name="Trazado 105435" d="M79.686,93.645H75.769a4.073,4.073,0,1,0,0,2.193h3.918a1.1,1.1,0,0,0,0-2.193Zm-7.839,2.976a1.879,1.879,0,1,1,1.523-2.976H71.848a1.1,1.1,0,0,0,0,2.193H73.37A1.876,1.876,0,0,1,71.848,96.621Z" transform="translate(-62.465 -77.411)"/>
      <path id="Trazado_105436" data-name="Trazado 105436" d="M134.3,133.735h-1.462a1.1,1.1,0,1,0,0,2.193H134.3a1.1,1.1,0,0,0,0-2.193Z" transform="translate(-117.076 -114.18)"/>
      <path id="Trazado_105437" data-name="Trazado 105437" d="M406.473,225.164H402.39a1.1,1.1,0,1,0,0,2.193h4.083a1.1,1.1,0,0,0,0-2.193Z" transform="translate(-347.215 -192.24)"/>
      <path id="Trazado_105438" data-name="Trazado 105438" d="M349.613,252.432a1.1,1.1,0,0,0,1.1,1.1h11.64a1.1,1.1,0,1,0,0-2.193H350.71A1.1,1.1,0,0,0,349.613,252.432Z" transform="translate(-303.092 -214.584)"/>
      <path id="Trazado_105439" data-name="Trazado 105439" d="M372.415,165.068H362.5a1.1,1.1,0,0,0,0,2.193h9.916a1.1,1.1,0,0,0,0-2.193Z" transform="translate(-313.158 -140.931)"/>
      <path id="Trazado_105440" data-name="Trazado 105440" d="M406.473,139.785H402.39a1.1,1.1,0,1,0,0,2.193h4.083a1.1,1.1,0,0,0,0-2.193Z" transform="translate(-347.215 -119.345)"/>
      <path id="Trazado_105441" data-name="Trazado 105441" d="M362.556,90.669H350.71a1.1,1.1,0,1,0,0,2.193h11.846a1.1,1.1,0,0,0,0-2.193Z" transform="translate(-303.092 -77.411)"/>
      <path id="Trazado_105442" data-name="Trazado 105442" d="M363.449,227.388a1.1,1.1,0,1,0,0-2.193h-.95a1.1,1.1,0,1,0,0,2.193Z" transform="translate(-313.157 -192.266)"/>
    </g>
  </g>
</svg>
