<svg id="_42" data-name="42" xmlns="http://www.w3.org/2000/svg" width="65.667" height="65.667" viewBox="0 0 65.667 65.667">
  <path id="XMLID_1905_" d="M21.287,120.176H15.643A5.643,5.643,0,0,1,10,114.533V72.208h5.643V64h5.643Z" transform="translate(-8.717 -55.792)" fill="#c3d3dd"/>
  <path id="XMLID_1904_" d="M105.815,73.1a5.643,5.643,0,0,0,5.643-5.643V10H59.643V67.459A5.643,5.643,0,0,1,54,73.1Z" transform="translate(-47.074 -8.717)" fill="#fff"/>
  <path id="XMLID_1876_" d="M146,196h19.751v24.625H146Z" transform="translate(-127.275 -170.862)" fill="#80b6ff"/>
  <path id="XMLID_1135_" d="M146,76h39.5v9.234H146Z" transform="translate(-127.275 -66.253)" fill="#ffcd69"/>
  <g id="XMLID_1291_">
    <path id="XMLID_1351_" d="M64.384,0H12.569a1.283,1.283,0,0,0-1.283,1.283V6.926H6.926A1.283,1.283,0,0,0,5.643,8.208v6.926H1.283A1.283,1.283,0,0,0,0,16.417V58.741a6.934,6.934,0,0,0,6.926,6.926H58.741a6.934,6.934,0,0,0,6.926-6.926V1.283A1.283,1.283,0,0,0,64.384,0ZM63.1,58.741A4.366,4.366,0,0,1,58.741,63.1H12.3a6.893,6.893,0,0,0,1.55-4.361V41.427a1.283,1.283,0,0,0-2.565,0V58.741a4.361,4.361,0,1,1-8.721,0V17.7H5.643V57.459a1.283,1.283,0,0,0,2.565,0V9.491h3.078V29.884a1.283,1.283,0,0,0,2.565,0V2.565H63.1Z"/>
    <path id="XMLID_1376_" d="M137.283,77.8h39.5a1.283,1.283,0,0,0,1.283-1.283V67.283A1.283,1.283,0,0,0,176.785,66h-39.5A1.283,1.283,0,0,0,136,67.283v9.234A1.283,1.283,0,0,0,137.283,77.8Zm1.283-9.234H175.5v6.669H138.565Z" transform="translate(-118.557 -57.535)"/>
    <path id="XMLID_1459_" d="M137.283,213.19h19.751a1.283,1.283,0,0,0,1.283-1.283V187.283A1.283,1.283,0,0,0,157.034,186H137.283A1.283,1.283,0,0,0,136,187.283v24.625A1.283,1.283,0,0,0,137.283,213.19Zm1.283-24.625h17.186v22.06H138.565Z" transform="translate(-118.557 -162.144)"/>
    <path id="XMLID_1460_" d="M352.878,186h-13.6a1.283,1.283,0,1,0,0,2.565h13.6a1.283,1.283,0,1,0,0-2.565Z" transform="translate(-294.65 -162.144)"/>
    <path id="XMLID_1476_" d="M352.878,234h-13.6a1.283,1.283,0,1,0,0,2.565h13.6a1.283,1.283,0,1,0,0-2.565Z" transform="translate(-294.65 -203.988)"/>
    <path id="XMLID_1533_" d="M352.878,282h-13.6a1.283,1.283,0,1,0,0,2.565h13.6a1.283,1.283,0,1,0,0-2.565Z" transform="translate(-294.65 -245.832)"/>
    <path id="XMLID_1535_" d="M352.878,330h-13.6a1.283,1.283,0,1,0,0,2.565h13.6a1.283,1.283,0,1,0,0-2.565Z" transform="translate(-294.65 -287.676)"/>
    <path id="XMLID_1545_" d="M352.878,378h-13.6a1.283,1.283,0,1,0,0,2.565h13.6a1.283,1.283,0,1,0,0-2.565Z" transform="translate(-294.65 -329.519)"/>
    <path id="XMLID_1550_" d="M137.283,428.565h39.5a1.283,1.283,0,1,0,0-2.565h-39.5a1.283,1.283,0,1,0,0,2.565Z" transform="translate(-118.557 -371.363)"/>
    <path id="XMLID_1572_" d="M89.783,268a1.283,1.283,0,1,0,.907.376A1.292,1.292,0,0,0,89.783,268Z" transform="translate(-77.149 -233.627)"/>
  </g>
</svg>
