<svg xmlns="http://www.w3.org/2000/svg" width="85" height="85" viewBox="0 0 85 85">
  <g id="_44" data-name="44" transform="translate(0.001)">
    <g id="Grupo_55597" data-name="Grupo 55597" transform="translate(1.655 1.66)">
      <path id="Trazado_105443" data-name="Trazado 105443" d="M226.876,59.808a24.9,24.9,0,1,0-21.244-11.9q-1.076,4.011-2.152,8.025a1.94,1.94,0,0,0,2.4,2.364l8-2.145A24.788,24.788,0,0,0,226.876,59.808Z" transform="translate(-170.095 -10.001)" fill="#fff" fill-rule="evenodd"/>
      <g id="Grupo_55596" data-name="Grupo 55596" transform="translate(0 25.236)">
        <path id="Trazado_105444" data-name="Trazado 105444" d="M66.615,179.859c4.555-3.963,3.348-6.317,2.231-7.777-1.209-1.581-6.69-8.363-6.69-8.363-1.765-2.4-5.2-2.185-8.41.053Z" transform="translate(-46.478 -162.004)" fill="#89df8f" fill-rule="evenodd"/>
        <path id="Trazado_105445" data-name="Trazado 105445" d="M31.461,205.846C27,201.313,21.9,195.072,28.856,189.76q.688-.525,1.251-1.016L17.238,172.657c-7.545,5.265-13.817,21.7,5.945,41.466s36.223,13.482,41.476,5.931L48.574,207.186q-.5.57-1.028,1.264c-5.311,6.96-11.552,1.858-16.085-2.605Z" transform="translate(-9.971 -170.888)" fill="#89df8f" fill-rule="evenodd"/>
        <path id="Trazado_105446" data-name="Trazado 105446" d="M258.576,377.193c2.229-3.2,2.443-6.633.043-8.395,0,0-6.783-5.481-8.363-6.69-1.459-1.116-3.809-2.322-7.765,2.218Z" transform="translate(-203.886 -328.027)" fill="#89df8f" fill-rule="evenodd"/>
      </g>
      <path id="Trazado_105447" data-name="Trazado 105447" d="M306.464,126.843h-11.01a1.266,1.266,0,0,0-1.223,1.223l-1.223,14.68a1.194,1.194,0,0,0,1.223,1.223h17.126a1.194,1.194,0,0,0,1.223-1.223l-1.223-14.68a1.266,1.266,0,0,0-1.223-1.223Z" transform="translate(-246.013 -107.444)" fill="#ff5d7d" fill-rule="evenodd"/>
    </g>
    <g id="Grupo_55598" data-name="Grupo 55598" transform="translate(-0.001 0)">
      <path id="Trazado_105448" data-name="Trazado 105448" d="M57.4,193.126c-.538-.435-6.826-5.514-8.371-6.7a5.6,5.6,0,0,0-4.588-1.277c-2.1.4-4.232,2.056-6.533,5.071-1.333,1.747-2.722,2.648-4.247,2.756-3.085.218-6.612-2.838-9.345-5.528-2.691-2.733-5.746-6.263-5.528-9.345.108-1.525,1.009-2.914,2.756-4.247,3.015-2.3,4.673-4.438,5.071-6.533a5.6,5.6,0,0,0-1.277-4.588c-1.182-1.546-6.261-7.833-6.7-8.371a6.094,6.094,0,0,0-6.095-2.257c-4.779.774-9.5,5.58-11.468,11.687a25.252,25.252,0,0,0,.238,15.36c1.987,6.331,6.15,12.7,12.373,18.919s12.588,10.386,18.919,12.373a27.754,27.754,0,0,0,8.3,1.321,22.906,22.906,0,0,0,7.056-1.083C54.08,208.716,58.886,204,59.66,199.221A6.1,6.1,0,0,0,57.4,193.126Zm-12.34-4.71a2.3,2.3,0,0,1,1.952.653c1.545,1.181,8.261,6.608,8.328,6.663l.061.047a2.782,2.782,0,0,1,.978,2.913,6.64,6.64,0,0,1-.511,1.64L42.719,189.809a5.112,5.112,0,0,1,2.344-1.393ZM13.081,155.39a2.781,2.781,0,0,1,2.912.978c.015.021.031.041.047.061.055.068,5.481,6.783,6.663,8.328a2.3,2.3,0,0,1,.652,1.952,5.134,5.134,0,0,1-1.405,2.358L11.424,155.908A6.657,6.657,0,0,1,13.081,155.39Zm33.871,52.14c-5.395,1.742-16.584,2.527-30.91-11.8S2.5,170.215,4.242,164.82a16.275,16.275,0,0,1,4.419-7.051l10.8,13.506c-2.469,1.906-3.811,4.125-3.986,6.6-.31,4.385,3.1,8.485,6.483,11.918l.018.018c3.287,3.236,7.185,6.5,11.36,6.5q.278,0,.559-.02c2.478-.175,4.7-1.522,6.609-4l13.507,10.8A16.268,16.268,0,0,1,46.952,207.53Z" transform="translate(0.001 -126.773)"/>
      <path id="Trazado_105449" data-name="Trazado 105449" d="M218.536,0a26.623,26.623,0,0,0-12.369,3.052,1.66,1.66,0,0,0,1.548,2.938,23.244,23.244,0,1,1-1.312,40.4,1.659,1.659,0,0,0-1.3-.188l-.936.251-7.063,1.894-.021.006a.267.267,0,0,1-.269-.075.249.249,0,0,1-.073-.262q1.069-3.989,2.138-7.972l.014-.052a1.661,1.661,0,0,0-.188-1.3,23.266,23.266,0,0,1-.745-22.953,1.66,1.66,0,1,0-2.937-1.549,26.589,26.589,0,0,0,.482,25.616q-.986,3.674-1.972,7.352a3.554,3.554,0,0,0,.95,3.484,3.605,3.605,0,0,0,3.49.909l7.055-1.892.259-.069A26.565,26.565,0,1,0,218.536,0Z" transform="translate(-160.1 0)"/>
      <path id="Trazado_105450" data-name="Trazado 105450" d="M294.454,80a5.336,5.336,0,0,0-5.33,5.33v.787h-2.01a2.919,2.919,0,0,0-2.878,2.746l-1.223,14.68a2.706,2.706,0,0,0,.723,2.075,2.936,2.936,0,0,0,2.155.946h17.127a2.936,2.936,0,0,0,2.155-.946,2.706,2.706,0,0,0,.723-2.075l-1.223-14.68a2.92,2.92,0,0,0-2.878-2.746h-2.01V85.33A5.337,5.337,0,0,0,294.454,80Zm-2.01,5.33a2.01,2.01,0,1,1,4.019,0v.787h-4.019Zm10.094,17.913H286.37l1.151-13.806h1.664a1.658,1.658,0,0,0,3.2,0h4.14a1.658,1.658,0,0,0,3.2,0h1.664Z" transform="translate(-236.018 -66.718)"/>
      <path id="Trazado_105451" data-name="Trazado 105451" d="M237.571,47.255a1.66,1.66,0,0,0,0-3.32h0a1.66,1.66,0,0,0,0,3.32Z" transform="translate(-196.743 -36.641)"/>
    </g>
  </g>
</svg>
