<svg xmlns="http://www.w3.org/2000/svg" width="230" height="185" viewBox="0 0 230 185">
  <g id="Grupo_124216" data-name="Grupo 124216" transform="translate(9964.5 -5631)">
    <rect id="beautiful-tropical-beach-and-sea-with-chair-on-blue-sky" width="230" height="185" rx="20" transform="translate(-9964.5 5631)" fill="#f57c00"/>
    <g id="sunset" transform="translate(-9921.678 5652)">
      <path id="Trazado_107405" data-name="Trazado 107405" d="M329.4,295.11a23.955,23.955,0,1,0,23.955-23.954A23.955,23.955,0,0,0,329.4,295.11Zm23.955-19.164a19.164,19.164,0,1,1-19.164,19.164A19.164,19.164,0,0,1,353.353,275.946Zm0,0" transform="translate(-247.77 -204.072)" fill="#fff"/>
      <path id="Trazado_107406" data-name="Trazado 107406" d="M370.9,561.637h27.378v4.791H370.9Zm0,0" transform="translate(-279.003 -422.687)" fill="#fff"/>
      <path id="Trazado_107407" data-name="Trazado 107407" d="M329.4,522.9h47.911v4.792H329.4Zm0,0" transform="translate(-247.77 -393.536)" fill="#fff"/>
      <path id="Trazado_107408" data-name="Trazado 107408" d="M116.379,522.9h4.791v4.792h-4.791Zm0,0" transform="translate(-87.453 -393.536)" fill="#fff"/>
      <path id="Trazado_107409" data-name="Trazado 107409" d="M58.285,542.27h4.79v4.791h-4.79Zm0,0" transform="translate(-43.731 -408.112)" fill="#fff"/>
      <path id="Trazado_107410" data-name="Trazado 107410" d="M29.166,115.887A181.428,181.428,0,0,0,52.213,44.981L74.492,67.127a2.392,2.392,0,0,0,1.677.7,2.263,2.263,0,0,0,.388-.031A2.391,2.391,0,0,0,78.312,66.5a23.386,23.386,0,0,0-4.388-27.029l-1.959-1.96H88.814a2.4,2.4,0,0,0,2.274-3.154,23.389,23.389,0,0,0-22.217-16.01H65.757L77.721,6.315a2.4,2.4,0,0,0-.627-3.833A23.394,23.394,0,0,0,50.05,6.868L47.763,9.156a23.429,23.429,0,0,0-2.077,2.4,23.017,23.017,0,0,0-2.058-2.4L41.34,6.868A23.383,23.383,0,0,0,14.314,2.482a2.395,2.395,0,0,0-.627,3.833L25.664,18.347H22.519A23.388,23.388,0,0,0,.3,34.357a2.4,2.4,0,0,0,2.274,3.154H19.409l-1.959,1.96A23.388,23.388,0,0,0,13.061,66.5a2.4,2.4,0,0,0,1.756,1.293,2.273,2.273,0,0,0,.388.031,2.392,2.392,0,0,0,1.688-.7L37.64,46.5a129.838,129.838,0,0,1-25.045,63.309,89.383,89.383,0,0,0-9.778-1.993l-1.5-.151L.84,112.438l1.4.136c2.4.343,4.776.827,7.144,1.375-.479.6-.959,1.212-1.454,1.8l3.674,3.073A134.868,134.868,0,0,0,42.939,41.234l2.757-2.74,2.064,2.053a175.147,175.147,0,0,1-30.377,85.04l3.924,2.746c1.884-2.689,3.68-5.479,5.422-8.322A84.965,84.965,0,0,1,55.714,142.72l3.705-3.035a89.476,89.476,0,0,0-15.908-15.108h100.4v-4.791H36.413c-2.348-1.418-4.772-2.7-7.247-3.9ZM75.289,61.159,49.979,35.995A18.478,18.478,0,0,1,68.266,40.57l2.287,2.288a18.6,18.6,0,0,1,4.735,18.3Zm9.87-28.439H65.324a23.362,23.362,0,0,0-14.838-1.77,18.577,18.577,0,0,1,15.143-7.811h3.234a18.6,18.6,0,0,1,16.3,9.582ZM51.142,12.543l2.288-2.287A18.613,18.613,0,0,1,71.741,5.519L57.541,19.8a23.365,23.365,0,0,0-11.309,8.876A18.132,18.132,0,0,1,51.15,12.543Zm-13.2-2.287,2.287,2.287a18.181,18.181,0,0,1,2.755,3.629,22.792,22.792,0,0,0-1.83,7.963A23.367,23.367,0,0,0,33.852,19.8L19.649,5.519a18.6,18.6,0,0,1,18.3,4.736ZM22.512,23.139h3.235A18.582,18.582,0,0,1,40.9,30.947a23.372,23.372,0,0,0-14.831,1.773H6.231a18.6,18.6,0,0,1,16.288-9.582ZM16.1,61.159a18.6,18.6,0,0,1,4.736-18.3l2.287-2.288a18.309,18.309,0,0,1,12.989-5.346,18.946,18.946,0,0,1,5.308.762Zm0,0" transform="translate(0 0)" fill="#fff"/>
    </g>
  </g>
</svg>
