<svg xmlns="http://www.w3.org/2000/svg" xmlns:xlink="http://www.w3.org/1999/xlink" width="87" height="87" viewBox="0 0 87 87">
  <defs>
    <clipPath id="clip-path">
      <rect id="Rect치ngulo_7007" data-name="Rect치ngulo 7007" width="87" height="87" transform="translate(199 525)" fill="#fff" stroke="#707070" stroke-width="1"/>
    </clipPath>
  </defs>
  <g id="_88" data-name="88" transform="translate(-199 -525)" clip-path="url(#clip-path)">
    <g id="certificado" transform="translate(197.597 523.597)">
      <path id="Trazado_105624" data-name="Trazado 105624" d="M79.984,81.387A5.613,5.613,0,0,1,74.371,87H15.435a5.613,5.613,0,0,0,5.613-5.613V2.806H79.984Z" fill="#e8e9ea"/>
      <path id="Trazado_105625" data-name="Trazado 105625" d="M75.774,2.806H21.048V81.387a5.55,5.55,0,0,1-.779,2.806H70.161a5.613,5.613,0,0,0,5.613-5.613Z" fill="#f2f2f2"/>
      <path id="Trazado_105626" data-name="Trazado 105626" d="M63.145,35.725V49.113L57.532,43.5l-5.613,5.613V33.446a5.585,5.585,0,0,0,2.261.561,3.964,3.964,0,0,1,2.456,1.072,5.574,5.574,0,0,0,6.51.647Z" fill="#f9d266"/>
      <path id="Trazado_105627" data-name="Trazado 105627" d="M68.758,33.446v25.49l-5.613-5.613-5.613,5.613V43.5l5.613,5.613V35.726a5.563,5.563,0,0,0,.9-.645A3.964,3.964,0,0,1,66.5,34.009a5.585,5.585,0,0,0,2.261-.561Z" fill="#f0ae42"/>
      <path id="Trazado_105628" data-name="Trazado 105628" d="M21.048,39.29H9.823v42.1a5.613,5.613,0,1,0,11.226,0Z" fill="#d8d8d8"/>
      <circle id="Elipse_4203" data-name="Elipse 4203" cx="5.613" cy="5.613" r="5.613" transform="translate(26.661 8.419)" fill="#5e87ca"/>
      <path id="Trazado_105629" data-name="Trazado 105629" d="M26.661,14.032A5.561,5.561,0,0,0,27.9,17.508a5.585,5.585,0,0,0,6.726-8.56,5.586,5.586,0,0,0-7.962,5.084Z" fill="#78a0d4"/>
      <g id="Grupo_55662" data-name="Grupo 55662">
        <path id="Trazado_105630" data-name="Trazado 105630" d="M30.871,26.661H50.516v2.806H30.871Z" fill="#ccc"/>
        <path id="Trazado_105631" data-name="Trazado 105631" d="M28.065,35.081H51.919v2.806H28.065Z" fill="#ccc"/>
        <path id="Trazado_105632" data-name="Trazado 105632" d="M28.065,43.5H51.919v2.806H28.065Z" fill="#ccc"/>
        <path id="Trazado_105633" data-name="Trazado 105633" d="M28.065,51.919H57.532v2.806H28.065Z" fill="#ccc"/>
      </g>
      <rect id="Rect치ngulo_7010" data-name="Rect치ngulo 7010" width="42.097" height="14.032" rx="2.806" transform="translate(29.468 64.548)" fill="#f0ae42"/>
      <path id="Trazado_105634" data-name="Trazado 105634" d="M32.274,64.548a2.806,2.806,0,0,0-2.806,2.806v7.016H64.548a2.806,2.806,0,0,0,2.806-2.806V64.548Z" fill="#f9d266"/>
      <path id="Trazado_105635" data-name="Trazado 105635" d="M47.71,26.155a3.964,3.964,0,0,1,1.072,2.456A5.572,5.572,0,0,0,54.174,34a3.964,3.964,0,0,1,2.456,1.072,5.571,5.571,0,0,0,7.406,0A3.964,3.964,0,0,1,66.492,34a5.572,5.572,0,0,0,5.393-5.393,3.964,3.964,0,0,1,1.083-2.456,5.571,5.571,0,0,0,0-7.406A3.964,3.964,0,0,1,71.9,16.293,5.572,5.572,0,0,0,66.5,10.9a3.964,3.964,0,0,1-2.461-1.078,5.571,5.571,0,0,0-7.406,0,3.964,3.964,0,0,1-2.456,1.072,5.572,5.572,0,0,0-5.393,5.393,3.964,3.964,0,0,1-1.078,2.461,5.571,5.571,0,0,0,0,7.406Z" fill="#d5883e"/>
      <circle id="Elipse_4204" data-name="Elipse 4204" cx="7.016" cy="7.016" r="7.016" transform="translate(53.323 15.435)" fill="#f9d266"/>
      <path id="Trazado_105636" data-name="Trazado 105636" d="M53.323,22.452a6.946,6.946,0,0,0,.877,3.333,6.946,6.946,0,0,0,3.333.877,7.016,7.016,0,0,0,7.016-7.016,6.946,6.946,0,0,0-.877-3.333,6.946,6.946,0,0,0-3.333-.877,7.016,7.016,0,0,0-7.016,7.016Z" fill="#fce797"/>
      <path id="Trazado_105637" data-name="Trazado 105637" d="M79.984,1.4H21.048a1.4,1.4,0,0,0-1.4,1.4V37.887H9.823a1.4,1.4,0,0,0-1.4,1.4v42.1A7.025,7.025,0,0,0,15.435,88.4H74.371a7.025,7.025,0,0,0,7.016-7.016V2.806A1.4,1.4,0,0,0,79.984,1.4ZM19.645,81.387a4.21,4.21,0,1,1-8.419,0V40.694h8.419Zm58.935,0a4.21,4.21,0,0,1-4.21,4.21H21.048a6.978,6.978,0,0,0,1.4-4.21V4.21H78.581Z"/>
      <path id="Trazado_105638" data-name="Trazado 105638" d="M60.339,30.871a8.419,8.419,0,1,0-8.419-8.419,8.419,8.419,0,0,0,8.419,8.419Zm0-14.032a5.613,5.613,0,1,1-5.613,5.613A5.613,5.613,0,0,1,60.339,16.839Z"/>
      <path id="Trazado_105639" data-name="Trazado 105639" d="M32.274,21.048a7.016,7.016,0,1,0-7.016-7.016,7.016,7.016,0,0,0,7.016,7.016Zm0-11.226a4.21,4.21,0,1,1-4.21,4.21A4.21,4.21,0,0,1,32.274,9.823Z"/>
      <path id="Trazado_105640" data-name="Trazado 105640" d="M30.871,26.661v2.806H47.488a6.79,6.79,0,0,0,3.028,4.781v.832H28.065v2.806H50.516V43.5H28.065v2.806H50.516v2.806a1.4,1.4,0,0,0,2.4.992l3.218-3.218v5.032H28.065v2.806H56.129v4.21a1.4,1.4,0,0,0,2.4.992l4.621-4.621,4.621,4.621a1.4,1.4,0,0,0,2.4-.992V34.249a6.908,6.908,0,0,0,3.131-5.592,2.6,2.6,0,0,1,.72-1.57,6.975,6.975,0,0,0,0-9.27,2.6,2.6,0,0,1-.72-1.57A6.975,6.975,0,0,0,66.544,9.5a2.588,2.588,0,0,1-1.574-.718,7.156,7.156,0,0,0-9.273,0,2.588,2.588,0,0,1-1.569.718,6.975,6.975,0,0,0-6.748,6.75,2.6,2.6,0,0,1-.72,1.57,6.912,6.912,0,0,0-.314,8.84ZM53.323,35.3a7.12,7.12,0,0,0,.811.1,2.588,2.588,0,0,1,1.569.718,6.98,6.98,0,0,0,4.636,1.762,6.9,6.9,0,0,0,1.4-.154v8l-3.218-3.218a1.4,1.4,0,0,0-1.984,0l-3.218,3.212ZM67.355,55.548l-3.218-3.218a1.4,1.4,0,0,0-1.984,0l-3.218,3.218V46.887L62.153,50.1a1.4,1.4,0,0,0,2.4-.992V36.484h-.062c.163-.121.335-.225.488-.359a2.587,2.587,0,0,1,1.569-.718,7.118,7.118,0,0,0,.811-.1ZM48.765,19.679a5.3,5.3,0,0,0,1.424-3.34A4.17,4.17,0,0,1,54.228,12.3a5.3,5.3,0,0,0,3.338-1.424,4.276,4.276,0,0,1,5.546,0A5.3,5.3,0,0,0,66.45,12.3a4.17,4.17,0,0,1,4.038,4.037,5.307,5.307,0,0,0,1.424,3.341,4.168,4.168,0,0,1,0,5.543,5.3,5.3,0,0,0-1.424,3.341A4.17,4.17,0,0,1,66.45,32.6a5.3,5.3,0,0,0-3.338,1.424,4.276,4.276,0,0,1-5.546,0A5.3,5.3,0,0,0,54.228,32.6a4.17,4.17,0,0,1-4.038-4.037,5.3,5.3,0,0,0-1.424-3.341,4.169,4.169,0,0,1,0-5.544Z"/>
      <path id="Trazado_105641" data-name="Trazado 105641" d="M68.758,63.145H32.274a4.21,4.21,0,0,0-4.21,4.21v8.419a4.21,4.21,0,0,0,4.21,4.21H68.758a4.21,4.21,0,0,0,4.21-4.21V67.355A4.21,4.21,0,0,0,68.758,63.145Zm1.4,12.629a1.4,1.4,0,0,1-1.4,1.4H32.274a1.4,1.4,0,0,1-1.4-1.4V67.355a1.4,1.4,0,0,1,1.4-1.4H68.758a1.4,1.4,0,0,1,1.4,1.4Z"/>
    </g>
  </g>
</svg>
