<svg xmlns="http://www.w3.org/2000/svg" width="259.9" height="247.464" viewBox="0 0 259.9 247.464">
  <g id="_113" data-name="113" transform="translate(-29.077 -75.532)">
    <path id="Trazado_119173" data-name="Trazado 119173" d="M145.276,75.82c33.758-2.388,64.649,10.256,85.341,31.889,32.862,14.83,56.152,45.467,58.212,82.318,3.058,54.759-41.909,102.5-100.441,106.627a111.061,111.061,0,0,1-45.4-6.142c-.742.072-1.484.129-2.239.187C82.214,294.827,32.294,253.79,29.223,199.046c-1.74-31.27,12.182-60.254,35.332-80.132,18.159-24.078,47.207-40.735,80.721-43.094Z" transform="translate(0 0)" fill="#b7eef3"/>
    <g id="Grupo_124140" data-name="Grupo 124140" transform="translate(100.189 138.793)">
      <g id="Grupo_124137" data-name="Grupo 124137" transform="translate(0 0)">
        <path id="Trazado_119174" data-name="Trazado 119174" d="M616.891,548.187c-18.82,4.483-33.74,18.611-56.5,27.84,4.519,44.171,20.463,87.675,58.008,108.3h1.661c37.55-20.624,53.489-64.128,58.007-108.3-22.755-9.228-37.681-23.357-56.5-27.84Z" transform="translate(-560.39 -548.187)" fill="#fff" fill-rule="evenodd"/>
        <path id="Trazado_119175" data-name="Trazado 119175" d="M681.789,634.352c-15.635,3.727-28.03,15.456-46.933,23.124,3.757,36.687,17,72.82,48.184,89.944h1.375c31.192-17.123,44.427-53.256,48.184-89.944-18.9-7.668-31.3-19.4-46.934-23.124Z" transform="translate(-624.889 -622.82)" fill="#8dafdb" fill-rule="evenodd"/>
        <path id="Trazado_119176" data-name="Trazado 119176" d="M684.242,634.352V747.42h-1.2c-31.186-17.123-44.427-53.256-48.184-89.944,18.9-7.668,31.3-19.4,46.933-23.124Z" transform="translate(-624.889 -622.82)" fill="#98b9e1" fill-rule="evenodd"/>
      </g>
      <g id="Grupo_124139" data-name="Grupo 124139" transform="translate(29.234 25.768)">
        <path id="Trazado_119177" data-name="Trazado 119177" d="M958.952,1085.545h0a5.964,5.964,0,0,1,5.9,5.995l-.192,24.134a5.962,5.962,0,0,1-6,5.9h0a5.965,5.965,0,0,1-5.9-5.995l.192-24.134a5.966,5.966,0,0,1,6-5.9Z" transform="translate(-929.478 -1039.392)" fill="#2c7efe" fill-rule="evenodd"/>
        <path id="Trazado_119178" data-name="Trazado 119178" d="M808.655,740.716a29.6,29.6,0,0,1,14.2,55.45l-.049,6.663-29.281-.235.056-6.663a29.6,29.6,0,0,1,15.077-55.215Z" transform="translate(-778.816 -740.715)" fill="#f2a220" fill-rule="evenodd"/>
        <path id="Trazado_119179" data-name="Trazado 119179" d="M854.152,811.735l-20.954-.167.05-6.527a29.436,29.436,0,0,1-13.431-25.328c.117-14.928,10.7-27.14,24.2-28.638,13.61,1.578,24.146,14.019,24.022,29.052a29.446,29.446,0,0,1-13.827,25.111Z" transform="translate(-814.328 -749.689)" fill="#fbb445" fill-rule="evenodd"/>
        <path id="Trazado_119180" data-name="Trazado 119180" d="M917.415,1193.064a2.167,2.167,0,0,1,.006.284L917.329,1205a4.149,4.149,0,0,1-4.176,4.114l-20.991-.167a4.165,4.165,0,0,1-4.114-4.176l.093-11.662c.006-.093.006-.192.012-.285Z" transform="translate(-873.428 -1132.317)" fill="#0643a3" fill-rule="evenodd"/>
        <path id="Trazado_119181" data-name="Trazado 119181" d="M897.1,1183.162H866.668a2.585,2.585,0,0,1-2.585-2.585h0a2.585,2.585,0,0,1,2.585-2.585H897.1a2.585,2.585,0,0,1,2.585,2.585h0A2.585,2.585,0,0,1,897.1,1183.162Z" transform="translate(-852.671 -1119.466)" fill="#2c7efe"/>
        <path id="Trazado_119182" data-name="Trazado 119182" d="M897.1,1240.849H866.668a2.585,2.585,0,0,1-2.585-2.585h0a2.585,2.585,0,0,1,2.585-2.585H897.1a2.585,2.585,0,0,1,2.585,2.585h0A2.585,2.585,0,0,1,897.1,1240.849Z" transform="translate(-852.671 -1169.432)" fill="#2c7efe"/>
        <g id="Grupo_124138" data-name="Grupo 124138" transform="translate(16.805 14.201)">
          <path id="Trazado_119183" data-name="Trazado 119183" d="M926.339,856.428a13.092,13.092,0,0,0-3.6-2.724,8.642,8.642,0,0,0-3.83-.889,7.393,7.393,0,0,0-5.694,2.4A8.745,8.745,0,0,0,911,861.384a8.548,8.548,0,0,0,2.194,6.1,7.477,7.477,0,0,0,5.713,2.336,10.642,10.642,0,0,0,4.152-.87,16.179,16.179,0,0,0,4.133-2.61l-.416,7.283a13.926,13.926,0,0,1-3.849,1.816,15.094,15.094,0,0,1-4.341.624,14.311,14.311,0,0,1-4.644-.757,13.717,13.717,0,0,1-4.1-2.232A13.9,13.9,0,0,1,905.787,868a15.167,15.167,0,0,1-1.409-6.535,15.583,15.583,0,0,1,1.04-5.713,13.892,13.892,0,0,1,7.661-7.841,14.357,14.357,0,0,1,5.542-1.088,14.977,14.977,0,0,1,4.407.643,14.744,14.744,0,0,1,4.01,1.948Z" transform="translate(-904.378 -846.819)" fill="#fff"/>
        </g>
      </g>
    </g>
    <g id="Grupo_124143" data-name="Grupo 124143" transform="translate(62.086 113.19)">
      <g id="Grupo_124141" data-name="Grupo 124141" transform="translate(10.372 6.094)">
        <rect id="Rectángulo_37390" data-name="Rectángulo 37390" width="4.164" height="199.357" fill="#1e3c6f"/>
        <rect id="Rectángulo_37391" data-name="Rectángulo 37391" width="4.164" height="199.357" transform="translate(27.377)" fill="#1e3c6f"/>
        <rect id="Rectángulo_37392" data-name="Rectángulo 37392" width="4.164" height="199.357" transform="translate(57.129)" fill="#1e3c6f"/>
        <rect id="Rectángulo_37393" data-name="Rectángulo 37393" width="4.17" height="199.357" transform="translate(84.5)" fill="#1e3c6f"/>
        <rect id="Rectángulo_37394" data-name="Rectángulo 37394" width="4.171" height="199.357" transform="translate(111.837)" fill="#1e3c6f"/>
        <rect id="Rectángulo_37395" data-name="Rectángulo 37395" width="4.164" height="199.357" transform="translate(139.214)" fill="#1e3c6f"/>
        <rect id="Rectángulo_37396" data-name="Rectángulo 37396" width="4.171" height="199.357" transform="translate(168.966)" fill="#1e3c6f"/>
      </g>
      <g id="Grupo_124142" data-name="Grupo 124142" transform="translate(0 0)">
        <rect id="Rectángulo_37397" data-name="Rectángulo 37397" width="193.882" height="11.287" fill="#1e3c6f"/>
        <rect id="Rectángulo_37398" data-name="Rectángulo 37398" width="193.882" height="11.294" transform="translate(0 197.447)" fill="#1e3c6f"/>
        <rect id="Rectángulo_37399" data-name="Rectángulo 37399" width="193.882" height="11.287" transform="translate(0 100.126)" fill="#1e3c6f"/>
      </g>
    </g>
    <g id="Grupo_124145" data-name="Grupo 124145" transform="translate(145.543 276.692)">
      <g id="Grupo_124144" data-name="Grupo 124144" transform="translate(2.973)">
        <path id="Trazado_119184" data-name="Trazado 119184" d="M933.933,1580.758h0a10.246,10.246,0,0,1,10.213,10.213v7.794a10.243,10.243,0,0,1-10.213,10.213h0a10.239,10.239,0,0,1-10.209-10.213v-7.794a10.242,10.242,0,0,1,10.209-10.213Zm0,2.14h0a8.292,8.292,0,0,1,8.27,8.266v9.515a8.292,8.292,0,0,1-8.27,8.266h0a8.291,8.291,0,0,1-8.266-8.266v-9.515a8.291,8.291,0,0,1,8.266-8.266Z" transform="translate(-923.422 -1580.456)" fill="#84b2fe" fill-rule="evenodd"/>
        <path id="Trazado_119185" data-name="Trazado 119185" d="M931.979,1607.328a10.525,10.525,0,0,1-10.511-10.515v-7.794a10.513,10.513,0,1,1,21.026,0v7.794A10.527,10.527,0,0,1,931.979,1607.328Zm0-26.081a7.973,7.973,0,0,0-7.964,7.964v9.514a7.966,7.966,0,0,0,15.932,0v-9.514A7.975,7.975,0,0,0,931.979,1581.246Zm0-2.14a9.92,9.92,0,0,0-9.907,9.911v7.794a9.892,9.892,0,0,0,3.358,7.431,8.53,8.53,0,0,1-2.019-5.519v-9.514a8.57,8.57,0,0,1,17.14,0v9.514a8.527,8.527,0,0,1-2.019,5.518,9.891,9.891,0,0,0,3.358-7.43v-7.794A9.923,9.923,0,0,0,931.979,1579.107Z" transform="translate(-921.468 -1578.503)" fill="#84b2fe"/>
      </g>
      <path id="Trazado_119186" data-name="Trazado 119186" d="M903.045,1691.029h19.392a3.8,3.8,0,0,1,3.786,3.786v21.4a3.8,3.8,0,0,1-3.786,3.786H903.045a3.8,3.8,0,0,1-3.79-3.786v-21.4a3.8,3.8,0,0,1,3.79-3.786Z" transform="translate(-899.255 -1675.968)" fill="#2c7efe" fill-rule="evenodd"/>
      <path id="Trazado_119187" data-name="Trazado 119187" d="M979.71,1757.909a2.588,2.588,0,0,1,1.93,4.314l1.21,6.759h-6.275l1.21-6.759a2.588,2.588,0,0,1,1.926-4.314Z" transform="translate(-966.226 -1733.897)" fill="#0643a3" fill-rule="evenodd"/>
    </g>
    <g id="Grupo_124146" data-name="Grupo 124146" transform="translate(47.268 267.374)">
      <path id="Trazado_119188" data-name="Trazado 119188" d="M206.135,1720.7c-7.329-9.278-22.37-27.119-22.713-26.35,1.364,1.114,17.219,19.968,21.578,28.719Z" transform="translate(-180.955 -1669.503)" fill="#0ebaa0" fill-rule="evenodd"/>
      <path id="Trazado_119189" data-name="Trazado 119189" d="M164.988,1675.024c.827.293,1.876.09,2.605.826a2.844,2.844,0,0,1,.8,2.614,2.842,2.842,0,0,1-2.605-.826c-.727-.736-.521-1.711-.8-2.614Z" transform="translate(-164.988 -1652.787)" fill="#0ebaa0" fill-rule="evenodd"/>
      <path id="Trazado_119190" data-name="Trazado 119190" d="M177.679,1714.855c.53-.358.864-1.061,1.613-1.166a1.124,1.124,0,1,1,.262,1.833c-.745.105-1.228-.436-1.875-.666Z" transform="translate(-175.98 -1686.256)" fill="#0ebaa0" fill-rule="evenodd"/>
      <path id="Trazado_119191" data-name="Trazado 119191" d="M196.983,1689.074c.166.435.609.783.564,1.327a.813.813,0,1,1-1.336-.109c.045-.547.5-.8.772-1.218Z" transform="translate(-192.028 -1664.957)" fill="#0ebaa0" fill-rule="evenodd"/>
      <path id="Trazado_119192" data-name="Trazado 119192" d="M219.651,1701.308c-.439.7-1.33,1.157-1.438,2.125a2.663,2.663,0,0,0,.938,2.384,2.668,2.668,0,0,0,1.435-2.122c.108-.968-.612-1.562-.935-2.387Z" transform="translate(-211.075 -1675.554)" fill="#0ebaa0" fill-rule="evenodd"/>
      <path id="Trazado_119193" data-name="Trazado 119193" d="M193.428,1746.172c.76-.513,1.24-1.519,2.311-1.675a1.614,1.614,0,1,1,.381,2.632c-1.074.153-1.765-.625-2.692-.957Z" transform="translate(-189.622 -1712.933)" fill="#0ebaa0" fill-rule="evenodd"/>
      <path id="Trazado_119194" data-name="Trazado 119194" d="M247.206,1719.2c-.706.943-2.03,1.494-2.294,2.86a3.812,3.812,0,0,0,1.052,3.516,3.817,3.817,0,0,0,2.3-2.863c.267-1.366-.688-2.3-1.055-3.512Z" transform="translate(-234.148 -1691.047)" fill="#0ebaa0" fill-rule="evenodd"/>
      <path id="Trazado_119195" data-name="Trazado 119195" d="M201.591,1783.043c1.24-.835,2.026-2.484,3.778-2.734a2.635,2.635,0,1,1,.619,4.3c-1.755.251-2.882-1.019-4.4-1.563Z" transform="translate(-196.692 -1743.933)" fill="#0ebaa0" fill-rule="evenodd"/>
      <path id="Trazado_119196" data-name="Trazado 119196" d="M284.823,1740.433c-1.2,1.341-3.286,2-3.873,4.047a5.824,5.824,0,0,0,1.135,5.484,5.824,5.824,0,0,0,3.873-4.047c.587-2.042-.741-3.589-1.135-5.484Z" transform="translate(-265.217 -1709.442)" fill="#0ebaa0" fill-rule="evenodd"/>
      <path id="Trazado_119197" data-name="Trazado 119197" d="M214.514,1829.987c1.932-1.015,3.325-3.271,5.9-3.358a3.834,3.834,0,1,1,.21,6.314c-2.577.084-4-1.934-6.112-2.956Z" transform="translate(-207.885 -1784.098)" fill="#0ebaa0" fill-rule="evenodd"/>
      <path id="Trazado_119198" data-name="Trazado 119198" d="M331.186,1591.182c-1.449-15.941-5.316-47.3-6.271-46.678.722,2.271,4.761,35.379,3.239,48.526Z" transform="translate(-303.51 -1539.728)" fill="#0ebaa0" fill-rule="evenodd"/>
      <path id="Trazado_119199" data-name="Trazado 119199" d="M311.424,1508.882c.721.942,2.06,1.484,2.344,2.859a3.855,3.855,0,0,1-1.03,3.554,3.852,3.852,0,0,1-2.344-2.863c-.281-1.375.672-2.325,1.03-3.551Z" transform="translate(-290.889 -1508.882)" fill="#0ebaa0" fill-rule="evenodd"/>
      <path id="Trazado_119200" data-name="Trazado 119200" d="M297.678,1570.222c.865-.016,1.763-.564,2.691-.134a1.522,1.522,0,1,1-1.056,2.276c-.928-.433-1.071-1.4-1.635-2.141Z" transform="translate(-279.919 -1561.754)" fill="#0ebaa0" fill-rule="evenodd"/>
      <path id="Trazado_119201" data-name="Trazado 119201" d="M335.591,1552.182c-.128.614.112,1.338-.341,1.922a1.1,1.1,0,1,1-1.433-1.116c.453-.584,1.16-.527,1.773-.806Z" transform="translate(-310.829 -1546.387)" fill="#0ebaa0" fill-rule="evenodd"/>
      <path id="Trazado_119202" data-name="Trazado 119202" d="M345.326,1586.047c-1.011.468-2.362.33-3.2,1.347a1.959,1.959,0,1,0,2.492,2.052c.837-1.02.464-2.226.7-3.4Z" transform="translate(-317.668 -1575.719)" fill="#0ebaa0" fill-rule="evenodd"/>
      <path id="Trazado_119203" data-name="Trazado 119203" d="M289.889,1620.355c1.24-.021,2.529-.811,3.86-.19a2.184,2.184,0,1,1-1.515,3.26c-1.331-.618-1.538-2.011-2.345-3.071Z" transform="translate(-273.172 -1605.065)" fill="#0ebaa0" fill-rule="evenodd"/>
      <path id="Trazado_119204" data-name="Trazado 119204" d="M355.944,1631.092c-1.5.546-3.407.2-4.717,1.546a5.162,5.162,0,0,0-1.4,4.765,5.173,5.173,0,0,0,4.72-1.547c1.314-1.351.919-3.116,1.4-4.764Z" transform="translate(-324.972 -1614.735)" fill="#0ebaa0" fill-rule="evenodd"/>
      <path id="Trazado_119205" data-name="Trazado 119205" d="M266.7,1674.4c2.027-.031,4.133-1.318,6.308-.307a6.56,6.56,0,0,1,3.834,5.02,6.572,6.572,0,0,1-6.308.311c-2.175-1.011-2.513-3.288-3.834-5.024Z" transform="translate(-253.087 -1651.642)" fill="#0ebaa0" fill-rule="evenodd"/>
      <path id="Trazado_119206" data-name="Trazado 119206" d="M369.962,1691.343c-2.352.632-5.206-.157-7.383,1.724a7.892,7.892,0,0,0-2.766,7.06,7.883,7.883,0,0,0,7.382-1.728c2.177-1.881,1.815-4.619,2.766-7.057Z" transform="translate(-333.669 -1666.922)" fill="#0ebaa0" fill-rule="evenodd"/>
      <path id="Trazado_119207" data-name="Trazado 119207" d="M243.921,1743.686c2.94.276,6.189-1.251,9.173.556a9.547,9.547,0,0,1,4.743,7.868,9.552,9.552,0,0,1-9.173-.556c-2.984-1.807-3.109-5.15-4.743-7.868Z" transform="translate(-233.357 -1711.964)" fill="#0ebaa0" fill-rule="evenodd"/>
      <path id="Trazado_119208" data-name="Trazado 119208" d="M369.459,1644.98c4.007-13.586,11.059-40.635,10.073-40.438-.146,2.1-7.629,30.65-13.174,40.968Z" transform="translate(-339.406 -1591.738)" fill="#0ebaa0" fill-rule="evenodd"/>
      <path id="Trazado_119209" data-name="Trazado 119209" d="M457.743,1573.076c.286,1.013,1.211,1.9.993,3.119a1.848,1.848,0,1,1-3-.533c.215-1.222,1.31-1.693,2-2.586Z" transform="translate(-416.776 -1564.484)" fill="#0ebaa0" fill-rule="evenodd"/>
      <path id="Trazado_119210" data-name="Trazado 119210" d="M433.367,1618.353c.718.271,1.636.112,2.256.768a1.347,1.347,0,1,1-1.608,1.528c-.624-.659-.426-1.5-.648-2.3Z" transform="translate(-397.447 -1603.701)" fill="#0ebaa0" fill-rule="evenodd"/>
      <path id="Trazado_119211" data-name="Trazado 119211" d="M465.9,1618.488c-.308.464-.344,1.137-.908,1.468a.974.974,0,1,1-.815-1.382c.564-.334,1.13-.056,1.724-.086Z" transform="translate(-423.343 -1603.749)" fill="#0ebaa0" fill-rule="evenodd"/>
      <path id="Trazado_119212" data-name="Trazado 119212" d="M458.893,1652.683c-.983.052-2.05-.5-3.067.065a1.733,1.733,0,1,0,1.379,2.5c1.021-.563,1.106-1.68,1.688-2.565Z" transform="translate(-415.437 -1633.271)" fill="#0ebaa0" fill-rule="evenodd"/>
      <path id="Trazado_119213" data-name="Trazado 119213" d="M410.322,1657.709c1.029.391,2.346.162,3.24,1.106a1.933,1.933,0,1,1-2.313,2.19c-.89-.944-.607-2.158-.927-3.3Z" transform="translate(-377.486 -1637.79)" fill="#0ebaa0" fill-rule="evenodd"/>
      <path id="Trazado_119214" data-name="Trazado 119214" d="M449.439,1695.672c-1.41-.039-2.865-.952-4.386-.267a2.482,2.482,0,1,0,1.679,3.728c1.521-.685,1.774-2.265,2.707-3.461Z" transform="translate(-405.225 -1670.221)" fill="#0ebaa0" fill-rule="evenodd"/>
      <path id="Trazado_119215" data-name="Trazado 119215" d="M373.071,1696.043c1.678.637,3.832.262,5.289,1.8a5.808,5.808,0,0,1,1.512,5.381,5.81,5.81,0,0,1-5.289-1.8c-1.458-1.541-.994-3.523-1.513-5.381Z" transform="translate(-345.221 -1670.993)" fill="#0ebaa0" fill-rule="evenodd"/>
      <path id="Trazado_119216" data-name="Trazado 119216" d="M435.806,1753.591c-2.14-.245-4.229-1.828-6.632-.99a3.79,3.79,0,1,0,2.055,5.895c2.4-.838,3-3.21,4.578-4.9Z" transform="translate(-389.847 -1719.771)" fill="#0ebaa0" fill-rule="evenodd"/>
      <path id="Trazado_119217" data-name="Trazado 119217" d="M332.476,1743.7c2.327,1.19,5.5.991,7.36,3.453a8.441,8.441,0,0,1,1.334,8.018,8.449,8.449,0,0,1-7.36-3.449c-1.864-2.458-.878-5.25-1.334-8.021Z" transform="translate(-310.059 -1712.274)" fill="#0ebaa0" fill-rule="evenodd"/>
    </g>
    <g id="Grupo_124148" data-name="Grupo 124148" transform="translate(191.767 206.863)">
      <path id="Trazado_119218" data-name="Trazado 119218" d="M1725.6,1797.89l-.228,4.025c-1.346,3.463-8.815,9.236-5.827,10.295,4.541-3.188,8.359-5.874,12.907-9.062-.268-.844-1.011-3.228-3.034-3.757Z" transform="translate(-1655.375 -1698.697)" fill="#164b98" fill-rule="evenodd"/>
      <path id="Trazado_119219" data-name="Trazado 119219" d="M1744.79,1767.263l-4.005,2.6q1.8,2.763,3.59,5.526c2.271.235,2.7-1.681,4.046-2.525Z" transform="translate(-1674.377 -1672.169)" fill="#e8665b" fill-rule="evenodd"/>
      <path id="Trazado_119220" data-name="Trazado 119220" d="M1644.77,1848.734l-2.291,3.322c-2.954,2.25-12.338,3.3-10.335,5.753,5.539-.362,10.194-.663,15.74-1.018.208-.864.81-3.289-.636-4.789Z" transform="translate(-1580.036 -1742.736)" fill="#4b76ba" fill-rule="evenodd"/>
      <path id="Trazado_119221" data-name="Trazado 119221" d="M1714.527,1823.312l-4.769.134q.09,3.3.188,6.591c1.815,1.38,3.175-.033,4.769-.054Z" transform="translate(-1647.503 -1720.717)" fill="#eb815b" fill-rule="evenodd"/>
      <path id="Trazado_119222" data-name="Trazado 119222" d="M1635.647,1403.6l-8.553,4.849c-2.137,9.692-7.984,25.948-6.417,29.082l18.1,22.492,4.434-3.811-10.127-18.252,8.459-29.846Z" transform="translate(-1570.116 -1357.177)" fill="#164b98" fill-rule="evenodd"/>
      <path id="Trazado_119223" data-name="Trazado 119223" d="M1678.6,1389.735l-8.272,6.7,4.133,54.039h7.415l2.9-54.374Z" transform="translate(-1613.346 -1345.17)" fill="#4b76ba" fill-rule="evenodd"/>
      <path id="Trazado_119224" data-name="Trazado 119224" d="M1560.975,1220.808l-3.691-.02-4.273,11.185-14.8,4.99.81,2.94c5.117-1.346,15.238-3.543,16.524-4.374,1.634-1.078,2.887-4.173,4.923-6.423Z" transform="translate(-1498.914 -1198.835)" fill="#17b59c" fill-rule="evenodd"/>
      <path id="Trazado_119225" data-name="Trazado 119225" d="M1679.587,1194.164l-4.079.663c-1.319,1.172-3.952,2.056-3.952,3.523l-1.232,28.694c5.814,2.673,9.632-1.346,14.447-.335q-.331-14.447-.663-28.895c-.469-1.976-3.014-2.438-4.521-3.651Z" transform="translate(-1613.347 -1175.775)" fill="#38bba2" fill-rule="evenodd"/>
      <path id="Trazado_119226" data-name="Trazado 119226" d="M1709.822,1151.266l-4.756,1.441c.024,1.729.048,3.483.1,5.212.264,3.027,4.275.24,4.612-.072Z" transform="translate(-1643.438 -1138.618)" fill="#e9665b" fill-rule="evenodd"/>
      <path id="Trazado_119227" data-name="Trazado 119227" d="M1674.674,1087.342l-11.962-.5c.7,4.227.336,11.65,2.114,12.658,1.081,1.057,6.053.841,7.686-.264,1.537-.793,1.873-7.518,2.162-11.89Z" transform="translate(-1606.753 -1082.813)" fill="#ec825c" fill-rule="evenodd"/>
      <path id="Trazado_119228" data-name="Trazado 119228" d="M1661.731,1061.97c-1.081-.817-8.215,1.009-9.416.312-3.315-1.513-1.3-1.225-.336-4.3.384-1.946,1.874-.889,7.638-1.2,1.273-.048,2.234,1.465,2.69,2.018,2.114.576,3.555.625,3.651,2.306.12,2.018-1.657,4.924-2.474,7.4-1.97-2.186.072-5.332-1.753-6.533Z" transform="translate(-1596.165 -1056.769)" fill="#1a164f" fill-rule="evenodd"/>
      <path id="Trazado_119229" data-name="Trazado 119229" d="M1733.134,1108.8l-.072-2.066a1.153,1.153,0,0,1,2.018-.264c.456,1.2-1.3,2.714-1.946,2.33Z" transform="translate(-1667.688 -1099.396)" fill="#ec825c" fill-rule="evenodd"/>
      <path id="Trazado_119230" data-name="Trazado 119230" d="M1668.494,1150.738c-3.531.625-5.308-2.234-4.66-6.1.673-.408,4.107,4.179,9.1.817l.216,1.009c.336,2.858-2.21,4.083-4.66,4.276Z" transform="translate(-1607.611 -1132.854)" fill="#1a164f" fill-rule="evenodd"/>
      <path id="Trazado_119231" data-name="Trazado 119231" d="M1717.135,1089.71l.865,1.513-.889,8.5c-.793.216-1.561.408-2.354.625,1.633-2.642,1.946-6.413,2.378-10.641Z" transform="translate(-1651.833 -1085.301)" fill="#1a164f" fill-rule="evenodd"/>
      <path id="Trazado_119232" data-name="Trazado 119232" d="M1683.171,1170.827a3.512,3.512,0,0,0,1.754.24,1.115,1.115,0,0,1-1.754-.24Z" transform="translate(-1624.474 -1155.561)" fill="#fff" fill-rule="evenodd"/>
      <path id="Trazado_119233" data-name="Trazado 119233" d="M1256,1083.55l31.943,33.1a13.817,13.817,0,0,1,16.808,2.339,14.087,14.087,0,0,1-.438,19.835,13.849,13.849,0,0,1-21.553-17.109l-17.367-17.993-4.383,4.283a1.64,1.64,0,0,1-2.322-.018l-3.107-3.218a1.661,1.661,0,0,1,.053-2.335l4.383-4.283-3.326-3.441-6.193,6.049a1.643,1.643,0,0,1-2.324-.014l-3.105-3.222a1.665,1.665,0,0,1,.05-2.337l6.193-6.049-.5-.518a1.532,1.532,0,0,1,.046-2.154l2.994-2.924a1.514,1.514,0,0,1,2.142.014Zm42.951,41.1a5.981,5.981,0,0,1-.19,8.418,5.894,5.894,0,0,1-8.366-.06,5.979,5.979,0,0,1,.184-8.417,5.9,5.9,0,0,1,8.372.059Z" transform="translate(-1244.615 -1079.575)" fill="#fdd835" fill-rule="evenodd"/>
      <g id="Grupo_124147" data-name="Grupo 124147" transform="translate(39.663 20.608)">
        <path id="Trazado_119234" data-name="Trazado 119234" d="M1551.534,1348.854l-1.186-2.672-3.108.6c-.522-.7-1.36-2.11-2-1.889-1.166.348.4,1.159.6,1.741-.837,1.132-4.715-1.232-4.883.188-.053,4.387,4.481,2.914,6.7,2.579Z" transform="translate(-1540.957 -1326.92)" fill="#eb815b" fill-rule="evenodd"/>
        <path id="Trazado_119235" data-name="Trazado 119235" d="M1611.743,1212.454c.368-1.755,3.456-2.639,4.139-.281.6,2.224.777,13.436-.683,16.457-2.21,2.974-19.511,4.468-23.081,4.648l-.563-2.853,19.263-4.548Z" transform="translate(-1584.783 -1210.741)" fill="#17b59c" fill-rule="evenodd"/>
      </g>
    </g>
    <path id="Trazado_119236" data-name="Trazado 119236" d="M202.341,1816.649a8.839,8.839,0,0,1,.4-1.377,20.352,20.352,0,0,1,.34,3.026,14.281,14.281,0,0,0-.736-1.649Zm-118.883,0c.113-.471.245-.924.4-1.377a23.216,23.216,0,0,1,.359,3.026,11.762,11.762,0,0,0-.755-1.649Zm61.207,0c.113-.471.245-.924.4-1.377a23.259,23.259,0,0,1,.359,3.026,11.777,11.777,0,0,0-.755-1.649Zm29.376,0a8.839,8.839,0,0,0-.4-1.377,20.335,20.335,0,0,0-.34,3.026,9.829,9.829,0,0,1,.736-1.649Zm-1.775-4.167a14.689,14.689,0,0,0-1.492-1.921,21.879,21.879,0,0,0-.887,3.388,12.656,12.656,0,0,1,.887,1.74,24.638,24.638,0,0,1,1.492-3.207Zm-1.435-2.066a15.52,15.52,0,0,1,1.756,1.5,20.52,20.52,0,0,1,1.926-2.718c-.3-.344-.6-.688-.944-1.015a13.109,13.109,0,0,1,1.114.8,21.833,21.833,0,0,1,3.832-3.515c.34-.562.7-1.123,1.1-1.685-.189.435-.359.852-.51,1.268a.784.784,0,0,0,.132-.091c-.057.054-.094.109-.151.163a19.358,19.358,0,0,0-1.265,7.03,17.668,17.668,0,0,1,1.454,2.265,21.59,21.59,0,0,1,1.756-5.11c-.321-.362-.661-.743-1.038-1.123.415.272.812.562,1.189.852a18.986,18.986,0,0,1,1.68-2.718c-.4-.453-.793-.906-1.246-1.359.51.344,1,.707,1.473,1.069A21.5,21.5,0,0,1,184.84,1804a21.5,21.5,0,0,0-1.322,2.374c.68.58,1.322,1.178,1.907,1.776a26.834,26.834,0,0,1,2.114-2.609,28.973,28.973,0,0,0-2.87-3.587,26.381,26.381,0,0,1,3.511,2.935,26.6,26.6,0,0,1,3.53-2.935,31.1,31.1,0,0,0-2.888,3.587,24.525,24.525,0,0,1,2.133,2.609c.585-.6,1.227-1.2,1.907-1.776a25.119,25.119,0,0,0-1.322-2.374,24.638,24.638,0,0,1,1.756,2.029c.472-.362.963-.725,1.473-1.069q-.68.679-1.246,1.359a18.984,18.984,0,0,1,1.68,2.718c.378-.29.774-.58,1.189-.852-.378.38-.717.761-1.038,1.123a21.589,21.589,0,0,1,1.756,5.11,17.668,17.668,0,0,1,1.454-2.265,19.358,19.358,0,0,0-1.265-7.03,1.188,1.188,0,0,1-.151-.163.784.784,0,0,0,.132.091c-.17-.417-.34-.833-.51-1.268.4.562.755,1.124,1.1,1.685a21.047,21.047,0,0,1,3.814,3.515c.359-.272.736-.543,1.133-.8a11.915,11.915,0,0,0-.944,1.015,18.755,18.755,0,0,1,1.907,2.718,14.248,14.248,0,0,1,1.775-1.5,24.52,24.52,0,0,0-5.343-8.461,25.472,25.472,0,0,1,8.175,9.331c.415-.471.85-.924,1.322-1.377A20.892,20.892,0,0,0,207.08,1804a21.319,21.319,0,0,1,3.662,5.037c.378-.29.755-.58,1.171-.852-.359.38-.717.761-1.038,1.123a20.781,20.781,0,0,1,1.756,5.11,19.969,19.969,0,0,1,1.454-2.265v-.127A19.432,19.432,0,0,0,212.4,1810a17.484,17.484,0,0,1,1.68,1.3,20.208,20.208,0,0,0-1.794-7.519,20.718,20.718,0,0,1,3.228,6.722c.4-.4.812-.779,1.246-1.16-.321-.381-.68-.779-1.057-1.16a14.222,14.222,0,0,1,1.322.96,13.959,13.959,0,0,1,1.3-.96c-.378.38-.736.779-1.057,1.16a14.907,14.907,0,0,1,1.246,1.16,21.111,21.111,0,0,1,3.228-6.722,20.581,20.581,0,0,0-1.794,7.519,17.791,17.791,0,0,1,1.7-1.3,17.566,17.566,0,0,0-1.7,2.029v.127a17.664,17.664,0,0,1,1.454,2.265,20.776,20.776,0,0,1,1.756-5.11c-.321-.362-.661-.743-1.038-1.123.415.272.812.562,1.17.852a20.9,20.9,0,0,1,3.681-5.037,20.458,20.458,0,0,0-2.643,5.907,18.066,18.066,0,0,1,1.322,1.377,25.362,25.362,0,0,1,8.194-9.331,24.241,24.241,0,0,0-5.343,8.461,15.519,15.519,0,0,1,1.756,1.5,20.367,20.367,0,0,1,1.907-2.718c-.283-.344-.6-.688-.925-1.015.378.254.755.525,1.114.8a20.571,20.571,0,0,1,3.832-3.515c.321-.562.7-1.123,1.095-1.685-.189.435-.359.852-.51,1.268a.815.815,0,0,1,.132-.091l-.17.163a19.312,19.312,0,0,0-1.246,7.03,19.959,19.959,0,0,1,1.454,2.265,20.71,20.71,0,0,1,1.737-5.11c-.321-.362-.661-.743-1.019-1.123.4.272.793.562,1.17.852A20.8,20.8,0,0,1,242.5,1804a20.372,20.372,0,0,0-2.624,5.907c.472.453.906.906,1.322,1.377a25.023,25.023,0,0,1,3.1-4.693q-.68-.815-1.473-1.631a21.473,21.473,0,0,1,1.756,1.3,24.809,24.809,0,0,1,2.719-2.7c-.434-.544-.906-1.069-1.416-1.613.623.435,1.189.87,1.756,1.323.547-.453,1.133-.888,1.737-1.323-.51.543-.963,1.069-1.4,1.613a24.626,24.626,0,0,1,2.7,2.7,21.481,21.481,0,0,1,1.756-1.3q-.793.816-1.473,1.631a25.135,25.135,0,0,1,3.115,4.693,15.025,15.025,0,0,1,1.322-1.377,20.982,20.982,0,0,0-2.643-5.907,20.309,20.309,0,0,1,3.663,5.037c.378-.29.774-.58,1.189-.852-.378.38-.717.761-1.038,1.123a21.592,21.592,0,0,1,1.756,5.11,17.65,17.65,0,0,1,1.454-2.265,19.359,19.359,0,0,0-1.265-7.03,1.19,1.19,0,0,1-.151-.163.785.785,0,0,0,.132.091c-.17-.417-.34-.833-.51-1.268.4.562.755,1.124,1.095,1.685a21.048,21.048,0,0,1,3.814,3.515c.359-.272.736-.543,1.133-.8-.34.326-.642.67-.944,1.015A20.519,20.519,0,0,1,265,1811.92a12.8,12.8,0,0,1,1.756-1.5,24.52,24.52,0,0,0-5.343-8.461,25.471,25.471,0,0,1,8.175,9.331c.415-.471.849-.924,1.322-1.377a20.891,20.891,0,0,0-2.624-5.907,21.323,21.323,0,0,1,3.663,5.037c.378-.29.755-.58,1.17-.852-.359.38-.717.761-1.038,1.123a20.777,20.777,0,0,1,1.756,5.11,19.99,19.99,0,0,1,1.454-2.265v-.127a19.412,19.412,0,0,0-1.68-2.029,17.467,17.467,0,0,1,1.68,1.3,20.208,20.208,0,0,0-1.793-7.519,20.72,20.72,0,0,1,3.228,6.722c.4-.4.812-.779,1.246-1.16-.321-.381-.68-.779-1.057-1.16a14.256,14.256,0,0,1,1.322.96c.415-.344.85-.652,1.3-.96-.378.38-.736.779-1.057,1.16a14.883,14.883,0,0,1,1.246,1.16,21.112,21.112,0,0,1,3.228-6.722,20.584,20.584,0,0,0-1.793,7.519,17.756,17.756,0,0,1,1.7-1.3,17.551,17.551,0,0,0-1.7,2.029v.127a17.67,17.67,0,0,1,1.454,2.265,21.6,21.6,0,0,1,1.756-5.11c-.321-.362-.661-.743-1.038-1.123.415.272.812.562,1.171.852a20.9,20.9,0,0,1,3.681-5.037,20.455,20.455,0,0,0-2.643,5.907,18.1,18.1,0,0,1,1.322,1.377,25.361,25.361,0,0,1,8.194-9.331,24.241,24.241,0,0,0-5.343,8.461,15.526,15.526,0,0,1,1.756,1.5,20.353,20.353,0,0,1,1.907-2.718c-.283-.344-.6-.688-.925-1.015.378.254.755.525,1.114.8a20.573,20.573,0,0,1,3.832-3.515c.321-.562.7-1.123,1.1-1.685-.189.435-.359.852-.51,1.268a.809.809,0,0,1,.132-.091l-.17.163a19.31,19.31,0,0,0-1.246,7.03,19.965,19.965,0,0,1,1.454,2.265,20.707,20.707,0,0,1,1.737-5.11c-.321-.362-.661-.743-1.019-1.123.4.272.793.562,1.171.852A20.8,20.8,0,0,1,303.7,1804a20.37,20.37,0,0,0-2.624,5.907c.472.453.906.906,1.322,1.377a25.3,25.3,0,0,1,8.175-9.331,23.071,23.071,0,0,0-6.287,11.994,15.182,15.182,0,0,1,.887,1.74,21.838,21.838,0,0,1,8.458-10.726,19.351,19.351,0,0,0-5.947,13.335,11.48,11.48,0,0,1,4.456-5.689,10.124,10.124,0,0,0-2.983,5.744H67.222a10.124,10.124,0,0,0-2.983-5.744,11.436,11.436,0,0,1,4.437,5.689,19.406,19.406,0,0,0-5.928-13.335,21.946,21.946,0,0,1,8.458,10.726,12.656,12.656,0,0,1,.887-1.74,23.071,23.071,0,0,0-6.287-11.994,25.3,25.3,0,0,1,8.175,9.331c.415-.471.849-.924,1.321-1.377A20.888,20.888,0,0,0,72.679,1804a21.323,21.323,0,0,1,3.663,5.037c.378-.29.755-.58,1.17-.852-.359.38-.717.761-1.038,1.123a20.776,20.776,0,0,1,1.756,5.11,19.984,19.984,0,0,1,1.454-2.265,19.311,19.311,0,0,0-1.246-7.03l-.17-.163a.81.81,0,0,1,.132.091c-.151-.417-.321-.833-.51-1.268.4.562.774,1.124,1.1,1.685a21.833,21.833,0,0,1,3.832,3.515c.359-.272.736-.543,1.114-.8-.321.326-.642.67-.925,1.015a20.354,20.354,0,0,1,1.907,2.718,15.534,15.534,0,0,1,1.756-1.5,24.241,24.241,0,0,0-5.343-8.461,25.36,25.36,0,0,1,8.193,9.331,15.062,15.062,0,0,1,1.322-1.377A20.455,20.455,0,0,0,88.2,1804a20.306,20.306,0,0,1,3.663,5.037c.378-.29.774-.58,1.189-.852-.378.38-.717.761-1.038,1.123a21.6,21.6,0,0,1,1.756,5.11,17.653,17.653,0,0,1,1.454-2.265v-.127a17.567,17.567,0,0,0-1.7-2.029,15.393,15.393,0,0,1,1.68,1.3,20.527,20.527,0,0,0-1.775-7.519,21.111,21.111,0,0,1,3.228,6.722,14.885,14.885,0,0,1,1.246-1.16c-.321-.381-.68-.779-1.057-1.16.453.308.887.616,1.3.96a14.257,14.257,0,0,1,1.322-.96c-.378.38-.736.779-1.057,1.16.434.38.85.761,1.246,1.16a20.718,20.718,0,0,1,3.228-6.722,20.206,20.206,0,0,0-1.794,7.519,17.467,17.467,0,0,1,1.68-1.3,17.308,17.308,0,0,0-1.68,2.029v.127a19.984,19.984,0,0,1,1.454,2.265,20.709,20.709,0,0,1,1.737-5.11c-.3-.362-.661-.743-1.019-1.123.415.272.793.562,1.17.852A21.324,21.324,0,0,1,108.1,1804a20.371,20.371,0,0,0-2.624,5.907c.472.453.906.906,1.322,1.377a25.3,25.3,0,0,1,8.175-9.331,24.241,24.241,0,0,0-5.343,8.461,15.52,15.52,0,0,1,1.756,1.5,20.522,20.522,0,0,1,1.926-2.718c-.3-.344-.6-.688-.944-1.015a13.13,13.13,0,0,1,1.114.8,21.834,21.834,0,0,1,3.833-3.515c.34-.562.7-1.123,1.095-1.685-.189.435-.359.852-.51,1.268a.784.784,0,0,0,.132-.091c-.057.054-.094.109-.151.163a19.358,19.358,0,0,0-1.265,7.03,17.651,17.651,0,0,1,1.454,2.265,21.591,21.591,0,0,1,1.756-5.11c-.321-.362-.661-.743-1.038-1.123.415.272.812.562,1.189.852a20.309,20.309,0,0,1,3.663-5.037,20.458,20.458,0,0,0-2.643,5.907,18.094,18.094,0,0,1,1.322,1.377,26,26,0,0,1,3.1-4.693c-.434-.543-.925-1.087-1.454-1.631a21.475,21.475,0,0,1,1.756,1.3,23.053,23.053,0,0,1,2.7-2.7c-.434-.544-.906-1.069-1.4-1.613.6.435,1.189.87,1.737,1.323.548-.453,1.133-.888,1.756-1.323-.51.543-.982,1.069-1.416,1.613a24.818,24.818,0,0,1,2.719,2.7,21.473,21.473,0,0,1,1.756-1.3q-.793.816-1.473,1.631a25.988,25.988,0,0,1,3.1,4.693c.415-.471.85-.924,1.322-1.377a20.371,20.371,0,0,0-2.624-5.907,21.319,21.319,0,0,1,3.663,5.037c.378-.29.755-.58,1.17-.852-.359.38-.717.761-1.038,1.123a20.776,20.776,0,0,1,1.756,5.11,19.966,19.966,0,0,1,1.454-2.265,19.311,19.311,0,0,0-1.246-7.03l-.17-.163a.814.814,0,0,1,.132.091c-.151-.417-.321-.833-.51-1.268.4.562.774,1.124,1.095,1.685a21.839,21.839,0,0,1,3.833,3.515c.359-.272.736-.543,1.114-.8-.321.326-.642.67-.925,1.015a20.367,20.367,0,0,1,1.907,2.718,15.519,15.519,0,0,1,1.756-1.5,24.241,24.241,0,0,0-5.343-8.461,25.361,25.361,0,0,1,8.194,9.331,18.063,18.063,0,0,1,1.322-1.377A20.458,20.458,0,0,0,149.4,1804a20.313,20.313,0,0,1,3.663,5.037c.378-.29.774-.58,1.189-.852-.378.38-.717.761-1.038,1.123a21.589,21.589,0,0,1,1.756,5.11,17.668,17.668,0,0,1,1.454-2.265v-.127a17.562,17.562,0,0,0-1.7-2.029,15.4,15.4,0,0,1,1.68,1.3,20.53,20.53,0,0,0-1.775-7.519,21.111,21.111,0,0,1,3.228,6.722,14.9,14.9,0,0,1,1.246-1.16c-.321-.381-.68-.779-1.057-1.16.453.308.887.616,1.3.96a14.224,14.224,0,0,1,1.322-.96c-.378.38-.736.779-1.057,1.16.434.38.85.761,1.246,1.16a20.718,20.718,0,0,1,3.228-6.722,20.209,20.209,0,0,0-1.794,7.519,17.488,17.488,0,0,1,1.68-1.3,17.324,17.324,0,0,0-1.68,2.029v.127a19.963,19.963,0,0,1,1.454,2.265,20.781,20.781,0,0,1,1.756-5.11c-.321-.362-.68-.743-1.038-1.123.415.272.793.562,1.171.852A21.315,21.315,0,0,1,169.3,1804a20.367,20.367,0,0,0-2.624,5.907c.472.453.906.906,1.322,1.377a25.3,25.3,0,0,1,8.175-9.331,24.241,24.241,0,0,0-5.343,8.461Zm12.46-3.569a19.887,19.887,0,0,0-1.1,3.062,18.066,18.066,0,0,1,1.322,1.377c.4-.761.831-1.5,1.3-2.247a24.294,24.294,0,0,0-1.529-2.192Zm4.89-.29a22.8,22.8,0,0,0-1.51,3.044,22.874,22.874,0,0,1,1.51,2.192,23.123,23.123,0,0,1,1.529-2.192,20.877,20.877,0,0,0-1.529-3.044Zm-2.152,4.838a25.028,25.028,0,0,0-.6,2.555,15.194,15.194,0,0,1,.887,1.74c.189-.526.415-1.051.642-1.558a17.3,17.3,0,0,0-.925-2.736Zm7.061-4.548a20.966,20.966,0,0,0-1.529,2.192c.472.743.906,1.486,1.3,2.247a15.027,15.027,0,0,1,1.322-1.377,19.885,19.885,0,0,0-1.1-3.062Zm-2.756,4.548a19.333,19.333,0,0,0-.906,2.736c.227.507.453,1.033.642,1.558a15.189,15.189,0,0,1,.887-1.74,20.973,20.973,0,0,0-.623-2.555Zm-62.188,5.671a9,9,0,0,0-.321-.924c-.094.707-.17,1.431-.208,2.156a11.546,11.546,0,0,1,.529-1.232Zm-2.02-3.714a8.426,8.426,0,0,0-.68-.743c.264.181.529.363.774.562a23.682,23.682,0,0,1,1.68-2.772,18.379,18.379,0,0,0-1.586-2.627,21.375,21.375,0,0,0-2.1,6.178,15.187,15.187,0,0,1,.887,1.74,20.858,20.858,0,0,1,1.019-2.337Zm1.907,1.613a9.075,9.075,0,0,1,.717,1.015c.227-.344.472-.688.736-1.015a19.291,19.291,0,0,0-.736-2.609,19.2,19.2,0,0,0-.717,2.609Zm1.34,2.1c.189.417.359.815.51,1.232-.038-.725-.094-1.449-.189-2.156a5.993,5.993,0,0,0-.321.924Zm-2.7-9.965a20.666,20.666,0,0,1,2.077,2.192,22.8,22.8,0,0,1,2.077-2.192,24.082,24.082,0,0,0-2.077-3.116,26.211,26.211,0,0,0-2.077,3.116Zm2.926,3.3a23.859,23.859,0,0,1,1.7,2.772,8.352,8.352,0,0,1,.774-.562,8.467,8.467,0,0,0-.68.743q.567,1.169,1.02,2.337a12.641,12.641,0,0,1,.887-1.74,21.957,21.957,0,0,0-2.1-6.178,16.949,16.949,0,0,0-1.6,2.627Zm28.848,3.1a12.023,12.023,0,0,1,.906,1.341,15.535,15.535,0,0,1,.925-1.341,18.993,18.993,0,0,1,.34-2.029,13.749,13.749,0,0,0-1.265-1.812,18.58,18.58,0,0,0-1.265,1.812c.151.67.264,1.359.359,2.029Zm15.594.091a13.351,13.351,0,0,1,1,1.522c.208-.272.434-.525.661-.779a21.953,21.953,0,0,1,.453-2.863c-.245-.4-.51-.815-.812-1.214a18.182,18.182,0,0,0-1.3,3.334Zm1.416,2.319c.057.109.113.218.17.308,0-.218,0-.453.019-.689a3.558,3.558,0,0,0-.189.381Zm.151-6.142a9.783,9.783,0,0,1,.774.743,20.62,20.62,0,0,1,1.737-4.312,20.576,20.576,0,0,0-2.511,3.569Zm-9.1.87a17.058,17.058,0,0,0-.321,5.055,27,27,0,0,1,1.322-3.406,19.186,19.186,0,0,0-1-1.649Zm15.519,0a18.42,18.42,0,0,0-.321,5.055,26.981,26.981,0,0,1,1.322-3.406,15.36,15.36,0,0,0-1-1.649Zm-35.569,1.848a16.269,16.269,0,0,1,1.473-1.921,21.874,21.874,0,0,1,.887,3.388,15.191,15.191,0,0,0-.887,1.74,22.252,22.252,0,0,0-1.473-3.207Zm-1.794,1.105a13.184,13.184,0,0,0-.982,1.522,8.788,8.788,0,0,0-.68-.779,21.842,21.842,0,0,0-.434-2.863c.245-.4.51-.815.793-1.214a16.931,16.931,0,0,1,1.3,3.334Zm-1.416,2.319c-.057.109-.113.218-.151.308,0-.218-.019-.453-.019-.689l.17.381Zm-.151-6.142c-.264.235-.529.489-.774.743a20.519,20.519,0,0,0-1.718-4.312,20.425,20.425,0,0,1,2.492,3.569Zm9.119.87a18.421,18.421,0,0,1,.321,5.055,26.981,26.981,0,0,0-1.322-3.406,15.362,15.362,0,0,1,1-1.649Zm-15.538,0a17.053,17.053,0,0,1,.321,5.055,26.981,26.981,0,0,0-1.322-3.406,19.178,19.178,0,0,1,1-1.649Zm-23.844,6.015a8.842,8.842,0,0,0-.4-1.377,20.35,20.35,0,0,0-.34,3.026,9.84,9.84,0,0,1,.736-1.649Zm-1.775-4.167a14.676,14.676,0,0,0-1.491-1.921,21.862,21.862,0,0,0-.887,3.388,12.656,12.656,0,0,1,.887,1.74,24.634,24.634,0,0,1,1.491-3.207ZM97.24,1813.5a12,12,0,0,1,.906,1.341,15.562,15.562,0,0,1,.925-1.341,18.958,18.958,0,0,1,.34-2.029,13.738,13.738,0,0,0-1.265-1.812,18.6,18.6,0,0,0-1.265,1.812c.151.67.264,1.359.359,2.029Zm15.594.091a13.352,13.352,0,0,1,1,1.522c.208-.272.434-.525.661-.779a21.95,21.95,0,0,1,.453-2.863c-.245-.4-.51-.815-.812-1.214a18.182,18.182,0,0,0-1.3,3.334Zm1.416,2.319c.057.109.113.218.17.308,0-.218,0-.453.019-.689a3.558,3.558,0,0,0-.189.381Zm.151-6.142a9.757,9.757,0,0,1,.774.743,20.612,20.612,0,0,1,1.737-4.312,20.579,20.579,0,0,0-2.511,3.569Zm-9.1.87a17.058,17.058,0,0,0-.321,5.055,26.982,26.982,0,0,1,1.322-3.406,19.188,19.188,0,0,0-1-1.649Zm15.519,0a18.416,18.416,0,0,0-.321,5.055,26.983,26.983,0,0,1,1.322-3.406,15.359,15.359,0,0,0-1-1.649Zm-35.569,1.848a16.285,16.285,0,0,1,1.473-1.921,21.877,21.877,0,0,1,.887,3.388,15.19,15.19,0,0,0-.887,1.74,22.257,22.257,0,0,0-1.473-3.207Zm-1.793,1.105a16.481,16.481,0,0,0-1,1.522,6.319,6.319,0,0,0-.661-.779,21.866,21.866,0,0,0-.434-2.863c.245-.4.51-.815.793-1.214a16.924,16.924,0,0,1,1.3,3.334Zm-1.416,2.319c-.057.109-.113.218-.151.308,0-.218-.019-.453-.019-.689l.17.381Zm-.151-6.142c-.264.235-.529.489-.774.743a20.527,20.527,0,0,0-1.718-4.312,20.425,20.425,0,0,1,2.492,3.569Zm9.119.87a18.421,18.421,0,0,1,.321,5.055,27,27,0,0,0-1.322-3.406,15.359,15.359,0,0,1,1-1.649Zm-15.538,0a17.058,17.058,0,0,1,.321,5.055,26.982,26.982,0,0,0-1.322-3.406,15.358,15.358,0,0,1,1-1.649Zm188.075,6.015a8.843,8.843,0,0,1,.4-1.377,20.352,20.352,0,0,1,.34,3.026,14.281,14.281,0,0,0-.736-1.649Zm29.357,0a8.853,8.853,0,0,0-.4-1.377,23.184,23.184,0,0,0-.34,3.026,14.253,14.253,0,0,1,.736-1.649Zm-1.775-4.167a16.283,16.283,0,0,0-1.473-1.921,21.877,21.877,0,0,0-.887,3.388,18.95,18.95,0,0,1,.887,1.74,22.257,22.257,0,0,1,1.473-3.207Zm-44.121,4.584a5.993,5.993,0,0,0-.321-.924c-.094.707-.17,1.431-.208,2.156.151-.417.34-.815.529-1.232Zm-2.02-3.714a8.445,8.445,0,0,0-.68-.743,8.338,8.338,0,0,1,.774.562,23.861,23.861,0,0,1,1.7-2.772,16.949,16.949,0,0,0-1.6-2.627,21.956,21.956,0,0,0-2.1,6.178,15.168,15.168,0,0,1,.887,1.74q.453-1.169,1.02-2.337Zm1.907,1.613c.264.326.51.67.736,1.015a9.081,9.081,0,0,1,.717-1.015,19.2,19.2,0,0,0-.717-2.609,19.275,19.275,0,0,0-.736,2.609Zm1.34,2.1a11.52,11.52,0,0,1,.529,1.232c-.038-.725-.113-1.449-.208-2.156a9.007,9.007,0,0,0-.321.924Zm-2.7-9.965a20.9,20.9,0,0,1,2.1,2.192,20.666,20.666,0,0,1,2.077-2.192,26.211,26.211,0,0,0-2.077-3.116,26.43,26.43,0,0,0-2.1,3.116Zm2.926,3.3a21.525,21.525,0,0,1,1.7,2.772c.245-.2.51-.38.774-.562a8.467,8.467,0,0,0-.68.743q.567,1.169,1.02,2.337a15.168,15.168,0,0,1,.887-1.74,21.375,21.375,0,0,0-2.1-6.178,20.488,20.488,0,0,0-1.6,2.627Zm28.848,3.1a15.564,15.564,0,0,1,.925,1.341,12,12,0,0,1,.906-1.341,19.081,19.081,0,0,1,.359-2.029,18.594,18.594,0,0,0-1.265-1.812,13.738,13.738,0,0,0-1.265,1.812,18.954,18.954,0,0,1,.34,2.029Zm15.594.091a11.222,11.222,0,0,1,1,1.522,8.813,8.813,0,0,1,.68-.779,21.87,21.87,0,0,1,.434-2.863c-.245-.4-.51-.815-.793-1.214a18.28,18.28,0,0,0-1.322,3.334Zm1.435,2.319c.057.109.094.218.151.308,0-.218,0-.453.019-.689l-.17.381Zm.151-6.142c.264.235.529.489.774.743a20.527,20.527,0,0,1,1.718-4.312,20.427,20.427,0,0,0-2.492,3.569Zm-9.119.87a18.422,18.422,0,0,0-.321,5.055,27,27,0,0,1,1.322-3.406,15.358,15.358,0,0,0-1-1.649Zm15.538,0a17.735,17.735,0,0,0-.34,5.055,30.347,30.347,0,0,1,1.34-3.406,19.189,19.189,0,0,0-1-1.649Zm-35.587,1.848a14.677,14.677,0,0,1,1.491-1.921,21.766,21.766,0,0,1,.868,3.388,15.057,15.057,0,0,0-.868,1.74,24.635,24.635,0,0,0-1.491-3.207Zm-1.775,1.105a13.349,13.349,0,0,0-1,1.522,8.783,8.783,0,0,0-.68-.779,19.07,19.07,0,0,0-.434-2.863c.245-.4.51-.815.812-1.214a18.191,18.191,0,0,1,1.3,3.334Zm-1.416,2.319c-.057.109-.113.218-.17.308,0-.218,0-.453-.019-.689a3.58,3.58,0,0,1,.189.381Zm-.151-6.142a9.758,9.758,0,0,0-.774.743,20.613,20.613,0,0,0-1.737-4.312,21.66,21.66,0,0,1,2.511,3.569Zm9.1.87a17.059,17.059,0,0,1,.321,5.055,26.985,26.985,0,0,0-1.322-3.406,15.353,15.353,0,0,1,1-1.649Zm-15.519,0a18.416,18.416,0,0,1,.321,5.055,30.2,30.2,0,0,0-1.322-3.406,12.806,12.806,0,0,1,1-1.649Zm-23.863,6.015a8.838,8.838,0,0,0-.4-1.377,23.232,23.232,0,0,0-.34,3.026,14.278,14.278,0,0,1,.736-1.649Zm-1.775-4.167a16.265,16.265,0,0,0-1.473-1.921,21.877,21.877,0,0,0-.887,3.388,19,19,0,0,1,.887,1.74,22.254,22.254,0,0,1,1.473-3.207ZM216.1,1813.5a15.528,15.528,0,0,1,.925,1.341,12.027,12.027,0,0,1,.906-1.341,19.042,19.042,0,0,1,.359-2.029,18.577,18.577,0,0,0-1.265-1.812,13.747,13.747,0,0,0-1.265,1.812,18.993,18.993,0,0,1,.34,2.029Zm15.594.091a11.224,11.224,0,0,1,1,1.522,8.788,8.788,0,0,1,.68-.779,21.865,21.865,0,0,1,.434-2.863c-.245-.4-.51-.815-.793-1.214a18.28,18.28,0,0,0-1.322,3.334Zm1.435,2.319c.057.109.094.218.151.308,0-.218,0-.453.019-.689l-.17.381Zm.151-6.142c.264.235.529.489.774.743a19.548,19.548,0,0,1,1.718-4.312,20.427,20.427,0,0,0-2.492,3.569Zm-9.119.87a18.42,18.42,0,0,0-.321,5.055,26.983,26.983,0,0,1,1.322-3.406,15.36,15.36,0,0,0-1-1.649Zm15.538,0a17.73,17.73,0,0,0-.34,5.055,30.344,30.344,0,0,1,1.34-3.406,19.164,19.164,0,0,0-1-1.649Zm-35.587,1.848a14.688,14.688,0,0,1,1.492-1.921,21.8,21.8,0,0,1,.868,3.388,15.055,15.055,0,0,0-.868,1.74,24.634,24.634,0,0,0-1.492-3.207Zm-1.775,1.105a13.351,13.351,0,0,0-1,1.522,8.785,8.785,0,0,0-.68-.779,19.07,19.07,0,0,0-.434-2.863c.245-.4.51-.815.812-1.214a18.184,18.184,0,0,1,1.3,3.334Zm-1.416,2.319c-.057.109-.113.218-.17.308,0-.218,0-.453-.019-.689a3.564,3.564,0,0,1,.189.381Zm-.151-6.142a9.78,9.78,0,0,0-.774.743,20.619,20.619,0,0,0-1.737-4.312,21.655,21.655,0,0,1,2.511,3.569Zm9.1.87a17.712,17.712,0,0,1,.321,5.055,27,27,0,0,0-1.322-3.406,15.36,15.36,0,0,1,1-1.649Zm-15.519,0a18.422,18.422,0,0,1,.321,5.055,30.193,30.193,0,0,0-1.322-3.406,12.806,12.806,0,0,1,1-1.649Z" transform="translate(-29.164 -1495.356)" fill="#42c5a0" fill-rule="evenodd"/>
    <g id="Grupo_124150" data-name="Grupo 124150" transform="translate(39.022 190.281)">
      <path id="Trazado_119246" data-name="Trazado 119246" d="M107.207,932.88l.9,2.93,2.93.9-2.93.9-.9,2.93-.9-2.93-2.93-.9,2.93-.9Z" transform="translate(-103.379 -932.88)" fill="#fff"/>
    </g>
    <g id="Grupo_124151" data-name="Grupo 124151" transform="translate(248.388 186.452)">
      <path id="Trazado_119247" data-name="Trazado 119247" d="M1671.491,904.27l.9,2.93,2.93.9-2.93.9-.9,2.93-.9-2.93-2.93-.9,2.93-.9Z" transform="translate(-1667.663 -904.27)" fill="#fff"/>
    </g>
    <g id="Grupo_124152" data-name="Grupo 124152" transform="translate(272.98 211.044)">
      <path id="Trazado_119248" data-name="Trazado 119248" d="M1855.235,1088.014l.9,2.93,2.929.9-2.929.9-.9,2.93-.9-2.93-2.93-.9,2.93-.9Z" transform="translate(-1851.407 -1088.014)" fill="#fff"/>
    </g>
    <g id="Grupo_124153" data-name="Grupo 124153" transform="translate(54.254 230.541)">
      <path id="Trazado_119249" data-name="Trazado 119249" d="M222.626,1233.686l1.278,4.16,4.16,1.276-4.16,1.278-1.278,4.16-1.276-4.16-4.16-1.278,4.16-1.276Z" transform="translate(-217.19 -1233.686)" fill="#fff"/>
    </g>
    <g id="Grupo_124154" data-name="Grupo 124154" transform="translate(54.254 150.326)">
      <path id="Trazado_119250" data-name="Trazado 119250" d="M222.626,634.352l1.278,4.16,4.16,1.276-4.16,1.278-1.278,4.16-1.276-4.16-4.16-1.278,4.16-1.276Z" transform="translate(-217.19 -634.352)" fill="#fff"/>
    </g>
    <g id="Grupo_124155" data-name="Grupo 124155" transform="translate(56.526 179.093)">
      <path id="Trazado_119251" data-name="Trazado 119251" d="M237.328,849.291l.744,2.422,2.421.743-2.421.744-.744,2.422-.743-2.422-2.422-.744,2.422-.743Z" transform="translate(-234.164 -849.291)" fill="#fff"/>
    </g>
    <g id="Grupo_124156" data-name="Grupo 124156" transform="translate(265.921 165.948)">
      <path id="Trazado_119252" data-name="Trazado 119252" d="M1804.1,751.076l1.278,4.16,4.16,1.276-4.16,1.278-1.278,4.16-1.276-4.16-4.16-1.278,4.16-1.276Z" transform="translate(-1798.659 -751.076)" fill="#fff"/>
    </g>
  </g>
</svg>
