<svg xmlns="http://www.w3.org/2000/svg" width="377.461" height="250.378" viewBox="0 0 377.461 250.378">
  <g id="_117" data-name="117" transform="translate(46.505 -75.532)">
    <path id="Trazado_119173" data-name="Trazado 119173" d="M145.276,75.82c33.758-2.388,64.649,10.256,85.341,31.889,32.862,14.83,56.152,45.467,58.212,82.318,3.058,54.759-41.909,102.5-100.441,106.627a111.061,111.061,0,0,1-45.4-6.142c-.742.072-1.484.129-2.239.187C82.214,294.827,32.294,253.79,29.223,199.046c-1.74-31.27,12.182-60.254,35.332-80.132,18.159-24.078,47.207-40.735,80.721-43.094Z" transform="translate(0 0)" fill="#b7eef3"/>
    <g id="Grupo_124211" data-name="Grupo 124211" transform="translate(-1755.589 -432.719)">
      <ellipse id="Elipse_4329" data-name="Elipse 4329" cx="188.731" cy="5.483" rx="188.731" ry="5.483" transform="translate(1709.084 747.664)" fill="#a7d4e8" opacity="0.36" style="mix-blend-mode: multiply;isolation: isolate"/>
      <g id="Grupo_124201" data-name="Grupo 124201" transform="translate(1760.542 577.651)">
        <rect id="Rectángulo_37460" data-name="Rectángulo 37460" width="175.006" height="102.659" rx="12.006" transform="translate(30.115 175.006) rotate(-90)" fill="#3b6596"/>
        <rect id="Rectángulo_37461" data-name="Rectángulo 37461" width="175.006" height="35.862" rx="3" transform="translate(0 175.006) rotate(-90)" fill="#254675"/>
        <rect id="Rectángulo_37462" data-name="Rectángulo 37462" width="19.873" height="35.862" transform="translate(0 155.744) rotate(-90)" fill="#ffcb4a"/>
        <rect id="Rectángulo_37463" data-name="Rectángulo 37463" width="19.873" height="35.862" transform="translate(0 39.135) rotate(-90)" fill="#ffcb4a"/>
      </g>
      <g id="Grupo_124203" data-name="Grupo 124203" transform="translate(1917.844 547.54)">
        <rect id="Rectángulo_37464" data-name="Rectángulo 37464" width="153.422" height="205.117" rx="10.991" transform="translate(0 0)" fill="#d9e4ff"/>
        <rect id="Rectángulo_37465" data-name="Rectángulo 37465" width="96.328" height="18.002" transform="translate(28.547 14.133)" fill="#d9e4ff" style="mix-blend-mode: multiply;isolation: isolate"/>
        <rect id="Rectángulo_37466" data-name="Rectángulo 37466" width="131.214" height="8.893" transform="translate(11.104 53.712)" fill="#d9e4ff" style="mix-blend-mode: multiply;isolation: isolate"/>
        <rect id="Rectángulo_37467" data-name="Rectángulo 37467" width="131.214" height="8.893" transform="translate(11.104 80.28)" fill="#d9e4ff" style="mix-blend-mode: multiply;isolation: isolate"/>
        <rect id="Rectángulo_37468" data-name="Rectángulo 37468" width="79.78" height="8.893" transform="translate(11.104 106.847)" fill="#d9e4ff" style="mix-blend-mode: multiply;isolation: isolate"/>
        <rect id="Rectángulo_37469" data-name="Rectángulo 37469" width="79.78" height="8.893" transform="translate(11.104 133.414)" fill="#d9e4ff" style="mix-blend-mode: multiply;isolation: isolate"/>
        <rect id="Rectángulo_37470" data-name="Rectángulo 37470" width="79.78" height="8.893" transform="translate(11.104 159.982)" fill="#d9e4ff" style="mix-blend-mode: multiply;isolation: isolate"/>
        <g id="Grupo_124202" data-name="Grupo 124202" transform="translate(103.292 104.078)">
          <path id="Trazado_119394" data-name="Trazado 119394" d="M3141.235,1153.32l-10.587-8.28-10.586,8.28v-39.14h21.173Z" transform="translate(-3109.066 -1088.524)" fill="#cf4c4c"/>
          <circle id="Elipse_4330" data-name="Elipse 4330" cx="19.741" cy="19.741" r="19.741" transform="translate(1.842 1.842)" fill="#cf4c4c"/>
          <circle id="Elipse_4331" data-name="Elipse 4331" cx="15.261" cy="15.261" r="15.261" transform="translate(0 21.583) rotate(-45)" fill="#d9e4ff"/>
        </g>
      </g>
      <g id="Grupo_124207" data-name="Grupo 124207" transform="translate(1966.6 596.036)">
        <path id="Trazado_119395" data-name="Trazado 119395" d="M2898.512,1054.418l-.67,9.634,1.069,37.858s.575,6.083.8,8.538,1.892,26.971,1.892,26.971l-4.269.186c-.816-7-5.464-13.941-7.1-27.807-.354-3.01-.513-7.215-.513-7.215l-4.018-9.59-2.438,9.4a21.186,21.186,0,0,1,1.095,7.028c-.665,9.086-4.953,21.954-4.727,27.84h-4.54l.021-83.11Z" transform="translate(-2865.65 -986.654)" fill="#f7a890"/>
        <path id="Trazado_119396" data-name="Trazado 119396" d="M2888.328,1054.412a51.935,51.935,0,0,1,1.122,9.9c-.015,4.436-2.088,16.975-.064,34.7l-26.931-.341-.3-35.235,3.31-9.291Z" transform="translate(-2855.673 -986.654)" fill="#063856"/>
        <path id="Trazado_119397" data-name="Trazado 119397" d="M2880.858,857.406s7.1,4.021,8,5.215.983,4.343.906,6.213c-.222,5.342-5.98,26.735-5.784,29.046a59.3,59.3,0,0,0,1.65,8.375c.774,3.138.255,10.808.255,10.808l-20.625-.494-.908-14.073-2.7-.044-3.31,9.291.041,4.778h-1.174l2.633-14.068,2.479-22.781-.668-9.361,2.657-7.23,1.287-1.135,6.088-2.864Z" transform="translate(-2851.856 -834.956)" fill="#254675"/>
        <path id="Trazado_119398" data-name="Trazado 119398" d="M2902.3,857.406l-1.784,2.082-6.7,5.143-5.335,7.437-1.758,4.381.063-5.333,3.078-6.6,3.156-5.059.105-.38-1.925,1.246-2.817,3.363.485,1-.9.656-2.957,5.093,1.373,8.131,3.448-5.8,7.445-5.382-1.472-2.041h4.268l2.222-4.312,1.044-2.944Z" transform="translate(-2873.297 -834.957)" fill="#3b6596"/>
        <path id="Trazado_119399" data-name="Trazado 119399" d="M2877.512,982.455l.266.122,4.027,2.2-4.344-1.52Z" transform="translate(-2867.473 -931.375)" fill="#173a65"/>
        <path id="Trazado_119400" data-name="Trazado 119400" d="M2922.235,947.359l-16.175,11.385-2.8-.83,2.416-.673Z" transform="translate(-2887.362 -904.314)" fill="#173a65"/>
        <path id="Trazado_119401" data-name="Trazado 119401" d="M2891.75,843.714l1.229-3.134,1.773-2.539,1.047-2.34,1.011.685-.325,2.029,2.738.13.148,2.513-1.53,1.976-2,1.333-.5,1.377Z" transform="translate(-2878.491 -818.221)" fill="#f7a890"/>
        <path id="Trazado_119402" data-name="Trazado 119402" d="M2907.653,838.685l.774,2.012,2.888.148.149,2.513-1.53,1.976,1.068-2.175-.513-1.672-2.135.288-.922-1.782v-.967Z" transform="translate(-2890.583 -820.521)" fill="#e58070"/>
        <path id="Trazado_119403" data-name="Trazado 119403" d="M2900.035,777.38l.038,4.712s-1.351,4.942-.977,5.119a3.774,3.774,0,0,0,1.236.154s1.309,3.917,1.829,4.021a15.739,15.739,0,0,0,2.907-.435l-1.243,4.473-2.417,7.022,2.442-5.1,5.732-2.459,3.548-1.52-.227-2.306-.454-13.631-9.417-3.077Z" transform="translate(-2884.104 -770.922)" fill="#f7a890"/>
        <path id="Trazado_119404" data-name="Trazado 119404" d="M2908.049,857.406l-3.548,1.52-4.694,1.54-1.039.918-2.417,5.1,2.417-7.022-3.157,5.059-3.077,6.6-.062,5.333,1.757-4.381,5.336-7.437,6.7-5.143Z" transform="translate(-2879.047 -834.957)" fill="#d9e4ff"/>
        <path id="Trazado_119405" data-name="Trazado 119405" d="M2883.065,891.35l2.638-.078.576,3.3.033-3.357,1.571,1.295-.926-1.713,12.512-10.711L2886.312,890.3l-1.5-1.356,3.64-17.66.776-1.133-1.168.777-.5,1.377-5.413,19.55-.488,1.29Z" transform="translate(-2870.711 -844.787)" fill="#173a65" opacity="0.36" style="mix-blend-mode: multiply;isolation: isolate"/>
        <path id="Trazado_119406" data-name="Trazado 119406" d="M2862.483,870.7s-8.691,18.336-8.691,19.62a4.494,4.494,0,0,0,.91,2.876,14.123,14.123,0,0,0,2.8,1.416l2.6-1.021,5.962-20.86Z" transform="translate(-2849.223 -845.204)" fill="#254675"/>
        <path id="Trazado_119407" data-name="Trazado 119407" d="M2872.18,967.565l.987-2.611-1.352.256-1.8,2.075.639,1.157,1.383.641Z" transform="translate(-2861.73 -917.881)" fill="#f7a890"/>
        <path id="Trazado_119408" data-name="Trazado 119408" d="M2919.971,871.691l1.039-.918.93,2.612-1.075-2-.589.279Z" transform="translate(-2900.25 -845.263)" fill="#c8d9fc"/>
        <path id="Trazado_119409" data-name="Trazado 119409" d="M2877.966,1034.2l-1.353,4.568,2.705.045Z" transform="translate(-2866.819 -971.27)" fill="#d9e4ff"/>
        <path id="Trazado_119410" data-name="Trazado 119410" d="M2924.711,842.741l2.978-1.216-3.182,1.953Z" transform="translate(-2903.747 -822.711)" fill="#e58070"/>
        <g id="Grupo_124204" data-name="Grupo 124204" transform="translate(13.925 0)">
          <path id="Trazado_119411" data-name="Trazado 119411" d="M2902.92,772.216c.325,5.134,2.83,9.056,6.765,9.749,2.158.38,4.151-8.05,3.372-11.084-1.041-4.047-1.869-5.078-5.231-7.05-2.5-1.712-8.747-2.131-10.9,1.088-3.554,2.461-2.009,5.215-1.453,5.859a4.939,4.939,0,0,0,2.681,1.2,4.968,4.968,0,0,1-1.118-1.7c-.052-.178,1.044,1.475,2.186,1.869A7.956,7.956,0,0,0,2902.92,772.216Z" transform="translate(-2894.657 -761.792)" fill="#0c1e3e"/>
          <circle id="Elipse_4332" data-name="Elipse 4332" cx="5.049" cy="5.049" r="5.049" transform="translate(10.252)" fill="#0c1e3e"/>
          <path id="Trazado_119412" data-name="Trazado 119412" d="M2926.4,796.1s2.536,15.936-.277,16.974c0,0,4.326-1.038,1.014-16.974C2926.431,792.711,2926.4,796.1,2926.4,796.1Z" transform="translate(-2918.917 -786.524)" fill="#0c1e3e"/>
        </g>
        <g id="Grupo_124205" data-name="Grupo 124205" transform="translate(0 148.918)">
          <path id="Trazado_119413" data-name="Trazado 119413" d="M2855.1,1411.468l-5.915,2.4a1.3,1.3,0,0,0,1.533,1.578,18.679,18.679,0,0,0,5.029-1.571l3.893-1.653v-.756l-.442-1.686-3.683.191Z" transform="translate(-2845.656 -1409.782)" fill="#f7a890"/>
          <path id="Trazado_119414" data-name="Trazado 119414" d="M2837.368,1422.1a7.914,7.914,0,0,0-2.921,1.822,4.829,4.829,0,0,0-.6,1.459.267.267,0,0,0,.259.333h2.127a14.568,14.568,0,0,0,5.315-.983,24,24,0,0,1,4.511-1.127l.934,2.11h.949l-.117-5.261a11.126,11.126,0,0,0-1.651.168c-.64.141-4.81,2.232-6.354,2.232A4.046,4.046,0,0,1,2837.368,1422.1Z" transform="translate(-2833.836 -1418.008)" fill="#171c28"/>
        </g>
        <g id="Grupo_124206" data-name="Grupo 124206" transform="translate(31.472 149)">
          <path id="Trazado_119415" data-name="Trazado 119415" d="M2972.025,1418.035l.047,2.2-.1,3.471h.795l.17-.583.315.583,3.987,0a2.846,2.846,0,0,0,.407-1.245,4.873,4.873,0,0,0-.2-1.882c-.133-.525-1.152-2.73-1.152-2.73Z" transform="translate(-2971.814 -1416.084)" fill="#171c28"/>
          <path id="Trazado_119416" data-name="Trazado 119416" d="M2975.755,1412.086c.011.131.752,2.137.752,2.432a1.775,1.775,0,0,1-.732,1.4,2.811,2.811,0,0,1-1.824,0c-.666-.185-1.734-2.555-1.9-3.507-.052-.3-.548-.316-.548-.316l-.211-1.686,4.244-.264.236,1.765S2975.74,1411.909,2975.755,1412.086Z" transform="translate(-2971.294 -1410.141)" fill="#f7a890"/>
        </g>
      </g>
      <g id="Grupo_124208" data-name="Grupo 124208" transform="translate(1892.423 630.427)">
        <rect id="Rectángulo_37471" data-name="Rectángulo 37471" width="50.618" height="40.383" transform="translate(11.779 57.603)" fill="#ffcb4a"/>
        <path id="Trazado_119417" data-name="Trazado 119417" d="M2611.92,1279.708v18.621a3.932,3.932,0,0,1-.983,2.6l-10.492,11.9a3.933,3.933,0,0,1-2.949,1.331h-21.771a3.931,3.931,0,0,1-2.949-1.331l-10.492-11.9a3.931,3.931,0,0,1-.982-2.6v-18.621a3.931,3.931,0,0,1,3.931-3.931h42.756A3.932,3.932,0,0,1,2611.92,1279.708Z" transform="translate(-2549.522 -1191.931)" fill="#0c395b"/>
        <rect id="Rectángulo_37472" data-name="Rectángulo 37472" width="55.352" height="7.739" rx="3.667" transform="translate(9.413 82.61)" fill="#254675"/>
        <rect id="Rectángulo_37473" data-name="Rectángulo 37473" width="55.352" height="7.739" rx="3.667" transform="translate(9.413 94.504)" fill="#254675"/>
        <circle id="Elipse_4333" data-name="Elipse 4333" cx="37.089" cy="37.089" r="37.089" transform="translate(0 0)" fill="#ffcb4a"/>
      </g>
      <g id="Grupo_124210" data-name="Grupo 124210" transform="translate(1841.217 593.031)">
        <path id="Trazado_119418" data-name="Trazado 119418" d="M2632.461,906.263l2.427.292a12.634,12.634,0,0,0,2.15.993,10.408,10.408,0,0,0,2.832.175c.54-.062.353-.85-.015-.968l-1.562-.5,1.729-.256s1.657-.024,2.115.028c.69.078,1.995.234,2.39.337s.407-.443.407-.443l.729.117s.541-.534.324-.888c-.24-.391-3.75-1.953-4.163-2.222a10.481,10.481,0,0,0-3.361-.972c-.976-.028-2.4.289-3.136.271s-2.867-.364-2.867-.364Z" transform="translate(-2553.183 -866.231)" fill="#f7a890"/>
        <path id="Trazado_119419" data-name="Trazado 119419" d="M2379.216,1418.141s-1.987,3.826-2.09,4.25a15.368,15.368,0,0,0-.192,1.54h8.042v-.973l-.773-4.607Z" transform="translate(-2356.16 -1264.304)" fill="#171c28"/>
        <path id="Trazado_119420" data-name="Trazado 119420" d="M2476.1,1420.047l-.1,5.26h2.442l.177-.639,2.493.639H2491.8s-.095-1.578-.416-1.881-9.223-3.5-9.223-3.5Z" transform="translate(-2432.544 -1265.68)" fill="#171c28"/>
        <path id="Trazado_119421" data-name="Trazado 119421" d="M2388.179,1051.438l-4.765,84.781,6.912.237,9.089-45.207,5.146,45.419,7.576-.594,1.316-84.926Z" transform="translate(-2361.156 -981.335)" fill="#0c395b"/>
        <path id="Trazado_119422" data-name="Trazado 119422" d="M2453.3,1176.983l3.511-14.644-2.878,20.143Z" transform="translate(-2415.041 -1067.069)" fill="#022b3f"/>
        <path id="Trazado_119423" data-name="Trazado 119423" d="M2298.535,946.874l-2.427-.292a12.644,12.644,0,0,0-2.15-.993,10.434,10.434,0,0,0-2.832-.175c-.54.062-.353.85.015.968l1.562.5-1.387-.008a13.532,13.532,0,0,1-2.832-.888,6.425,6.425,0,0,0-1.551-1.328c-.4-.1-.733.564-.733.564l.93,1.552a13.373,13.373,0,0,0,.744,1.97,16.567,16.567,0,0,0,2.284,1.971,5.578,5.578,0,0,0,2.374.466c.975.028,2.4-.289,3.135-.271s2.867.365,2.867.365Z" transform="translate(-2286.2 -899.218)" fill="#f7a890"/>
        <path id="Trazado_119424" data-name="Trazado 119424" d="M2347.593,872.966l.841,6.093-1.974,17.766,19.6-.378,3.96-8.987,3.869-.164-.141,9.122h.656l-.221-14.374s-.678-29.564-.784-31.094-.667-7.177-1.533-7.986-6.971-3.515-6.971-3.515l-9.279-.807s-10.587,3.186-11.805,4.539-2.43,22.126-2.43,22.126l-9.276-.387v5.493s13.334,5.188,14.4,4.194A7.414,7.414,0,0,0,2347.593,872.966Z" transform="translate(-2321.597 -817.484)" fill="#254675"/>
        <path id="Trazado_119425" data-name="Trazado 119425" d="M2399.989,933.513l6.279-20.718-6.527,17.346Z" transform="translate(-2373.746 -874.659)" fill="#173a65"/>
        <path id="Trazado_119426" data-name="Trazado 119426" d="M2483.938,856.966s7.917,2.949,9.945,3.435,19.352.557,19.352.557l1.13-4.884-18.593-2.925s-11.092-7.465-12.54-7.839c-1.232-.318-7.9-3.141-7.9-3.141Z" transform="translate(-2432.025 -820.202)" fill="#254675"/>
        <path id="Trazado_119427" data-name="Trazado 119427" d="M2429.586,839.01l1.193,3.26L2433,846.58l3.886.859-1.46,2.152,9.074,16.031.677-17.9-1.123-.983.8-1.286-2.387-3.748-.933.061-8.97-1.04-1.785-2.08Z" transform="translate(-2396.757 -817.484)" fill="#3b6596"/>
        <path id="Trazado_119428" data-name="Trazado 119428" d="M2449.48,759.178c.187,1.895-.962,3.261-.943,4.948.145.9.678,4.713.415,4.827a4.11,4.11,0,0,1-1.049.1s-.975,3.319-1.363,3.464a18.937,18.937,0,0,1-2.856.018l.7,5.063-.146.958-1.325-.1-4.562-2.329-3.548-1.52.227-2.306.454-13.631,9.417-3.077S2449.294,757.283,2449.48,759.178Z" transform="translate(-2400.782 -753.45)" fill="#f7a890"/>
        <path id="Trazado_119429" data-name="Trazado 119429" d="M2434.806,838.643l3.549,1.52,4.562,2.329,1.325.1.146-.958-.3-2.183,2.319,1.728.928,5.4,1.195,19.044-5.9-18.833-6.034-6.065Z" transform="translate(-2400.782 -817.484)" fill="#d9e4ff"/>
        <g id="Grupo_124209" data-name="Grupo 124209" transform="translate(42.134 25.008)">
          <path id="Trazado_119430" data-name="Trazado 119430" d="M2471.859,855.584l1.629,1.048-.132,2.234,1.874,10.03.609,9.686-3.245-10.349-1.084-9.36-1.281-3.42Z" transform="translate(-2470.23 -855.454)" fill="#cf4c4c"/>
          <path id="Trazado_119431" data-name="Trazado 119431" d="M2477.669,869.787l-1.344-.169-.5.177.539-.051Z" transform="translate(-2474.542 -866.375)" fill="#cf4c4c" opacity="0.63" style="mix-blend-mode: multiply;isolation: isolate"/>
          <path id="Trazado_119432" data-name="Trazado 119432" d="M2470.23,855.454l1.589.753,1.669.425-1.629-1.048Z" transform="translate(-2470.23 -855.454)" fill="#cf4c4c" opacity="0.63" style="mix-blend-mode: multiply;isolation: isolate"/>
        </g>
        <path id="Trazado_119433" data-name="Trazado 119433" d="M2463.253,853.482l-1.147-.586-.924,2.6,1.074-2,1.246.654Z" transform="translate(-2421.119 -828.475)" fill="#c8d9fc"/>
        <path id="Trazado_119434" data-name="Trazado 119434" d="M2456.866,823.888l-4.962-1.694,5.07,2.471Z" transform="translate(-2413.965 -804.801)" fill="#e58070"/>
        <path id="Trazado_119435" data-name="Trazado 119435" d="M2477.347,851.158l1.856-1.444.307,1.787-.555-.759Z" transform="translate(-2433.583 -826.02)" fill="#c8d9fc"/>
        <path id="Trazado_119436" data-name="Trazado 119436" d="M2436.106,753.556a5.234,5.234,0,0,1-2.084,1.8c-.792.177-1.109,4.656-1.589,1.781a1.325,1.325,0,0,0-1.818-.923,1.49,1.49,0,0,0-.742,1.789,3.819,3.819,0,0,0,2.13,2.264c.121.026-.883,1.691-1.516,3.183a4.584,4.584,0,0,1-2.643,1.994c-.246-2.972-1.08-4.6-1.783-7.221-2.436-9.1,2.2-9.654,3.251-9.156a4.627,4.627,0,0,1,4.625-2.239c2.629.636,4.784-.4,6.554-.59,2.695-.295,5.86,4.4,1.433,6.844C2438.79,754.814,2436.54,752.893,2436.106,753.556Z" transform="translate(-2393.501 -746.228)" fill="#0c1e3e"/>
        <path id="Trazado_119437" data-name="Trazado 119437" d="M2499.918,1028.025l1.664,5.413-3.869.044Z" transform="translate(-2449.286 -963.507)" fill="#d9e4ff"/>
      </g>
    </g>
    <g id="Grupo_124146" data-name="Grupo 124146" transform="translate(47.268 267.374)">
      <path id="Trazado_119188" data-name="Trazado 119188" d="M206.135,1720.7c-7.329-9.278-22.37-27.119-22.713-26.35,1.364,1.114,17.219,19.968,21.578,28.719Z" transform="translate(-180.955 -1669.503)" fill="#0ebaa0" fill-rule="evenodd"/>
      <path id="Trazado_119189" data-name="Trazado 119189" d="M164.988,1675.024c.827.293,1.876.09,2.605.826a2.844,2.844,0,0,1,.8,2.614,2.842,2.842,0,0,1-2.605-.826c-.727-.736-.521-1.711-.8-2.614Z" transform="translate(-164.988 -1652.787)" fill="#0ebaa0" fill-rule="evenodd"/>
      <path id="Trazado_119190" data-name="Trazado 119190" d="M177.679,1714.855c.53-.358.864-1.061,1.613-1.166a1.124,1.124,0,1,1,.262,1.833c-.745.105-1.228-.436-1.875-.666Z" transform="translate(-175.98 -1686.256)" fill="#0ebaa0" fill-rule="evenodd"/>
      <path id="Trazado_119191" data-name="Trazado 119191" d="M196.983,1689.074c.166.435.609.783.564,1.327a.813.813,0,1,1-1.336-.109c.045-.547.5-.8.772-1.218Z" transform="translate(-192.028 -1664.957)" fill="#0ebaa0" fill-rule="evenodd"/>
      <path id="Trazado_119192" data-name="Trazado 119192" d="M219.651,1701.308c-.439.7-1.33,1.157-1.438,2.125a2.663,2.663,0,0,0,.938,2.384,2.668,2.668,0,0,0,1.435-2.122c.108-.968-.612-1.562-.935-2.387Z" transform="translate(-211.075 -1675.554)" fill="#0ebaa0" fill-rule="evenodd"/>
      <path id="Trazado_119193" data-name="Trazado 119193" d="M193.428,1746.172c.76-.513,1.24-1.519,2.311-1.675a1.614,1.614,0,1,1,.381,2.632c-1.074.153-1.765-.625-2.692-.957Z" transform="translate(-189.622 -1712.933)" fill="#0ebaa0" fill-rule="evenodd"/>
      <path id="Trazado_119194" data-name="Trazado 119194" d="M247.206,1719.2c-.706.943-2.03,1.494-2.294,2.86a3.812,3.812,0,0,0,1.052,3.516,3.817,3.817,0,0,0,2.3-2.863c.267-1.366-.688-2.3-1.055-3.512Z" transform="translate(-234.148 -1691.047)" fill="#0ebaa0" fill-rule="evenodd"/>
      <path id="Trazado_119195" data-name="Trazado 119195" d="M201.591,1783.043c1.24-.835,2.026-2.484,3.778-2.734a2.635,2.635,0,1,1,.619,4.3c-1.755.251-2.882-1.019-4.4-1.563Z" transform="translate(-196.692 -1743.933)" fill="#0ebaa0" fill-rule="evenodd"/>
      <path id="Trazado_119196" data-name="Trazado 119196" d="M284.823,1740.433c-1.2,1.341-3.286,2-3.873,4.047a5.824,5.824,0,0,0,1.135,5.484,5.824,5.824,0,0,0,3.873-4.047c.587-2.042-.741-3.589-1.135-5.484Z" transform="translate(-265.217 -1709.442)" fill="#0ebaa0" fill-rule="evenodd"/>
      <path id="Trazado_119197" data-name="Trazado 119197" d="M214.514,1829.987c1.932-1.015,3.325-3.271,5.9-3.358a3.834,3.834,0,1,1,.21,6.314c-2.577.084-4-1.934-6.112-2.956Z" transform="translate(-207.885 -1784.098)" fill="#0ebaa0" fill-rule="evenodd"/>
      <path id="Trazado_119198" data-name="Trazado 119198" d="M331.186,1591.182c-1.449-15.941-5.316-47.3-6.271-46.678.722,2.271,4.761,35.379,3.239,48.526Z" transform="translate(-303.51 -1539.728)" fill="#0ebaa0" fill-rule="evenodd"/>
      <path id="Trazado_119199" data-name="Trazado 119199" d="M311.424,1508.882c.721.942,2.06,1.484,2.344,2.859a3.855,3.855,0,0,1-1.03,3.554,3.852,3.852,0,0,1-2.344-2.863c-.281-1.375.672-2.325,1.03-3.551Z" transform="translate(-290.889 -1508.882)" fill="#0ebaa0" fill-rule="evenodd"/>
      <path id="Trazado_119200" data-name="Trazado 119200" d="M297.678,1570.222c.865-.016,1.763-.564,2.691-.134a1.522,1.522,0,1,1-1.056,2.276c-.928-.433-1.071-1.4-1.635-2.141Z" transform="translate(-279.919 -1561.754)" fill="#0ebaa0" fill-rule="evenodd"/>
      <path id="Trazado_119201" data-name="Trazado 119201" d="M335.591,1552.182c-.128.614.112,1.338-.341,1.922a1.1,1.1,0,1,1-1.433-1.116c.453-.584,1.16-.527,1.773-.806Z" transform="translate(-310.829 -1546.387)" fill="#0ebaa0" fill-rule="evenodd"/>
      <path id="Trazado_119202" data-name="Trazado 119202" d="M345.326,1586.047c-1.011.468-2.362.33-3.2,1.347a1.959,1.959,0,1,0,2.492,2.052c.837-1.02.464-2.226.7-3.4Z" transform="translate(-317.668 -1575.719)" fill="#0ebaa0" fill-rule="evenodd"/>
      <path id="Trazado_119203" data-name="Trazado 119203" d="M289.889,1620.355c1.24-.021,2.529-.811,3.86-.19a2.184,2.184,0,1,1-1.515,3.26c-1.331-.618-1.538-2.011-2.345-3.071Z" transform="translate(-273.172 -1605.065)" fill="#0ebaa0" fill-rule="evenodd"/>
      <path id="Trazado_119204" data-name="Trazado 119204" d="M355.944,1631.092c-1.5.546-3.407.2-4.717,1.546a5.162,5.162,0,0,0-1.4,4.765,5.173,5.173,0,0,0,4.72-1.547c1.314-1.351.919-3.116,1.4-4.764Z" transform="translate(-324.972 -1614.735)" fill="#0ebaa0" fill-rule="evenodd"/>
      <path id="Trazado_119205" data-name="Trazado 119205" d="M266.7,1674.4c2.027-.031,4.133-1.318,6.308-.307a6.56,6.56,0,0,1,3.834,5.02,6.572,6.572,0,0,1-6.308.311c-2.175-1.011-2.513-3.288-3.834-5.024Z" transform="translate(-253.087 -1651.642)" fill="#0ebaa0" fill-rule="evenodd"/>
      <path id="Trazado_119206" data-name="Trazado 119206" d="M369.962,1691.343c-2.352.632-5.206-.157-7.383,1.724a7.892,7.892,0,0,0-2.766,7.06,7.883,7.883,0,0,0,7.382-1.728c2.177-1.881,1.815-4.619,2.766-7.057Z" transform="translate(-333.669 -1666.922)" fill="#0ebaa0" fill-rule="evenodd"/>
      <path id="Trazado_119207" data-name="Trazado 119207" d="M243.921,1743.686c2.94.276,6.189-1.251,9.173.556a9.547,9.547,0,0,1,4.743,7.868,9.552,9.552,0,0,1-9.173-.556c-2.984-1.807-3.109-5.15-4.743-7.868Z" transform="translate(-233.357 -1711.964)" fill="#0ebaa0" fill-rule="evenodd"/>
      <path id="Trazado_119208" data-name="Trazado 119208" d="M369.459,1644.98c4.007-13.586,11.059-40.635,10.073-40.438-.146,2.1-7.629,30.65-13.174,40.968Z" transform="translate(-339.406 -1591.738)" fill="#0ebaa0" fill-rule="evenodd"/>
      <path id="Trazado_119209" data-name="Trazado 119209" d="M457.743,1573.076c.286,1.013,1.211,1.9.993,3.119a1.848,1.848,0,1,1-3-.533c.215-1.222,1.31-1.693,2-2.586Z" transform="translate(-416.776 -1564.484)" fill="#0ebaa0" fill-rule="evenodd"/>
      <path id="Trazado_119210" data-name="Trazado 119210" d="M433.367,1618.353c.718.271,1.636.112,2.256.768a1.347,1.347,0,1,1-1.608,1.528c-.624-.659-.426-1.5-.648-2.3Z" transform="translate(-397.447 -1603.701)" fill="#0ebaa0" fill-rule="evenodd"/>
      <path id="Trazado_119211" data-name="Trazado 119211" d="M465.9,1618.488c-.308.464-.344,1.137-.908,1.468a.974.974,0,1,1-.815-1.382c.564-.334,1.13-.056,1.724-.086Z" transform="translate(-423.343 -1603.749)" fill="#0ebaa0" fill-rule="evenodd"/>
      <path id="Trazado_119212" data-name="Trazado 119212" d="M458.893,1652.683c-.983.052-2.05-.5-3.067.065a1.733,1.733,0,1,0,1.379,2.5c1.021-.563,1.106-1.68,1.688-2.565Z" transform="translate(-415.437 -1633.271)" fill="#0ebaa0" fill-rule="evenodd"/>
      <path id="Trazado_119213" data-name="Trazado 119213" d="M410.322,1657.709c1.029.391,2.346.162,3.24,1.106a1.933,1.933,0,1,1-2.313,2.19c-.89-.944-.607-2.158-.927-3.3Z" transform="translate(-377.486 -1637.79)" fill="#0ebaa0" fill-rule="evenodd"/>
      <path id="Trazado_119214" data-name="Trazado 119214" d="M449.439,1695.672c-1.41-.039-2.865-.952-4.386-.267a2.482,2.482,0,1,0,1.679,3.728c1.521-.685,1.774-2.265,2.707-3.461Z" transform="translate(-405.225 -1670.221)" fill="#0ebaa0" fill-rule="evenodd"/>
      <path id="Trazado_119215" data-name="Trazado 119215" d="M373.071,1696.043c1.678.637,3.832.262,5.289,1.8a5.808,5.808,0,0,1,1.512,5.381,5.81,5.81,0,0,1-5.289-1.8c-1.458-1.541-.994-3.523-1.513-5.381Z" transform="translate(-345.221 -1670.993)" fill="#0ebaa0" fill-rule="evenodd"/>
      <path id="Trazado_119216" data-name="Trazado 119216" d="M435.806,1753.591c-2.14-.245-4.229-1.828-6.632-.99a3.79,3.79,0,1,0,2.055,5.895c2.4-.838,3-3.21,4.578-4.9Z" transform="translate(-389.847 -1719.771)" fill="#0ebaa0" fill-rule="evenodd"/>
      <path id="Trazado_119217" data-name="Trazado 119217" d="M332.476,1743.7c2.327,1.19,5.5.991,7.36,3.453a8.441,8.441,0,0,1,1.334,8.018,8.449,8.449,0,0,1-7.36-3.449c-1.864-2.458-.878-5.25-1.334-8.021Z" transform="translate(-310.059 -1712.274)" fill="#0ebaa0" fill-rule="evenodd"/>
    </g>
    <path id="Trazado_119236" data-name="Trazado 119236" d="M202.341,1816.649a8.839,8.839,0,0,1,.4-1.377,20.352,20.352,0,0,1,.34,3.026,14.281,14.281,0,0,0-.736-1.649Zm-118.883,0c.113-.471.245-.924.4-1.377a23.216,23.216,0,0,1,.359,3.026,11.762,11.762,0,0,0-.755-1.649Zm61.207,0c.113-.471.245-.924.4-1.377a23.259,23.259,0,0,1,.359,3.026,11.777,11.777,0,0,0-.755-1.649Zm29.376,0a8.839,8.839,0,0,0-.4-1.377,20.335,20.335,0,0,0-.34,3.026,9.829,9.829,0,0,1,.736-1.649Zm-1.775-4.167a14.689,14.689,0,0,0-1.492-1.921,21.879,21.879,0,0,0-.887,3.388,12.656,12.656,0,0,1,.887,1.74,24.638,24.638,0,0,1,1.492-3.207Zm-1.435-2.066a15.52,15.52,0,0,1,1.756,1.5,20.52,20.52,0,0,1,1.926-2.718c-.3-.344-.6-.688-.944-1.015a13.109,13.109,0,0,1,1.114.8,21.833,21.833,0,0,1,3.832-3.515c.34-.562.7-1.123,1.1-1.685-.189.435-.359.852-.51,1.268a.784.784,0,0,0,.132-.091c-.057.054-.094.109-.151.163a19.358,19.358,0,0,0-1.265,7.03,17.668,17.668,0,0,1,1.454,2.265,21.59,21.59,0,0,1,1.756-5.11c-.321-.362-.661-.743-1.038-1.123.415.272.812.562,1.189.852a18.986,18.986,0,0,1,1.68-2.718c-.4-.453-.793-.906-1.246-1.359.51.344,1,.707,1.473,1.069A21.5,21.5,0,0,1,184.84,1804a21.5,21.5,0,0,0-1.322,2.374c.68.58,1.322,1.178,1.907,1.776a26.834,26.834,0,0,1,2.114-2.609,28.973,28.973,0,0,0-2.87-3.587,26.381,26.381,0,0,1,3.511,2.935,26.6,26.6,0,0,1,3.53-2.935,31.1,31.1,0,0,0-2.888,3.587,24.525,24.525,0,0,1,2.133,2.609c.585-.6,1.227-1.2,1.907-1.776a25.119,25.119,0,0,0-1.322-2.374,24.638,24.638,0,0,1,1.756,2.029c.472-.362.963-.725,1.473-1.069q-.68.679-1.246,1.359a18.984,18.984,0,0,1,1.68,2.718c.378-.29.774-.58,1.189-.852-.378.38-.717.761-1.038,1.123a21.589,21.589,0,0,1,1.756,5.11,17.668,17.668,0,0,1,1.454-2.265,19.358,19.358,0,0,0-1.265-7.03,1.188,1.188,0,0,1-.151-.163.784.784,0,0,0,.132.091c-.17-.417-.34-.833-.51-1.268.4.562.755,1.124,1.1,1.685a21.047,21.047,0,0,1,3.814,3.515c.359-.272.736-.543,1.133-.8a11.915,11.915,0,0,0-.944,1.015,18.755,18.755,0,0,1,1.907,2.718,14.248,14.248,0,0,1,1.775-1.5,24.52,24.52,0,0,0-5.343-8.461,25.472,25.472,0,0,1,8.175,9.331c.415-.471.85-.924,1.322-1.377A20.892,20.892,0,0,0,207.08,1804a21.319,21.319,0,0,1,3.662,5.037c.378-.29.755-.58,1.171-.852-.359.38-.717.761-1.038,1.123a20.781,20.781,0,0,1,1.756,5.11,19.969,19.969,0,0,1,1.454-2.265v-.127A19.432,19.432,0,0,0,212.4,1810a17.484,17.484,0,0,1,1.68,1.3,20.208,20.208,0,0,0-1.794-7.519,20.718,20.718,0,0,1,3.228,6.722c.4-.4.812-.779,1.246-1.16-.321-.381-.68-.779-1.057-1.16a14.222,14.222,0,0,1,1.322.96,13.959,13.959,0,0,1,1.3-.96c-.378.38-.736.779-1.057,1.16a14.907,14.907,0,0,1,1.246,1.16,21.111,21.111,0,0,1,3.228-6.722,20.581,20.581,0,0,0-1.794,7.519,17.791,17.791,0,0,1,1.7-1.3,17.566,17.566,0,0,0-1.7,2.029v.127a17.664,17.664,0,0,1,1.454,2.265,20.776,20.776,0,0,1,1.756-5.11c-.321-.362-.661-.743-1.038-1.123.415.272.812.562,1.17.852a20.9,20.9,0,0,1,3.681-5.037,20.458,20.458,0,0,0-2.643,5.907,18.066,18.066,0,0,1,1.322,1.377,25.362,25.362,0,0,1,8.194-9.331,24.241,24.241,0,0,0-5.343,8.461,15.519,15.519,0,0,1,1.756,1.5,20.367,20.367,0,0,1,1.907-2.718c-.283-.344-.6-.688-.925-1.015.378.254.755.525,1.114.8a20.571,20.571,0,0,1,3.832-3.515c.321-.562.7-1.123,1.095-1.685-.189.435-.359.852-.51,1.268a.815.815,0,0,1,.132-.091l-.17.163a19.312,19.312,0,0,0-1.246,7.03,19.959,19.959,0,0,1,1.454,2.265,20.71,20.71,0,0,1,1.737-5.11c-.321-.362-.661-.743-1.019-1.123.4.272.793.562,1.17.852A20.8,20.8,0,0,1,242.5,1804a20.372,20.372,0,0,0-2.624,5.907c.472.453.906.906,1.322,1.377a25.023,25.023,0,0,1,3.1-4.693q-.68-.815-1.473-1.631a21.473,21.473,0,0,1,1.756,1.3,24.809,24.809,0,0,1,2.719-2.7c-.434-.544-.906-1.069-1.416-1.613.623.435,1.189.87,1.756,1.323.547-.453,1.133-.888,1.737-1.323-.51.543-.963,1.069-1.4,1.613a24.626,24.626,0,0,1,2.7,2.7,21.481,21.481,0,0,1,1.756-1.3q-.793.816-1.473,1.631a25.135,25.135,0,0,1,3.115,4.693,15.025,15.025,0,0,1,1.322-1.377,20.982,20.982,0,0,0-2.643-5.907,20.309,20.309,0,0,1,3.663,5.037c.378-.29.774-.58,1.189-.852-.378.38-.717.761-1.038,1.123a21.592,21.592,0,0,1,1.756,5.11,17.65,17.65,0,0,1,1.454-2.265,19.359,19.359,0,0,0-1.265-7.03,1.19,1.19,0,0,1-.151-.163.785.785,0,0,0,.132.091c-.17-.417-.34-.833-.51-1.268.4.562.755,1.124,1.095,1.685a21.048,21.048,0,0,1,3.814,3.515c.359-.272.736-.543,1.133-.8-.34.326-.642.67-.944,1.015A20.519,20.519,0,0,1,265,1811.92a12.8,12.8,0,0,1,1.756-1.5,24.52,24.52,0,0,0-5.343-8.461,25.471,25.471,0,0,1,8.175,9.331c.415-.471.849-.924,1.322-1.377a20.891,20.891,0,0,0-2.624-5.907,21.323,21.323,0,0,1,3.663,5.037c.378-.29.755-.58,1.17-.852-.359.38-.717.761-1.038,1.123a20.777,20.777,0,0,1,1.756,5.11,19.99,19.99,0,0,1,1.454-2.265v-.127a19.412,19.412,0,0,0-1.68-2.029,17.467,17.467,0,0,1,1.68,1.3,20.208,20.208,0,0,0-1.793-7.519,20.72,20.72,0,0,1,3.228,6.722c.4-.4.812-.779,1.246-1.16-.321-.381-.68-.779-1.057-1.16a14.256,14.256,0,0,1,1.322.96c.415-.344.85-.652,1.3-.96-.378.38-.736.779-1.057,1.16a14.883,14.883,0,0,1,1.246,1.16,21.112,21.112,0,0,1,3.228-6.722,20.584,20.584,0,0,0-1.793,7.519,17.756,17.756,0,0,1,1.7-1.3,17.551,17.551,0,0,0-1.7,2.029v.127a17.67,17.67,0,0,1,1.454,2.265,21.6,21.6,0,0,1,1.756-5.11c-.321-.362-.661-.743-1.038-1.123.415.272.812.562,1.171.852a20.9,20.9,0,0,1,3.681-5.037,20.455,20.455,0,0,0-2.643,5.907,18.1,18.1,0,0,1,1.322,1.377,25.361,25.361,0,0,1,8.194-9.331,24.241,24.241,0,0,0-5.343,8.461,15.526,15.526,0,0,1,1.756,1.5,20.353,20.353,0,0,1,1.907-2.718c-.283-.344-.6-.688-.925-1.015.378.254.755.525,1.114.8a20.573,20.573,0,0,1,3.832-3.515c.321-.562.7-1.123,1.1-1.685-.189.435-.359.852-.51,1.268a.809.809,0,0,1,.132-.091l-.17.163a19.31,19.31,0,0,0-1.246,7.03,19.965,19.965,0,0,1,1.454,2.265,20.707,20.707,0,0,1,1.737-5.11c-.321-.362-.661-.743-1.019-1.123.4.272.793.562,1.171.852A20.8,20.8,0,0,1,303.7,1804a20.37,20.37,0,0,0-2.624,5.907c.472.453.906.906,1.322,1.377a25.3,25.3,0,0,1,8.175-9.331,23.071,23.071,0,0,0-6.287,11.994,15.182,15.182,0,0,1,.887,1.74,21.838,21.838,0,0,1,8.458-10.726,19.351,19.351,0,0,0-5.947,13.335,11.48,11.48,0,0,1,4.456-5.689,10.124,10.124,0,0,0-2.983,5.744H67.222a10.124,10.124,0,0,0-2.983-5.744,11.436,11.436,0,0,1,4.437,5.689,19.406,19.406,0,0,0-5.928-13.335,21.946,21.946,0,0,1,8.458,10.726,12.656,12.656,0,0,1,.887-1.74,23.071,23.071,0,0,0-6.287-11.994,25.3,25.3,0,0,1,8.175,9.331c.415-.471.849-.924,1.321-1.377A20.888,20.888,0,0,0,72.679,1804a21.323,21.323,0,0,1,3.663,5.037c.378-.29.755-.58,1.17-.852-.359.38-.717.761-1.038,1.123a20.776,20.776,0,0,1,1.756,5.11,19.984,19.984,0,0,1,1.454-2.265,19.311,19.311,0,0,0-1.246-7.03l-.17-.163a.81.81,0,0,1,.132.091c-.151-.417-.321-.833-.51-1.268.4.562.774,1.124,1.1,1.685a21.833,21.833,0,0,1,3.832,3.515c.359-.272.736-.543,1.114-.8-.321.326-.642.67-.925,1.015a20.354,20.354,0,0,1,1.907,2.718,15.534,15.534,0,0,1,1.756-1.5,24.241,24.241,0,0,0-5.343-8.461,25.36,25.36,0,0,1,8.193,9.331,15.062,15.062,0,0,1,1.322-1.377A20.455,20.455,0,0,0,88.2,1804a20.306,20.306,0,0,1,3.663,5.037c.378-.29.774-.58,1.189-.852-.378.38-.717.761-1.038,1.123a21.6,21.6,0,0,1,1.756,5.11,17.653,17.653,0,0,1,1.454-2.265v-.127a17.567,17.567,0,0,0-1.7-2.029,15.393,15.393,0,0,1,1.68,1.3,20.527,20.527,0,0,0-1.775-7.519,21.111,21.111,0,0,1,3.228,6.722,14.885,14.885,0,0,1,1.246-1.16c-.321-.381-.68-.779-1.057-1.16.453.308.887.616,1.3.96a14.257,14.257,0,0,1,1.322-.96c-.378.38-.736.779-1.057,1.16.434.38.85.761,1.246,1.16a20.718,20.718,0,0,1,3.228-6.722,20.206,20.206,0,0,0-1.794,7.519,17.467,17.467,0,0,1,1.68-1.3,17.308,17.308,0,0,0-1.68,2.029v.127a19.984,19.984,0,0,1,1.454,2.265,20.709,20.709,0,0,1,1.737-5.11c-.3-.362-.661-.743-1.019-1.123.415.272.793.562,1.17.852A21.324,21.324,0,0,1,108.1,1804a20.371,20.371,0,0,0-2.624,5.907c.472.453.906.906,1.322,1.377a25.3,25.3,0,0,1,8.175-9.331,24.241,24.241,0,0,0-5.343,8.461,15.52,15.52,0,0,1,1.756,1.5,20.522,20.522,0,0,1,1.926-2.718c-.3-.344-.6-.688-.944-1.015a13.13,13.13,0,0,1,1.114.8,21.834,21.834,0,0,1,3.833-3.515c.34-.562.7-1.123,1.095-1.685-.189.435-.359.852-.51,1.268a.784.784,0,0,0,.132-.091c-.057.054-.094.109-.151.163a19.358,19.358,0,0,0-1.265,7.03,17.651,17.651,0,0,1,1.454,2.265,21.591,21.591,0,0,1,1.756-5.11c-.321-.362-.661-.743-1.038-1.123.415.272.812.562,1.189.852a20.309,20.309,0,0,1,3.663-5.037,20.458,20.458,0,0,0-2.643,5.907,18.094,18.094,0,0,1,1.322,1.377,26,26,0,0,1,3.1-4.693c-.434-.543-.925-1.087-1.454-1.631a21.475,21.475,0,0,1,1.756,1.3,23.053,23.053,0,0,1,2.7-2.7c-.434-.544-.906-1.069-1.4-1.613.6.435,1.189.87,1.737,1.323.548-.453,1.133-.888,1.756-1.323-.51.543-.982,1.069-1.416,1.613a24.818,24.818,0,0,1,2.719,2.7,21.473,21.473,0,0,1,1.756-1.3q-.793.816-1.473,1.631a25.988,25.988,0,0,1,3.1,4.693c.415-.471.85-.924,1.322-1.377a20.371,20.371,0,0,0-2.624-5.907,21.319,21.319,0,0,1,3.663,5.037c.378-.29.755-.58,1.17-.852-.359.38-.717.761-1.038,1.123a20.776,20.776,0,0,1,1.756,5.11,19.966,19.966,0,0,1,1.454-2.265,19.311,19.311,0,0,0-1.246-7.03l-.17-.163a.814.814,0,0,1,.132.091c-.151-.417-.321-.833-.51-1.268.4.562.774,1.124,1.095,1.685a21.839,21.839,0,0,1,3.833,3.515c.359-.272.736-.543,1.114-.8-.321.326-.642.67-.925,1.015a20.367,20.367,0,0,1,1.907,2.718,15.519,15.519,0,0,1,1.756-1.5,24.241,24.241,0,0,0-5.343-8.461,25.361,25.361,0,0,1,8.194,9.331,18.063,18.063,0,0,1,1.322-1.377A20.458,20.458,0,0,0,149.4,1804a20.313,20.313,0,0,1,3.663,5.037c.378-.29.774-.58,1.189-.852-.378.38-.717.761-1.038,1.123a21.589,21.589,0,0,1,1.756,5.11,17.668,17.668,0,0,1,1.454-2.265v-.127a17.562,17.562,0,0,0-1.7-2.029,15.4,15.4,0,0,1,1.68,1.3,20.53,20.53,0,0,0-1.775-7.519,21.111,21.111,0,0,1,3.228,6.722,14.9,14.9,0,0,1,1.246-1.16c-.321-.381-.68-.779-1.057-1.16.453.308.887.616,1.3.96a14.224,14.224,0,0,1,1.322-.96c-.378.38-.736.779-1.057,1.16.434.38.85.761,1.246,1.16a20.718,20.718,0,0,1,3.228-6.722,20.209,20.209,0,0,0-1.794,7.519,17.488,17.488,0,0,1,1.68-1.3,17.324,17.324,0,0,0-1.68,2.029v.127a19.963,19.963,0,0,1,1.454,2.265,20.781,20.781,0,0,1,1.756-5.11c-.321-.362-.68-.743-1.038-1.123.415.272.793.562,1.171.852A21.315,21.315,0,0,1,169.3,1804a20.367,20.367,0,0,0-2.624,5.907c.472.453.906.906,1.322,1.377a25.3,25.3,0,0,1,8.175-9.331,24.241,24.241,0,0,0-5.343,8.461Zm12.46-3.569a19.887,19.887,0,0,0-1.1,3.062,18.066,18.066,0,0,1,1.322,1.377c.4-.761.831-1.5,1.3-2.247a24.294,24.294,0,0,0-1.529-2.192Zm4.89-.29a22.8,22.8,0,0,0-1.51,3.044,22.874,22.874,0,0,1,1.51,2.192,23.123,23.123,0,0,1,1.529-2.192,20.877,20.877,0,0,0-1.529-3.044Zm-2.152,4.838a25.028,25.028,0,0,0-.6,2.555,15.194,15.194,0,0,1,.887,1.74c.189-.526.415-1.051.642-1.558a17.3,17.3,0,0,0-.925-2.736Zm7.061-4.548a20.966,20.966,0,0,0-1.529,2.192c.472.743.906,1.486,1.3,2.247a15.027,15.027,0,0,1,1.322-1.377,19.885,19.885,0,0,0-1.1-3.062Zm-2.756,4.548a19.333,19.333,0,0,0-.906,2.736c.227.507.453,1.033.642,1.558a15.189,15.189,0,0,1,.887-1.74,20.973,20.973,0,0,0-.623-2.555Zm-62.188,5.671a9,9,0,0,0-.321-.924c-.094.707-.17,1.431-.208,2.156a11.546,11.546,0,0,1,.529-1.232Zm-2.02-3.714a8.426,8.426,0,0,0-.68-.743c.264.181.529.363.774.562a23.682,23.682,0,0,1,1.68-2.772,18.379,18.379,0,0,0-1.586-2.627,21.375,21.375,0,0,0-2.1,6.178,15.187,15.187,0,0,1,.887,1.74,20.858,20.858,0,0,1,1.019-2.337Zm1.907,1.613a9.075,9.075,0,0,1,.717,1.015c.227-.344.472-.688.736-1.015a19.291,19.291,0,0,0-.736-2.609,19.2,19.2,0,0,0-.717,2.609Zm1.34,2.1c.189.417.359.815.51,1.232-.038-.725-.094-1.449-.189-2.156a5.993,5.993,0,0,0-.321.924Zm-2.7-9.965a20.666,20.666,0,0,1,2.077,2.192,22.8,22.8,0,0,1,2.077-2.192,24.082,24.082,0,0,0-2.077-3.116,26.211,26.211,0,0,0-2.077,3.116Zm2.926,3.3a23.859,23.859,0,0,1,1.7,2.772,8.352,8.352,0,0,1,.774-.562,8.467,8.467,0,0,0-.68.743q.567,1.169,1.02,2.337a12.641,12.641,0,0,1,.887-1.74,21.957,21.957,0,0,0-2.1-6.178,16.949,16.949,0,0,0-1.6,2.627Zm28.848,3.1a12.023,12.023,0,0,1,.906,1.341,15.535,15.535,0,0,1,.925-1.341,18.993,18.993,0,0,1,.34-2.029,13.749,13.749,0,0,0-1.265-1.812,18.58,18.58,0,0,0-1.265,1.812c.151.67.264,1.359.359,2.029Zm15.594.091a13.351,13.351,0,0,1,1,1.522c.208-.272.434-.525.661-.779a21.953,21.953,0,0,1,.453-2.863c-.245-.4-.51-.815-.812-1.214a18.182,18.182,0,0,0-1.3,3.334Zm1.416,2.319c.057.109.113.218.17.308,0-.218,0-.453.019-.689a3.558,3.558,0,0,0-.189.381Zm.151-6.142a9.783,9.783,0,0,1,.774.743,20.62,20.62,0,0,1,1.737-4.312,20.576,20.576,0,0,0-2.511,3.569Zm-9.1.87a17.058,17.058,0,0,0-.321,5.055,27,27,0,0,1,1.322-3.406,19.186,19.186,0,0,0-1-1.649Zm15.519,0a18.42,18.42,0,0,0-.321,5.055,26.981,26.981,0,0,1,1.322-3.406,15.36,15.36,0,0,0-1-1.649Zm-35.569,1.848a16.269,16.269,0,0,1,1.473-1.921,21.874,21.874,0,0,1,.887,3.388,15.191,15.191,0,0,0-.887,1.74,22.252,22.252,0,0,0-1.473-3.207Zm-1.794,1.105a13.184,13.184,0,0,0-.982,1.522,8.788,8.788,0,0,0-.68-.779,21.842,21.842,0,0,0-.434-2.863c.245-.4.51-.815.793-1.214a16.931,16.931,0,0,1,1.3,3.334Zm-1.416,2.319c-.057.109-.113.218-.151.308,0-.218-.019-.453-.019-.689l.17.381Zm-.151-6.142c-.264.235-.529.489-.774.743a20.519,20.519,0,0,0-1.718-4.312,20.425,20.425,0,0,1,2.492,3.569Zm9.119.87a18.421,18.421,0,0,1,.321,5.055,26.981,26.981,0,0,0-1.322-3.406,15.362,15.362,0,0,1,1-1.649Zm-15.538,0a17.053,17.053,0,0,1,.321,5.055,26.981,26.981,0,0,0-1.322-3.406,19.178,19.178,0,0,1,1-1.649Zm-23.844,6.015a8.842,8.842,0,0,0-.4-1.377,20.35,20.35,0,0,0-.34,3.026,9.84,9.84,0,0,1,.736-1.649Zm-1.775-4.167a14.676,14.676,0,0,0-1.491-1.921,21.862,21.862,0,0,0-.887,3.388,12.656,12.656,0,0,1,.887,1.74,24.634,24.634,0,0,1,1.491-3.207ZM97.24,1813.5a12,12,0,0,1,.906,1.341,15.562,15.562,0,0,1,.925-1.341,18.958,18.958,0,0,1,.34-2.029,13.738,13.738,0,0,0-1.265-1.812,18.6,18.6,0,0,0-1.265,1.812c.151.67.264,1.359.359,2.029Zm15.594.091a13.352,13.352,0,0,1,1,1.522c.208-.272.434-.525.661-.779a21.95,21.95,0,0,1,.453-2.863c-.245-.4-.51-.815-.812-1.214a18.182,18.182,0,0,0-1.3,3.334Zm1.416,2.319c.057.109.113.218.17.308,0-.218,0-.453.019-.689a3.558,3.558,0,0,0-.189.381Zm.151-6.142a9.757,9.757,0,0,1,.774.743,20.612,20.612,0,0,1,1.737-4.312,20.579,20.579,0,0,0-2.511,3.569Zm-9.1.87a17.058,17.058,0,0,0-.321,5.055,26.982,26.982,0,0,1,1.322-3.406,19.188,19.188,0,0,0-1-1.649Zm15.519,0a18.416,18.416,0,0,0-.321,5.055,26.983,26.983,0,0,1,1.322-3.406,15.359,15.359,0,0,0-1-1.649Zm-35.569,1.848a16.285,16.285,0,0,1,1.473-1.921,21.877,21.877,0,0,1,.887,3.388,15.19,15.19,0,0,0-.887,1.74,22.257,22.257,0,0,0-1.473-3.207Zm-1.793,1.105a16.481,16.481,0,0,0-1,1.522,6.319,6.319,0,0,0-.661-.779,21.866,21.866,0,0,0-.434-2.863c.245-.4.51-.815.793-1.214a16.924,16.924,0,0,1,1.3,3.334Zm-1.416,2.319c-.057.109-.113.218-.151.308,0-.218-.019-.453-.019-.689l.17.381Zm-.151-6.142c-.264.235-.529.489-.774.743a20.527,20.527,0,0,0-1.718-4.312,20.425,20.425,0,0,1,2.492,3.569Zm9.119.87a18.421,18.421,0,0,1,.321,5.055,27,27,0,0,0-1.322-3.406,15.359,15.359,0,0,1,1-1.649Zm-15.538,0a17.058,17.058,0,0,1,.321,5.055,26.982,26.982,0,0,0-1.322-3.406,15.358,15.358,0,0,1,1-1.649Zm188.075,6.015a8.843,8.843,0,0,1,.4-1.377,20.352,20.352,0,0,1,.34,3.026,14.281,14.281,0,0,0-.736-1.649Zm29.357,0a8.853,8.853,0,0,0-.4-1.377,23.184,23.184,0,0,0-.34,3.026,14.253,14.253,0,0,1,.736-1.649Zm-1.775-4.167a16.283,16.283,0,0,0-1.473-1.921,21.877,21.877,0,0,0-.887,3.388,18.95,18.95,0,0,1,.887,1.74,22.257,22.257,0,0,1,1.473-3.207Zm-44.121,4.584a5.993,5.993,0,0,0-.321-.924c-.094.707-.17,1.431-.208,2.156.151-.417.34-.815.529-1.232Zm-2.02-3.714a8.445,8.445,0,0,0-.68-.743,8.338,8.338,0,0,1,.774.562,23.861,23.861,0,0,1,1.7-2.772,16.949,16.949,0,0,0-1.6-2.627,21.956,21.956,0,0,0-2.1,6.178,15.168,15.168,0,0,1,.887,1.74q.453-1.169,1.02-2.337Zm1.907,1.613c.264.326.51.67.736,1.015a9.081,9.081,0,0,1,.717-1.015,19.2,19.2,0,0,0-.717-2.609,19.275,19.275,0,0,0-.736,2.609Zm1.34,2.1a11.52,11.52,0,0,1,.529,1.232c-.038-.725-.113-1.449-.208-2.156a9.007,9.007,0,0,0-.321.924Zm-2.7-9.965a20.9,20.9,0,0,1,2.1,2.192,20.666,20.666,0,0,1,2.077-2.192,26.211,26.211,0,0,0-2.077-3.116,26.43,26.43,0,0,0-2.1,3.116Zm2.926,3.3a21.525,21.525,0,0,1,1.7,2.772c.245-.2.51-.38.774-.562a8.467,8.467,0,0,0-.68.743q.567,1.169,1.02,2.337a15.168,15.168,0,0,1,.887-1.74,21.375,21.375,0,0,0-2.1-6.178,20.488,20.488,0,0,0-1.6,2.627Zm28.848,3.1a15.564,15.564,0,0,1,.925,1.341,12,12,0,0,1,.906-1.341,19.081,19.081,0,0,1,.359-2.029,18.594,18.594,0,0,0-1.265-1.812,13.738,13.738,0,0,0-1.265,1.812,18.954,18.954,0,0,1,.34,2.029Zm15.594.091a11.222,11.222,0,0,1,1,1.522,8.813,8.813,0,0,1,.68-.779,21.87,21.87,0,0,1,.434-2.863c-.245-.4-.51-.815-.793-1.214a18.28,18.28,0,0,0-1.322,3.334Zm1.435,2.319c.057.109.094.218.151.308,0-.218,0-.453.019-.689l-.17.381Zm.151-6.142c.264.235.529.489.774.743a20.527,20.527,0,0,1,1.718-4.312,20.427,20.427,0,0,0-2.492,3.569Zm-9.119.87a18.422,18.422,0,0,0-.321,5.055,27,27,0,0,1,1.322-3.406,15.358,15.358,0,0,0-1-1.649Zm15.538,0a17.735,17.735,0,0,0-.34,5.055,30.347,30.347,0,0,1,1.34-3.406,19.189,19.189,0,0,0-1-1.649Zm-35.587,1.848a14.677,14.677,0,0,1,1.491-1.921,21.766,21.766,0,0,1,.868,3.388,15.057,15.057,0,0,0-.868,1.74,24.635,24.635,0,0,0-1.491-3.207Zm-1.775,1.105a13.349,13.349,0,0,0-1,1.522,8.783,8.783,0,0,0-.68-.779,19.07,19.07,0,0,0-.434-2.863c.245-.4.51-.815.812-1.214a18.191,18.191,0,0,1,1.3,3.334Zm-1.416,2.319c-.057.109-.113.218-.17.308,0-.218,0-.453-.019-.689a3.58,3.58,0,0,1,.189.381Zm-.151-6.142a9.758,9.758,0,0,0-.774.743,20.613,20.613,0,0,0-1.737-4.312,21.66,21.66,0,0,1,2.511,3.569Zm9.1.87a17.059,17.059,0,0,1,.321,5.055,26.985,26.985,0,0,0-1.322-3.406,15.353,15.353,0,0,1,1-1.649Zm-15.519,0a18.416,18.416,0,0,1,.321,5.055,30.2,30.2,0,0,0-1.322-3.406,12.806,12.806,0,0,1,1-1.649Zm-23.863,6.015a8.838,8.838,0,0,0-.4-1.377,23.232,23.232,0,0,0-.34,3.026,14.278,14.278,0,0,1,.736-1.649Zm-1.775-4.167a16.265,16.265,0,0,0-1.473-1.921,21.877,21.877,0,0,0-.887,3.388,19,19,0,0,1,.887,1.74,22.254,22.254,0,0,1,1.473-3.207ZM216.1,1813.5a15.528,15.528,0,0,1,.925,1.341,12.027,12.027,0,0,1,.906-1.341,19.042,19.042,0,0,1,.359-2.029,18.577,18.577,0,0,0-1.265-1.812,13.747,13.747,0,0,0-1.265,1.812,18.993,18.993,0,0,1,.34,2.029Zm15.594.091a11.224,11.224,0,0,1,1,1.522,8.788,8.788,0,0,1,.68-.779,21.865,21.865,0,0,1,.434-2.863c-.245-.4-.51-.815-.793-1.214a18.28,18.28,0,0,0-1.322,3.334Zm1.435,2.319c.057.109.094.218.151.308,0-.218,0-.453.019-.689l-.17.381Zm.151-6.142c.264.235.529.489.774.743a19.548,19.548,0,0,1,1.718-4.312,20.427,20.427,0,0,0-2.492,3.569Zm-9.119.87a18.42,18.42,0,0,0-.321,5.055,26.983,26.983,0,0,1,1.322-3.406,15.36,15.36,0,0,0-1-1.649Zm15.538,0a17.73,17.73,0,0,0-.34,5.055,30.344,30.344,0,0,1,1.34-3.406,19.164,19.164,0,0,0-1-1.649Zm-35.587,1.848a14.688,14.688,0,0,1,1.492-1.921,21.8,21.8,0,0,1,.868,3.388,15.055,15.055,0,0,0-.868,1.74,24.634,24.634,0,0,0-1.492-3.207Zm-1.775,1.105a13.351,13.351,0,0,0-1,1.522,8.785,8.785,0,0,0-.68-.779,19.07,19.07,0,0,0-.434-2.863c.245-.4.51-.815.812-1.214a18.184,18.184,0,0,1,1.3,3.334Zm-1.416,2.319c-.057.109-.113.218-.17.308,0-.218,0-.453-.019-.689a3.564,3.564,0,0,1,.189.381Zm-.151-6.142a9.78,9.78,0,0,0-.774.743,20.619,20.619,0,0,0-1.737-4.312,21.655,21.655,0,0,1,2.511,3.569Zm9.1.87a17.712,17.712,0,0,1,.321,5.055,27,27,0,0,0-1.322-3.406,15.36,15.36,0,0,1,1-1.649Zm-15.519,0a18.422,18.422,0,0,1,.321,5.055,30.193,30.193,0,0,0-1.322-3.406,12.806,12.806,0,0,1,1-1.649Z" transform="translate(-29.164 -1495.356)" fill="#42c5a0" fill-rule="evenodd"/>
    <g id="Grupo_124150" data-name="Grupo 124150" transform="translate(39.022 190.281)">
      <path id="Trazado_119246" data-name="Trazado 119246" d="M107.207,932.88l.9,2.93,2.93.9-2.93.9-.9,2.93-.9-2.93-2.93-.9,2.93-.9Z" transform="translate(-103.379 -932.88)" fill="#fff"/>
    </g>
    <g id="Grupo_124151" data-name="Grupo 124151" transform="translate(261.388 115.452)">
      <path id="Trazado_119247" data-name="Trazado 119247" d="M1671.491,904.27l.9,2.93,2.93.9-2.93.9-.9,2.93-.9-2.93-2.93-.9,2.93-.9Z" transform="translate(-1667.663 -904.27)" fill="#fff"/>
    </g>
    <g id="Grupo_124152" data-name="Grupo 124152" transform="translate(296.98 127.956)">
      <path id="Trazado_119248" data-name="Trazado 119248" d="M1855.235,1088.014l.9,2.93,2.929.9-2.929.9-.9,2.93-.9-2.93-2.93-.9,2.93-.9Z" transform="translate(-1851.407 -1088.014)" fill="#fff"/>
    </g>
    <g id="Grupo_124153" data-name="Grupo 124153" transform="translate(54.254 230.541)">
      <path id="Trazado_119249" data-name="Trazado 119249" d="M222.626,1233.686l1.278,4.16,4.16,1.276-4.16,1.278-1.278,4.16-1.276-4.16-4.16-1.278,4.16-1.276Z" transform="translate(-217.19 -1233.686)" fill="#fff"/>
    </g>
    <g id="Grupo_124154" data-name="Grupo 124154" transform="translate(54.254 150.326)">
      <path id="Trazado_119250" data-name="Trazado 119250" d="M222.626,634.352l1.278,4.16,4.16,1.276-4.16,1.278-1.278,4.16-1.276-4.16-4.16-1.278,4.16-1.276Z" transform="translate(-217.19 -634.352)" fill="#fff"/>
    </g>
    <g id="Grupo_124155" data-name="Grupo 124155" transform="translate(56.526 179.093)">
      <path id="Trazado_119251" data-name="Trazado 119251" d="M237.328,849.291l.744,2.422,2.421.743-2.421.744-.744,2.422-.743-2.422-2.422-.744,2.422-.743Z" transform="translate(-234.164 -849.291)" fill="#fff"/>
    </g>
    <g id="Grupo_124156" data-name="Grupo 124156" transform="translate(280.638 99.948)">
      <path id="Trazado_119252" data-name="Trazado 119252" d="M1804.1,751.076l1.278,4.16,4.16,1.276-4.16,1.278-1.278,4.16-1.276-4.16-4.16-1.278,4.16-1.276Z" transform="translate(-1798.659 -751.076)" fill="#fff"/>
    </g>
  </g>
</svg>
