<svg xmlns="http://www.w3.org/2000/svg" width="229" height="205" viewBox="0 0 229 205">
  <g id="_28" data-name="28" transform="translate(-433 -9811)">
    <rect id="Rectángulo_35309" data-name="Rectángulo 35309" width="229" height="205" rx="20" transform="translate(433 9811)" fill="#fee578"/>
    <path id="Trazado_118027" data-name="Trazado 118027" d="M888.812,251.892h4.972V119.372H761.264v132.52H888.812Zm-100.646-4.974a43.609,43.609,0,0,1-10.559-12.346,47.631,47.631,0,0,0,14.25,4.641,48.215,48.215,0,0,0,7.53.6c.462,0,.921-.04,1.382-.055a47.268,47.268,0,0,0,5.985,7.165ZM785.65,151.15a43.129,43.129,0,0,1,20.419-1.669c.443.07.868.188,1.306.272a47.247,47.247,0,0,0-4.245,17.421,47.291,47.291,0,0,0-14.962,6.936A42.945,42.945,0,0,1,785.65,151.15Zm14.543-25.882a42.811,42.811,0,0,1,5.457-.354,43.9,43.9,0,0,1,19.372,4.54,47.19,47.19,0,0,0-15.668,16.433c-.872-.188-1.749-.358-2.636-.5a47.376,47.376,0,0,0-20.027,1.1c.365-1.3.78-2.583,1.268-3.855A43.141,43.141,0,0,1,800.193,125.267Zm58.206,1.551a43.3,43.3,0,0,1,9.641,13.723,43.869,43.869,0,0,1,2.713,8.157,47.148,47.148,0,0,0-22.652-1.8,47.676,47.676,0,0,0-14.712-17.217,43.662,43.662,0,0,1,17.269-3.575A43.114,43.114,0,0,1,858.4,126.819Zm10.511,46.892c-.162.419-.367.811-.539,1.222a47.324,47.324,0,0,0-15.169-7.509,47.354,47.354,0,0,0-3.327-16.587,43.784,43.784,0,0,1,5.969-.426,42.818,42.818,0,0,1,15.677,2.987A43.146,43.146,0,0,1,868.911,173.71ZM825.1,157.467a47.461,47.461,0,0,0-7.622,8.191c-.742-.034-1.487-.055-2.237-.055a47.554,47.554,0,0,0-7.911.67,43.245,43.245,0,0,1,4.186-15.527A42.907,42.907,0,0,1,825.1,157.467Zm23.935,8.958a47.3,47.3,0,0,0-10.46-.788c-.286-.421-.565-.843-.866-1.256a48.04,48.04,0,0,0-5.924-6.723,43.24,43.24,0,0,1,13.924-6.015A42.9,42.9,0,0,1,849.04,166.425Zm-29.644,3.74c.046-.07.1-.135.148-.206.177.017.352.042.527.061-.27.126-.544.249-.813.381C819.308,170.324,819.346,170.242,819.4,170.166Zm8.292,1.409a43.168,43.168,0,0,1,12.373,6.006,42.879,42.879,0,0,1,2.553,13.5,42.806,42.806,0,0,1-8.682,10.11,42.823,42.823,0,0,1-13.313-.385,42.817,42.817,0,0,1-8.083-10.593,42.788,42.788,0,0,1,3.147-12.946A42.786,42.786,0,0,1,827.688,171.574Zm7.89-1.591c.272-.029.542-.04.813-.065.192.318.385.636.567.957q-.845-.437-1.709-.841C835.359,170.021,835.467,169.995,835.578,169.983ZM841.49,199.5c.223-.255.44-.514.657-.775-.017.12-.019.242-.038.362-.013.086-.04.169-.053.255C841.869,199.4,841.677,199.436,841.49,199.5Zm4.243-17.185c.247.244.485.5.725.746-.122.341-.248.681-.377,1.018C845.977,183.483,845.861,182.9,845.733,182.31Zm1.051,9.79a47.2,47.2,0,0,0,2.724-5.52,43.465,43.465,0,0,1,4.3,6.744,43.723,43.723,0,0,1-7.319,4.243A47.975,47.975,0,0,0,846.784,192.1Zm1.018-13.538a47.829,47.829,0,0,0-4.283-3.6,47.512,47.512,0,0,0-2.417-5.18,42.974,42.974,0,0,1,7.905.906A43.8,43.8,0,0,1,847.8,178.562Zm-38.448,4.3c-.027-.084-.042-.169-.069-.253.12-.122.255-.227.375-.346-.07.286-.145.567-.209.853C809.421,183.026,809.383,182.944,809.355,182.859Zm-1.024,8.193a47.072,47.072,0,0,0,0,5.509,43.142,43.142,0,0,1-6.371-4.041,43.853,43.853,0,0,1,4.214-6.373A47.683,47.683,0,0,0,808.331,191.051Zm.544,10.346q.183,1.131.421,2.256a48.134,48.134,0,0,0,2.3,7.6,43.1,43.1,0,0,1-14.729-.582,42.8,42.8,0,0,1,3.284-14.37A47.485,47.485,0,0,0,808.875,201.4Zm3.748-3.438c.2.27.411.537.62.8-.114-.044-.232-.07-.346-.114-.082-.03-.156-.072-.238-.1C812.638,198.348,812.642,198.153,812.623,197.959Zm6.091,6.678a46.572,46.572,0,0,0,4.249,3.4,43.094,43.094,0,0,1-7.207,2.433,43.7,43.7,0,0,1-2.3-7.277A47.546,47.546,0,0,0,818.715,204.637Zm8.948,1.024c-.091.053-.173.118-.265.169-.076.044-.156.076-.23.12-.164-.1-.31-.228-.47-.333C827.02,205.629,827.341,205.655,827.663,205.661Zm7.949-.52a47.463,47.463,0,0,0,5.4-1.165,43.28,43.28,0,0,1-2.631,7.079,43.627,43.627,0,0,1-7.119-2.792A47.64,47.64,0,0,0,835.612,205.141Zm10.075-2.72c.693-.272,1.382-.552,2.065-.857a48.111,48.111,0,0,0,7.8-4.4,43.1,43.1,0,0,1,3.021,14.884,43.218,43.218,0,0,1-16.081,0A47.437,47.437,0,0,0,845.688,202.421Zm5.446-20.385c.148-.489.335-.961.468-1.458a47.525,47.525,0,0,0,1.485-8.829,43.191,43.191,0,0,1,13.454,7.024,42.9,42.9,0,0,1-9.426,11.918A47.651,47.651,0,0,0,851.134,182.036Zm-17.395-15.992a47.742,47.742,0,0,0-6.072,1.216,47.219,47.219,0,0,0-5.282-1.121,42.989,42.989,0,0,1,6-5.975A43.657,43.657,0,0,1,833.739,166.045Zm-18.957,3.714a47.75,47.75,0,0,0-2.471,4.82A47,47,0,0,0,808.1,178a43.327,43.327,0,0,1-.87-7.494A43.26,43.26,0,0,1,814.782,169.758Zm-10.135,11.747c-.495.556-.978,1.121-1.45,1.7a48.074,48.074,0,0,0-4.462,6.567,43.148,43.148,0,0,1-8.825-11.825,43.229,43.229,0,0,1,13.214-6.468A47.582,47.582,0,0,0,804.647,181.505Zm1.154,34.3a46.852,46.852,0,0,0,7.534-.634,46.928,46.928,0,0,0,9.889,13.216A42.938,42.938,0,0,1,803,235.461a43.14,43.14,0,0,1-6.006-17.828c-.1-.9-.112-1.8-.152-2.694A47.577,47.577,0,0,0,805.8,215.8Zm11.764-1.509a47.625,47.625,0,0,0,9.542-3.609c.64.364,1.256.761,1.917,1.1a47.609,47.609,0,0,0,7.353,2.992,43.127,43.127,0,0,1-9.723,11.088A42.791,42.791,0,0,1,817.565,214.294Zm22.974,1.576a46.129,46.129,0,0,0,17.935.385,43.058,43.058,0,0,1-7.024,20.659,43.156,43.156,0,0,1-19.308-6.775c-.76-.495-1.468-1.045-2.191-1.58A47.162,47.162,0,0,0,840.538,215.87Zm22.151-.518a47.673,47.673,0,0,0,19.9-10.8,43.465,43.465,0,0,1-2.4,25.031,43.153,43.153,0,0,1-15.424,6.607,43.742,43.742,0,0,1-8.581.954A47.157,47.157,0,0,0,862.69,215.352Zm0-4.292a47.144,47.144,0,0,0-3.725-16.515,46.936,46.936,0,0,0,10.778-13.028,43.072,43.072,0,0,1,11.646,18.447A43.453,43.453,0,0,1,862.694,211.059Zm-19.426-64.45c.225.386.4.794.611,1.186a47.265,47.265,0,0,0-15.365,7.053,46.919,46.919,0,0,0-15-7.871,43.065,43.065,0,0,1,15.636-15.164A43.117,43.117,0,0,1,843.268,146.61ZM796.8,193.574a46.978,46.978,0,0,0-4.058,16.024,42.92,42.92,0,0,1-18.247-11.29,43.531,43.531,0,0,1,12.114-17.716A47.159,47.159,0,0,0,796.8,193.574Zm-4.174,20.332c.025,1.382.1,2.77.248,4.159a47.424,47.424,0,0,0,5.385,17.537,43.882,43.882,0,0,1-5.752-.482,43.113,43.113,0,0,1-18.036-7.306,43.243,43.243,0,0,1-1.34-24.963A47.173,47.173,0,0,0,792.625,213.905ZM813,246.918c-.057-.044-.116-.08-.173-.126a43.562,43.562,0,0,1-7.169-7.431,47.175,47.175,0,0,0,20.849-8.168c1.089.849,2.21,1.66,3.381,2.421a47.335,47.335,0,0,0,18.723,7.136,43.621,43.621,0,0,1-6.282,6.167Zm35.558,0a47.845,47.845,0,0,0,4.945-5.7c.718.034,1.437.078,2.159.078a48.008,48.008,0,0,0,9.971-1.053,47.4,47.4,0,0,0,10.991-3.794,41.915,41.915,0,0,1-9.415,10.473Zm40.256-122.574V246.918H873.456a47.137,47.137,0,0,0,10.1-14.648,47.368,47.368,0,0,0,5.252-4.42v-6.067q-1.254,1.485-2.642,2.855a47.791,47.791,0,0,0-.143-23.59q1.462-1.639,2.785-3.428v-7.734a43.3,43.3,0,0,1-4.258,6.518A47.178,47.178,0,0,0,871.7,177.637c.364-.811.754-1.6,1.075-2.442a47.342,47.342,0,0,0,3.086-19.8c1.19.624,2.364,1.287,3.506,2.027a43.523,43.523,0,0,1,9.443,8.292v-6.051a48.036,48.036,0,0,0-13.5-9.171,47.059,47.059,0,0,0-9.565-21.637,43.856,43.856,0,0,1,4.519,1.982,43.1,43.1,0,0,1,18.542,18.23V141.3A47.173,47.173,0,0,0,872.15,127.14a47.725,47.725,0,0,0-6.7-2.8Zm-53,0a48,48,0,0,0-6.539,2.7,47.047,47.047,0,0,0-5.553-2.7Zm-69.578,0H787.7a48.262,48.262,0,0,0-5.726,2.808,47.259,47.259,0,0,0-15.738,14.781Zm0,26.134a43.007,43.007,0,0,1,17.809-19.738,43.685,43.685,0,0,1,8.644-3.8,47.442,47.442,0,0,0-8.6,14.21,48.188,48.188,0,0,0-2.067,6.889A47.48,47.48,0,0,0,766.236,158.2Zm0,13.816a43.014,43.014,0,0,1,14.985-11.417,47.164,47.164,0,0,0,3.51,23.865,47.726,47.726,0,0,0-13.292,18.015,43.823,43.823,0,0,1-3.263-4.793q-1.068-1.85-1.94-3.771Zm0,30.3a47.651,47.651,0,0,0,3.554,4.747,47.367,47.367,0,0,0-.974,23.745c-.895-.889-1.757-1.812-2.579-2.783Zm0,31.818a47.3,47.3,0,0,0,4.841,4.119,47.628,47.628,0,0,0,10.862,16.389h-15.7Z" transform="translate(-280.024 9727.868)" fill="#12263f"/>
  </g>
</svg>
