<svg xmlns="http://www.w3.org/2000/svg" width="361" height="246" viewBox="0 0 361 246">
  <g id="_36" data-name="36" transform="translate(6110 760)">
    <rect id="Rectángulo_35330" data-name="Rectángulo 35330" width="361" height="246" rx="20" transform="translate(-6110 -760)" fill="#fff"/>
    <g id="Grupo_83539" data-name="Grupo 83539" transform="translate(-6083.25 -735.405)">
      <g id="Grupo_83530" data-name="Grupo 83530" transform="translate(83.827 47.042)">
        <path id="Trazado_116620" data-name="Trazado 116620" d="M59.814,38.866c0,1.566.405,6.693.352,7.909a5.348,5.348,0,0,1-.051.678c-.112.639-1.33.714-1.383.716-1.291.084-1.4-.927-1.425-1.868-.086-3.031-.76-6.035-.881-9.065a6,6,0,0,1,.062-.932c.1-.855.344-1.092,1.2-1.1a2.917,2.917,0,0,1,2.956,1.568c.885,1.773,1.782,3.542,2.674,5.312.126.247.253.493.379.742l.183-.026c-.024-.311-.033-.621-.077-.927a43.237,43.237,0,0,1-.436-6.356,6.838,6.838,0,0,1,.066-.848,1.207,1.207,0,0,1,1.863-1.011,1.293,1.293,0,0,1,.8.934c.253,1.421.557,2.835.764,4.264.176,1.2.264,2.423.357,3.636.068.932.108,1.868.115,2.8.007.85-.249,1.1-1.114,1.134a2.084,2.084,0,0,0-1.022.216,1.816,1.816,0,0,1-2.152-.839,37.807,37.807,0,0,1-2.905-6.233C60.071,39.39,59.977,39.22,59.814,38.866Z" transform="translate(-27.103 -18.096)" fill="#1d1d1b"/>
        <path id="Trazado_116621" data-name="Trazado 116621" d="M55.2,43.713l-3.185.6c-.04.678.031,4.414-.04,5.629-.062,1.092-.341,1.5-1.359,1.451-1.555.207-1.755-.738-1.711-1.894.068-1.784-.121-3.469-.033-5.253.1-2.095-.178-4.352-.086-6.447.042-.925.161-1.1.868-1.187a1.258,1.258,0,0,1,1.52.912c.167.8.766,4.4.8,5.4l3.39-1.053c.011-.17-.15-5.112-.165-5.621-.064-.74.586-.8,1.154-.855a1.238,1.238,0,0,1,1.388.872,3.869,3.869,0,0,1,.2,1.084c.062,2.8.467,9.424.449,9.933a8.372,8.372,0,0,1-.1,1.266c-.112.588-.463.969-1.319,1A1.423,1.423,0,0,1,55.266,48c-.033-1.275-.031-2.55-.046-3.826C55.217,44.039,55.211,43.9,55.2,43.713Z" transform="translate(-36.305 -15.796)" fill="#1d1d1b"/>
        <path id="Trazado_116622" data-name="Trazado 116622" d="M73.475,38.527c-.769.2-1.418.37-2.119.551-.007.231-.022.449-.015.667.04,1.247.086,2.493.121,3.74a2.65,2.65,0,0,1-.059.674.985.985,0,0,1-1.425.731,1.407,1.407,0,0,1-.141-.092c-1.355-.749-1.33-.749-1.377-2.363-.055-1.956-.187-3.909-.231-5.863-.024-1.132.044-2.269.11-3.4.015-.286.106-.7.3-.815a1.283,1.283,0,0,1,1.3.007,1.324,1.324,0,0,1,.694,1.015c.156,1.152.3,2.3.44,3.458.037.3.064.6.11,1.029.685-.214,1.273-.394,1.857-.581.348-.112.339-.385.324-.692-.051-1.018-.108-2.039-.1-3.059a12.621,12.621,0,0,1,.183-1.859c.119-.771.273-.921.833-.973a1.367,1.367,0,0,1,1.515.822,2.6,2.6,0,0,1,.11.584c.28,2.564.581,5.127.815,7.7a23,23,0,0,1,0,2.89c-.031.9-.65,1.26-1.471.894-.051-.022-.093-.064-.143-.09-1.379-.753-1.37-.753-1.445-2.4C73.623,40.263,73.541,39.428,73.475,38.527Z" transform="translate(-12.914 -21.444)" fill="#1d1d1b"/>
        <path id="Trazado_116623" data-name="Trazado 116623" d="M87.441,35.985c.233-.044,1.449-.414,1.795-.54-.042-.478-.841-5.44-1.143-7.5a1.264,1.264,0,0,1,1.355-1.451,1.06,1.06,0,0,1,1.2.954c.152.751.3,1.5.39,2.264q.393,3.165.74,6.336a7.619,7.619,0,0,1-.15,3.121,2.518,2.518,0,0,1-1.788,1.879c-.628.167-2.139.467-2.782.559-1.943.26-2.031-.048-2.2-.813a.962.962,0,0,1,.621-.892c.491-.132,4.447-.145,4.249-1.427a7.9,7.9,0,0,0-.249-1.672c-.293.1-.971.293-1.145.344a4.062,4.062,0,0,1-.971.264c-1.879.227-2.863-.053-3.3-2.643q-.287-2.838-.6-5.669c-.106-.951-.037-1.152.5-1.321a1.413,1.413,0,0,1,1.879.674C86.135,29.151,86.214,36.207,87.441,35.985Z" transform="translate(5.352 -26.494)" fill="#1d1d1b"/>
        <path id="Trazado_116624" data-name="Trazado 116624" d="M64.567,36.921c.216-.628.405-1.269.656-1.883.275-.681.595-1.343.921-2a1.057,1.057,0,0,1,.958-.6c.758-.033,1.187.348,1.145,1.119a12.959,12.959,0,0,1-2.216,6.017,20.639,20.639,0,0,1,4.856,2.907,3.331,3.331,0,0,1,.645.672.949.949,0,0,1-.7,1.566,2.506,2.506,0,0,1-1.368-.319,29.771,29.771,0,0,1-4-3.013l-.145.095c.068.52.148,1.037.2,1.559a21.811,21.811,0,0,1,.192,2.2c0,1.088-.548,1.31-1.632,1.121-1.244-.218-1.544-.9-1.628-2.022-.154-2.059-.487-4.105-.659-6.165a31.719,31.719,0,0,1,0-3.394c.018-.747.145-.9.663-1a1.122,1.122,0,0,1,1.355.61,11.665,11.665,0,0,1,.447,1.632c.073.3.106.6.156.9Z" transform="translate(-20.705 -19.355)" fill="#1d1d1b"/>
        <path id="Trazado_116625" data-name="Trazado 116625" d="M83.647,39.02c.02.6.046,1.242.059,1.887a3.4,3.4,0,0,1-.035.835.845.845,0,0,1-1.343.612c-.024-.011-.046-.031-.07-.044-1.163-.625-1.17-.625-1.3-2-.057-.59-.066-1.187-.117-1.78q-.4-4.483-.8-8.966c-.077-.861,0-1.075.848-1.288a33.978,33.978,0,0,1,3.412-.678,2.041,2.041,0,0,1,2.469,1.859c.293,2.216.667,4.423.927,6.643a1.8,1.8,0,0,1-1.31,2.121C85.494,38.5,84.6,38.743,83.647,39.02Zm-.057-1.872c1.28-.154,1.544-.5,1.324-1.6a6.811,6.811,0,0,1-.128-.753c-.126-1.608-.238-3.218-.366-4.826-.024-.293-.1-.581-.174-.962-.694.282-1.383.068-1.965.474A48.7,48.7,0,0,1,83.589,37.148Z" transform="translate(1.26 -25.197)" fill="#1d1d1b"/>
        <path id="Trazado_116626" data-name="Trazado 116626" d="M77.747,38.2l-1.528.361c-.463,1.674-.33,3.458-1.024,4.989-.984.41-1.573-.273-2.235-.614-.174-.088-.233-.5-.249-.766a7.145,7.145,0,0,1,.068-1.185,103.85,103.85,0,0,1,1.96-10.349c.187-.905,1.165-1.092,1.876-.368a10.778,10.778,0,0,1,1.925,2.786,60.453,60.453,0,0,1,3.209,7.861c.018.053.04.106.055.159a.893.893,0,0,1-.233,1.084,1.264,1.264,0,0,1-1.035.024,3.121,3.121,0,0,1-1.9-1.817C78.413,39.639,78.065,38.956,77.747,38.2Zm-.44-1.423c-.2-.573-.388-1.079-.568-1.586l-.176.04a4.424,4.424,0,0,0-.048,1.857Z" transform="translate(-7.527 -22.496)" fill="#1d1d1b"/>
        <path id="Trazado_116627" data-name="Trazado 116627" d="M79.749,39.072c.15.731.269,1.363.41,1.991.115.513.233,1.084-.227,1.423-.427.313-.921.095-1.423-.1a1.8,1.8,0,0,1-1.262-1.7,71.486,71.486,0,0,1-.533-9.658A4.845,4.845,0,0,0,76.7,30.1a.617.617,0,0,1,.476-.78,20.53,20.53,0,0,1,2.956-.729A2.3,2.3,0,0,1,82.8,30.537c.115.465.174.945.258,1.418.2,1.143.412,2.282.577,3.429a6.233,6.233,0,0,1,.037,1.515,1.72,1.72,0,0,1-1.15,1.553c-.632.225-1.3.37-1.947.533A6.841,6.841,0,0,1,79.749,39.072ZM78.7,30.539a60.557,60.557,0,0,0,.824,7.083,4.726,4.726,0,0,0,.612-.084c1.015-.3,1.09-.463.949-1.5-.216-1.6-.394-3.2-.595-4.8-.044-.35-.119-.7-.189-1.11Z" transform="translate(-2.738 -23.999)" fill="#1d1d1b"/>
        <path id="Trazado_116628" data-name="Trazado 116628" d="M50.4,39.461c.262,3.6.522,7.129.78,10.658.007.084.015.17.02.253a1.108,1.108,0,0,1-.524,1.17c-.388.172-.777-.042-1.169-.282A2.158,2.158,0,0,1,48.4,49.225c0-1.3-.161-2.605-.192-3.907-.035-1.528,0-3.057-.007-4.585,0-.194-.011-.385-.02-.665-.3.046-.54.073-.777.119-.639.13-1.275.275-1.916.4-1.255.238-1.584.088-2.379-1.132a4.661,4.661,0,0,1,.811-.5c.74-.282,1.5-.537,2.258-.758q2.9-.842,5.808-1.639A1.973,1.973,0,0,1,54.332,37.7a1.28,1.28,0,0,1-.985.837c-.762.22-1.526.438-2.286.667C50.826,39.281,50.6,39.384,50.4,39.461Z" transform="translate(-43.111 -14.491)" fill="#1d1d1b"/>
        <path id="Trazado_116629" data-name="Trazado 116629" d="M54.191,41.5c.009-1.758.013-3.517.029-5.275a1.236,1.236,0,0,1,1.835-1.247,1.328,1.328,0,0,1,.9.956A20.193,20.193,0,0,1,57.3,38.2a61.471,61.471,0,0,1,.053,7.9c-.02.368.029.738.02,1.106-.015.736-.434,1.04-1.15,1.1a4.945,4.945,0,0,1-1.207.079c-.595-.079-.729-.438-.744-.945-.053-1.784-.075-4.154-.134-5.938Z" transform="translate(-29.849 -16.459)" fill="#1d1d1b"/>
      </g>
      <g id="Grupo_83531" data-name="Grupo 83531" transform="translate(10.076 11.731)">
        <path id="Trazado_116630" data-name="Trazado 116630" d="M79.689,67.811a11.605,11.605,0,0,1-6.411-1.65,8.8,8.8,0,0,1-1.641-1.372,9.256,9.256,0,0,0,3.149,3.453,9.591,9.591,0,0,0,1.269.694q2.24-.608,4.5-1.178A7.468,7.468,0,0,1,79.689,67.811Z" transform="translate(64.941 54.866)" fill="#e6e6e6"/>
        <path id="Trazado_116631" data-name="Trazado 116631" d="M87.965,44.273A18.473,18.473,0,0,0,86.057,49.4,102.606,102.606,0,0,0,83.89,60.19c-1.2,7.946-1.368,13.433-1.106,15.721A10.529,10.529,0,0,0,84.7,73.251a107.226,107.226,0,0,1,1.158-11.166,76.963,76.963,0,0,1,3.191-14.058c.086-.945.185-1.863.3-2.749A2.507,2.507,0,0,0,87.965,44.273Z" transform="translate(78.216 30.196)" fill="#e6e6e6"/>
        <path id="Trazado_116632" data-name="Trazado 116632" d="M93.206,90.015c-.031-2.187-.07-4.8-.115-7.642a5.1,5.1,0,0,0,2.394,1.742,13.35,13.35,0,0,0,4.621.6c.5,0,.951.015,1.35.029.328.011.641.02.927.02a4.127,4.127,0,0,0,2.191-.478,2.887,2.887,0,0,0,1.4-2.623c.007-.542.361-7.286.771-15.1.313-5.953.681-12.986,1.029-19.745.313-.451.643-.9.98-1.328.148-1.645.291-3.235.423-4.713A35.272,35.272,0,0,0,105.8,44.9c-.348,6.781-.718,13.847-1.031,19.826-.412,7.83-.766,14.591-.773,15.107a2.6,2.6,0,0,1-1.247,2.368,3.861,3.861,0,0,1-2.037.436c-.28,0-.588-.011-.916-.022-.4-.013-.855-.029-1.359-.029A13.108,13.108,0,0,1,93.918,82a4.5,4.5,0,0,1-2.824-2.735c.066,4.312.123,8.2.161,10.981Q92.233,90.126,93.206,90.015Z" transform="translate(88.337 25.997)" fill="#e6e6e6"/>
        <path id="Trazado_116633" data-name="Trazado 116633" d="M62.61,94.053c3.183,0,5.916-1.716,8.127-5.1a33.435,33.435,0,0,0,4-10.12c1.918-10.578,2.222-24.28,1.035-26.37q-.512.248-1.048.493a22.285,22.285,0,0,1,.4,4.242c0,.348-.163,34.726-14.193,34.726a12.076,12.076,0,0,1-9.563-4.409A12.633,12.633,0,0,0,62.61,94.053Z" transform="translate(40.575 40.041)" fill="#e6e6e6"/>
        <path id="Trazado_116634" data-name="Trazado 116634" d="M91.272,75.123q.043-.833.093-1.846c.372-7.435,1.057-21.163,1.366-33.506a4.347,4.347,0,0,0-.808-.438,3.737,3.737,0,0,1,.487,1.868,5.9,5.9,0,0,1-.619,2.313,9.62,9.62,0,0,0-.921,4.127c0,1.773.174,12.8.341,23.465C91.23,72.445,91.252,73.79,91.272,75.123Z" transform="translate(88.067 24.256)" fill="#e6e6e6"/>
        <path id="Trazado_116635" data-name="Trazado 116635" d="M76.618,76.665c1.363-.333,2.735-.654,4.108-.969a2.227,2.227,0,0,0-1-1.526,37.6,37.6,0,0,1-.586-6.222l-.015-.379-.064-.1c-1.28-2.048-1.892-5-2.084-10.514.015,2.967.062,6.389.187,9.272a34.946,34.946,0,0,0,.621,6.31,1.921,1.921,0,0,1,.989,1.68C78.776,75.373,77.818,76.181,76.618,76.665Z" transform="translate(70.931 45.449)" fill="#e6e6e6"/>
        <path id="Trazado_116636" data-name="Trazado 116636" d="M86.784,66.38c-3.3,0-6.436-.2-8.59-2.348q.182.363.39.694c2.178,3.493,6.072,3.786,9.874,3.786,1.672,0,3.306-.91,4.962-2.768q.109-2.382.174-4.85C90.556,65.68,88.33,66.38,86.784,66.38Z" transform="translate(72.826 50.182)" fill="#e6e6e6"/>
        <path id="Trazado_116637" data-name="Trazado 116637" d="M154.906,60.057c-6.5-7.266-12.631-14.129-12.631-21.322a43.391,43.391,0,0,1,3.275-15.95c1.634-3.757,4.484-8.237,8.779-8.237a4.164,4.164,0,0,1,.438.015c-.377-2.147-1.319-2.147-2.112-2.147-8.231,0-12.36,15.7-12.36,24.493,0,7.308,6.173,14.212,12.71,21.525,8.019,8.971,17.109,19.137,17.109,32.609,0,8.435-4.337,17.915-11.6,25.357-7.638,7.823-17.41,12.309-26.81,12.309-7.31,0-13.188-2.449-17-7.083l-.022-.026a19.316,19.316,0,0,0,1.46,2.048c3.87,4.7,9.83,7.193,17.234,7.193,9.479,0,19.331-4.522,27.026-12.4,7.321-7.5,11.691-17.056,11.691-25.57C172.094,79.282,162.963,69.067,154.906,60.057Z" transform="translate(116.702 -8.11)" fill="#e6e6e6"/>
        <path id="Trazado_116638" data-name="Trazado 116638" d="M81.474,77.384a3.342,3.342,0,0,1-.575-1.37,4.364,4.364,0,0,1,.209-1.454,2.035,2.035,0,0,0-.046-2.048,2.1,2.1,0,0,0-1.711-1,1.723,1.723,0,0,1-.194,1.092,4.546,4.546,0,0,0-.238,1.581A4.419,4.419,0,0,0,81.474,77.384Z" transform="translate(73.697 62.95)" fill="#e6e6e6"/>
        <path id="Trazado_116639" data-name="Trazado 116639" d="M44.9,63.811c.612-.747,1.139-1.339,1.6-1.808.227-4.854.374-8.42.374-9.589,0-5.365-2.266-8.455-4.165-10.1a11.141,11.141,0,0,0-1.055-.808,12.79,12.79,0,0,1,3.24,9.083c0,1.5-.24,6.922-.581,13.957C44.518,64.289,44.714,64.044,44.9,63.811Z" transform="translate(28.897 26.864)" fill="#e6e6e6"/>
        <path id="Trazado_116640" data-name="Trazado 116640" d="M50.863,55.757c.289-.866.59-1.656.9-2.379a6,6,0,0,0-1.824-1.517,2.731,2.731,0,0,1,.5,1.575c0,.586-.11,2.22-.3,4.788C50.361,57.369,50.6,56.541,50.863,55.757Z" transform="translate(38.852 39.32)" fill="#e6e6e6"/>
        <path id="Trazado_116641" data-name="Trazado 116641" d="M151.154,18.167a23.444,23.444,0,0,1-2.912,11.215,13.1,13.1,0,0,1-11.8,6.852,11.377,11.377,0,0,1-7.352-2.2c.786,2.273,4.037,4.328,9.028,4.328a13.388,13.388,0,0,0,12.056-7,23.387,23.387,0,0,0,2.953-11.369c0-2.85-1.661-6.037-4.445-8.519-.4-.359-.822-.7-1.255-1.013A11.428,11.428,0,0,1,151.154,18.167Z" transform="translate(134.03 -10.461)" fill="#e6e6e6"/>
        <path id="Trazado_116642" data-name="Trazado 116642" d="M68.007,46.7a7.327,7.327,0,0,1,1.914,4.956c0,1.407-.293,5.286-.663,10.2-.366,4.863-.894,11.884-1.092,16.6.634-1.361,1.429-3.18,2.409-5.614.222-3.286.471-6.614.663-9.14.37-4.914.661-8.8.661-10.217A8.041,8.041,0,0,0,68.007,46.7Z" transform="translate(60.576 33.118)" fill="#e6e6e6"/>
        <path id="Trazado_116643" data-name="Trazado 116643" d="M57.453,80.971a51.344,51.344,0,0,1-.126-9.457,77.512,77.512,0,0,1,2.467-15.624,8.462,8.462,0,0,0,2.6.405c0-.762-.04-1.515-.108-2.244a11.679,11.679,0,0,1-1.562.112,7.992,7.992,0,0,1-2.8-.493,76.524,76.524,0,0,0-2.588,16.3c-.487,8.367.491,11.858,1.088,12.842A9.592,9.592,0,0,0,57.453,80.971Z" transform="translate(45.177 41.494)" fill="#e6e6e6"/>
        <path id="Trazado_116644" data-name="Trazado 116644" d="M79.929,62.832c-.65,1.5-1.258,2.821-1.821,3.947C76.042,70.893,74.573,72.5,72.86,72.5c-4.541,0-8-1.134-10.059-3.187a8.086,8.086,0,0,0,3.125,3.33,16.409,16.409,0,0,0,8.609,1.989c1.87,0,3.365-1.595,5.517-5.887q.614-1.226,1.3-2.751A10.9,10.9,0,0,1,79.929,62.832Z" transform="translate(54.316 52.512)" fill="#e6e6e6"/>
        <path id="Trazado_116645" data-name="Trazado 116645" d="M77.662,44.978a3.05,3.05,0,0,1,.7,1.894c0,.322-.062.817-.262,2.337-.308,2.363-.826,6.332-1.167,10.81a55.068,55.068,0,0,1,3.009-12.84A6.342,6.342,0,0,0,77.662,44.978Z" transform="translate(71.312 31.044)" fill="#e6e6e6"/>
        <path id="Trazado_116646" data-name="Trazado 116646" d="M46.448,171.978c-.493-.907-1.806-4.726-2.506-20.17-.48-10.528-.59-24.507-.322-40.424.233-13.906.758-28.59,1.438-40.289.533-9.18,1.022-14.267,1.383-17.071q1.335-.648,2.691-1.288c33.684-15.827,75.6-25.277,112.118-25.277,7.561,0,10.374,1.209,11.114,1.621a2.38,2.38,0,0,0,2.229,1.533c.588,0,2.037-.238,2.788-2.436a14.615,14.615,0,0,0,.562-4.528,8.111,8.111,0,0,0-3.978-6.755,7.162,7.162,0,0,1,2,4.927,14.318,14.318,0,0,1-.544,4.429c-.687,2.015-1.978,2.231-2.5,2.231a2.084,2.084,0,0,1-1.987-1.449c-.874-.555-4.156-1.7-11.356-1.7-36.563,0-78.526,9.46-112.248,25.306q-1.437.674-2.841,1.361c-.366,2.784-.861,7.885-1.4,17.179C42.4,80.936,41.874,95.7,41.638,109.691c-.266,16.025-.152,30.063.337,40.6.275,5.911.665,10.677,1.161,14.171.588,4.152,1.194,5.535,1.44,5.953a2.447,2.447,0,0,1,1.791,2.454,3.73,3.73,0,0,1-1.806,3.057,8.569,8.569,0,0,1-4.775,1.161,18.76,18.76,0,0,1-10.006-3.319,15.957,15.957,0,0,1-3.081-2.806,15.91,15.91,0,0,0,4.581,4.883,19.078,19.078,0,0,0,10.18,3.374A8.867,8.867,0,0,0,46.4,178a4.023,4.023,0,0,0,1.943-3.31A2.761,2.761,0,0,0,46.448,171.978Z" transform="translate(10.906 -2.727)" fill="#e6e6e6"/>
        <path id="Trazado_116647" data-name="Trazado 116647" d="M100.075,35.838c0,1.581-.267,7.543-.641,15.153.22-.282.436-.551.643-.806.588-.718,1.1-1.293,1.548-1.753q.076-1.609.143-3.042a2.126,2.126,0,0,0,3.423.637c1.227-1.2,6.592-3.66,13.527-5.592q.017-1.355.026-2.586c-7.642,1.932-13.908,4.638-15.441,6.134a1.827,1.827,0,0,1-2.9-2.145,11.016,11.016,0,0,1,1.6-2.255c.029-.874.046-1.528.046-1.916,0-5.365-2.264-8.455-4.165-10.1a11.139,11.139,0,0,0-1.055-.808A12.79,12.79,0,0,1,100.075,35.838Z" transform="translate(95.24 9.132)" fill="#e6e6e6"/>
        <path id="Trazado_116648" data-name="Trazado 116648" d="M14.35,81.517a5.873,5.873,0,0,0,.566.335,4.722,4.722,0,0,1-.76-2.727c0-7.8,4.925-16.556,14.243-25.328A117.49,117.49,0,0,1,46.554,40.1c.108-.566.216-1.121.326-1.661q.211-1.037.429-2.015A122.441,122.441,0,0,0,26.516,51.749c-9.38,8.83-14.34,17.666-14.34,25.548A4.715,4.715,0,0,0,14.35,81.517Z" transform="translate(-6.558 20.756)" fill="#e6e6e6"/>
        <path id="Trazado_116649" data-name="Trazado 116649" d="M52.819,59.734c.148-1.647.291-3.238.423-4.715a35.47,35.47,0,0,0-3.317,4.03c-.366,7.145-.762,14.7-1.092,21.036-.412,7.83-.766,14.591-.773,15.107a2.6,2.6,0,0,1-1.247,2.368A3.861,3.861,0,0,1,44.776,98c-.28,0-.588-.011-.916-.022-.4-.013-.855-.029-1.359-.029a13.108,13.108,0,0,1-4.515-.584,5.277,5.277,0,0,1-1.436-.8,4.794,4.794,0,0,0,3,2.909,13.343,13.343,0,0,0,4.621.6c.5,0,.951.015,1.35.029.328.011.641.02.927.02a4.127,4.127,0,0,0,2.191-.478,2.891,2.891,0,0,0,1.4-2.625c.007-.54.361-7.283.771-15.093C51.141,75.616,52.5,60.137,52.819,59.734Z" transform="translate(22.751 43.118)" fill="#e6e6e6"/>
        <path id="Trazado_116650" data-name="Trazado 116650" d="M44.4,68.794q-.578-.842-1.231-1.676c-3.191-4.066-6.114-5.951-6.823-6.07A44.688,44.688,0,0,0,26.275,62.16a35.656,35.656,0,0,1-7.819.943,11.665,11.665,0,0,1-8.352-2.931c-.165-.156-.326-.319-.48-.489a10.562,10.562,0,0,0,1.945,2.537,11.957,11.957,0,0,0,8.561,3.013,35.981,35.981,0,0,0,7.88-.947,44.275,44.275,0,0,1,9.975-1.106c.72.172,3.451,1.991,6.411,5.691Z" transform="translate(-9.625 48.725)" fill="#e6e6e6"/>
        <path id="Trazado_116651" data-name="Trazado 116651" d="M54.138,85.906c2.172,0,5.381-1.053,5.381-3.31a2.221,2.221,0,0,0-.716-1.639c-.324-1.685-.65-6.149-.885-10.418a23.052,23.052,0,0,1-2.191-6.22c.216,5.178.672,12.765,1.123,14.97a1.923,1.923,0,0,1,.692,1.478c0,2.05-3.028,3.006-5.077,3.006a11.6,11.6,0,0,1-6.409-1.65,8.873,8.873,0,0,1-1.647-1.379,9.293,9.293,0,0,0,3.154,3.462A11.9,11.9,0,0,0,54.138,85.906Z" transform="translate(32.2 54.302)" fill="#e6e6e6"/>
        <path id="Trazado_116652" data-name="Trazado 116652" d="M153.151,64.018a7.289,7.289,0,0,1,1.65,4.793c0,4.782-4.627,7.629-4.826,7.746a1.8,1.8,0,0,1-.943.264,1.826,1.826,0,0,1-1.7-1.161c-.291-.366-1.773-1.218-5.594-1.218-12.849,0-24.289.361-34.526,1.009a40.942,40.942,0,0,1-3.632,8.231,26.506,26.506,0,0,1-6.689,7.854,15.888,15.888,0,0,1-9.763,3.429,13.972,13.972,0,0,1-9.915-3.6c-.244-.231-.48-.474-.7-.722a11.646,11.646,0,0,0,2.169,2.771A14.269,14.269,0,0,0,88.8,97.094a16.194,16.194,0,0,0,9.946-3.489,26.813,26.813,0,0,0,6.768-7.944,41.283,41.283,0,0,0,3.592-8.092c10.18-.641,21.544-1,34.3-1,3.55,0,5.011.744,5.334,1.079a2.131,2.131,0,0,0,3.061.991c.2-.121,4.973-3.057,4.973-8.008A7.43,7.43,0,0,0,153.151,64.018Z" transform="translate(70.801 53.938)" fill="#e6e6e6"/>
        <path id="Trazado_116653" data-name="Trazado 116653" d="M116.618,72.165a1.829,1.829,0,0,1,1.6.866,1.919,1.919,0,0,1,.17.385c3.513-.5,7.211-.951,11.116-1.361.2-.72.394-1.5.577-2.361C88.019,73.813,69.127,83.3,53.19,91.311c-1.9.956-3.7,1.859-5.535,2.755a1.827,1.827,0,0,1-.8.187,1.876,1.876,0,0,1-.456-.059,2.132,2.132,0,0,0,3.066,1.973c1.837-.9,3.634-1.8,5.539-2.757C68.054,86.851,83.095,79.3,111.264,74.522A6.755,6.755,0,0,1,116.618,72.165Z" transform="translate(34.591 60.764)" fill="#e6e6e6"/>
        <path id="Trazado_116654" data-name="Trazado 116654" d="M122.026,72.409a11.891,11.891,0,0,1-2.656-7.9c0-2.663,1.9-5.973,4.962-8.634a17.347,17.347,0,0,1,11.014-4.541,8.123,8.123,0,0,1,5.7,1.793,4.231,4.231,0,0,1-.218-.379c-1.159-2.319-3.632-3.544-7.156-3.544a17.642,17.642,0,0,0-11.213,4.614c-3.125,2.718-5.066,6.114-5.066,8.865C117.392,66.417,118.7,70.33,122.026,72.409Z" transform="translate(119.959 36.121)" fill="#e6e6e6"/>
        <path id="Trazado_116655" data-name="Trazado 116655" d="M119.636,59.016a27.085,27.085,0,0,1-.344-2.839,12.566,12.566,0,0,1-2.3,1.066,14.965,14.965,0,0,1-4.7,1.044,7.613,7.613,0,0,1-5.37-1.808c1.15,2.517,3.608,3.938,7.043,3.938a15.277,15.277,0,0,0,4.8-1.062C119.079,59.241,119.365,59.128,119.636,59.016Z" transform="translate(107.374 44.51)" fill="#e6e6e6"/>
        <path id="Trazado_116656" data-name="Trazado 116656" d="M131.21,52.584a4.141,4.141,0,0,1-2.722-1.009,5.811,5.811,0,0,1,.4.672,4.444,4.444,0,0,0,4,2.469c.068,0,.134,0,.2-.009.432-1.156.815-2.315,1.15-3.462A4.055,4.055,0,0,1,131.21,52.584Z" transform="translate(133.301 38.58)" fill="#e6e6e6"/>
        <path id="Trazado_116657" data-name="Trazado 116657" d="M114.84,29.319q.776-.1,1.5-.154a11.686,11.686,0,0,0-3.449-5.288,11.519,11.519,0,0,0-1.055-.808A11.952,11.952,0,0,1,114.84,29.319Z" transform="translate(113.278 4.698)" fill="#e6e6e6"/>
        <path id="Trazado_116658" data-name="Trazado 116658" d="M111.766,37.623a2.726,2.726,0,0,1,.5,1.575c0,.881-.251,4.141-.659,9.389-.392,5.03-.835,10.733-.835,12.076,0,3.114.63,16.338,1.251,19.371a1.923,1.923,0,0,1,.692,1.478c0,2.05-3.028,3.006-5.077,3.006a11.6,11.6,0,0,1-6.409-1.65,8.97,8.97,0,0,1-1.647-1.381,9.293,9.293,0,0,0,3.154,3.462,11.9,11.9,0,0,0,6.577,1.7c2.172,0,5.383-1.051,5.383-3.31a2.222,2.222,0,0,0-.718-1.636c-.61-3.169-1.227-16.164-1.227-19.21,0-1.335.463-7.279.835-12.054.41-5.255.659-8.521.659-9.413C114.244,39.5,113.136,38.411,111.766,37.623Z" transform="translate(98.543 22.2)" fill="#e6e6e6"/>
        <path id="Trazado_116659" data-name="Trazado 116659" d="M133.96,49.935a11.947,11.947,0,0,0-2.813-3.544,12.62,12.62,0,0,0-1.033-.8,12.274,12.274,0,0,1,3.3,7.768C133.645,52.171,133.823,51.023,133.96,49.935Z" transform="translate(135.257 31.785)" fill="#e6e6e6"/>
        <path id="Trazado_116660" data-name="Trazado 116660" d="M121.168,31.131a16.6,16.6,0,0,1-.229,3.189c-.467,2.308-1.91,2.557-2.506,2.557a2.069,2.069,0,0,1-1.863-1.1c-.128-.011-.3-.018-.518-.018q-1.047,0-2.112.046-.056,1.232-.117,2.605c-.381,8.526-.9,20.205-1.152,30.4-.249,10.312-.117,15.318.075,17.745a23.485,23.485,0,0,1,1.771-5.909c0-2.619.035-5.936.137-10.131.249-10.16.769-21.78,1.147-30.264q.056-1.216.1-2.326c.61-.022,1.218-.035,1.821-.035.13,0,.24,0,.333.009a2.371,2.371,0,0,0,2.048,1.112c.672,0,2.293-.273,2.806-2.8a16.875,16.875,0,0,0,.236-3.251c0-1.544,0-5.266-2.852-6.323A9.16,9.16,0,0,1,121.168,31.131Z" transform="translate(114.118 8.986)" fill="#e6e6e6"/>
        <path id="Trazado_116661" data-name="Trazado 116661" d="M122.058,31.164A95.75,95.75,0,0,0,132.52,43.388a105.921,105.921,0,0,1,7.876,8.836,82.938,82.938,0,0,0-9.332-10.873A114.041,114.041,0,0,1,122.058,31.164Z" transform="translate(125.57 14.433)" fill="#e6e6e6"/>
      </g>
      <g id="Grupo_83538" data-name="Grupo 83538" transform="translate(9.25 9.405)">
        <g id="Grupo_83532" data-name="Grupo 83532" transform="translate(0 13.816)">
          <path id="Trazado_116662" data-name="Trazado 116662" d="M41.095,159.831c-3.92,0-14.979-2.87-14.979-15.307,0-8.772.493-114.294,14.679-114.294.934,0,4.566.863,4.566,1.6,0,.308-.123.432-.37.432-2.987,0-7.466,124.487.374,124.487C46.275,156.752,46.416,159.831,41.095,159.831Z" transform="translate(11.03 1.82)" fill="#1d1d1b"/>
          <path id="Trazado_116663" data-name="Trazado 116663" d="M54.982,133.837c0-6.907-3.359-25.947-17.545-25.947-4.108,0-11.761,2.24-14.748,2.24s-8.213-1.68-8.213-7.279c0-35.094,87.545-77.279,166.692-77.279,9.893,0,13.065,2.053,13.065,2.8s1.493.747,1.493-4.48-7.466-8.213-17.545-8.213c-53.013,0-168.932,33.6-168.932,86.986,0,9.706,5.039,12.133,10.266,12.133,6.535,0,8.962-2.055,17.921-2.055,2.987,0,13.812,10.64,13.812,20.161Z" transform="translate(-9.25 -15.678)" fill="#1d1d1b"/>
        </g>
        <g id="Grupo_83533" data-name="Grupo 83533" transform="translate(60.358 69.558)">
          <path id="Trazado_116664" data-name="Trazado 116664" d="M40.183,40.987c3.546,0,9.519,2.614,9.519,10.827,0,5.226-2.987,59.545-2.987,60.851s-1.119.934-3.733.934-5.786-.187-5.786-3.174,3.92-66.452.185-66.452C35.889,43.974,36.635,40.987,40.183,40.987Z" transform="translate(-36.655 -40.987)" fill="#1d1d1b"/>
          <path id="Trazado_116665" data-name="Trazado 116665" d="M39.189,73C39.189,68.7,50.763,51.158,53,51.158s9.147,1.865,9.147,3.733-1.493,18.853-1.493,21.465.747,20.721,1.678,20.721-.747,1.306-2.987,1.306S50.2,98.2,50.2,88.117c0-2.8,2.987-35.281,2.987-35.281l2.24.747S42.55,62.917,42.55,72.064C42.55,74.863,39.189,73,39.189,73Z" transform="translate(-33.608 -28.757)" fill="#1d1d1b"/>
        </g>
        <g id="Grupo_83534" data-name="Grupo 83534" transform="translate(181.878 37.078)">
          <path id="Trazado_116666" data-name="Trazado 116666" d="M95.356,26.24c3.546,0,9.519,2.614,9.519,10.827,0,5.226-2.987,59.545-2.987,60.851s-1.119.934-3.733.934-5.786-.185-5.786-3.174,3.92-66.452.187-66.452C91.064,29.227,91.81,26.24,95.356,26.24Z" transform="translate(-91.83 -26.24)" fill="#1d1d1b"/>
          <path id="Trazado_116667" data-name="Trazado 116667" d="M94.363,58.758c0-4.293,11.574-21.839,13.814-21.839s9.147,1.868,9.147,3.733-1.493,18.853-1.493,21.467.747,20.718,1.68,20.718-.747,1.308-2.987,1.308-9.147-.187-9.147-10.268c0-2.8,2.987-35.279,2.987-35.279l2.24.747s-12.88,9.334-12.88,18.481C97.724,60.626,94.363,58.758,94.363,58.758Z" transform="translate(-88.784 -13.399)" fill="#1d1d1b"/>
        </g>
        <path id="Trazado_116668" data-name="Trazado 116668" d="M59.853,52.638c2.24,0,7.14,2.053,6.021,2.053-4.9,0-9.147,36.959-2.94,36.959,3.266,0,7.746-18.294,7.746-28.372,0-5.788-1.68-11.433-5.319-11.433S63.82,56.6,66.621,56.6s14.512-5.46,14.512-7.14L82.254,53.2s-9.473,5.927-15.074,5.927c-7,0-8.541-10.594-2.1-10.594s10.081,6.861,10.081,14-1.914,32.9-12.367,32.9c-8.68,0-12.459-8.775-12.459-18.714S53.554,52.638,59.853,52.638Z" transform="translate(40.151 37.641)" fill="#1d1d1b"/>
        <g id="Grupo_83535" data-name="Grupo 83535" transform="translate(118.205 76.557)">
          <path id="Trazado_116669" data-name="Trazado 116669" d="M75.2,44.165c2.24,0,8.585,2.427,8.585,4.295,0,.925-1.773,11.475-1.773,21.373,0,9.836.187,20.254,1.54,20.254.934,0-.747,1.306-2.987,1.306s-9.147-.187-9.147-10.266C71.416,78.325,73.751,44.165,75.2,44.165Z" transform="translate(-52.704 -44.165)" fill="#1d1d1b"/>
          <path id="Trazado_116670" data-name="Trazado 116670" d="M67.726,46.348c2.8,0,7.094,2.286,7.094,6.345S72.067,85.08,73.327,85.08c2.8,0,13.113-30.986,13.113-30.986l.185,6.861S76.967,91.1,73.327,91.1c-6.114,0-10.407-2.191-10.407-6.812s2.286-36.12,2.286-36.82S66.186,46.348,67.726,46.348Z" transform="translate(-62.92 -41.54)" fill="#1d1d1b"/>
        </g>
        <g id="Grupo_83536" data-name="Grupo 83536" transform="translate(148.024 66.432)">
          <path id="Trazado_116671" data-name="Trazado 116671" d="M101.658,53.808s-2.1-12.461-9.8-12.461c-8.12,0-14,15.961-14,30.522,0,14.979,1.678,16.8,9.94,16.8,6.019,0,13.3-23.379,13.3-23.379l-2.8-2.661s-4.759,19.741-9.94,19.741c-3.361,0,1.68-35.84,5.6-35.84,5.178,0,5.6,9.8,5.6,9.8Z" transform="translate(-74.777 -37.429)" fill="#1d1d1b"/>
          <path id="Trazado_116672" data-name="Trazado 116672" d="M106,39.568c1.542,0,2.52.7,2.52,1.96s-1.539,2.8-1.539,6.44.7,44.518.7,48.438c0,7.979-6.72,26.74-19.879,26.74-7.979,0-11.34-5.46-11.34-8.4s2.661-3.92,4.621-3.92a5.744,5.744,0,0,0-.421,2.381,6.322,6.322,0,0,0,6.581,5.46C107.4,118.667,90.178,39.568,106,39.568Z" transform="translate(-76.459 -39.568)" fill="#1d1d1b"/>
        </g>
        <g id="Grupo_83537" data-name="Grupo 83537" transform="translate(198.705 28.958)">
          <path id="Trazado_116673" data-name="Trazado 116673" d="M110.357,22.553c3.548,0,9.521,2.614,9.521,10.827,0,5.226-3.315,61.88-.7,61.88,1.306,0-3.546,2.24-6.16,2.24-4.293,0-5.647-2.52-5.647-5.506s3.92-66.454.187-66.454C106.065,25.54,106.811,22.553,110.357,22.553Z" transform="translate(-90.619 -22.553)" fill="#1d1d1b"/>
          <path id="Trazado_116674" data-name="Trazado 116674" d="M99.47,43.088c3.359-6.51,23.8-16.17,33.739-16.17,1.4,0,2.449.559,2.449,4.48,0,2.31-.209,3.92-.91,3.92s.421-1.119-2.381-1.119C118.508,34.2,102.408,40.219,99.47,43.088Z" transform="translate(-99.47 -17.304)" fill="#1d1d1b"/>
        </g>
        <path id="Trazado_116675" data-name="Trazado 116675" d="M150.251,31.991c3.174,0,8.4-6.532,8.4-10.825s-1.121-6.347-4.108-6.347c-9.706,0-14.186,16.613-14.186,26.319,0,17.36,29.819,30.429,29.819,54.134,0,16.428-17.36,35.84-36.585,35.84-14.933,0-19.974-10.451-19.974-19.972,0-11.2,10.453-23.707,26.319-23.707,6.722,0,12.133,3.92,12.133,11.2a4.4,4.4,0,0,1-.3,1.667,2.29,2.29,0,0,1-4.16.088c-1-2-3.343-4.555-8.79-4.555-8.96,0-18.106,8.4-18.106,15.307s3.92,13.065,12.32,13.065c16.985,0,23.518-23.333,23.518-34.907,0-17.732-28.885-28.374-28.885-49.839,0-15.494,10.827-30.055,27.253-30.055,8.213,0,13.627,6.347,13.627,10.64,0,5.788-2.8,16.241-12.88,16.241C148.945,36.286,146.705,31.991,150.251,31.991Z" transform="translate(116.247 -9.405)" fill="#1d1d1b"/>
        <path id="Trazado_116676" data-name="Trazado 116676" d="M176.6,63.447c5.914,0,12.616.793,12.616,6.658,0,3.806-3.942,6.184-3.942,6.184s-.59-2.379-7.292-2.379c-84.77,0-108.1,15.4-131.1,26.636C63.636,84.692,118.44,63.447,176.6,63.447Z" transform="translate(35.998 55.578)" fill="#1d1d1b"/>
      </g>
    </g>
  </g>
</svg>
