<svg xmlns="http://www.w3.org/2000/svg" width="85" height="84.834" viewBox="0 0 85 84.834">
  <g id="emocion" transform="translate(0 -0.5)">
    <g id="Grupo_55576" data-name="Grupo 55576" transform="translate(1.243 1.743)">
      <g id="Grupo_55575" data-name="Grupo 55575" transform="translate(0 0)">
        <g id="XMLID_207_" transform="translate(26.291)">
          <g id="Grupo_55570" data-name="Grupo 55570">
            <circle id="Elipse_4187" data-name="Elipse 4187" cx="15.048" cy="15.048" r="15.048" fill="#ade194"/>
          </g>
        </g>
        <g id="XMLID_208_" transform="translate(52.417 26.291)">
          <g id="Grupo_55571" data-name="Grupo 55571">
            <circle id="Elipse_4188" data-name="Elipse 4188" cx="15.048" cy="15.048" r="15.048" fill="#fef48b"/>
          </g>
        </g>
        <path id="Trazado_105392" data-name="Trazado 105392" d="M332.226,181.711a15.055,15.055,0,0,1,10.846-14.453,15.048,15.048,0,1,0,0,28.905A15.055,15.055,0,0,1,332.226,181.711Z" transform="translate(-271.405 -140.372)" fill="#fef056"/>
        <g id="XMLID_210_" transform="translate(26.291 52.251)">
          <g id="Grupo_55572" data-name="Grupo 55572">
            <circle id="Elipse_4189" data-name="Elipse 4189" cx="15.048" cy="15.048" r="15.048" fill="#99e6fc"/>
          </g>
        </g>
        <path id="Trazado_105393" data-name="Trazado 105393" d="M174.119,23.051A15.057,15.057,0,0,1,185.19,8.535a15.048,15.048,0,1,0,0,29.032A15.057,15.057,0,0,1,174.119,23.051Z" transform="translate(-139.871 -8.003)" fill="#97da7b"/>
        <path id="Trazado_105394" data-name="Trazado 105394" d="M174.119,338.371a15.057,15.057,0,0,1,11.071-14.516,15.048,15.048,0,1,0,0,29.032A15.057,15.057,0,0,1,174.119,338.371Z" transform="translate(-139.871 -271.072)" fill="#62dbfb"/>
        <g id="XMLID_211_" transform="translate(0 26.291)">
          <g id="Grupo_55573" data-name="Grupo 55573" transform="translate(0 0)">
            <circle id="Elipse_4190" data-name="Elipse 4190" cx="15.048" cy="15.048" r="15.048" fill="#fd8087"/>
          </g>
          <g id="Grupo_55574" data-name="Grupo 55574" transform="translate(0)">
            <path id="Trazado_105395" data-name="Trazado 105395" d="M15.907,181.711a15.055,15.055,0,0,1,10.846-14.453,15.048,15.048,0,1,0,0,28.905,15.055,15.055,0,0,1-10.846-14.453Z" transform="translate(-7.503 -166.663)" fill="#fe646f"/>
            <path id="Trazado_105396" data-name="Trazado 105396" d="M75.66,271.247H74.405a4.42,4.42,0,0,0-4.42,4.421v.163a.954.954,0,0,0,.954.954h8.187a.954.954,0,0,0,.954-.954v-.163A4.421,4.421,0,0,0,75.66,271.247Z" transform="translate(-59.631 -253.916)" fill="#fe646f"/>
          </g>
        </g>
      </g>
    </g>
    <g id="Grupo_55577" data-name="Grupo 55577" transform="translate(0 0.5)">
      <path id="Trazado_105397" data-name="Trazado 105397" d="M68.709,26.791a16.346,16.346,0,0,0-2.366.173,29.072,29.072,0,0,0-7.663-7.655A16.292,16.292,0,0,0,29.026,7.756a1.243,1.243,0,0,0,2.067,1.38,13.753,13.753,0,1,1-1.949,4.483,1.243,1.243,0,1,0-2.42-.569,16.386,16.386,0,0,0-.238,6.259,29.064,29.064,0,0,0-7.674,7.678A16.3,16.3,0,0,0,0,43.083a16.164,16.164,0,0,0,1.455,6.738,1.243,1.243,0,0,0,2.263-1.029A13.826,13.826,0,1,1,6.484,52.8a1.243,1.243,0,0,0-1.766,1.749,16.3,16.3,0,0,0,14.09,4.631,29.079,29.079,0,0,0,7.634,7.649,16.291,16.291,0,1,0,32.28,0A29.078,29.078,0,0,0,66.342,59.2a16.293,16.293,0,0,0,14.251-4.977,1.243,1.243,0,1,0-1.813-1.7,13.674,13.674,0,0,1-10.071,4.364,13.793,13.793,0,1,1,12.725-8.443,1.243,1.243,0,1,0,2.29.966,16.3,16.3,0,0,0-15.016-22.62ZM42.583,82.848A13.806,13.806,0,1,1,56.388,69.043,13.821,13.821,0,0,1,42.583,82.848Zm9.835-39.766A16.32,16.32,0,0,0,63.726,58.594a26.612,26.612,0,0,1-5.589,5.6,16.293,16.293,0,0,0-31.108,0,26.616,26.616,0,0,1-5.62-5.644,16.292,16.292,0,0,0,0-30.934,26.614,26.614,0,0,1,5.707-5.707,16.292,16.292,0,0,0,30.934,0,26.6,26.6,0,0,1,5.675,5.664,16.319,16.319,0,0,0-11.307,15.51Z" transform="translate(0 -0.5)"/>
      <path id="Trazado_105398" data-name="Trazado 105398" d="M439.939,218.837v-1.458a1.243,1.243,0,1,0-2.486,0v1.458a1.243,1.243,0,0,0,2.486,0Z" transform="translate(-364.963 -180.403)"/>
      <path id="Trazado_105399" data-name="Trazado 105399" d="M379.3,218.837v-1.458a1.243,1.243,0,1,0-2.486,0v1.458a1.243,1.243,0,1,0,2.486,0Z" transform="translate(-314.372 -180.403)"/>
      <path id="Trazado_105400" data-name="Trazado 105400" d="M192.483,110.1a1.243,1.243,0,0,0-.8,1.566,11.318,11.318,0,0,0,21.536,0,1.243,1.243,0,0,0-2.364-.767,8.832,8.832,0,0,1-16.808,0A1.243,1.243,0,0,0,192.483,110.1Z" transform="translate(-159.87 -91.886)"/>
      <path id="Trazado_105401" data-name="Trazado 105401" d="M220.4,53.7a1.243,1.243,0,0,0,1.243-1.243V51a1.243,1.243,0,1,0-2.486,0v1.458A1.243,1.243,0,0,0,220.4,53.7Z" transform="translate(-182.837 -41.595)"/>
      <path id="Trazado_105402" data-name="Trazado 105402" d="M282.278,52.458V51a1.243,1.243,0,1,0-2.486,0v1.458a1.243,1.243,0,1,0,2.486,0Z" transform="translate(-233.428 -41.595)"/>
      <path id="Trazado_105403" data-name="Trazado 105403" d="M356.558,283.639a1.243,1.243,0,0,0,1.243,1.243h16.762a1.243,1.243,0,0,0,0-2.486H357.8A1.243,1.243,0,0,0,356.558,283.639Z" transform="translate(-297.473 -235.683)"/>
      <path id="Trazado_105404" data-name="Trazado 105404" d="M207.475,370.821a1.243,1.243,0,0,0-1.711-.4c-1.784,1.1-4.693,2.892-5.15,3.151a1.243,1.243,0,0,0-.087,2.216,1.184,1.184,0,0,0,.584.159,1.759,1.759,0,0,0,.89-.307c.15-.089.915-.551,1.08-.652v.076a1.243,1.243,0,1,0,2.486,0V373.6a1.267,1.267,0,0,0-.008-.138l1.512-.933A1.243,1.243,0,0,0,207.475,370.821Z" transform="translate(-166.766 -308.963)"/>
      <path id="Trazado_105405" data-name="Trazado 105405" d="M274.206,373.567c-.457-.259-3.366-2.048-5.15-3.151a1.243,1.243,0,0,0-1.307,2.114l1.512.933a1.257,1.257,0,0,0-.008.138v1.458a1.243,1.243,0,0,0,2.486,0v-.076c.165.1.93.563,1.08.652a1.759,1.759,0,0,0,.89.307,1.184,1.184,0,0,0,.584-.159,1.243,1.243,0,0,0-.087-2.216Z" transform="translate(-222.889 -308.963)"/>
      <path id="Trazado_105406" data-name="Trazado 105406" d="M51.417,214.746c-1.931-1.037-4.1-2.215-4.486-2.44a1.243,1.243,0,0,0-1.968,1.026c.01.738.407.957,1.366,1.485l.83.454v1.561a1.243,1.243,0,0,0,2.486,0v-.217l.6.32a1.243,1.243,0,1,0,1.176-2.19Z" transform="translate(-37.513 -177.014)"/>
      <path id="Trazado_105407" data-name="Trazado 105407" d="M115.244,212.237a1.242,1.242,0,0,0-1.341.069c-.38.224-2.555,1.4-4.486,2.44a1.243,1.243,0,1,0,1.176,2.19l.6-.32v.217a1.243,1.243,0,1,0,2.486,0v-1.561l.83-.454c.959-.528,1.356-.747,1.366-1.485a1.243,1.243,0,0,0-.627-1.1Z" transform="translate(-90.739 -177.014)"/>
      <path id="Trazado_105408" data-name="Trazado 105408" d="M228.6,439.34a11.287,11.287,0,0,0-12.711,0,1.243,1.243,0,1,0,1.4,2.054,8.8,8.8,0,0,1,9.911,0,1.243,1.243,0,0,0,1.4-2.054Z" transform="translate(-179.658 -364.986)"/>
      <path id="Trazado_105409" data-name="Trazado 105409" d="M68.147,263.747a5.67,5.67,0,0,0-5.663,5.663v.163a2.2,2.2,0,0,0,2.2,2.2h8.187a2.2,2.2,0,0,0,2.2-2.2v-.163a5.67,5.67,0,0,0-5.663-5.663Zm4.43,5.538H64.972a3.182,3.182,0,0,1,3.175-3.052H69.4A3.182,3.182,0,0,1,72.577,269.285Z" transform="translate(-52.13 -220.125)"/>
    </g>
  </g>
</svg>
