<svg xmlns="http://www.w3.org/2000/svg" width="73.556" height="73.558" viewBox="0 0 73.556 73.558">
  <g id="_43" data-name="43" transform="translate(-0.008 0)">
    <path id="XMLID_1889_" d="M57.828,140.628H12.759a2.751,2.751,0,0,1-2.751-2.751V82.751A2.751,2.751,0,0,1,12.759,80H57.828a2.751,2.751,0,0,1,2.751,2.751v55.126A2.751,2.751,0,0,1,57.828,140.628Z" transform="translate(-8.563 -68.507)" fill="#fff"/>
    <path id="XMLID_1919_" d="M118.275,176.682a13.656,13.656,0,1,0-27.309-.229,13.6,13.6,0,0,0,2.837,8.333,9.549,9.549,0,0,0,17.076-5.875V177.5a6.357,6.357,0,0,0-6.381-6.381,6.259,6.259,0,0,0-6.137,6.258,3.226,3.226,0,0,0,3.129,3.241Z" transform="translate(-77.89 -139.41)" fill="#f6838d"/>
    <path id="XMLID_1453_" d="M128.379,14.166h-2.145a4.166,4.166,0,1,0-8.333,0h-2.133a4.428,4.428,0,0,0-4.428,4.428v1.462h21.467V18.595A4.428,4.428,0,0,0,128.379,14.166Z" transform="translate(-95.338 -8.563)" fill="#ffcb7c"/>
    <g id="XMLID_1576_" transform="translate(34.972 37.277)">
      <path id="XMLID_1582_" d="M327.554,322.626l19.832,19.832a3.479,3.479,0,0,1-4.919,4.919l-19.832-19.832Z" transform="translate(-311.247 -313.552)" fill="#d29976"/>
      <path id="XMLID_2733_" d="M0,0H6.957V7.312H0Z" transform="translate(11.377 13.994) rotate(-45)" fill="#b0e7f8"/>
      <path id="XMLID_1611_" d="M259.816,266.526v.012a7.066,7.066,0,0,1-14.132-.012,11.321,11.321,0,0,0-2.278-6.811.156.156,0,0,1,.124-.249h9.225A7.06,7.06,0,0,1,259.816,266.526Z" transform="translate(-243.375 -259.466)" fill="#f8a2aa"/>
    </g>
    <g id="XMLID_257_" transform="translate(0.008 0)">
      <path id="XMLID_567_" d="M72.127,65.167,53.453,46.493V32.238a1.437,1.437,0,1,0-2.873,0v6.325a8.473,8.473,0,0,0-6.226-2.723h-2.6a15.306,15.306,0,0,0-5.648-10.527,14.918,14.918,0,0,0-12.553-3.026A15.1,15.1,0,0,0,11.639,37.043a14.949,14.949,0,0,0,3.136,9.211,10.849,10.849,0,0,0,8.56,4.24h.088a11,11,0,0,0,11-10.993V39.24a9.952,9.952,0,0,1,1.419,5.1,8.5,8.5,0,0,0,9.935,8.386l4.8,4.8V69.371a1.316,1.316,0,0,1-1.314,1.314H4.2a1.316,1.316,0,0,1-1.314-1.314V14.244A1.316,1.316,0,0,1,4.2,12.93H49.265a1.316,1.316,0,0,1,1.314,1.314v5.064a1.437,1.437,0,1,0,2.873,0V14.244a4.192,4.192,0,0,0-4.188-4.188H38.906v-.026a5.872,5.872,0,0,0-5.865-5.865h-.895a5.6,5.6,0,0,0-10.833,0h-.883a5.872,5.872,0,0,0-5.865,5.865v.026H4.2A4.192,4.192,0,0,0,.008,14.244V69.371A4.192,4.192,0,0,0,4.2,73.558H49.265a4.192,4.192,0,0,0,4.188-4.188V60.4L65.175,72.119a4.915,4.915,0,0,0,6.951-6.951ZM17.44,10.031A3,3,0,0,1,20.431,7.04h2.133A1.437,1.437,0,0,0,24,5.6a2.73,2.73,0,1,1,5.459,0A1.437,1.437,0,0,0,30.9,7.04h2.145a3,3,0,0,1,2.991,2.991v.026H17.44ZM35.128,35.84a1.583,1.583,0,0,0-.948.316,7.938,7.938,0,0,0-2.119-3.682,7.557,7.557,0,0,0-5.48-2.2,7.7,7.7,0,0,0-7.546,7.694A4.685,4.685,0,0,0,23.6,42.645a1.437,1.437,0,1,0,0-2.873,1.8,1.8,0,0,1-1.693-1.8,4.846,4.846,0,0,1,4.728-4.821,4.722,4.722,0,0,1,3.412,1.379,5.029,5.029,0,0,1,1.5,3.566V39.5a8.124,8.124,0,0,1-8.13,8.119h-.065A7.993,7.993,0,0,1,17.05,44.5a12.1,12.1,0,0,1-2.538-7.456A12.274,12.274,0,0,1,24.155,25.1,12.058,12.058,0,0,1,34.3,27.548a12.449,12.449,0,0,1,4.567,8.293H35.128Zm3.59,8.5a12.833,12.833,0,0,0-1.309-5.623h6.945a5.63,5.63,0,0,1,5.623,5.623v.012a5.629,5.629,0,1,1-11.259-.012Zm12.911,4.4,2.708,2.708L51.45,54.329l-2.707-2.707A8.562,8.562,0,0,0,51.629,48.733ZM70.095,70.087a2.044,2.044,0,0,1-2.888,0L53.481,56.361l2.888-2.888L70.095,67.2A2.044,2.044,0,0,1,70.095,70.087Z" transform="translate(-0.008 0)"/>
      <path id="XMLID_572_" d="M56.46,412.98a2.7,2.7,0,0,1,3.811,0,5.575,5.575,0,0,0,7.874,0,2.7,2.7,0,0,1,3.811,0,5.568,5.568,0,0,0,7.874,0,2.7,2.7,0,0,1,3.811,0,5.568,5.568,0,0,0,7.874,0,1.437,1.437,0,0,0-2.032-2.032,2.694,2.694,0,0,1-3.811,0,5.575,5.575,0,0,0-7.874,0,2.695,2.695,0,0,1-3.811,0,5.574,5.574,0,0,0-7.874,0,2.694,2.694,0,0,1-3.811,0,5.574,5.574,0,0,0-7.874,0,1.437,1.437,0,0,0,2.032,2.032Z" transform="translate(-46.25 -350.513)"/>
      <path id="XMLID_573_" d="M353.445,169.39a1.437,1.437,0,1,0,1.016.421A1.447,1.447,0,0,0,353.445,169.39Z" transform="translate(-301.437 -145.054)"/>
    </g>
  </g>
</svg>
