<svg xmlns="http://www.w3.org/2000/svg" width="85" height="76.367" viewBox="0 0 85 76.367">
  <g id="_45" data-name="45" transform="translate(0 0)">
    <path id="Trazado_105452" data-name="Trazado 105452" d="M223.81,48.282a21.516,21.516,0,0,0,6.311-15.039C230.121,20.406,217.233,10,202.562,10S176,20.406,176,33.242l26.562,23.242a35.222,35.222,0,0,0,11.988-2.077,16.555,16.555,0,0,0,12.25,5.4,11.738,11.738,0,0,1-2.99-11.523Zm0,0" transform="translate(-146.781 -8.34)" fill="#e87288"/>
    <path id="Trazado_105453" data-name="Trazado 105453" d="M51.246,153.32c7.715,4.067,12.875,11.467,12.875,19.922,0,12.836-11.892,23.242-26.562,23.242a35.222,35.222,0,0,1-11.988-2.077,16.555,16.555,0,0,1-12.25,5.4,11.738,11.738,0,0,0,2.99-11.523A21.516,21.516,0,0,1,10,173.242C10,160.406,22.887,150,37.558,150a29.322,29.322,0,0,1,13.688,3.32Zm0,0" transform="translate(-8.34 -125.098)" fill="#cae9fc"/>
    <path id="Trazado_105454" data-name="Trazado 105454" d="M247.66,100a1.66,1.66,0,1,0,1.66,1.66A1.661,1.661,0,0,0,247.66,100Zm0,0" transform="translate(-205.16 -83.399)"/>
    <path id="Trazado_105455" data-name="Trazado 105455" d="M81.66,263.32A1.66,1.66,0,1,0,80,261.66,1.661,1.661,0,0,0,81.66,263.32Zm0,0" transform="translate(-66.719 -216.836)"/>
    <path id="Trazado_105456" data-name="Trazado 105456" d="M55.781,0C40.835,0,28.568,10.3,27.62,23.284,13.386,24,0,34.262,0,48.144A23.2,23.2,0,0,0,6.475,64.021a10.1,10.1,0,0,1-2.668,9.512A1.66,1.66,0,0,0,4.98,76.367a18.313,18.313,0,0,0,12.688-5.128,37.832,37.832,0,0,0,11.55,1.808c14.944,0,27.21-10.3,28.161-23.279A37.331,37.331,0,0,0,67.332,48,18.313,18.313,0,0,0,80.02,53.125a1.66,1.66,0,0,0,1.174-2.834,10.1,10.1,0,0,1-2.668-9.512A23.2,23.2,0,0,0,85,24.9C85,10.477,70.583,0,55.781,0ZM29.219,69.726a33.56,33.56,0,0,1-11.374-1.959,1.66,1.66,0,0,0-1.839.422A14.98,14.98,0,0,1,8.555,72.61a13.426,13.426,0,0,0,1.012-9.881,1.657,1.657,0,0,0-.406-.7A19.95,19.95,0,0,1,3.32,48.144c0-11.7,11.86-21.582,25.9-21.582,13.257,0,24.9,9.218,24.9,21.582,0,11.9-11.171,21.582-24.9,21.582Zm46.62-30.941a1.665,1.665,0,0,0-.406.7,13.426,13.426,0,0,0,1.012,9.881,14.975,14.975,0,0,1-7.451-4.421,1.661,1.661,0,0,0-1.839-.422,32.7,32.7,0,0,1-9.781,1.918A23.763,23.763,0,0,0,48.4,29.882H70.059a1.66,1.66,0,1,0,0-3.32H43.3A30.962,30.962,0,0,0,30.948,23.29C31.9,12.14,42.676,3.32,55.781,3.32c14.039,0,25.9,9.883,25.9,21.582a19.95,19.95,0,0,1-5.841,13.883Zm0,0"/>
    <path id="Trazado_105457" data-name="Trazado 105457" d="M142.578,260H121.66a1.66,1.66,0,1,0,0,3.32h20.918a1.66,1.66,0,1,0,0-3.32Zm0,0" transform="translate(-100.078 -216.836)"/>
    <path id="Trazado_105458" data-name="Trazado 105458" d="M109.219,320H81.66a1.66,1.66,0,0,0,0,3.32h27.559a1.66,1.66,0,0,0,0-3.32Zm0,0" transform="translate(-66.719 -266.875)"/>
    <path id="Trazado_105459" data-name="Trazado 105459" d="M308.578,100H287.66a1.66,1.66,0,1,0,0,3.32h20.918a1.66,1.66,0,1,0,0-3.32Zm0,0" transform="translate(-238.52 -83.399)"/>
  </g>
</svg>
