<svg xmlns="http://www.w3.org/2000/svg" width="85.999" height="76.837" viewBox="0 0 85.999 76.837">
  <g id="_46" data-name="46" transform="translate(0 -27.272)">
    <path id="Trazado_105460" data-name="Trazado 105460" d="M131.76,236.407l20.869,9.37v-37.35l-17.976-9.37Z" transform="translate(-109.629 -142.93)" fill="#44c868"/>
    <path id="Trazado_105461" data-name="Trazado 105461" d="M133.309,302.387l19.32,29.365-20.869-9.37Z" transform="translate(-109.629 -228.905)" fill="#7ee5f2"/>
    <path id="Trazado_105462" data-name="Trazado 105462" d="M28.384,236.407l-20.869,9.37,6.757-37.255,17.005-9.466Z" transform="translate(-6.253 -142.93)" fill="#4ce166"/>
    <path id="Trazado_105463" data-name="Trazado 105463" d="M11.028,312.38l18.9-9.993-1.549,19.995-20.869,9.37Z" transform="translate(-6.253 -228.905)" fill="#a8eefc"/>
    <path id="Trazado_105464" data-name="Trazado 105464" d="M365.92,236.407l20.869,9.37-6.756-37.255-17.005-9.466Z" transform="translate(-302.051 -142.93)" fill="#44c868"/>
    <path id="Trazado_105465" data-name="Trazado 105465" d="M368.127,249.9l20.825,24.189-4.676-25.784-2.577-1.435Z" transform="translate(-306.294 -182.716)" fill="#7ee5f2"/>
    <path id="Trazado_105466" data-name="Trazado 105466" d="M276.874,236.407l-20.869,9.37v-37.35l17.976-9.37Z" transform="translate(-213.005 -142.93)" fill="#4ce166"/>
    <path id="Trazado_105467" data-name="Trazado 105467" d="M28.432,277.2l18.9-9.993.55-7.1L29.8,269.632Z" transform="translate(-23.656 -193.723)" fill="#ffdb56"/>
    <g id="Grupo_55599" data-name="Grupo 55599" transform="translate(23.68 59.624)">
      <path id="Trazado_105468" data-name="Trazado 105468" d="M160.305,262.789,141.53,260.1l-.55,7.1,19.32,29.365V285.891l-11.529-18.169,11.534,1.381Z" transform="translate(-140.98 -253.347)" fill="#ffbb24"/>
      <path id="Trazado_105469" data-name="Trazado 105469" d="M365.755,227.445l13.571-3.029-8.144-4.533-5.906,1.381Z" transform="translate(-327.602 -219.883)" fill="#ffbb24"/>
    </g>
    <path id="Trazado_105470" data-name="Trazado 105470" d="M275.549,243.142l-.732-9.456h0l-.432-5.581-18.349,8.061v6.314l11.986-5.216Z" transform="translate(-213.03 -167.1)" fill="#ffdb56"/>
    <path id="Trazado_105471" data-name="Trazado 105471" d="M368.813,273.763l22.219,26.8-2.08-11.471-20.825-24.189Z" transform="translate(-306.294 -197.721)" fill="#ffbb24"/>
    <path id="Trazado_105472" data-name="Trazado 105472" d="M175.274,34.787a16.4,16.4,0,0,0-16.395,16.395c0,13.788,16.395,26.475,16.395,26.475s16.395-12.687,16.395-26.475A16.4,16.4,0,0,0,175.274,34.787Zm0,22.934a6.539,6.539,0,1,1,6.539-6.539A6.539,6.539,0,0,1,175.274,57.721Z" transform="translate(-132.193 -6.253)" fill="#ff4a4a"/>
    <path id="Trazado_105473" data-name="Trazado 105473" d="M245.232,34.787a16.538,16.538,0,0,0-2.272.158,16.4,16.4,0,0,1,14.123,16.237c0,10.563-9.621,20.479-14.123,24.54,1.375,1.24,2.272,1.935,2.272,1.935s16.395-12.687,16.395-26.475A16.4,16.4,0,0,0,245.232,34.787Z" transform="translate(-202.151 -6.253)" fill="#e7343f"/>
    <path id="Trazado_105474" data-name="Trazado 105474" d="M256.005,413.642l7.192,7.449-7.192,3.229Z" transform="translate(-213.005 -321.473)" fill="#ffdb56"/>
    <path id="Trazado_105475" data-name="Trazado 105475" d="M85.733,103.62l.019-.023a1.262,1.262,0,0,0,.1-.16c.008-.016.014-.032.022-.048a1.294,1.294,0,0,0,.053-.125c.008-.021.014-.043.02-.066q.017-.059.029-.12c0-.023.008-.047.011-.07a1.282,1.282,0,0,0,.009-.13c0-.021,0-.041,0-.062a1.249,1.249,0,0,0-.019-.194L80.941,74.84a1.262,1.262,0,1,0-2.484.45l2.13,11.746L64.164,67.959,75.21,65.494l1.636.911.71,3.916a1.262,1.262,0,1,0,2.484-.45l-.817-4.5a1.262,1.262,0,0,0-.628-.878h0L61.588,55.022h0a1.253,1.253,0,0,0-.149-.07l-.049-.016c-.035-.012-.071-.024-.107-.034-.02-.005-.041-.008-.062-.012s-.065-.013-.1-.017-.044,0-.067,0-.063,0-.1,0l-.068,0c-.031,0-.062,0-.094.009l-.068.012c-.031.006-.061.013-.091.021l-.068.02c-.029.01-.058.021-.087.033s-.044.019-.066.029l-.029.013-2.884,1.5a24.545,24.545,0,0,0,3.229-11.581,17.657,17.657,0,1,0-35.314,0,24.622,24.622,0,0,0,3.291,11.7l-3.107-1.62-.03-.013c-.021-.01-.043-.019-.064-.029s-.058-.024-.088-.034l-.067-.02q-.045-.012-.091-.021l-.068-.012c-.031,0-.062-.007-.093-.009l-.069,0c-.031,0-.062,0-.093,0s-.046,0-.07.005-.062.01-.094.016-.044.008-.066.013-.068.02-.1.032c-.018.006-.036.011-.053.018a1.271,1.271,0,0,0-.149.07h0l-17,9.466a1.261,1.261,0,0,0-.628.878h0l-4.79,26.41h0a1.262,1.262,0,1,0,2.484.45L5.908,84.3l16.336-8.636L20.931,92.632l-18,8.082.633-3.494a1.262,1.262,0,1,0-2.484-.45L.02,102.622A1.262,1.262,0,0,0,1.779,104L22.131,94.86l20.343,9.134h0l.007,0,.035.014.057.022.056.019.036.01.048.012c.026.006.053.011.079.015l.038.007.026,0a1.243,1.243,0,0,0,.127.008h.024a1.263,1.263,0,0,0,.153-.011l.019,0,.029-.006a1.2,1.2,0,0,0,.118-.026l.032-.008h0l.01,0a1.251,1.251,0,0,0,.145-.054L63.869,94.86h0L84.221,104c.02.009.04.015.06.023s.039.016.06.023.053.015.08.022.033.01.05.013c.032.007.065.012.1.016l.035.006a1.246,1.246,0,0,0,.135.007h0a1.278,1.278,0,0,0,.184-.015l.042-.007a1.232,1.232,0,0,0,.179-.045l.011,0a1.169,1.169,0,0,0,.116-.047c.011-.005.021-.013.032-.018.032-.016.062-.034.093-.053s.061-.037.09-.059c.01-.007.021-.013.031-.02s.041-.037.062-.056.034-.029.05-.045A1.227,1.227,0,0,0,85.733,103.62ZM50.484,98.1l-6.221-6.444V76.21l10.544-4.589,6.5,5.073,1.239,15.994ZM44.262,100.9v-5.6L48.036,99.2ZM39.311,69.812c1.05.975,1.9,1.7,2.427,2.131v2.015L31.621,72.746a1.262,1.262,0,0,0-1.216,1.93L41.738,92.536v6.1L24.972,73.149l.205-2.653.207-2.676Zm9.534-1.933,11.388-5,.806,10.409-5.271-4.116a1.263,1.263,0,0,0-1.281-.163l-10.22,4.448V72.072A59.327,59.327,0,0,0,48.845,67.879ZM63.4,71.116l-.014-.188L81.477,91.939l1.16,6.395L63.746,75.545Zm-.987-12.744,1.377.766-1.294.3Zm-28.454,17.2,7.776.931V87.824Zm-9.309,1.689L39.564,99.92,23.458,92.689Zm39.431,2.65L80.3,99.47l-15.23-6.838Zm7.809-16.261-8.915,1.99-.283-3.65,4.376-1.023,4.821,2.684ZM59.865,58.128l.161,2.081-7.114,3.125q1.059-1.313,1.976-2.613ZM43.081,29.8A15.15,15.15,0,0,1,58.214,44.929c0,11.323-11.945,22.155-15.133,24.843-3.187-2.688-15.132-13.52-15.132-24.843A15.15,15.15,0,0,1,43.081,29.8ZM33.916,64.147c.809.966,1.615,1.863,2.39,2.685L25.58,65.3l.555-7.169,5.232,2.727Q32.53,62.49,33.916,64.147ZM23.584,58.372l-.363,4.683-.2,2.533-15.173,8,1.3-7.18ZM6.481,81.146l.779-4.3.02-.111,15.515-8.177-.32,4.128Z" transform="translate(0)"/>
    <path id="Trazado_105476" data-name="Trazado 105476" d="M225.644,93.751a7.81,7.81,0,0,0-7.8-7.8,1.262,1.262,0,0,0,0,2.525,5.277,5.277,0,1,1-3.764,1.579,1.262,1.262,0,1,0-1.8-1.769,7.8,7.8,0,1,0,13.366,5.467Z" transform="translate(-174.762 -48.822)"/>
  </g>
</svg>
