<svg xmlns="http://www.w3.org/2000/svg" width="555.771" height="297.268" viewBox="0 0 555.771 297.268">
  <g id="Grupo_124214" data-name="Grupo 124214" transform="translate(-215.674 -13132)">
    <g id="Elipse_4070" data-name="Elipse 4070" transform="translate(382 13132)" fill="#f57c00" stroke="#12263f" stroke-width="3">
      <ellipse cx="128.5" cy="133" rx="128.5" ry="133" stroke="none"/>
      <ellipse cx="128.5" cy="133" rx="127" ry="131.5" fill="none"/>
    </g>
    <g id="Elipse_4071" data-name="Elipse 4071" transform="translate(446 13178)" fill="#26c6da" stroke="#12263f" stroke-width="3">
      <ellipse cx="90" cy="94" rx="90" ry="94" stroke="none"/>
      <ellipse cx="90" cy="94" rx="88.5" ry="92.5" fill="none"/>
    </g>
    <g id="Elipse_4072" data-name="Elipse 4072" transform="translate(403 13215)" fill="#fdd835" stroke="#12263f" stroke-width="3">
      <ellipse cx="76" cy="79.5" rx="76" ry="79.5" stroke="none"/>
      <ellipse cx="76" cy="79.5" rx="74.5" ry="78" fill="none"/>
    </g>
    <g id="Elipse_4073" data-name="Elipse 4073" transform="translate(429 13144)" fill="#ffa726" stroke="#12263f" stroke-width="3">
      <ellipse cx="66.5" cy="69" rx="66.5" ry="69" stroke="none"/>
      <ellipse cx="66.5" cy="69" rx="65" ry="67.5" fill="none"/>
    </g>
    <path id="Trazado_119439" data-name="Trazado 119439" d="M5.576-14.219,8.75-4.326l3.164-9.893h4.512V0H12.988V-3.32l.332-6.8L9.883,0H7.617L4.17-10.127,4.5-3.32V0H1.074V-14.219ZM23.564.2a5.432,5.432,0,0,1-3.936-1.45,5.008,5.008,0,0,1-1.5-3.774V-5.3a6.489,6.489,0,0,1,.6-2.861,4.395,4.395,0,0,1,1.753-1.919,5.292,5.292,0,0,1,2.734-.679A4.574,4.574,0,0,1,26.729-9.38a5.43,5.43,0,0,1,1.289,3.853v1.279H21.475a2.372,2.372,0,0,0,.771,1.4,2.3,2.3,0,0,0,1.543.508A2.958,2.958,0,0,0,26.23-3.437l1.5,1.777A4.2,4.2,0,0,1,25.991-.308,5.891,5.891,0,0,1,23.564.2Zm-.371-8.418q-1.445,0-1.719,1.914h3.32v-.254a1.63,1.63,0,0,0-.4-1.226A1.593,1.593,0,0,0,23.193-8.223Zm9.17-2.344.107,1.24a3.583,3.583,0,0,1,3.018-1.436,3.015,3.015,0,0,1,2.466.986A4.7,4.7,0,0,1,38.8-6.807V0H35.5V-6.67a1.783,1.783,0,0,0-.322-1.177A1.491,1.491,0,0,0,34-8.223a1.569,1.569,0,0,0-1.436.762V0H29.277V-10.566Zm13.789,7.6a.76.76,0,0,0-.439-.674,6.685,6.685,0,0,0-1.67-.527,7.615,7.615,0,0,1-2.031-.718,3.4,3.4,0,0,1-1.221-1.079,2.577,2.577,0,0,1-.42-1.455,2.92,2.92,0,0,1,1.2-2.4,4.948,4.948,0,0,1,3.145-.942,5.482,5.482,0,0,1,3.359.947,2.962,2.962,0,0,1,1.27,2.49h-3.3q0-1.27-1.338-1.27a1.326,1.326,0,0,0-.869.288.892.892,0,0,0-.352.718.819.819,0,0,0,.43.713,4.06,4.06,0,0,0,1.372.449,11.857,11.857,0,0,1,1.655.42,3.007,3.007,0,0,1,2.383,2.939A2.767,2.767,0,0,1,48.042-.713,5.632,5.632,0,0,1,44.717.2a5.747,5.747,0,0,1-2.422-.488,4.05,4.05,0,0,1-1.66-1.328,3.007,3.007,0,0,1-.6-1.768h3.076A1.272,1.272,0,0,0,43.6-2.319a2.009,2.009,0,0,0,1.2.337,1.58,1.58,0,0,0,1.011-.273A.875.875,0,0,0,46.152-2.969ZM56.816,0A3.716,3.716,0,0,1,56.5-.947,3.06,3.06,0,0,1,53.965.2a3.749,3.749,0,0,1-2.539-.9,2.875,2.875,0,0,1-1.045-2.271,2.955,2.955,0,0,1,1.27-2.6,6.468,6.468,0,0,1,3.691-.879h1.016v-.559q0-1.462-1.26-1.462a1.03,1.03,0,0,0-1.172,1.158H50.635a2.95,2.95,0,0,1,1.3-2.487,5.479,5.479,0,0,1,3.325-.956,4.8,4.8,0,0,1,3.193.986,3.429,3.429,0,0,1,1.2,2.705v4.678a4.79,4.79,0,0,0,.449,2.227V0ZM54.756-2.148a1.836,1.836,0,0,0,1.021-.264,1.653,1.653,0,0,0,.581-.6V-4.7H55.4q-1.719,0-1.719,1.543a.942.942,0,0,0,.3.728A1.1,1.1,0,0,0,54.756-2.148ZM65.02-10.566V.361a3.836,3.836,0,0,1-1.074,2.891,4.127,4.127,0,0,1-2.969,1.016A7.009,7.009,0,0,1,59.424,4.1V1.611a6.3,6.3,0,0,0,.928.088A1.2,1.2,0,0,0,61.719.342V-10.566ZM61.475-13.3a1.482,1.482,0,0,1,.508-1.159,1.909,1.909,0,0,1,1.318-.452,1.909,1.909,0,0,1,1.318.452,1.482,1.482,0,0,1,.508,1.159,1.482,1.482,0,0,1-.508,1.159,1.909,1.909,0,0,1-1.318.452,1.909,1.909,0,0,1-1.318-.452A1.482,1.482,0,0,1,61.475-13.3ZM71.992.2a5.432,5.432,0,0,1-3.936-1.45,5.008,5.008,0,0,1-1.5-3.774V-5.3a6.489,6.489,0,0,1,.6-2.861,4.395,4.395,0,0,1,1.753-1.919,5.292,5.292,0,0,1,2.734-.679A4.574,4.574,0,0,1,75.156-9.38a5.43,5.43,0,0,1,1.289,3.853v1.279H69.9a2.372,2.372,0,0,0,.771,1.4,2.3,2.3,0,0,0,1.543.508,2.958,2.958,0,0,0,2.441-1.094l1.5,1.777A4.2,4.2,0,0,1,74.419-.308,5.891,5.891,0,0,1,71.992.2Zm-.371-8.418q-1.445,0-1.719,1.914h3.32v-.254a1.63,1.63,0,0,0-.4-1.226A1.593,1.593,0,0,0,71.621-8.223Z" transform="translate(695 13373)" fill="#12263f"/>
    <path id="Trazado_119442" data-name="Trazado 119442" d="M12.578-4.814a5.193,5.193,0,0,1-.8,2.622A4.833,4.833,0,0,1,9.722-.43,7,7,0,0,1,6.7.2,5.584,5.584,0,0,1,2.285-1.631,7.54,7.54,0,0,1,.674-6.787v-.7A8.607,8.607,0,0,1,1.4-11.147,5.513,5.513,0,0,1,3.5-13.569a5.844,5.844,0,0,1,3.164-.854,6.129,6.129,0,0,1,4.16,1.362,5.383,5.383,0,0,1,1.787,3.755H9.189a2.547,2.547,0,0,0-.654-1.865,2.691,2.691,0,0,0-1.875-.566,2.048,2.048,0,0,0-1.875.957A6.151,6.151,0,0,0,4.16-7.725v1.006a6.806,6.806,0,0,0,.571,3.252A2.091,2.091,0,0,0,6.7-2.49a2.632,2.632,0,0,0,1.807-.557A2.363,2.363,0,0,0,9.17-4.814Zm1.055-.566A6.236,6.236,0,0,1,14.248-8.2a4.4,4.4,0,0,1,1.768-1.9,5.323,5.323,0,0,1,2.705-.664,4.858,4.858,0,0,1,3.74,1.47,5.64,5.64,0,0,1,1.367,4v.117a5.472,5.472,0,0,1-1.372,3.921A4.871,4.871,0,0,1,18.74.2a4.927,4.927,0,0,1-3.623-1.353,5.29,5.29,0,0,1-1.475-3.667Zm3.291.205a3.932,3.932,0,0,0,.459,2.148,1.529,1.529,0,0,0,1.357.684q1.758,0,1.8-2.705v-.332q0-2.842-1.816-2.842-1.65,0-1.787,2.451ZM28.3-10.566l.107,1.24a3.583,3.583,0,0,1,3.018-1.436,3.015,3.015,0,0,1,2.466.986,4.7,4.7,0,0,1,.845,2.969V0h-3.3V-6.67a1.783,1.783,0,0,0-.322-1.177,1.491,1.491,0,0,0-1.172-.376,1.569,1.569,0,0,0-1.436.762V0H25.215V-10.566Zm13.789,7.6a.76.76,0,0,0-.439-.674,6.685,6.685,0,0,0-1.67-.527,7.615,7.615,0,0,1-2.031-.718,3.4,3.4,0,0,1-1.221-1.079,2.577,2.577,0,0,1-.42-1.455,2.92,2.92,0,0,1,1.2-2.4,4.948,4.948,0,0,1,3.145-.942,5.482,5.482,0,0,1,3.359.947,2.962,2.962,0,0,1,1.27,2.49h-3.3q0-1.27-1.338-1.27a1.326,1.326,0,0,0-.869.288.892.892,0,0,0-.352.718.819.819,0,0,0,.43.713,4.06,4.06,0,0,0,1.372.449,11.857,11.857,0,0,1,1.655.42,3.007,3.007,0,0,1,2.383,2.939A2.767,2.767,0,0,1,43.979-.713,5.632,5.632,0,0,1,40.654.2a5.747,5.747,0,0,1-2.422-.488,4.05,4.05,0,0,1-1.66-1.328,3.007,3.007,0,0,1-.6-1.768h3.076a1.272,1.272,0,0,0,.488,1.069,2.009,2.009,0,0,0,1.2.337,1.58,1.58,0,0,0,1.011-.273A.875.875,0,0,0,42.09-2.969Zm8.545-10.225v2.627h1.738v2.285H50.635v4.834a1.234,1.234,0,0,0,.215.83,1.152,1.152,0,0,0,.85.234,4.828,4.828,0,0,0,.82-.059V-.088A6.074,6.074,0,0,1,50.664.2a3.448,3.448,0,0,1-2.51-.8,3.282,3.282,0,0,1-.811-2.432V-8.281H46v-2.285h1.348v-2.627Zm9.424,5.605-1.084-.078a1.947,1.947,0,0,0-1.992.977V0H53.691V-10.566h3.086l.107,1.357A2.548,2.548,0,0,1,59.2-10.762a3.209,3.209,0,0,1,.918.117Zm7.48,6.445A3.393,3.393,0,0,1,64.717.2,3.328,3.328,0,0,1,62.085-.815a4.251,4.251,0,0,1-.894-2.905v-6.846h3.291V-3.7A1.183,1.183,0,0,0,65.8-2.344a1.72,1.72,0,0,0,1.611-.811v-7.412h3.311V0H67.637Zm9.453-1.2a1.464,1.464,0,0,0,1.074-.376,1.379,1.379,0,0,0,.371-1.05h3.086A3.653,3.653,0,0,1,80.278-.918,4.631,4.631,0,0,1,77.07.2,4.689,4.689,0,0,1,73.438-1.25a5.7,5.7,0,0,1-1.328-4v-.137A6.436,6.436,0,0,1,72.7-8.218,4.3,4.3,0,0,1,74.4-10.1a5.081,5.081,0,0,1,2.637-.659,4.573,4.573,0,0,1,3.271,1.143,4.053,4.053,0,0,1,1.211,3.1H78.438a1.806,1.806,0,0,0-.4-1.26,1.382,1.382,0,0,0-1.074-.439q-1.279,0-1.494,1.631A11.508,11.508,0,0,0,75.4-5.166a4.52,4.52,0,0,0,.381,2.207A1.319,1.319,0,0,0,76.992-2.344Zm10.391,0a1.464,1.464,0,0,0,1.074-.376,1.379,1.379,0,0,0,.371-1.05h3.086A3.653,3.653,0,0,1,90.669-.918,4.631,4.631,0,0,1,87.461.2,4.689,4.689,0,0,1,83.828-1.25a5.7,5.7,0,0,1-1.328-4v-.137a6.436,6.436,0,0,1,.591-2.827,4.3,4.3,0,0,1,1.7-1.885,5.081,5.081,0,0,1,2.637-.659A4.573,4.573,0,0,1,90.7-9.619a4.053,4.053,0,0,1,1.211,3.1H88.828a1.806,1.806,0,0,0-.4-1.26,1.382,1.382,0,0,0-1.074-.439q-1.279,0-1.494,1.631a11.508,11.508,0,0,0-.068,1.426,4.52,4.52,0,0,0,.381,2.207A1.319,1.319,0,0,0,87.383-2.344ZM96.777,0h-3.3V-10.566h3.3Zm-3.5-13.3a1.482,1.482,0,0,1,.508-1.159,1.909,1.909,0,0,1,1.318-.452,1.909,1.909,0,0,1,1.318.452,1.482,1.482,0,0,1,.508,1.159,1.482,1.482,0,0,1-.508,1.159,1.909,1.909,0,0,1-1.318.452,1.909,1.909,0,0,1-1.318-.452A1.482,1.482,0,0,1,93.281-13.3Zm5.107,7.92A6.236,6.236,0,0,1,99-8.2a4.4,4.4,0,0,1,1.768-1.9,5.323,5.323,0,0,1,2.705-.664,4.858,4.858,0,0,1,3.74,1.47,5.64,5.64,0,0,1,1.367,4v.117a5.472,5.472,0,0,1-1.372,3.921A4.871,4.871,0,0,1,103.5.2a4.927,4.927,0,0,1-3.623-1.353A5.29,5.29,0,0,1,98.4-4.824Zm3.291.205a3.932,3.932,0,0,0,.459,2.148,1.529,1.529,0,0,0,1.357.684q1.758,0,1.8-2.705v-.332q0-2.842-1.816-2.842-1.65,0-1.787,2.451Zm11.377-5.391.107,1.24a3.583,3.583,0,0,1,3.018-1.436,3.015,3.015,0,0,1,2.466.986,4.7,4.7,0,0,1,.845,2.969V0h-3.3V-6.67a1.783,1.783,0,0,0-.322-1.177,1.491,1.491,0,0,0-1.172-.376,1.569,1.569,0,0,0-1.436.762V0h-3.291V-10.566ZM126.426.2a5.432,5.432,0,0,1-3.936-1.45,5.008,5.008,0,0,1-1.5-3.774V-5.3a6.489,6.489,0,0,1,.6-2.861,4.395,4.395,0,0,1,1.753-1.919,5.292,5.292,0,0,1,2.734-.679A4.574,4.574,0,0,1,129.59-9.38a5.43,5.43,0,0,1,1.289,3.853v1.279h-6.543a2.372,2.372,0,0,0,.771,1.4,2.3,2.3,0,0,0,1.543.508,2.958,2.958,0,0,0,2.441-1.094l1.5,1.777a4.2,4.2,0,0,1-1.743,1.353A5.891,5.891,0,0,1,126.426.2Zm-.371-8.418q-1.445,0-1.719,1.914h3.32v-.254a1.63,1.63,0,0,0-.4-1.226A1.593,1.593,0,0,0,126.055-8.223Zm11.68,5.254a.76.76,0,0,0-.439-.674,6.685,6.685,0,0,0-1.67-.527,7.615,7.615,0,0,1-2.031-.718,3.4,3.4,0,0,1-1.221-1.079,2.577,2.577,0,0,1-.42-1.455,2.92,2.92,0,0,1,1.2-2.4,4.948,4.948,0,0,1,3.145-.942,5.482,5.482,0,0,1,3.359.947,2.962,2.962,0,0,1,1.27,2.49h-3.3q0-1.27-1.338-1.27a1.326,1.326,0,0,0-.869.288.892.892,0,0,0-.352.718.819.819,0,0,0,.43.713,4.06,4.06,0,0,0,1.372.449,11.857,11.857,0,0,1,1.655.42,3.007,3.007,0,0,1,2.383,2.939,2.767,2.767,0,0,1-1.284,2.354A5.632,5.632,0,0,1,136.3.2a5.747,5.747,0,0,1-2.422-.488,4.05,4.05,0,0,1-1.66-1.328,3.007,3.007,0,0,1-.6-1.768H134.7a1.272,1.272,0,0,0,.488,1.069,2.009,2.009,0,0,0,1.2.337,1.58,1.58,0,0,0,1.011-.273A.875.875,0,0,0,137.734-2.969Z" transform="translate(215 13234)" fill="#12263f"/>
    <path id="Trazado_119441" data-name="Trazado 119441" d="M13.115-6.816a8.385,8.385,0,0,1-.771,3.682A5.7,5.7,0,0,1,10.151-.669,6.1,6.1,0,0,1,6.914.2,6.191,6.191,0,0,1,3.691-.64,5.692,5.692,0,0,1,1.5-3.027,8.144,8.144,0,0,1,.674-6.592v-.8a8.422,8.422,0,0,1,.767-3.687,5.688,5.688,0,0,1,2.2-2.466,6.147,6.147,0,0,1,3.257-.869,6.087,6.087,0,0,1,3.223.859,5.79,5.79,0,0,1,2.2,2.446,8.18,8.18,0,0,1,.8,3.638Zm-3.486-.6a5.979,5.979,0,0,0-.708-3.218,2.271,2.271,0,0,0-2.026-1.1q-2.578,0-2.725,3.867L4.16-6.816A6.149,6.149,0,0,0,4.854-3.6,2.268,2.268,0,0,0,6.914-2.48a2.24,2.24,0,0,0,2-1.1,5.982,5.982,0,0,0,.713-3.174ZM24.541-5.2A6.44,6.44,0,0,1,23.467-1.2,3.6,3.6,0,0,1,20.439.2a3.122,3.122,0,0,1-2.6-1.279L17.705,0H14.756V-15h3.291v5.283a3.013,3.013,0,0,1,2.373-1.045,3.6,3.6,0,0,1,3.047,1.416,6.473,6.473,0,0,1,1.074,3.984Zm-3.3-.21a4.3,4.3,0,0,0-.405-2.169,1.366,1.366,0,0,0-1.245-.648,1.576,1.576,0,0,0-1.543.848v4.192a1.585,1.585,0,0,0,1.563.838,1.4,1.4,0,0,0,1.475-1.131A8.121,8.121,0,0,0,21.24-5.405Zm8.291-5.161V.361a3.836,3.836,0,0,1-1.074,2.891,4.127,4.127,0,0,1-2.969,1.016A7.009,7.009,0,0,1,23.936,4.1V1.611a6.3,6.3,0,0,0,.928.088A1.2,1.2,0,0,0,26.23.342V-10.566ZM25.986-13.3a1.482,1.482,0,0,1,.508-1.159,1.909,1.909,0,0,1,1.318-.452,1.909,1.909,0,0,1,1.318.452,1.482,1.482,0,0,1,.508,1.159,1.482,1.482,0,0,1-.508,1.159,1.909,1.909,0,0,1-1.318.452,1.909,1.909,0,0,1-1.318-.452A1.482,1.482,0,0,1,25.986-13.3ZM36.5.2a5.432,5.432,0,0,1-3.936-1.45,5.008,5.008,0,0,1-1.5-3.774V-5.3a6.489,6.489,0,0,1,.6-2.861,4.395,4.395,0,0,1,1.753-1.919,5.292,5.292,0,0,1,2.734-.679A4.574,4.574,0,0,1,39.668-9.38a5.43,5.43,0,0,1,1.289,3.853v1.279H34.414a2.372,2.372,0,0,0,.771,1.4,2.3,2.3,0,0,0,1.543.508A2.958,2.958,0,0,0,39.17-3.437l1.5,1.777A4.2,4.2,0,0,1,38.931-.308,5.891,5.891,0,0,1,36.5.2Zm-.371-8.418q-1.445,0-1.719,1.914h3.32v-.254a1.63,1.63,0,0,0-.4-1.226A1.593,1.593,0,0,0,36.133-8.223Zm9.98-4.971v2.627h1.738v2.285H46.113v4.834a1.234,1.234,0,0,0,.215.83,1.152,1.152,0,0,0,.85.234A4.828,4.828,0,0,0,48-2.441V-.088A6.074,6.074,0,0,1,46.143.2a3.448,3.448,0,0,1-2.51-.8,3.282,3.282,0,0,1-.811-2.432V-8.281H41.475v-2.285h1.348v-2.627Zm2.324,7.813A6.236,6.236,0,0,1,49.053-8.2a4.4,4.4,0,0,1,1.768-1.9,5.323,5.323,0,0,1,2.705-.664,4.858,4.858,0,0,1,3.74,1.47,5.64,5.64,0,0,1,1.367,4v.117a5.472,5.472,0,0,1-1.372,3.921A4.871,4.871,0,0,1,53.545.2a4.927,4.927,0,0,1-3.623-1.353,5.29,5.29,0,0,1-1.475-3.667Zm3.291.205a3.932,3.932,0,0,0,.459,2.148,1.529,1.529,0,0,0,1.357.684q1.758,0,1.8-2.705v-.332q0-2.842-1.816-2.842-1.65,0-1.787,2.451ZM65.615-2.969a.76.76,0,0,0-.439-.674,6.685,6.685,0,0,0-1.67-.527,7.615,7.615,0,0,1-2.031-.718,3.4,3.4,0,0,1-1.221-1.079,2.577,2.577,0,0,1-.42-1.455,2.92,2.92,0,0,1,1.2-2.4,4.948,4.948,0,0,1,3.145-.942,5.482,5.482,0,0,1,3.359.947,2.962,2.962,0,0,1,1.27,2.49h-3.3q0-1.27-1.338-1.27a1.326,1.326,0,0,0-.869.288.892.892,0,0,0-.352.718.819.819,0,0,0,.43.713,4.06,4.06,0,0,0,1.372.449,11.857,11.857,0,0,1,1.655.42,3.007,3.007,0,0,1,2.383,2.939A2.767,2.767,0,0,1,67.5-.713,5.631,5.631,0,0,1,64.18.2a5.747,5.747,0,0,1-2.422-.488A4.05,4.05,0,0,1,60.1-1.621a3.007,3.007,0,0,1-.6-1.768h3.076a1.272,1.272,0,0,0,.488,1.069,2.009,2.009,0,0,0,1.2.337,1.58,1.58,0,0,0,1.011-.273A.875.875,0,0,0,65.615-2.969Z" transform="translate(285 13425)" fill="#12263f"/>
    <g id="Grupo_53761" data-name="Grupo 53761" transform="translate(0 9391)">
      <line id="Línea_137" data-name="Línea 137" x2="105" y2="67" transform="translate(580 3904)" fill="none" stroke="#12263f" stroke-width="3"/>
      <circle id="Elipse_4065" data-name="Elipse 4065" cx="5.5" cy="5.5" r="5.5" transform="translate(573 3898)" fill="#12263f"/>
    </g>
    <g id="Grupo_53762" data-name="Grupo 53762" transform="matrix(-0.719, 0.695, -0.695, -0.719, 3575.598, 15590.459)">
      <line id="Línea_137-2" data-name="Línea 137" x2="105" y2="67" transform="translate(580 3904)" fill="none" stroke="#12263f" stroke-width="3"/>
      <circle id="Elipse_4065-2" data-name="Elipse 4065" cx="5.5" cy="5.5" r="5.5" transform="translate(573 3898)" fill="#12263f"/>
    </g>
    <g id="Grupo_53763" data-name="Grupo 53763" transform="translate(4313.286 13971.15) rotate(108)">
      <line id="Línea_137-3" data-name="Línea 137" x2="105" y2="67" transform="translate(580 3904)" fill="none" stroke="#12263f" stroke-width="3"/>
      <circle id="Elipse_4065-3" data-name="Elipse 4065" cx="5.5" cy="5.5" r="5.5" transform="translate(573 3898)" fill="#12263f"/>
    </g>
    <g id="Grupo_53770" data-name="Grupo 53770" transform="translate(-2 9391)">
      <path id="Trazado_119440" data-name="Trazado 119440" d="M9.893-6.035H4.5v3.4h6.367V0H1.074V-14.219h9.814v2.646H4.5v3H9.893Zm5.244-4.531.107,1.24a3.583,3.583,0,0,1,3.018-1.436,3.015,3.015,0,0,1,2.466.986,4.7,4.7,0,0,1,.845,2.969V0h-3.3V-6.67a1.783,1.783,0,0,0-.322-1.177,1.491,1.491,0,0,0-1.172-.376,1.569,1.569,0,0,0-1.436.762V0H12.051V-10.566Zm12.09-2.627v2.627h1.738v2.285H27.227v4.834a1.234,1.234,0,0,0,.215.83,1.152,1.152,0,0,0,.85.234,4.828,4.828,0,0,0,.82-.059V-.088A6.074,6.074,0,0,1,27.256.2a3.448,3.448,0,0,1-2.51-.8,3.282,3.282,0,0,1-.811-2.432V-8.281H22.588v-2.285h1.348v-2.627Zm2.324,7.813A6.236,6.236,0,0,1,30.166-8.2a4.4,4.4,0,0,1,1.768-1.9,5.323,5.323,0,0,1,2.705-.664,4.858,4.858,0,0,1,3.74,1.47,5.64,5.64,0,0,1,1.367,4v.117a5.472,5.472,0,0,1-1.372,3.921A4.871,4.871,0,0,1,34.658.2a4.927,4.927,0,0,1-3.623-1.353,5.29,5.29,0,0,1-1.475-3.667Zm3.291.205A3.932,3.932,0,0,0,33.3-3.027a1.529,1.529,0,0,0,1.357.684q1.758,0,1.8-2.705v-.332q0-2.842-1.816-2.842-1.65,0-1.787,2.451ZM47.588-7.588,46.5-7.666a1.947,1.947,0,0,0-1.992.977V0H41.221V-10.566h3.086l.107,1.357a2.548,2.548,0,0,1,2.314-1.553,3.209,3.209,0,0,1,.918.117ZM51.8-10.566l.107,1.24a3.583,3.583,0,0,1,3.018-1.436,3.015,3.015,0,0,1,2.466.986,4.7,4.7,0,0,1,.845,2.969V0h-3.3V-6.67a1.783,1.783,0,0,0-.322-1.177,1.491,1.491,0,0,0-1.172-.376A1.569,1.569,0,0,0,52-7.461V0H48.711V-10.566Zm7.842,5.186A6.236,6.236,0,0,1,60.254-8.2a4.4,4.4,0,0,1,1.768-1.9,5.323,5.323,0,0,1,2.705-.664,4.858,4.858,0,0,1,3.74,1.47,5.64,5.64,0,0,1,1.367,4v.117a5.472,5.472,0,0,1-1.372,3.921A4.871,4.871,0,0,1,64.746.2a4.927,4.927,0,0,1-3.623-1.353,5.29,5.29,0,0,1-1.475-3.667Zm3.291.205a3.932,3.932,0,0,0,.459,2.148,1.529,1.529,0,0,0,1.357.684q1.758,0,1.8-2.705v-.332q0-2.842-1.816-2.842-1.65,0-1.787,2.451Z" transform="translate(665 3788)" fill="#12263f"/>
      <g id="Grupo_53764" data-name="Grupo 53764">
        <path id="Trazado_100469" data-name="Trazado 100469" d="M-8617-7938v-13.5h-104.5v27" transform="translate(9317 11700)" fill="none" stroke="#12263f" stroke-width="3"/>
        <circle id="Elipse_4074" data-name="Elipse 4074" cx="5.5" cy="5.5" r="5.5" transform="translate(694 3758)" fill="#12263f"/>
      </g>
    </g>
  </g>
</svg>
