<svg xmlns="http://www.w3.org/2000/svg" width="402.999" height="479" viewBox="0 0 402.999 479">
  <g id="_81" data-name="81" transform="translate(9524.5 -10622)">
    <rect id="Rectángulo_35452" data-name="Rectángulo 35452" width="400" height="479" transform="translate(-9523 10622)" fill="#92e6ed"/>
    <g id="Grupo_121516" data-name="Grupo 121516" transform="translate(-8785.849 10707.654)">
      <g id="Background_Complete" data-name="Background Complete" transform="translate(-737.151 67.02)">
        <g id="Grupo_120481" data-name="Grupo 120481" transform="translate(124.525 194.363)">
          <g id="Grupo_120480" data-name="Grupo 120480">
            <g id="Grupo_120479" data-name="Grupo 120479">
              <g id="Grupo_120478" data-name="Grupo 120478">
                <g id="Grupo_120477" data-name="Grupo 120477">
                  <g id="Grupo_120476" data-name="Grupo 120476">
                    <g id="Grupo_120475" data-name="Grupo 120475">
                      <path id="Trazado_118067" data-name="Trazado 118067" d="M-520.312,435.339A6.882,6.882,0,0,0-518,436.424c.755.015,3.2-.647,5.248-.689,1.774-.036,4.173.97,4.318,1.368s-.747.731-1.624.931a17.443,17.443,0,0,1-6.773,0c-1.535-.438-1.842-.792-2.649-.543-.584.18-2.05,1.031-2.25.734-.134-.2,1.791-1.393,1.791-1.393s-1.312-1.593-.961-1.683A.6.6,0,0,1-520.312,435.339Z" transform="translate(521.732 -435.132)" fill="#6edde6"/>
                    </g>
                  </g>
                </g>
              </g>
            </g>
          </g>
        </g>
        <g id="Grupo_120488" data-name="Grupo 120488" transform="translate(110.871 198.746)">
          <g id="Grupo_120487" data-name="Grupo 120487">
            <g id="Grupo_120486" data-name="Grupo 120486">
              <g id="Grupo_120485" data-name="Grupo 120485">
                <g id="Grupo_120484" data-name="Grupo 120484">
                  <g id="Grupo_120483" data-name="Grupo 120483">
                    <g id="Grupo_120482" data-name="Grupo 120482">
                      <path id="Trazado_118068" data-name="Trazado 118068" d="M-545.2,446.452a14.484,14.484,0,0,0,1.69-.21,4.271,4.271,0,0,1,3.253.4,14.623,14.623,0,0,0,7.314,1.936,18.227,18.227,0,0,0,4.308-.772c1.021-.273,1.106-.994.235-1.6a9.484,9.484,0,0,0-2.091-1.071,11.387,11.387,0,0,0-7.359-.388c-1.875.541-3.839.547-5.184-1.4-.215-.312-.721-.423-1.093-.626l-.246.281.991,2.028-1.97,1.009Q-545.277,446.243-545.2,446.452Z" transform="translate(545.352 -442.715)" fill="#6edde6"/>
                    </g>
                  </g>
                </g>
              </g>
            </g>
          </g>
        </g>
        <g id="Grupo_120495" data-name="Grupo 120495" transform="translate(332.482 183.195)">
          <g id="Grupo_120494" data-name="Grupo 120494" transform="translate(0)">
            <g id="Grupo_120493" data-name="Grupo 120493">
              <g id="Grupo_120492" data-name="Grupo 120492">
                <g id="Grupo_120491" data-name="Grupo 120491">
                  <g id="Grupo_120490" data-name="Grupo 120490">
                    <g id="Grupo_120489" data-name="Grupo 120489">
                      <path id="Trazado_118069" data-name="Trazado 118069" d="M-160.561,416.02a6.892,6.892,0,0,0,2.317,1.086c.755.014,3.2-.647,5.248-.69,1.773-.036,4.172.97,4.318,1.368s-.747.731-1.624.931a17.442,17.442,0,0,1-6.773,0c-1.535-.438-1.842-.792-2.649-.543-.584.18-2.05,1.031-2.251.734-.134-.2,1.792-1.393,1.792-1.393s-1.312-1.593-.961-1.683A.6.6,0,0,1-160.561,416.02Z" transform="translate(161.981 -415.813)" fill="#6edde6"/>
                    </g>
                  </g>
                </g>
              </g>
            </g>
          </g>
        </g>
        <g id="Grupo_120502" data-name="Grupo 120502" transform="translate(318.828 187.579)">
          <g id="Grupo_120501" data-name="Grupo 120501" transform="translate(0)">
            <g id="Grupo_120500" data-name="Grupo 120500">
              <g id="Grupo_120499" data-name="Grupo 120499">
                <g id="Grupo_120498" data-name="Grupo 120498">
                  <g id="Grupo_120497" data-name="Grupo 120497">
                    <g id="Grupo_120496" data-name="Grupo 120496">
                      <path id="Trazado_118070" data-name="Trazado 118070" d="M-185.45,427.133a14.5,14.5,0,0,0,1.69-.21,4.269,4.269,0,0,1,3.253.4,14.622,14.622,0,0,0,7.314,1.936,18.222,18.222,0,0,0,4.308-.773c1.022-.273,1.106-.993.236-1.6a9.456,9.456,0,0,0-2.091-1.07,11.387,11.387,0,0,0-7.359-.388c-1.875.541-3.839.548-5.185-1.4-.214-.312-.721-.423-1.093-.626l-.246.282.991,2.028-1.971,1.009Q-185.526,426.924-185.45,427.133Z" transform="translate(185.602 -423.396)" fill="#6edde6"/>
                    </g>
                  </g>
                </g>
              </g>
            </g>
          </g>
        </g>
        <g id="Grupo_120509" data-name="Grupo 120509" transform="translate(211.308 207.165)">
          <g id="Grupo_120508" data-name="Grupo 120508">
            <g id="Grupo_120507" data-name="Grupo 120507">
              <g id="Grupo_120506" data-name="Grupo 120506">
                <g id="Grupo_120505" data-name="Grupo 120505">
                  <g id="Grupo_120504" data-name="Grupo 120504">
                    <g id="Grupo_120503" data-name="Grupo 120503">
                      <path id="Trazado_118071" data-name="Trazado 118071" d="M-370.5,458.857a5.6,5.6,0,0,0,.6,1.017c.023.145-2.165.732-1.616,1.374.823-.057,1.48-.129,2.138-.14a9.247,9.247,0,0,1,1.865.083c1.467.277,2.906.793,4.381.92a25.6,25.6,0,0,0,8.509-.817,8.028,8.028,0,0,0,3.548-1.672c.529-.478.554-.779-.046-1.129a5.982,5.982,0,0,0-1.582-.657,20.882,20.882,0,0,0-6.3-.51,11.911,11.911,0,0,0-5.437,1.491,4.184,4.184,0,0,1-4.976-.671c-.329-.329-.689-.816-1.242-.531C-371.324,457.96-370.582,458.412-370.5,458.857Z" transform="translate(371.604 -457.278)" fill="#6edde6"/>
                    </g>
                  </g>
                </g>
              </g>
            </g>
          </g>
        </g>
        <g id="Grupo_120516" data-name="Grupo 120516" transform="translate(339.813 203.216)">
          <g id="Grupo_120515" data-name="Grupo 120515" transform="translate(0)">
            <g id="Grupo_120514" data-name="Grupo 120514">
              <g id="Grupo_120513" data-name="Grupo 120513">
                <g id="Grupo_120512" data-name="Grupo 120512">
                  <g id="Grupo_120511" data-name="Grupo 120511">
                    <g id="Grupo_120510" data-name="Grupo 120510">
                      <path id="Trazado_118072" data-name="Trazado 118072" d="M-148.194,452.026a5.634,5.634,0,0,0,.6,1.017c.024.144-2.164.732-1.616,1.374.823-.057,1.48-.129,2.138-.14a9.241,9.241,0,0,1,1.865.083c1.467.277,2.906.792,4.382.92a25.6,25.6,0,0,0,8.509-.817,8.035,8.035,0,0,0,3.548-1.672c.529-.478.553-.779-.046-1.129a5.994,5.994,0,0,0-1.582-.657,20.9,20.9,0,0,0-6.3-.51,11.915,11.915,0,0,0-5.437,1.491,4.183,4.183,0,0,1-4.976-.671c-.328-.329-.689-.816-1.241-.531C-149.021,451.129-148.278,451.581-148.194,452.026Z" transform="translate(149.301 -450.448)" fill="#6edde6"/>
                    </g>
                  </g>
                </g>
              </g>
            </g>
          </g>
        </g>
        <g id="Grupo_120519" data-name="Grupo 120519" transform="translate(238.336 75.021)">
          <g id="Grupo_120518" data-name="Grupo 120518">
            <g id="Grupo_120517" data-name="Grupo 120517">
              <path id="Trazado_118073" data-name="Trazado 118073" d="M-178.433,255.19a24.32,24.32,0,0,0-20.352-.111c-1.274-13.632-13.382-25.426-27.042-26.342s-27.235,9.155-30.319,22.494a21.2,21.2,0,0,0-23.45-5.909,21.2,21.2,0,0,0-12.947,20.426,21.844,21.844,0,0,0-17.674-4.257,21.847,21.847,0,0,0-14.632,10.789l159.342-1.37A24.319,24.319,0,0,0-178.433,255.19Z" transform="translate(324.848 -228.679)" fill="#6edde6"/>
            </g>
          </g>
        </g>
        <g id="Grupo_120522" data-name="Grupo 120522" transform="translate(14.63 73.593)">
          <g id="Grupo_120521" data-name="Grupo 120521">
            <g id="Grupo_120520" data-name="Grupo 120520">
              <path id="Trazado_118074" data-name="Trazado 118074" d="M-565.427,252.722a24.32,24.32,0,0,0-20.352-.112c-1.274-13.631-13.382-25.425-27.042-26.342s-27.234,9.155-30.318,22.494a21.2,21.2,0,0,0-23.45-5.909,21.2,21.2,0,0,0-12.946,20.426,21.848,21.848,0,0,0-17.674-4.257,21.845,21.845,0,0,0-14.632,10.789l159.342-1.37A24.32,24.32,0,0,0-565.427,252.722Z" transform="translate(711.842 -226.21)" fill="#6edde6"/>
            </g>
          </g>
        </g>
        <g id="Grupo_120525" data-name="Grupo 120525" transform="translate(0 10.468)">
          <g id="Grupo_120524" data-name="Grupo 120524">
            <g id="Grupo_120523" data-name="Grupo 120523">
              <path id="Trazado_118075" data-name="Trazado 118075" d="M-630.746,140.13c-2.128-.01-4.451.508-6.248-.632-3.268-2.075-2.839-8.41-6.675-8.927-2.729-.368-4.99,2.974-7.7,2.462-1.836-.347-2.881-2.357-3.107-4.211s.084-3.764-.334-5.585c-.863-3.757-4.846-6.264-8.7-6.229s-7.448,2.183-10.073,5.007-4.431,6.293-6.2,9.717a8.775,8.775,0,0,0-11.355-2.824c-2.043,1.17-3.811,3.257-6.163,3.18-1.45-.047-2.712-.934-4-1.594-5.423-2.771-12.184-2.391-17.86-.182-9.491,3.7-18.348-.6-17.972,1.839a278.9,278.9,0,0,0,108.888,13.734l2.086-2.4C-626.013,141.359-628.618,140.141-630.746,140.13Z" transform="translate(737.151 -117.007)" fill="#6edde6"/>
            </g>
          </g>
        </g>
        <g id="Grupo_120528" data-name="Grupo 120528" transform="translate(295.426 0)">
          <g id="Grupo_120527" data-name="Grupo 120527" transform="translate(0)">
            <g id="Grupo_120526" data-name="Grupo 120526">
              <path id="Trazado_118076" data-name="Trazado 118076" d="M-208.065,135.513c34.158-4.6,59.92-8.342,86.552-20.884-2.147-4.1-14.454,2.317-20.91-.819-1.9-.924-3.695-2.082-5.664-2.854a8.891,8.891,0,0,0-6.193-.418,4.8,4.8,0,0,0-3.292,4.852,11.58,11.58,0,0,0-15.478-1.123,36.473,36.473,0,0,0-14.7-13.45c-3.793-1.891-8.7-2.988-12.023-.364-2.834,2.235-3.38,6.3-3.224,9.9s.773,7.359-.534,10.724a5.906,5.906,0,0,0-7.2-1.187,5.906,5.906,0,0,0-2.515,6.846c-2.4-1.515-5.7-.77-7.918,1s-3.6,4.356-4.929,6.866c5.568,1.327,8.792,1.88,18.021.906" transform="translate(226.086 -98.899)" fill="#6edde6"/>
            </g>
          </g>
        </g>
      </g>
    </g>
    <g id="Grupo_121517" data-name="Grupo 121517" transform="translate(-9574.521 10698.73)">
      <g id="Sea" transform="translate(51.522 193.593)">
        <g id="Grupo_121514" data-name="Grupo 121514">
          <g id="Grupo_121513" data-name="Grupo 121513">
            <g id="Grupo_121512" data-name="Grupo 121512">
              <g id="Grupo_121511" data-name="Grupo 121511">
                <path id="Trazado_118306" data-name="Trazado 118306" d="M451.521,301.263c0,.087-89.55.159-199.99.159-110.479,0-200.009-.072-200.009-.159s89.531-.16,200.009-.16C361.971,301.1,451.521,301.175,451.521,301.263Z" transform="translate(-51.522 -301.103)" fill="#263238" stroke="#707070" stroke-width="3"/>
              </g>
            </g>
          </g>
        </g>
      </g>
      <g id="Island" transform="translate(51.522 24.172)">
        <ellipse id="Elipse_4300" data-name="Elipse 4300" cx="174.32" cy="24.315" rx="174.32" ry="24.315" transform="translate(28.687 182.721)" fill="none" stroke="#263238" stroke-miterlimit="10" stroke-width="3"/>
        <line id="Línea_147" data-name="Línea 147" y2="100.073" transform="translate(204 82.953)" fill="none" stroke="#263238" stroke-miterlimit="10" stroke-width="3"/>
        <line id="Línea_148" data-name="Línea 148" x2="400" transform="translate(0 169.581)" fill="none" stroke="#263238" stroke-miterlimit="10" stroke-width="3"/>
        <path id="Trazado_118307" data-name="Trazado 118307" d="M334.841,159.658,255.249,271.235H414.434Z" transform="translate(-130.612 -76.77)" fill="none" stroke="#263238" stroke-miterlimit="10" stroke-width="3"/>
        <circle id="Elipse_4301" data-name="Elipse 4301" cx="16.415" cy="16.415" r="16.415" transform="translate(47.459 -16.415)" fill="none" stroke="#263238" stroke-miterlimit="10" stroke-width="3"/>
        <circle id="Elipse_4302" data-name="Elipse 4302" cx="16.415" cy="16.415" r="16.415" transform="translate(308.058 -62)" fill="none" stroke="#263238" stroke-miterlimit="10" stroke-width="3"/>
        <circle id="Elipse_4303" data-name="Elipse 4303" cx="16.415" cy="16.415" r="16.415" transform="translate(354.182 102.84)" fill="none" stroke="#263238" stroke-miterlimit="10" stroke-width="3"/>
        <circle id="Elipse_4304" data-name="Elipse 4304" cx="16.415" cy="16.415" r="16.415" transform="translate(311.143 304.641)" fill="none" stroke="#263238" stroke-miterlimit="10" stroke-width="3"/>
        <circle id="Elipse_4305" data-name="Elipse 4305" cx="16.415" cy="16.415" r="16.415" transform="translate(37.232 279.025)" fill="none" stroke="#263238" stroke-miterlimit="10" stroke-width="3"/>
      </g>
    </g>
  </g>
</svg>
