<svg xmlns="http://www.w3.org/2000/svg" xmlns:xlink="http://www.w3.org/1999/xlink" width="87" height="87" viewBox="0 0 87 87">
  <defs>
    <clipPath id="clip-path">
      <rect id="Rect치ngulo_7009" data-name="Rect치ngulo 7009" width="87" height="87" transform="translate(1036 525)" fill="#fff" stroke="#707070" stroke-width="1"/>
    </clipPath>
  </defs>
  <g id="_90" data-name="90" transform="translate(-1036 -525)" clip-path="url(#clip-path)">
    <g id="botanico" transform="translate(1036 522.104)">
      <path id="Trazado_105675" data-name="Trazado 105675" d="M27.549,34.8h37.7v5.8h-37.7Z" fill="#84d9f0"/>
      <path id="Trazado_105676" data-name="Trazado 105676" d="M24.649,27.549h43.5V34.8h-43.5Z" fill="#a5e7f9"/>
      <rect id="Rect치ngulo_7014" data-name="Rect치ngulo 7014" width="52.198" height="47.848" rx="2.9" transform="translate(20.299 40.598)" fill="#a5e7f9"/>
      <path id="Trazado_105677" data-name="Trazado 105677" d="M20.3,82.646v2.9a2.9,2.9,0,0,0,2.9,2.9H69.6a2.9,2.9,0,0,0,2.9-2.9v-2.9Z" fill="#f9c0f9"/>
      <g id="Grupo_55663" data-name="Grupo 55663">
        <path id="Trazado_105678" data-name="Trazado 105678" d="M34.8,56.547H31.9a11.6,11.6,0,0,0,11.6,11.6h2.9A11.6,11.6,0,0,0,34.8,56.547Z" fill="#7ec116"/>
        <path id="Trazado_105679" data-name="Trazado 105679" d="M60.9,56.547H58a11.6,11.6,0,0,0-11.6,11.6h2.9A11.6,11.6,0,0,0,60.9,56.547Z" fill="#7ec116"/>
        <path id="Trazado_105680" data-name="Trazado 105680" d="M37.7,46.4a8.7,8.7,0,0,0,8.7,8.7A8.7,8.7,0,0,0,37.7,46.4Z" fill="#7ec116"/>
        <path id="Trazado_105681" data-name="Trazado 105681" d="M55.1,46.4a8.7,8.7,0,0,0-8.7,8.7A8.7,8.7,0,0,0,55.1,46.4Z" fill="#7ec116"/>
        <path id="Trazado_105682" data-name="Trazado 105682" d="M60.9,71.047H58a11.6,11.6,0,0,0-11.6,11.6h2.9A11.6,11.6,0,0,0,60.9,71.047Z" fill="#7ec116"/>
        <path id="Trazado_105683" data-name="Trazado 105683" d="M34.8,71.047H31.9a11.6,11.6,0,0,0,11.6,11.6h2.9A11.6,11.6,0,0,0,34.8,71.047Z" fill="#7ec116"/>
        <path id="Trazado_105684" data-name="Trazado 105684" d="M7.25,4.35H4.35a11.6,11.6,0,0,0,11.6,11.6h2.9A11.6,11.6,0,0,0,7.25,4.35Z" fill="#7ec116"/>
      </g>
      <path id="Trazado_105685" data-name="Trazado 105685" d="M40.6,23.2l5.8-7.25H34.8Z" fill="#70a514"/>
      <path id="Trazado_105686" data-name="Trazado 105686" d="M55.1,27.549S47.848,40.6,55.1,40.6,55.1,27.549,55.1,27.549Z" fill="#f9c0f9"/>
      <path id="Trazado_105687" data-name="Trazado 105687" d="M18.269,14.5h-2.32A11.6,11.6,0,0,1,4.45,4.35h-.1a11.6,11.6,0,0,0,11.6,11.6h2.9a11.668,11.668,0,0,0-.1-1.45Z" fill="#70a514"/>
      <path id="Trazado_105688" data-name="Trazado 105688" d="M46.377,68.126a13.294,13.294,0,0,0-5.964-3.294,11.618,11.618,0,0,1-8.15-8.285H31.9a11.6,11.6,0,0,0,11.6,11.6h2.9Z" fill="#70a514"/>
      <path id="Trazado_105689" data-name="Trazado 105689" d="M52.382,64.832a13.294,13.294,0,0,0-5.964,3.294l-.02.02h2.9a11.6,11.6,0,0,0,11.6-11.6h-.365a11.618,11.618,0,0,1-8.15,8.285Z" fill="#70a514"/>
      <path id="Trazado_105690" data-name="Trazado 105690" d="M52.382,79.332a13.294,13.294,0,0,0-5.964,3.294l-.02.02h2.9a11.6,11.6,0,0,0,11.6-11.6h-.365a11.618,11.618,0,0,1-8.15,8.285Z" fill="#70a514"/>
      <path id="Trazado_105691" data-name="Trazado 105691" d="M46.377,82.626a13.294,13.294,0,0,0-5.964-3.294,11.618,11.618,0,0,1-8.15-8.285H31.9a11.6,11.6,0,0,0,11.6,11.6h2.9Z" fill="#70a514"/>
      <path id="Trazado_105692" data-name="Trazado 105692" d="M81.989,6.4A4.35,4.35,0,0,0,76,5.007L71.07,8.067l4.592,7.395,4.93-3.062a4.35,4.35,0,0,0,1.4-6Z" fill="#a5e7f9"/>
      <path id="Trazado_105693" data-name="Trazado 105693" d="M71.84,9.3,59.525,16.954l-2.163,4.759,5.224.167L74.9,14.225Z" fill="#f9c0f9"/>
      <path id="Trazado_105694" data-name="Trazado 105694" d="M74.9,14.225l-1.266-2.037-9.89,5.732H59.086l-1.724,3.793,5.224.167Z" fill="#f99ff9"/>
      <path id="Trazado_105695" data-name="Trazado 105695" d="M69.6,85.546H23.2a2.9,2.9,0,0,1-2.9-2.9v2.9a2.9,2.9,0,0,0,2.9,2.9H69.6a2.9,2.9,0,0,0,2.9-2.9v-2.9A2.9,2.9,0,0,1,69.6,85.546Z" fill="#f99ff9"/>
      <path id="Trazado_105696" data-name="Trazado 105696" d="M26.824,63.072A2.175,2.175,0,0,1,24.649,60.9V46.4a2.175,2.175,0,0,1,4.35,0V60.9A2.175,2.175,0,0,1,26.824,63.072Z" fill="#fff" opacity="0.5"/>
      <circle id="Elipse_4205" data-name="Elipse 4205" cx="2.13" cy="2.13" r="2.13" transform="translate(24.694 64.779)" fill="#fff" opacity="0.5"/>
      <path id="Trazado_105697" data-name="Trazado 105697" d="M82.324,7.087,80.055,8.359a3.777,3.777,0,0,1-5.083-1.347l-.6-.995-3.3,2.05,4.592,7.395L80.6,12.4a4.34,4.34,0,0,0,1.728-5.313Z" fill="#84d9f0"/>
      <path id="Trazado_105698" data-name="Trazado 105698" d="M69.6,39.148H66.7v-2.9h1.45A1.45,1.45,0,0,0,69.6,34.8v-7.25a1.45,1.45,0,0,0-1.45-1.45h-5.8a1.45,1.45,0,1,0,0,2.9H66.7v4.35h-4.35a1.45,1.45,0,1,0,0,2.9H63.8v2.9h-1.45a1.45,1.45,0,1,0,0,2.9H69.6a1.45,1.45,0,0,1,1.45,1.45V81.2H57.481a13.025,13.025,0,0,0,4.866-10.15A1.45,1.45,0,0,0,60.9,69.6H58a13.025,13.025,0,0,0-10.15,4.866V69.6H49.3A13.064,13.064,0,0,0,62.347,56.547,1.45,1.45,0,0,0,60.9,55.1H58a13.025,13.025,0,0,0-10.15,4.866V56.431a10.15,10.15,0,0,0,8.7-10.034,1.45,1.45,0,0,0-1.45-1.45A10.15,10.15,0,0,0,46.4,49.9a10.15,10.15,0,0,0-8.7-4.949,1.45,1.45,0,0,0-1.45,1.45,10.15,10.15,0,0,0,8.7,10.034v3.532A13.025,13.025,0,0,0,34.8,55.1H31.9a1.45,1.45,0,0,0-1.45,1.45A13.064,13.064,0,0,0,43.5,69.6h1.45v4.866A13.025,13.025,0,0,0,34.8,69.6H31.9a1.45,1.45,0,0,0-1.45,1.45A13.025,13.025,0,0,0,35.315,81.2H21.749V43.5a1.45,1.45,0,0,1,1.45-1.45H46.4a1.45,1.45,0,1,0,0-2.9H29v-2.9H46.4a1.45,1.45,0,1,0,0-2.9H26.1V29H46.4a1.45,1.45,0,1,0,0-2.9H24.649a1.45,1.45,0,0,0-1.45,1.45V34.8a1.45,1.45,0,0,0,1.45,1.45H26.1v2.9H23.2a4.35,4.35,0,0,0-4.35,4.35V85.546A4.35,4.35,0,0,0,23.2,89.9H69.6a4.35,4.35,0,0,0,4.35-4.35V43.5A4.35,4.35,0,0,0,69.6,39.148ZM53.462,48.033a7.277,7.277,0,0,1-5.429,5.429A7.277,7.277,0,0,1,53.462,48.033Zm-14.128,0a7.277,7.277,0,0,1,5.429,5.429,7.277,7.277,0,0,1-5.429-5.429ZM58,72.5h1.347A10.165,10.165,0,0,1,49.3,81.2H47.951A10.165,10.165,0,0,1,58,72.5ZM58,58h1.347A10.165,10.165,0,0,1,49.3,66.7H47.951A10.165,10.165,0,0,1,58,58ZM43.5,66.7A10.165,10.165,0,0,1,33.451,58H34.8a10.165,10.165,0,0,1,10.047,8.7ZM33.451,72.5H34.8a10.165,10.165,0,0,1,10.047,8.7H43.5a10.165,10.165,0,0,1-10.047-8.7ZM69.6,87H23.2a1.45,1.45,0,0,1-1.45-1.45V84.1h49.3v1.45A1.45,1.45,0,0,1,69.6,87Z"/>
      <path id="Trazado_105699" data-name="Trazado 105699" d="M33.493,15.32a1.45,1.45,0,0,0,.174,1.535l5.8,7.25a1.45,1.45,0,0,0,2.265,0l5.8-7.25A1.45,1.45,0,0,0,46.4,14.5H41.932A10.158,10.158,0,0,0,31.9,5.8H21.749a1.45,1.45,0,1,0,0,2.9H31.9A7.263,7.263,0,0,1,39,14.5H34.8a1.45,1.45,0,0,0-1.3.821ZM43.38,17.4,40.6,20.879,37.816,17.4Z"/>
      <path id="Trazado_105700" data-name="Trazado 105700" d="M22.741,20.224a1.452,1.452,0,1,0,.916-2.755,14.7,14.7,0,0,1-3.375-1.86A13.049,13.049,0,0,0,7.25,2.9H4.35A1.45,1.45,0,0,0,2.9,4.35,13.064,13.064,0,0,0,15.949,17.4h1.841a19.887,19.887,0,0,0,4.95,2.824ZM5.9,5.8H7.25a10.16,10.16,0,0,1,9.723,7.271c-1.839-1.535-3.48-3.075-4.35-3.947a1.45,1.45,0,1,0-2.049,2.05c.129.135,1.492,1.483,3.365,3.119A10.173,10.173,0,0,1,5.9,5.8Z"/>
      <path id="Trazado_105701" data-name="Trazado 105701" d="M75.234,3.77l-3.694,2.3-.766-1.232a1.451,1.451,0,0,0-2.465,1.533l1.53,2.465-11.082,6.89a1.441,1.441,0,0,0-.554.631l-2.165,4.76a1.45,1.45,0,0,0,1.274,2.049l5.22.165h.046a1.44,1.44,0,0,0,.764-.219l11.083-6.889,1.528,2.465a1.451,1.451,0,0,0,2.465-1.533l-.764-1.231,3.7-2.3a5.8,5.8,0,1,0-6.123-9.86ZM62.2,20.416l-2.61-.084,1.082-2.378L71.384,11.3l1.53,2.465ZM81.119,9.359a2.871,2.871,0,0,1-1.292,1.805l-3.694,2.294L73.077,8.534l3.689-2.3a2.9,2.9,0,0,1,4.35,3.122Z"/>
      <path id="Trazado_105702" data-name="Trazado 105702" d="M55.1,42.048a4.283,4.283,0,0,0,4-2.015c2.25-3.821-1.885-11.656-2.733-13.187a1.508,1.508,0,0,0-2.534,0c-.851,1.531-4.983,9.367-2.733,13.187a4.283,4.283,0,0,0,4,2.015Zm0-11.225c1.3,2.969,2.3,6.38,1.5,7.741-.094.159-.344.58-1.5.58s-1.406-.425-1.5-.58C52.8,37.207,53.792,33.792,55.1,30.823Z"/>
    </g>
  </g>
</svg>
